<?xml version="1.0" encoding="utf-8"?>
<!-- Generator: Adobe Illustrator 24.0.1, SVG Export Plug-In . SVG Version: 6.00 Build 0)  -->
<svg version="1.1" xmlns="http://www.w3.org/2000/svg" xmlns:xlink="http://www.w3.org/1999/xlink" x="0px" y="0px"
	 viewBox="0 0 395 326" style="enable-background:new 0 0 395 326;" xml:space="preserve">
<style type="text/css">
	.st0{fill:#FFFFFF;stroke:#000000;stroke-linecap:round;stroke-linejoin:round;}
	.st1{fill:none;stroke:#000000;stroke-width:0.15;stroke-linecap:round;stroke-linejoin:round;}
</style>
<g id="Lager_3">
</g>
<g id="Outer">
	<path class="st0" d="M262.79,172.04c3.2-2.59,3.65-3.81,4.47-4.55c0.81-0.74,1.98-0.99,3.1-1.5c1.12-0.51,2.18-1.27,3.01-2.44
		c0.83-1.17,1.42-2.74,1.6-4.07c0.18-1.33-0.06-2.42-0.3-3.28c-0.24-0.85-0.48-1.47-0.63-2.02c-0.15-0.56-0.22-1.06-0.72-1.52
		c-0.5-0.46-1.44-0.88-2.44-1.07c-0.99-0.2-2.05-0.18-4.64-0.14c-2.6,0.03-6.76,0.08-9.11,0.14c-2.35,0.06-2.9,0.15-3.27,0.18
		c-0.37,0.03-0.57,0.01-0.65-0.41c-0.08-0.43-0.03-1.26-0.18-2.44c-0.15-1.18-0.5-2.71-0.84-3.81c-0.34-1.1-0.66-1.76-0.98-2.25
		c-0.32-0.49-0.63-0.8-0.73-1.24c-0.1-0.44,0.03-1,0.56-1.76c0.53-0.75,1.48-1.69,2.48-2.66c1-0.97,2.07-1.98,2.98-2.57
		c0.91-0.59,1.66-0.78,2.7-2.04c1.04-1.25,2.35-3.57,3.73-5.67c1.38-2.1,2.82-3.98,4.36-5.68c1.54-1.69,3.17-3.2,4.14-4.42
		c0.97-1.22,1.28-2.16,1.85-2.82c0.57-0.66,1.38-1.03,2.07-1.38c0.69-0.34,1.25-0.66,2.79-2.29c1.54-1.63,4.04-4.58,6.55-6.99
		c2.51-2.41,5.01-4.3,6.46-5.49c1.44-1.19,1.82-1.69,2.32-1.97c0.5-0.28,1.13-0.35,1.85-0.97c0.72-0.63,1.54-1.82,3.01-2.85
		c1.48-1.03,3.61-1.91,5.46-2.88c1.85-0.97,3.42-2.04,4.89-3.39c1.48-1.35,2.85-2.98,4.33-4.29c1.47-1.32,3.04-2.32,3.98-3.29
		c0.94-0.97,1.26-1.91,1.82-2.48c0.57-0.56,1.38-0.75,2.54-1.6c1.16-0.85,2.67-2.35,3.64-3.61c0.97-1.25,1.41-2.26,3.39-3.02
		c1.98-0.76,5.49-1.28,8.09-1.46c2.59-0.18,4.27-0.02,5.64-0.49c1.38-0.47,2.46-1.58,4.01-2.48c1.55-0.9,3.57-1.61,3.91-2.09
		c0.34-0.48-1.01-0.76-2.02-1.19c-1.01-0.43-1.69-1.02-1.31-1.34c0.38-0.31,1.81-0.34,3.25-0.67c1.44-0.34,2.9-0.99,4.25-1.52
		c1.35-0.54,2.59-0.97,3.08-1.53c0.49-0.55,0.22-1.23,0.16-1.81c-0.06-0.58,0.11-1.07,0.25-1.58c0.15-0.51,0.28-1.05,0.78-1.32
		c0.5-0.27,1.37-0.27,2.07-0.34c0.7-0.07,1.24-0.2,1.9-0.5c0.66-0.3,1.44-0.76,2.21-1.22c0.77-0.46,1.53-0.92,1.94-1.43
		c0.42-0.51,0.5-1.08,0.58-1.57c0.08-0.48,0.16-0.89,0.55-0.86c0.39,0.03,1.1,0.49,2.19,0.05c1.09-0.43,2.58-1.75,3.52-2.87
		c0.94-1.12,1.35-2.04,1.28-2.48c-0.07-0.45-0.61-0.42-1.19-0.4c-0.58,0.01-1.2,0.01-1.5-0.11c-0.3-0.12-0.27-0.36,0.36-0.63
		c0.63-0.27,1.88-0.57,3.01-1.09c1.13-0.53,2.16-1.28,3.2-2.16c1.04-0.88,2.09-1.88,2.43-2.37c0.33-0.5-0.04-0.5-0.57-0.62
		c-0.52-0.12-1.2-0.37-1.08-0.65c0.12-0.28,1.04-0.61,1.82-1.11c0.78-0.5,1.43-1.18,1.58-1.52c0.15-0.35-0.2-0.38-1.37-0.39
		c-1.17-0.01-3.16-0.01-10,1.74c-6.85,1.75-18.55,5.26-27.91,7.95c-9.35,2.69-16.36,4.57-24.36,7.26c-8,2.69-16.99,6.2-23.74,9.65
		c-6.75,3.45-11.27,6.86-16.87,12.63c-5.59,5.77-12.26,13.9-17.83,20.71c-5.57,6.81-10.04,12.29-13.01,16.08
		c-2.97,3.78-4.44,5.87-6.09,6.78c-1.65,0.91-3.48,0.66-4.62-0.2c-1.14-0.86-1.6-2.34-2.69-3.25c-1.09-0.91-2.82-1.27-4.45-1.45
		c-1.62-0.18-3.15-0.18-4.77-0.05c-1.62,0.12-3.35,0.38-4.6,0.58c-1.24,0.2-2.01,0.35-2.64,1.62c-0.63,1.27-1.14,3.66-1.73,5.77
		c-0.58,2.11-1.24,3.93-2.13,5.59c-0.89,1.65-2,3.12-3.58,4.47c-1.57,1.35-3.61,2.57-7.25,3.29c-3.65,0.73-8.9,0.95-19.56-0.27
		c-11.47-1.95-25.23-3.31-33.64-3.93c-8.4-0.61-11.44-0.49-13.92-0.64c-2.47-0.14-4.36-0.56-6.19-0.93c-1.83-0.37-3.6-0.7-4.94-0.57
		c-1.34,0.12-2.24,0.7-5.04,1.19c-2.81,0.49-7.51,0.9-11.36,1.33c-3.85,0.43-6.86,0.88-10.87,1.56c-4.01,0.68-9.03,1.58-15.92,3
		c-6.89,1.42-15.65,3.35-24.29,5.16c-8.64,1.81-17.15,3.5-24,4.55c-6.85,1.05-12.03,1.46-15.16,1.89c-3.13,0.43-4.2,0.89-4.28,1.34
		c-0.08,0.45,0.82,0.91,2.16,1.65c1.34,0.74,3.1,1.77,3.8,2.65c0.7,0.88,0.33,1.63,0.41,2.43c0.09,0.8,0.62,1.67,1.89,2.2
		c1.27,0.54,3.29,0.74,4.51,1.24c1.21,0.49,1.62,1.27,2.18,1.99c0.55,0.72,1.26,1.38,2.37,1.65c1.11,0.27,2.63,0.14,3.78,0.52
		c1.15,0.37,1.93,1.23,3.25,1.83c1.31,0.6,3.17,0.93,4.85,0.8c1.68-0.12,3.21-0.7,4.54-0.72c1.34-0.02,2.49,0.52,4.49,1.15
		c1.99,0.64,4.83,1.38,7.86,1.11c3.02-0.27,6.23-1.54,8.97-2.86c2.74-1.32,5-2.67,6.68-3.21c1.69-0.54,2.8-0.25,4.67,0.25
		c1.87,0.49,4.51,1.19,6.52,1.23c2.01,0.04,3.41-0.58,5.13-0.73c1.71-0.15,3.74,0.16,5,0.5c1.26,0.34,1.76,0.71,2.91,0.64
		c1.15-0.07,2.95-0.57,4.53-0.5c1.58,0.06,2.95,0.7,4.28,1.38c1.33,0.68,2.63,1.42,3.8,1.48c1.17,0.07,2.2-0.53,2.95-0.61
		c0.75-0.09,1.21,0.35,2.53,0.55c1.31,0.2,3.48,0.17,4.58,0.15c1.1-0.02,1.13-0.02,2.25,0.15c1.12,0.17,3.31,0.5,5.05-0.15
		c1.73-0.65,3-2.28,4.28-2.53c1.28-0.25,2.58,0.88,3.91,1.4c1.33,0.52,2.7,0.42,3.93,0.38c1.23-0.03,2.33,0,3.5,0.14
		c1.16,0.14,2.4,0.37,3.12,0.27c0.73-0.1,0.94-0.53,1.57-0.61c0.63-0.08,1.69,0.19,2.58,0.57c0.89,0.38,1.62,0.86,2.51,0.84
		c0.89-0.03,1.94-0.57,2.7-0.7c0.75-0.14,1.21,0.13,2.14,0.24c0.93,0.11,2.34,0.05,3.5,0.01c1.16-0.04,2.08-0.07,3.09,0.3
		c1.01,0.37,2.12,1.12,3.14,1.29c1.03,0.18,1.97-0.23,3.01-0.46c1.04-0.23,2.17-0.28,3.37-0.16c1.2,0.12,2.47,0.42,3.43,0.28
		c0.96-0.13,1.61-0.7,2.71-0.4c1.11,0.3,2.67,1.46,3.87,1.74c1.2,0.28,2.04-0.31,3.48-0.61c1.44-0.3,3.5-0.31,5.07,0.06
		c1.57,0.36,2.68,1.1,3.64,1.43c0.97,0.33,1.8,0.27,2.8,0.28c1,0.02,2.17,0.12,3.45,0.37c1.29,0.25,2.69,0.65,3.85,0.65
		c1.16,0,2.1-0.4,2.78-0.38c0.68,0.02,1.12,0.45,1.68,0.58c0.57,0.13,1.27-0.03,1.65,0.37c0.39,0.4,0.45,1.37,0.6,2.65
		c0.15,1.28,0.38,2.88,0.35,4.1c-0.03,1.21-0.33,2.05-0.52,2.85c-0.18,0.8-0.25,1.57-0.45,2.28c-0.2,0.72-0.53,1.38-1.48,2.48
		c-0.95,1.1-2.52,2.63-4.2,4.78c-1.68,2.15-3.48,4.92-5.15,6.9c-1.67,1.98-3.2,3.18-4.91,4.56c-1.71,1.38-3.6,2.94-4.79,3.84
		c-1.19,0.9-1.69,1.15-2.05,1.43c-0.36,0.27-0.59,0.58-0.72,0.99c-0.12,0.42-0.14,0.95,0.19,1.55c0.33,0.6,1,1.27,1.54,1.76
		c0.54,0.49,0.95,0.79,1.4,0.94c0.46,0.16,0.96,0.17,1.25,0.2c0.3,0.03,0.39,0.09,0.47,0.27c0.08,0.18,0.15,0.48,0.1,0.96
		c-0.04,0.48-0.21,1.13-0.18,1.74c0.03,0.61,0.25,1.2,0.82,1.7c0.56,0.5,1.47,0.92,2.47,1.18c1,0.27,2.09,0.39,2.77,0.4
		c0.67,0.01,0.93-0.08,1.15-0.1c0.23-0.02,0.42,0.03,0.63,0.31c0.22,0.28,0.46,0.79,0.99,1.25c0.53,0.46,1.34,0.86,2.49,0.99
		c1.14,0.12,2.63-0.04,3.85-0.27c1.21-0.23,2.16-0.52,2.62-0.29c0.46,0.23,0.43,0.99,1.32,1.43c0.89,0.44,2.7,0.58,4.12,0.34
		c1.41-0.24,2.43-0.85,3.17-1.31c0.74-0.46,1.2-0.76,1.66-1.05c0.46-0.29,0.92-0.57,1.15-0.6c0.23-0.03,0.23,0.2,0.51,0.5
		c0.27,0.3,0.82,0.67,1.65,0.99c0.82,0.32,1.92,0.58,2.45,0.84c0.53,0.26,0.5,0.5,1.08,0.4c0.58-0.11,1.79-0.57,2.83-1.05
		c1.04-0.49,1.93-1,2.33-1.61c0.4-0.61,0.31-1.32,0.36-1.72c0.04-0.4,0.22-0.49,0.47-0.8c0.25-0.31,0.57-0.84,0.98-1.28
		c0.42-0.44,0.93-0.8,1.29-1.2c0.36-0.4,0.58-0.84,0.99-0.82c0.41,0.02,1.01,0.5,1.5,1.28c0.49,0.79,0.86,1.89,1.31,2.93
		c0.45,1.04,0.99,2.04,1.6,3.19c0.62,1.15,1.33,2.46,1.8,3.61c0.47,1.15,0.7,2.14,1.35,2.77c0.65,0.63,1.74,0.89,2.56,1.28
		c0.82,0.39,1.39,0.9,1.83,1.16c0.44,0.26,0.76,0.26,0.92,0c0.16-0.26,0.16-0.77,0.05-1.45c-0.11-0.68-0.32-1.53-0.66-2.35
		c-0.33-0.82-0.8-1.59-1.1-2.62c-0.31-1.03-0.47-2.3-0.95-3.63c-0.48-1.33-1.27-2.71-2.09-3.85c-0.82-1.14-1.67-2.04-2.12-2.66
		c-0.45-0.63-0.52-0.97-0.23-1.16c0.28-0.18,0.92-0.21,1.53-0.34c0.61-0.13,1.2-0.37,1.64-0.3c0.44,0.08,0.73,0.47,1.01,0.65
		c0.28,0.18,0.57,0.13,1.4-0.18c0.83-0.32,2.21-0.91,3.02-1.87c0.82-0.96,1.09-2.3,0.69-3.52c-0.39-1.23-1.44-2.34-1.52-3.19
		c-0.08-0.85,0.82-1.44,1.15-1.93c0.33-0.49,0.09-0.89,0.1-1.54c0.01-0.65,0.27-1.57,0.58-2.1c0.31-0.52,0.66-0.65,0.88-0.52
		c0.22,0.13,0.31,0.52,0.46,0.92c0.15,0.39,0.37,0.78,0.56,1.25c0.19,0.47,0.34,1.02,0.37,1.66c0.03,0.65-0.05,1.39,0.22,2.09
		c0.27,0.7,0.91,1.36,1.43,2.34c0.52,0.98,0.94,2.29,1.73,4.24c0.79,1.94,1.94,4.52,2.66,6.09c0.71,1.56,0.97,2.11,1.17,2.21
		c0.2,0.1,0.33-0.25,0.56-0.94c0.23-0.69,0.56-1.72,0.74-2.57c0.18-0.85,0.23-1.53,0.09-2.61c-0.14-1.09-0.47-2.57-0.95-3.98
		c-0.48-1.41-1.11-2.74-1.7-4.11c-0.59-1.37-1.14-2.76-1.55-3.78c-0.41-1.02-0.7-1.65-0.99-2.16c-0.3-0.51-0.6-0.91-0.66-1.2
		c-0.06-0.29,0.14-0.49,0.76-0.63c0.62-0.14,1.67-0.23,2.34-0.58c0.67-0.35,0.95-0.96,1.06-1.74c0.11-0.78,0.05-1.72,0.08-2.5
		c0.03-0.79,0.16-1.42-0.02-2.17c-0.19-0.74-0.69-1.59-1.12-2.56c-0.44-0.96-0.81-2.04-1.24-2.79c-0.43-0.75-0.92-1.18-1.27-1.58
		c-0.35-0.39-0.57-0.75-0.33-0.94C261.13,172.63,261.81,172.61,262.79,172.04z"/>
	<path class="st0" d="M129.8,217.85c1-0.15,2.33-0.35,4.59-0.5c2.26-0.15,5.46-0.26,9-0.23c3.54,0.03,7.43,0.21,10.6,0.29
		c3.17,0.08,5.62,0.05,7.4,0.25c1.78,0.2,2.9,0.61,4.09,1.11c1.19,0.5,2.46,1.09,3.78,1.46c1.32,0.36,2.7,0.49,3.95,0.74
		c1.26,0.25,2.4,0.62,3.04,1.28c0.64,0.65,0.8,1.59,0.88,2.54c0.09,0.94,0.11,1.88,0.29,3.18c0.19,1.3,0.54,2.96,1.09,4.57
		c0.56,1.61,1.32,3.16,2.29,4.42c0.97,1.26,2.16,2.22,3.23,2.94c1.07,0.72,2.03,1.2,3.05,1.48c1.02,0.27,2.09,0.34,2.94,0.37
		c0.84,0.03,1.46,0.03,3.27-0.32c1.81-0.35,4.81-1.05,6.6-1.27c1.79-0.23,2.37,0.02,2.77,0.29c0.4,0.27,0.63,0.57,0.97,0.82
		c0.33,0.25,0.76,0.44,1.19,0.56c0.42,0.11,0.84,0.14,1.31,0.13c0.48-0.01,1.01-0.06,1.55-0.08c0.54-0.02,1.08-0.02,1.54,0.07
		c0.46,0.09,0.86,0.28,1.09,0.42c0.23,0.14,0.29,0.23,0.37,0.37c0.08,0.14,0.18,0.31,0.23,0.46c0.05,0.14,0.06,0.26-0.07,0.34
		c-0.12,0.08-0.39,0.13-0.7,0.16c-0.32,0.03-0.69,0.05-1.14,0.14c-0.46,0.09-1,0.25-1.6,0.33c-0.59,0.09-1.23,0.1-1.8,0.13
		c-0.57,0.04-1.07,0.1-1.63,0.36c-0.56,0.25-1.19,0.7-2.06,1.23c-0.87,0.54-1.99,1.17-2.83,1.75c-0.86,0.58-1.44,1.1-1.73,1.51
		c-0.29,0.4-0.26,0.69-0.1,1.01c0.16,0.32,0.47,0.67,0.75,1.05c0.29,0.38,0.55,0.8,1.15,1.4c0.6,0.6,1.54,1.39,2.46,2.08
		c0.92,0.69,1.82,1.28,3.36,1.96c1.54,0.68,3.72,1.45,5.92,1.84c2.2,0.39,4.41,0.39,5.8,1.01c1.39,0.62,1.95,1.86,2.74,3.63
		c0.78,1.77,1.78,4.06,2.69,6.07c0.9,2.01,1.71,3.74,2.44,5.55c0.73,1.81,1.38,3.7,2.45,6.52c1.07,2.82,2.57,6.58,3.54,9.39
		c0.98,2.81,1.43,4.67,1.74,7.18c0.31,2.52,0.46,5.68,0.61,8.13c0.15,2.45,0.31,4.17,0.18,4.86c-0.12,0.69-0.53,0.33-1.01-0.43
		c-0.48-0.76-1.04-1.93-1.63-2.54c-0.58-0.61-1.2-0.66-1.7-0.81c-0.51-0.15-0.91-0.41-1.09-0.91c-0.18-0.51-0.13-1.27-0.63-1.65
		c-0.51-0.38-1.57-0.38-2.34-0.71c-0.76-0.33-1.22-0.99-1.44-1.55c-0.23-0.56-0.23-1.02-0.89-1.84c-0.66-0.82-1.98-2.01-2.82-3.08
		c-0.84-1.07-1.19-2.01-1.68-2.66c-0.48-0.65-1.09-1-1.5-1.95c-0.41-0.94-0.61-2.46-0.97-3.78c-0.35-1.32-0.86-2.44-1.35-3.51
		c-0.48-1.06-0.94-2.08-1.42-3.27c-0.48-1.2-0.99-2.57-1.64-3.46c-0.65-0.9-1.43-1.33-2.61-2.03c-1.17-0.7-2.74-1.67-4.44-2.47
		c-1.7-0.8-3.53-1.42-4.63-2.06c-1.09-0.65-1.44-1.32-2.04-1.57c-0.59-0.24-1.43-0.05-2.27-0.42c-0.84-0.37-1.68-1.28-2.93-2.28
		c-1.26-1-2.93-2.08-4.17-2.75c-1.24-0.67-2.05-0.94-2.86-1.04c-0.81-0.09-1.62-0.01-2.47,0.34c-0.85,0.35-1.74,0.97-2.42,1.67
		c-0.67,0.7-1.13,1.48-1.65,2.58c-0.51,1.09-1.08,2.5-1.54,3.9c-0.46,1.4-0.81,2.81-1.57,3.9c-0.76,1.09-1.92,1.88-2.84,2.34
		c-0.92,0.46-1.59,0.59-2.21,0.48c-0.62-0.11-1.19-0.46-1.86-0.88c-0.68-0.42-1.46-0.9-2.16-1.43c-0.7-0.52-1.32-1.09-1.71-1.63
		c-0.39-0.54-0.56-1.05-1.05-1.48c-0.5-0.43-1.34-0.78-2.05-1.28c-0.71-0.5-1.31-1.15-1.8-1.86c-0.48-0.72-0.86-1.5-1.08-2.35
		c-0.21-0.85-0.27-1.77,0-2.43c0.27-0.66,0.86-1.07,1.86-1.5c1-0.43,2.4-0.89,3.48-1.36c1.08-0.47,1.84-0.96,2.74-1.48
		c0.9-0.53,1.96-1.09,2.87-1.57c0.92-0.47,1.7-0.85,2.39-1.28c0.69-0.43,1.28-0.92,1.59-1.39c0.31-0.47,0.34-0.93,0.14-1.4
		c-0.2-0.47-0.63-0.96-1.24-1.51c-0.6-0.55-1.37-1.17-2.46-2.45c-1.08-1.28-2.49-3.21-3.83-5.48c-1.35-2.27-2.65-4.87-3.8-7.11
		c-1.15-2.25-2.15-4.15-2.87-5.66c-0.72-1.52-1.15-2.65-1.63-3.5c-0.48-0.85-1.01-1.41-1.6-1.8c-0.58-0.38-1.22-0.58-2.16-0.75
		c-0.95-0.17-2.22-0.3-3.05-0.39c-0.83-0.08-1.22-0.12-1.88-0.05c-0.65,0.08-1.57,0.26-2.37,0.37c-0.79,0.11-1.47,0.16-2.11,0.04
		c-0.64-0.12-1.23-0.4-1.75-0.41c-0.51-0.01-0.95,0.25-1.33,0.23c-0.38-0.02-0.71-0.33-1.01-0.59c-0.3-0.27-0.59-0.5-1.03-0.65
		c-0.44-0.15-1.04-0.22-1.34-0.46c-0.29-0.25-0.28-0.67-0.49-0.98c-0.22-0.31-0.66-0.49-0.94-0.65c-0.29-0.16-0.42-0.3-0.49-0.55
		c-0.07-0.25-0.07-0.62-0.26-0.85c-0.18-0.23-0.53-0.33-1.16-0.55c-0.63-0.22-1.55-0.55-1.94-0.89c-0.39-0.33-0.25-0.67-0.49-0.88
		c-0.24-0.21-0.86-0.29-1.62-0.39c-0.76-0.1-1.67-0.21-2.33-0.48c-0.66-0.27-1.06-0.68-1.2-0.93c-0.14-0.25-0.01-0.33,0.38-0.42
		C128.15,218.1,128.81,218,129.8,217.85z"/>
</g>
<g id="Inner">
	<path class="st1" d="M213.93,212.15c3.82-4.75,6.44-9.41,7.86-13.98"/>
	<path class="st1" d="M140.26,226.56c2.17-0.35,5.95-1.13,11.33-2.33"/>
	<path class="st1" d="M231.34,293.03c1.31,8.52,1.39,9.96,0.91,10.34c-0.48,0.38-1.53-0.27-2.07-0.78c-0.54-0.5-0.57-0.84-0.57-0.84
		s0.03,0.34-0.12,0.82c-0.15,0.48-0.47,1.1-0.96,0.97c-0.49-0.14-1.15-1.04-1.5-1.62c-0.35-0.59-0.38-0.87-0.59-0.84
		c-0.21,0.03-0.6,0.35-1.19,0.5c-0.59,0.15-1.39,0.12-1.81-0.24c-0.42-0.36-0.46-1.05-0.49-1.56c-0.03-0.51-0.05-0.83-0.15-1.04
		c-0.1-0.21-0.29-0.29-0.52-0.41c-0.22-0.11-0.49-0.25-0.89-0.62c-0.41-0.37-0.95-0.95-1.22-1.48c-0.27-0.53-0.26-1-0.56-1.19
		c-0.29-0.19-0.89-0.11-1.49-0.42c-0.6-0.32-1.2-1.03-2.2-3.45"/>
	<path class="st1" d="M20.09,145.14c2.34,0.87,3.18,0.89,4.24,0.7c1.06-0.19,2.33-0.58,4.5-1.2c2.16-0.61,5.21-1.45,11.21-3
		c6-1.55,14.95-3.81,27.15-7.42"/>
	<path class="st1" d="M26.84,150.8c3.88,0.02,8.34-1.33,12.26-2.85c3.92-1.53,7.31-3.23,12.45-5.1c5.14-1.87,12.02-3.9,26.06-8.1"/>
	<path class="st1" d="M33.75,154.66c5.29-0.48,11.09-3.27,16.34-5.7c5.25-2.43,9.95-4.51,14.5-6.7c4.55-2.18,8.94-4.48,17.99-6.77"
		/>
	<path class="st1" d="M45.79,157.09c7.34-2.58,14.1-6.78,18.83-9.52c4.74-2.74,7.45-4.03,11.02-5.63c3.57-1.6,7.99-3.5,12.39-4.94"
		/>
	<path class="st1" d="M106.68,135.77c-7.53,4.6-13.09,9.36-16.69,14.29"/>
	<path class="st1" d="M112.58,135.47c-4.87,5.6-8.77,10.9-11.7,15.89"/>
	<path class="st1" d="M122.68,135.62c-2.2,2.6-3.73,6.06-4.6,10.4"/>
	<path class="st1" d="M118.48,134.82c-3.33,4.13-5.9,9.5-7.7,16.09"/>
	<path class="st1" d="M131.08,135.42c-2.2,5.33-3.3,9.83-3.3,13.49"/>
	<path class="st1" d="M215,163.38c-1.28-3.71-2.68-6.81-4.46-9.44c-1.78-2.63-3.95-4.8-6.08-7.08c-2.13-2.28-4.23-4.68-11.03-6.48"
		/>
	<path class="st1" d="M213.4,159.24c-1.96-7.98-2.96-12.37-3.26-17.77"/>
	<path class="st1" d="M217.87,110.33c-0.48,0.56-0.41,1.05-0.25,1.34c0.16,0.29,0.42,0.38,0.79,0.06c0.37-0.31,0.84-1.02,0.54-1.32"
		/>
	<path class="st1" d="M217.66,111.73c-0.08-0.94,0.2-1.05,0.38-1.11c0.18-0.06,0.25-0.06,0.34-0.01c0.08,0.04,0.17,0.13,0.37,0.74"
		/>
	<path class="st1" d="M218.77,116.21c1.92-2.69,2.39-3.4,2.73-3.97c0.34-0.57,0.55-1,0.8-1.41c0.26-0.41,0.56-0.79,0.88-0.99
		c0.32-0.2,0.66-0.23,1.06,0.04c0.41,0.27,0.88,0.82,1.29,1.37c0.41,0.55,0.74,1.08,1.04,1.46c0.3,0.38,0.56,0.6,0.89,0.81
		c0.35,0.22,0.78,0.42,1.24,0.69c0.46,0.26,0.95,0.58,1.45,1.04c0.5,0.47,1.03,1.1,1.62,2.01"/>
	<path class="st1" d="M222.26,110.9c-0.87,2.72-0.65,3.92-0.44,4.73c0.21,0.81,0.41,1.24,0.71,1.71c0.31,0.47,0.72,0.98,1.03,0.97
		c0.31,0,0.53-0.52,0.69-1.02c0.15-0.5,0.25-0.99,0.34-1.73c0.08-0.74,0.15-1.74,0.1-3.45"/>
	<path class="st1" d="M224.09,117.71c1.43-2.27,1.8-2.7,2.19-2.91c0.39-0.22,0.8-0.22,1.5-0.19c0.69,0.02,1.65,0.07,2.99,1.3"/>
	<path class="st1" d="M221.81,115.63c-0.61-1.21-1.09-1.35-1.74-0.81"/>
	<path class="st1" d="M230.09,110.33c1.53-0.98,2.34-0.86,2.92-0.43c0.58,0.43,0.95,1.16,1.09,2.03"/>
	<path class="st1" d="M231.53,109.66c-0.74,1.27-0.78,1.67-0.58,2.09c0.2,0.42,0.63,0.86,0.94,0.92c0.31,0.05,0.5-0.28,0.8-0.89
		c0.31-0.61,0.73-1.48-0.01-2.07"/>
	<path class="st1" d="M231.59,111.26c-0.03-0.24-0.02-0.53,0.08-0.73c0.11-0.2,0.31-0.3,0.48-0.32c0.18-0.01,0.32,0.06,0.43,0.26
		c0.12,0.2,0.21,0.54,0.21,0.79c0,0.26-0.09,0.44-0.28,0.54c-0.19,0.09-0.49,0.08-0.67-0.01
		C231.67,111.69,231.62,111.5,231.59,111.26z"/>
	<path class="st1" d="M244.44,110.97c-2.75,2.51-3.24,4.74-2.85,7.36c0.39,2.63,1.66,5.65,2.89,7.96c1.23,2.31,2.42,3.9,3.4,6.27
		c0.98,2.38,1.75,5.53,2.61,9.1"/>
	<path class="st1" d="M244.44,110.97c11.15-13.8,17.25-21.3,23.31-28.69c6.06-7.4,12.08-14.69,17.98-19.94
		c5.91-5.25,11.71-8.45,18.46-11.05c6.75-2.6,14.44-4.6,22.51-6.79c8.08-2.19,16.54-4.58,53.28-16.77"/>
	<path class="st1" d="M379.7,31.17c-7.89,1.77-32.07,10.78-49.6,15.34"/>
	<path class="st1" d="M371.85,38.02c-9.32,1.63-18.27,3.01-26.86,4.15"/>
	<path class="st1" d="M367.5,44.15c-11.72-0.35-30.23,3.22-46.28,7.67"/>
	<path class="st1" d="M357.74,51.11c-14.43,0.71-29.36,0.95-41.58,5.52"/>
	<path class="st1" d="M346.59,58.8c-7.78,0.59-11.43,0.34-15.11-0.21c-3.67-0.55-7.37-1.4-9.47-1.4"/>
	<path class="st1" d="M329.28,67.2c-4.27-1-9.27-2.77-15-5.3"/>
	<path class="st1" d="M308.28,64.5c4.27,3.6,7.49,6,9.7,7.2"/>
	<path class="st1" d="M302.78,66.79c6.07,2.73,9.6,5.13,10.6,7.2"/>
	<path class="st1" d="M301.88,69.09c4.7,5.7,5.7,8.6,6.1,10.79"/>
	<path class="st1" d="M297.25,71.81c4.19,3.95,6.5,8.22,6.91,12.83"/>
	<path class="st1" d="M293.55,73.9c3.95,5.35,6.04,11.1,6.28,17.25"/>
	<path class="st1" d="M290.59,82.42c2.38,1.73,3.78,4.03,4.2,6.91"/>
	<path class="st1" d="M196.28,204.44c7.68-4.74,14.84-16.78,21.09-22.88"/>
	<path class="st1" d="M203.46,210.16c4.8-3.52,8.73-9.04,11.77-16.56"/>
	<path class="st1" d="M135.66,222.44c3.93-0.5,13.44-2.94,17.85-1.98"/>
	<path class="st1" d="M253.27,151.58c0.69,7.34-0.06,10.24,0.04,12.21c0.11,1.97,1.08,3,1.54,4.42c0.46,1.42,0.41,3.21-0.79,7.71"/>
	<path class="st1" d="M251.7,170.23c2.36,5.69,1.95,6.45,2.49,8.18c0.54,1.74,2.04,4.45,6.8,10.62"/>
	<path class="st1" d="M248.32,170.88c0.37,2.84,1.79,4.51,3.35,6.59c1.56,2.08,3.27,4.58,4.16,6.61c0.9,2.03,0.98,3.6,1.63,6.84"/>
	<path class="st1" d="M231.88,180.86c1.11,7.77,2.28,8.88,3.33,10.37c1.04,1.48,1.94,3.33,2.82,4.79c0.88,1.45,1.74,2.51,2.23,3.51
		c0.49,1.01,0.62,1.96,0.68,3.23c0.06,1.26,0.06,2.83,1.46,5.03"/>
	<path class="st1" d="M233.72,181.19c0.79,1.06,1.43,1.54,2.01,1.9c0.58,0.35,1.09,0.58,1.38,1.28c0.29,0.7,0.37,1.87,0.43,2.99
		c0.06,1.12,0.12,2.2,0.42,3.39c0.3,1.19,0.85,2.48,1.79,4.42c0.94,1.93,2.27,4.51,6.26,9.28"/>
	<path class="st1" d="M219.98,178.78c2.1,6.9,3.1,9.05,4.18,10.79c1.08,1.74,2.25,3.07,3.01,4.14c0.77,1.07,1.13,1.87,1.82,2.47
		c0.68,0.6,1.68,1,1.08,4.2"/>
	<line class="st1" x1="232.27" y1="194.48" x2="235.11" y2="191.09"/>
	<path class="st1" d="M237.69,189.38c2.38-2.8,4.93-4.15,6.2-5.75c1.27-1.6,1.27-3.45,2.57-7.65"/>
	<path class="st1" d="M226.24,201.51c0.41,3.95,0.11,7.1-0.9,9.45"/>
	<path class="st1" d="M233.81,197.47c2.1,4.5,3,8.47,2.73,11.9"/>
	<path class="st1" d="M274.49,161.37c-3.68,0.39-9.06,0.28-16.13-0.31"/>
	<path class="st1" d="M268.23,166.86c-1.57,1.51-6.24,1.49-13.99-0.07"/>
	<path class="st1" d="M262.59,183.97c-2.51-3.49-4.7-6.97-5.68-7.29"/>
	<path class="st1" d="M253.9,195.35c-1.32-3.15-2.92-6.65-5.32-9.75"/>
	<path class="st1" d="M249.45,203.17c-1.47-4.37-1.77-10.77-3.77-13.96"/>
	<path class="st1" d="M55.88,133.13c-15.2,4.44-15.98,5.28-16,5.92c-0.02,0.63,0.71,1.06,3.8,1.66"/>
	<path class="st1" d="M40.66,141.48c-4.47,1.16-5.12,2.91-4.49,4.27c0.63,1.37,2.53,2.35,5.04,1.34"/>
	<path class="st1" d="M41.2,147.1c-4.85,1.85-3.16,4.55,5.61,3.37"/>
	<path class="st1" d="M43.51,151.91c-0.21,1.93,2.28,5.18,6.24,3.62"/>
	<path class="st1" d="M56.77,152.07c-2.84,1.49-1.88,3.33-0.98,4.33c0.9,1,1.74,1.16,2.72,1.56c0.99,0.41,2.13,1.05,7.11-0.28"/>
	<path class="st1" d="M344.89,39.15c17.97-4.41,20.9-4.56,21.72-4.23c0.82,0.33-0.46,1.15-1.31,1.67c-0.85,0.52-1.27,0.75-1.33,1.14
		c-0.05,0.4,0.26,0.96,0.32,1.53c0.06,0.56-0.13,1.13-0.45,1.59c-0.32,0.46-0.77,0.82-0.97,1.18c-0.2,0.37-0.16,0.74-0.2,1.11
		c-0.04,0.37-0.18,0.72-0.38,1.09c-0.2,0.37-0.45,0.76-0.34,1.15c0.11,0.38,0.58,0.76,0.81,1.55c0.22,0.79,0.2,1.99-3.29,2.84"/>
	<path class="st1" d="M353.79,51.3c1.21,2.93-0.4,5.15-4.81,6.67"/>
	<path class="st1" d="M132.07,220.22c4.38-0.46,9.08-0.86,12.67-1.2c3.59-0.35,6.06-0.64,9.56-0.1"/>
	<path class="st1" d="M137.79,224.78c2.96-0.35,10.5-2.68,12.15-2.79"/>
	<path class="st1" d="M192.4,241.58c-6.56,2.2-14.33,8.6-17.25,13.62"/>
	<path class="st1" d="M174.26,259.25c-2.51,5.91-5.66,10.37-7.21,11.66"/>
	<path class="st1" d="M181.63,261.84c-2.84,6.24-6.03,6.44-8.01,6.91c-1.98,0.46-2.73,1.19-3.67,1.95
		c-0.93,0.76-2.04,1.54-2.87,1.87c-0.84,0.33-1.4,0.21-0.03-1.65"/>
	<path class="st1" d="M182.24,264.55c6.7-3.7,13.2-8.29,14.98-14.5"/>
	<path class="st1" d="M201.06,240.96c0.76,0.32,0.65,0.61,0.48,0.79c-0.17,0.18-0.4,0.27-0.6,0.23c-0.2-0.04-0.36-0.21-0.42-0.38
		c-0.06-0.17-0.01-0.34,0.22-0.46"/>
	<path class="st1" d="M147.44,217.2c-6.99,0.73-8.07,1.03-8.77,1.37c-0.7,0.35-1.02,0.74-0.92,1.02c0.1,0.28,0.6,0.46,0.67,0.61
		c0.07,0.15-0.28,0.28-0.46,0.48c-0.17,0.2-0.16,0.48-0.13,0.72c0.03,0.24,0.09,0.45,0.25,0.53c0.16,0.08,0.44,0.03,0.53,0.12
		c0.1,0.08,0.01,0.31-0.12,0.54c-0.13,0.23-0.31,0.46-0.27,0.81c0.04,0.34,0.29,0.78,0.64,0.96c0.35,0.18,0.8,0.08,0.96,0.15
		c0.16,0.06,0.03,0.29-0.08,0.54c-0.12,0.26-0.21,0.56,0.53,1.5"/>
	<path class="st1" d="M229.6,307.29c0.53-4.97-0.45-10.11-2.23-17.52"/>
	<path class="st1" d="M227.23,304.68c-1.07-5.04-0.74-9.57-1.72-13.86"/>
	<path class="st1" d="M223.06,301.67c-0.3-4.49-0.26-6.01-0.18-8.01c0.08-1.99,0.2-4.46-0.69-5.52"/>
	<path class="st1" d="M220.06,297.91c-0.44-2.01,0.12-6.26,0.15-8.98"/>
	<path class="st1" d="M206.31,241.94c-1.16,0.9-1.5,0.96-1.93,0.96c-0.43-0.01-0.95-0.08-1.12,0.03c-0.17,0.11,0,0.39,0.25,0.43
		c0.26,0.04,0.61-0.18,0.99,0.05c0.39,0.23,0.82,0.91,2.07,0.83"/>
	<path class="st1" d="M210.87,243.53c-1.03-1.42-2.75-0.95-4.25-0.7c-1.5,0.24-2.8,0.26-3.42,0.22"/>
</g>
</svg>
