<?xml version="1.0" encoding="UTF-8"?>
<svg width="1200pt" height="1200pt" version="1.1" viewBox="0 0 1200 1200" xmlns="http://www.w3.org/2000/svg">
 <path d="m516 288h168c33.141 0 60-26.859 60-60s-26.859-60-60-60h-168c-33.141 0-60 26.859-60 60s26.859 60 60 60zm12 48h144v48h-144zm-48 96c-39.75 0-72 32.25-72 72v120.28l40.031 31.125c21.422 16.641 52.359 12.281 68.297-9.6562l17.344-23.859c26.016-35.719 64.5-60.422 107.86-69.094 45.797-9.1406 93.328 0.28125 132.19 26.156l18.281 12.188v-87.141c0-39.75-32.25-72-72-72zm312 216.84-44.906-29.953c-28.266-18.844-62.859-25.688-96.141-18.984-31.547 6.2812-59.578 24.234-78.469 50.25l-17.344 23.812c-31.875 43.875-93.75 52.641-136.6 19.312l-10.547-8.2031v274.92c0 39.75 32.25 72 72 72h240c39.75 0 72-32.25 72-72z" fill-rule="evenodd"/>
</svg>
