<?xml version="1.0" encoding="UTF-8"?>
<svg width="1200pt" height="1200pt" version="1.1" viewBox="0 0 1200 1200" xmlns="http://www.w3.org/2000/svg">
 <path d="m900 918.74h-168.74v-581.44c0-10.312-8.4375-18.75-18.75-18.75h-93.75v-58.125c42.75-8.0625 75-44.062 75-87.188s-66.75-116.25-80.25-130.13c-6.9375-7.5-20.062-7.5-27 0-13.5 13.875-80.25 86.062-80.25 130.13 0 44.066 32.25 79.125 75 87.188v58.125h-93.75c-10.312 0-18.75 8.4375-18.75 18.75v581.44h-168.74c-30.938 0-56.25 25.312-56.25 56.25 0 27 19.125 49.688 44.625 54.938l70.312 123.19c3.375 5.8125 9.5625 9.375 16.312 9.375h450c6.75 0 12.938-3.5625 16.312-9.375l70.312-123.19c25.5-5.25 44.625-27.938 44.625-54.938 0-30.938-25.312-56.25-56.25-56.25zm-393.74-562.5h187.5v562.5h-187.5zm393.74 637.69h-600c-10.312 0-18.75-8.4375-18.75-18.75s8.4375-18.75 18.75-18.75h600c10.312 0 18.75 8.4375 18.75 18.75s-8.4375 18.75-18.75 18.75z"/>
</svg>
