<?xml version="1.0" encoding="UTF-8"?>
<svg width="1200pt" height="1200pt" version="1.1" viewBox="0 0 1200 1200" xmlns="http://www.w3.org/2000/svg">
 <path d="m764.95 726.89c-3.2812-1.875-5.5312-5.3438-5.5312-9.4219v-52.172c0-12.75-10.453-23.203-23.203-23.203h-272.29c-12.75 0-23.203 10.453-23.203 23.203v52.172c-0.046875 0-3.8906 8.3438-4.8281 8.9531-71.156 47.672-105.98 130.26-60 207.42 13.922 23.297 34.219 44.062 59.297 60.984 3.2812 1.875 5.5312 5.3906 5.5312 9.4219v52.172c0 12.75 10.453 23.25 23.203 23.25h272.29c12.75 0 23.203-10.5 23.203-23.25v-52.172c0.046875 0 3.8906-8.2969 4.8281-8.9531 109.69-73.547 105-197.86 0.70312-268.4zm-276.28 114.14 91.547-91.547c10.922-10.922 28.781-10.922 39.703 0l91.547 91.547c10.922 10.922 10.922 28.781 0 39.703l-91.547 91.547c-10.922 10.922-28.781 10.922-39.703 0l-91.547-91.547c-10.922-10.922-10.922-28.781 0-39.703z" fill-rule="evenodd"/>
 <path d="m431.26 179.29c3.7031-4.6875 10.5-5.5312 15.141-1.8281 4.6875 3.6562 5.4844 10.453 1.8281 15.141-35.344 44.953 40.688 88.828-3.1406 146.39-3.6094 4.7344-10.406 5.6719-15.141 2.0156-4.7344-3.5625-5.625-10.359-2.0156-15.094 35.109-46.125-43.453-87.047 3.3281-146.68z" fill-rule="evenodd"/>
 <path d="m745.31 182.48c3.6562-4.6875 10.453-5.5312 15.141-1.8281 4.6875 3.6562 5.4844 10.453 1.8281 15.141-35.344 44.953 40.359 89.25-3.1875 146.44-3.5625 4.6875-10.359 5.625-15.094 1.9688-4.7344-3.5625-5.6719-10.359-2.0156-15.094 33.516-44.016-41.719-89.25 3.3281-146.68z" fill-rule="evenodd"/>
 <path d="m591.24 124.4c3.6562-4.6875 10.453-5.4844 15.141-1.8281s5.4844 10.453 1.8281 15.141c-35.344 44.953 40.688 88.828-3.1875 146.39-3.5625 4.7344-10.359 5.6719-15.094 2.0156-4.7344-3.6094-5.6719-10.359-2.0156-15.141 35.109-46.125-43.453-87 3.3281-146.68z" fill-rule="evenodd"/>
 <path d="m503.58 607.5c-15.094-74.016-26.719-151.74-39.938-226.4-2.2031-12.516-33.797-6.6562-31.688 5.2969 15.094 74.062 26.719 151.74 39.938 226.4 2.2031 12.562 33.75 6.6562 31.688-5.2969z" fill-rule="evenodd"/>
 <path d="m616.13 611.72v-229.6c0-12.656-32.109-12.656-32.109 0v229.6c0 12.656 32.109 12.656 32.109 0z" fill-rule="evenodd"/>
 <path d="m595.55 764.76-91.594 91.547c-2.4844 2.4844-2.4844 6.6562 0 9.1406l91.594 91.547c2.4844 2.4844 6.6094 2.4844 9.0938 0l91.547-91.547c2.4844-2.4844 2.4844-6.6562 0-9.1406l-91.547-91.547c-2.4844-2.4844-6.6562-2.4844-9.0938 0z" fill-rule="evenodd"/>
 <path d="m724.6 612.79 39.797-225.71c2.25-13.453-29.438-18.234-31.594-6.0469l-39.797 225.71c-2.2031 14.203 29.531 17.578 31.594 6z" fill-rule="evenodd"/>
</svg>
