<?xml version="1.0" encoding="UTF-8"?>
<svg width="1200pt" height="1200pt" version="1.1" viewBox="0 0 1200 1200" xmlns="http://www.w3.org/2000/svg">
  <g transform="translate(1200,0) scale(-1,1)">
 <path d="m152.58 725.76c-0.84375 0-1.7344-0.09375-2.5781-0.28125-51.281-10.969-88.5-57.094-88.5-109.59 0-27.891 10.453-54.656 29.016-75.234-18.562-20.531-29.016-47.25-29.016-75.188 0-58.922 45.656-107.34 103.5-111.8-2.4844-9.2812-3.7031-18.891-3.7031-28.688 0-61.828 50.297-112.08 112.12-112.08 10.453 0 20.719 1.4062 30.609 4.2188 8.2969-48.422 50.625-85.406 101.25-85.406 30.656 0 59.672 13.875 79.031 37.125 17.25-17.203 40.734-27.094 65.531-27.094 22.828 0 44.484 8.2969 61.312 23.109 19.312-20.953 46.594-33.141 75.516-33.141 43.031 0 81 26.906 95.953 66 14.719-7.7812 30.984-11.859 47.953-11.859 53.062 0 96.844 40.406 102.23 92.062 6.375-1.0781 12.844-1.6406 19.406-1.6406 60.234 0 110.39 47.203 114.89 106.59 44.859 29.719 71.438 79.031 71.438 133.13 0 88.125-71.672 159.79-159.79 159.79h-168.42c-3.5625 0-6.9844-1.5469-9.3281-4.2656s-3.375-6.3281-2.8594-9.8906c0.51562-3.4688 11.391-86.25-68.391-128.26-6-3.1875-8.3438-10.641-5.1562-16.641 3.1875-6.0469 10.641-8.3438 16.641-5.1562 49.922 26.25 69.375 66.609 76.969 95.859 4.5 17.484 5.4375 33.094 5.25 43.688h155.29c74.531 0 135.14-60.609 135.14-135.14 0-47.625-24.375-90.891-65.203-115.64-3.6562-2.2031-5.8594-6.0938-5.9531-10.359-0.79688-49.125-41.391-89.109-90.516-89.109-9.4219 0-18.703 1.4531-27.562 4.2656-3.8438 1.2188-8.0625 0.51562-11.25-1.9688-3.1875-2.4375-5.0156-6.3281-4.8281-10.359 0.046875-1.4531 0.14062-2.8594 0.14062-4.2656 0-43.078-35.062-78.141-78.141-78.141-17.391 0-33.891 5.625-47.672 16.219-3.375 2.625-7.875 3.2812-11.859 1.7812s-6.9375-4.9688-7.7344-9.1875c-7.1719-36.516-39.375-63-76.641-63-25.781 0-49.875 12.75-64.453 34.031-2.2031 3.1875-5.7656 5.2031-9.6562 5.3438-3.8906 0.1875-7.5938-1.5-10.078-4.5-13.031-15.844-32.203-24.938-52.688-24.938-22.453 0-43.453 11.062-56.203 29.625-2.3906 3.4688-6.375 5.4844-10.641 5.3438-4.2188-0.14062-8.0625-2.4375-10.219-6.0938-13.969-23.953-39.844-38.859-67.547-38.859-42.891 0-77.953 34.922-78.094 77.859 0 4.1719-2.1562 8.0625-5.6719 10.359-3.5156 2.25-7.9688 2.5781-11.766 0.84375-11.484-5.25-23.766-7.875-36.375-7.875-48.234 0-87.422 39.234-87.422 87.422 0 12.609 2.625 24.75 7.7812 36 1.8281 4.0312 1.4062 8.7188-1.1719 12.281-2.5781 3.6094-6.8438 5.5312-11.25 5.1094-2.5781-0.23438-5.1094-0.375-7.6875-0.375-48.234 0-87.422 39.234-87.422 87.469 0 25.219 10.969 49.266 30.047 65.906 2.6719 2.3438 4.2188 5.7188 4.2188 9.2812s-1.5 6.9375-4.2188 9.2812c-19.078 16.688-30.047 40.734-30.047 65.953 0 40.969 29.016 76.922 69 85.453 6.6562 1.4062 10.875 7.9688 9.4688 14.625-1.2656 5.7656-6.375 9.75-12.047 9.75z" fill-rule="evenodd"/>
 <path d="m955.31 597.98c-0.5625 0-1.0781-0.046875-1.6406-0.09375-6.75-0.89062-11.484-7.125-10.594-13.875 8.2031-61.359-22.031-85.828-23.344-86.812-4.5469-3.375-6.1406-9.375-3.9375-14.625 2.2031-5.2031 7.6875-8.25 13.266-7.3594 33.469 5.1562 60.281-0.23438 79.641-15.984 31.266-25.406 33.984-69.562 33.984-69.984 0.375-6.7969 6.1875-12 12.984-11.672 6.7969 0.375 12 6.1875 11.625 12.984-0.09375 2.25-3.375 55.594-43.078 87.797-18.797 15.281-42.328 23.109-70.078 23.391 9.8438 17.625 18.609 45.469 13.312 85.5-0.84375 6.1875-6.1406 10.688-12.188 10.688z" fill-rule="evenodd"/>
 <path d="m402.84 1068.2h-104.53c-15.984 0-28.969-12.984-28.969-28.969v-63.844c0-14.531-7.9688-27.938-20.719-35.016-38.719-21.422-69.609-53.812-89.297-93.609-25.688-51.938-29.578-110.77-11.062-165.66 18.562-54.891 57.422-99.281 109.36-124.92 6.0938-3 13.5-0.51562 16.547 5.5781 3 6.0938 0.51562 13.5-5.5781 16.5-46.031 22.734-80.438 62.062-96.891 110.72s-12.984 100.78 9.7969 146.86c17.438 35.297 44.812 63.984 79.125 82.969 20.625 11.391 33.469 33.094 33.469 56.625v63.844c0 2.3906 1.9219 4.3125 4.3125 4.3125h104.53c2.1094 0 3.8906-1.5469 4.2656-3.7031 11.672-69.469 52.5-125.68 118.08-162.52 47.953-26.953 92.203-34.219 95.766-34.781 73.547-12.891 125.68-47.062 154.92-101.53 21.797-40.5 22.125-77.156 22.125-77.484 0-6.7969 5.5312-12.281 12.328-12.281h0.046875c6.7969 0 12.328 5.5312 12.281 12.375 0 1.7344-0.42188 43.219-25.031 89.109-22.734 42.281-71.062 96.422-172.5 114.19-0.09375 0-0.1875 0.046875-0.28125 0.046875-0.42188 0.046875-43.125 6.7969-88.219 32.297-59.297 33.516-94.688 82.219-105.14 144.74-2.3906 14.062-14.438 24.234-28.594 24.234z" fill-rule="evenodd"/>
 <path d="m830.44 383.68c-16.594 0-38.953-3.0469-57.469-16.266-7.4062-5.2969-13.547-11.719-18.422-19.266-7.7812 10.5-20.25 19.453-39.516 23.297-6.7031 1.3594-13.172-3-14.531-9.6562-1.3125-6.7031 3-13.172 9.6562-14.531 14.953-3 24.328-10.078 28.688-21.656 3.0469-8.25 2.4375-15.891 2.3438-16.547v-0.1875c-0.79688-6.75 3.9844-12.844 10.734-13.688 6.7031-0.84375 12.891 3.9375 13.734 10.641 0 0.23438 0.046875 0.46875 0.09375 0.70312 2.3438 18.75 9.4219 32.156 21.609 40.875 24.234 17.391 61.5 10.125 61.875 10.031 6.6562-1.4062 13.219 2.8594 14.625 9.5156s-2.8594 13.219-9.5156 14.625c-0.84375 0.1875-10.547 2.1562-23.953 2.1562z" fill-rule="evenodd"/>
 <path d="m491.11 413.39c-0.46875 0-0.9375-0.046875-1.4531-0.09375-6.75-0.79688-11.625-6.8906-10.828-13.641 5.9531-52.5 35.953-78.234 60.047-90.562 25.641-13.172 49.875-14.016 50.906-14.016 6.7969-0.23438 12.469 5.1562 12.703 11.953 0.1875 6.7969-5.1562 12.469-11.953 12.703-3.3281 0.14062-78.188 3.75-87.188 82.781-0.70312 6.2812-6.0469 10.922-12.234 10.922z" fill-rule="evenodd"/>
 <path d="m236.9 458.53c-6.4219 0-11.859-4.9688-12.281-11.484-2.2969-32.906 5.9531-60.094 24.516-80.812 32.062-35.812 83.062-38.297 85.219-38.391 6.7969-0.28125 12.562 5.0156 12.844 11.812s-4.9688 12.516-11.812 12.844c-0.51562 0.046875-43.078 2.3438-68.016 30.328-13.828 15.562-19.969 36.609-18.188 62.531 0.46875 6.7969-4.6406 12.703-11.438 13.172-0.28125 0-0.5625 0.046875-0.84375 0.046875z" fill-rule="evenodd"/>
 <path d="m523.78 603.79c-3.8906 0-7.875-0.32812-11.953-0.98438-18.844-3.0938-37.641-13.219-52.922-28.453-15.234-15.234-25.359-34.031-28.453-52.922-3.3281-20.344 1.7344-38.484 14.297-51.047 4.8281-4.8281 12.609-4.8281 17.438 0s4.8281 12.609 0 17.438c-6.75 6.7969-9.4219 17.297-7.4062 29.625 2.25 13.828 9.8906 27.797 21.562 39.422 11.625 11.625 25.641 19.312 39.469 21.562 12.328 2.0156 22.828-0.60938 29.578-7.3594 4.8281-4.8281 12.609-4.8281 17.438 0s4.8281 12.609 0 17.438c-10.031 10.031-23.625 15.281-39.094 15.281z" fill-rule="evenodd"/>
 <path d="m428.06 617.53c-3.0938 0-6.1875-1.1719-8.5781-3.5156-4.875-4.7344-4.9688-12.562-0.23438-17.438 24.422-25.125 48-30.609 63.422-30.844 6.75-0.14062 12.375 5.3438 12.469 12.188 0.09375 6.7969-5.3438 12.422-12.141 12.516-10.781 0.14062-27.516 4.3125-46.078 23.344-2.4375 2.4844-5.625 3.75-8.8594 3.75z" fill-rule="evenodd"/>
 <path d="m622.97 718.08c-5.1094 0-9.8906-3.1875-11.672-8.2969-17.016-49.359-3.3281-87.562 11.156-110.91 15.516-25.031 35.109-38.484 35.906-39.047 5.6719-3.8438 13.312-2.3438 17.156 3.2812 3.7969 5.625 2.3438 13.266-3.2344 17.109-2.6719 1.8281-63.938 45.141-37.641 121.55 2.25 6.4219-1.2188 13.453-7.6406 15.656-1.3125 0.46875-2.6719 0.65625-3.9844 0.65625z" fill-rule="evenodd"/>
 <path d="m424.36 777.19c-43.594 0-97.219-11.062-136.36-55.641-4.5-5.1094-3.9844-12.891 1.125-17.391s12.891-3.9844 17.391 1.125c65.438 74.531 185.44 38.016 186.66 37.641 6.4688-2.0156 13.406 1.5938 15.469 8.0625 2.0156 6.4688-1.5469 13.406-8.0625 15.469-2.6719 0.84375-34.969 10.734-76.219 10.734z" fill-rule="evenodd"/>

  </g>
</svg>
