<?xml version="1.0" encoding="UTF-8" standalone="no"?>
<!-- Created with Inkscape (http://www.inkscape.org/) -->

<svg
   viewBox="0 0 130 130"
   version="1.1"
   id="svg1"
   xml:space="preserve"
   inkscape:version="1.4 (e7c3feb1, 2024-10-09)"
   sodipodi:docname="ceres.svg"
   xmlns:inkscape="http://www.inkscape.org/namespaces/inkscape"
   xmlns:sodipodi="http://sodipodi.sourceforge.net/DTD/sodipodi-0.dtd"
   xmlns="http://www.w3.org/2000/svg"
   xmlns:svg="http://www.w3.org/2000/svg"><sodipodi:namedview
     id="namedview1"
     pagecolor="#ffffff"
     bordercolor="#000000"
     borderopacity="0.25"
     inkscape:showpageshadow="2"
     inkscape:pageopacity="0.0"
     inkscape:pagecheckerboard="0"
     inkscape:deskcolor="#d1d1d1"
     inkscape:document-units="mm"
     inkscape:zoom="0.4606265"
     inkscape:cx="333.24179"
     inkscape:cy="619.80802"
     inkscape:window-width="1728"
     inkscape:window-height="1080"
     inkscape:window-x="0"
     inkscape:window-y="37"
     inkscape:window-maximized="0"
     inkscape:current-layer="layer1" /><defs
     id="defs1" /><g
     inkscape:label="Layer 1"
     inkscape:groupmode="layer"
     id="layer1"><path
       style="fill:#acaaa0;fill-opacity:1"
       d="m 60.156036,124.53611 c 0.0761,-0.29104 0.3556,-0.52917 0.62108,-0.52917 0.26548,0 0.56979,-0.14092 0.67624,-0.31316 0.13305,-0.21529 0.25616,-0.15326 0.39389,0.19844 0.3891,0.9936 0.26732,1.17306 -0.79602,1.17306 -0.9033,0 -1.01613,-0.0667 -0.89519,-0.52917 z m -10.073887,-1.45684 c -0.41682,-0.21738 -0.98398,-0.39524 -1.26036,-0.39524 -0.27638,0 -0.70926,-0.10746 -0.96194,-0.2388 -0.25269,-0.13134 -0.99522,-0.38183 -1.65006,-0.55665 -1.66673,-0.44496 -7.04861,-2.51974 -8.26464,-3.18612 -0.252686,-0.13847 -0.63964,-0.25177 -0.859895,-0.25177 -0.220256,0 -0.400465,-0.0968 -0.400465,-0.2152 0,-0.11836 -0.416914,-0.37878 -0.926474,-0.57871 -0.509561,-0.19994 -1.185159,-0.63888 -1.501329,-0.97543 -0.31617,-0.33655 -0.684673,-0.61191 -0.818894,-0.61191 -0.134222,0 -1.274327,-0.67994 -2.533567,-1.51098 -1.259241,-0.83104 -2.587185,-1.67238 -2.950987,-1.86966 -0.363802,-0.19727 -0.907257,-0.58889 -1.207677,-0.87027 -0.300421,-0.28137 -0.614275,-0.51159 -0.697455,-0.51159 -0.08318,0 -0.849411,-0.46643 -1.702739,-1.03651 -1.686819,-1.12692 -5.234743,-4.51955 -8.166087,-7.80866 -1.889449,-2.12005 -2.602542,-2.897882 -4.533028,-4.944542 -0.988928,-1.04844 -1.7664914,-2.34136 -2.7657244,-4.59883 -0.193238,-0.43656 -0.495612,-0.97234 -0.671942,-1.19062 -0.507479,-0.62822 -3.119966,-5.5996 -3.545517,-6.74688 -0.107954,-0.29104 -0.41336,-1.21377 -0.67868,-2.05052 -0.265321,-0.83674 -0.576807,-1.52135 -0.692193,-1.52135 -0.115385,0 -0.209792,-0.33735 -0.209792,-0.74966 0,-0.4123 -0.0816,-0.83125 -0.181329,-0.93098 -0.521537,-0.52153 -1.321547,-3.39191 -1.706997,-6.12457 -0.143682,-1.01865 -0.37565604,-2.62599 -0.51549604,-3.57188 -0.568086,-3.84256 -0.784486,-7.74344 -0.6309,-11.37278 0.08919,-2.10769 0.260943,-3.95316 0.381668,-4.10104 0.120725,-0.14789 0.284831,-0.92373 0.364679,-1.72409 0.39327404,-3.942 1.42527004,-8.60057 2.07780404,-9.37948 0.115815,-0.13825 0.210571,-0.5777 0.210571,-0.97657 0,-0.39887 0.119063,-0.79881 0.264584,-0.88874 0.145521,-0.0899 0.264583,-0.33568 0.264583,-0.54608 0,-0.21041 0.297656,-0.99957 0.661458,-1.7537 0.363803,-0.75412 0.661459,-1.58698 0.661459,-1.85078 0,-0.26381 0.119062,-0.47965 0.264583,-0.47965 0.145521,0 0.264583,-0.29766 0.264583,-0.66146 0,-0.3638 0.09285,-0.66146 0.206338,-0.66146 0.113486,0 0.437353,-0.59531 0.719704,-1.32292 0.282352,-0.727598 0.606218,-1.322908 0.719704,-1.322908 0.113486,0 0.206338,-0.12479 0.206338,-0.2773 0,-0.15251 0.416719,-0.92873 0.926042,-1.72493 0.509322,-0.7962 0.926041,-1.52014 0.926041,-1.60877 0,-0.0886 0.364459,-0.59232 0.80991,-1.11934 1.3857994,-1.63954 2.8942574,-3.70923 2.8942574,-3.97108 0,-0.13768 0.0893,-0.29001 0.198438,-0.33851 0.10914,-0.0485 0.810794,-0.80257 1.55923,-1.6757 1.811827,-2.11368 6.424652,-6.74687 6.717208,-6.74687 0.127777,0 0.505624,-0.27252 0.83966,-0.6056 0.334037,-0.33308 1.273772,-1.09731 2.088301,-1.6983 0.814529,-0.600983 1.647967,-1.254703 1.852084,-1.452707 0.204116,-0.198004 0.936455,-0.713692 1.627419,-1.145973 0.690964,-0.432281 1.25651,-0.8623552 1.256771,-0.9557202 2.6e-4,-0.09337 0.316407,-0.249049 0.702549,-0.345964 0.386143,-0.09692 1.189815,-0.496776 1.785938,-0.888579 1.017577,-0.668804 2.047251,-1.195153 3.597403,-1.838923 1.606815,-0.667303 2.85468,-1.210552 3.85385,-1.677747 0.59164,-0.276645 1.26923,-0.502991 1.50574,-0.502991 0.23651,0 0.5036,-0.119062 0.59353,-0.264583 0.0899,-0.145521 0.50666,-0.264583 0.92605,-0.264583 0.41938,0 0.8361,-0.119063 0.92604,-0.264584 0.0899,-0.14552 0.36485,-0.265316 0.61092,-0.266213 0.24608,-8.97e-4 0.78844,-0.17949 1.20526,-0.396875 0.41682,-0.217385 0.96252,-0.395245 1.21267,-0.395245 0.25016,0 0.53359,-0.07876 0.62986,-0.175027 0.0963,-0.09626 0.8944,-0.185562 1.77365,-0.198438 0.87924,-0.01287 1.68352,-0.155032 1.78729,-0.315904 0.10378,-0.160872 0.78399,-0.376986 1.5116,-0.480253 1.64886,-0.234019 3.534227,-0.56321598 5.423957,-0.94705598 1.65637,-0.336442 9.2843,-0.616269 8.8307,-0.323951 -0.19421,0.125157 -0.21784,0.404421 -0.0681,0.804746 0.17674,0.47250198 0.3966,0.59383598 0.95888,0.52916698 0.58604,-0.0674 0.71327,-0.201019 0.64678,-0.67922098 -0.0674,-0.485022 0.0438,-0.595313 0.60035,-0.595313 0.60681,0 0.66348,0.07831 0.50721,0.700922 -0.1238,0.49328498 -0.0861,0.64541598 0.12726,0.51355098 0.16674,-0.103053 0.30317,-0.373515 0.30317,-0.60102598 0,-0.337696 0.0729,-0.353173 0.39687,-0.08428 0.21828,0.181157 0.39688,0.47133998 0.39688,0.64485098 0,0.173511 0.41671,0.514193 0.92604,0.757072 0.95546,0.455627 1.23399,0.979327 0.52086,0.979327 -0.22285,0 -0.47371,-0.178594 -0.55747,-0.396875 -0.0838,-0.218282 -0.30823,-0.396875 -0.49882,-0.396875 -0.19058,0 -0.40109,-0.148828 -0.46778,-0.330729 -0.097,-0.264584 -0.19139,-0.264584 -0.47184,0 -0.19282,0.181901 -0.57192,0.330729 -0.84244,0.330729 -0.27053,0 -0.43587,0.09061 -0.36742,0.201355 0.19873,0.321555 -0.55826,1.192424 -0.86936,1.00015 -0.36518,-0.225691 -0.36669,-0.936922 -0.002,-0.936922 0.15411,0 0.20227,-0.126093 0.10702,-0.280207 -0.0952,-0.154114 -0.4297,-0.258264 -0.74322,-0.231446 -0.86734,0.07419 -2.28983,-0.313361 -2.28983,-0.62385 0,-0.151585 -0.0629,-0.212746 -0.1397,-0.135914 -0.25474,0.25474 0.38447,1.536 0.7663,1.536 0.3802,0 0.69631,0.542369 0.69631,1.194691 0,0.196713 -0.32033,0.395335 -0.71184,0.441381 -0.61162,0.07193 -0.75907,0.269685 -1.04725,1.404494 -0.35039,1.379779 -0.11855,2.117909 0.47788,1.521481 0.23199,-0.231993 0.22285,-0.406824 -0.0377,-0.720769 -0.52821,-0.636453 -0.11205,-0.787547 0.52766,-0.191573 0.42451,0.395494 0.81051,0.49591 1.53885,0.400329 0.81942,-0.107536 1.08801,-0.0058 1.70917,0.647433 0.63366,0.666361 0.69949,0.873626 0.46957,1.478359 -0.30948,0.814008 -0.6632,0.963118 -0.41274,0.173993 0.24042,-0.757505 -0.84295,-2.250284 -1.3361,-1.841007 -0.19709,0.163574 -0.61395,0.216285 -0.92634,0.117136 -0.4969,-0.157709 -0.5441,-0.105044 -0.3772,0.420822 0.10493,0.330601 0.41434,0.841055 0.68758,1.134343 0.27324,0.293288 0.4968,0.867988 0.4968,1.2771112 0,0.409123 0.11906,0.74386 0.26458,0.74386 0.14552,0 0.26458,-0.252012 0.26458,-0.560026 0,-0.451648 0.11521,-0.5291512 0.59532,-0.400487 0.32742,0.08774 0.78922,0.161163 1.02623,0.16315 0.23701,0.002 0.57887,0.3608 0.7597,0.797363 0.18083,0.436562 0.44131,0.79375 0.57884,0.79375 0.13753,0 0.21239,0.327422 0.16634,0.727604 -0.0744,0.646173 -0.19225,0.727606 -1.05344,0.727606 -1.33487,0 -1.49408,0.27596 -0.66093,1.14558 0.39161,0.40876 0.63051,0.8247 0.53088,0.92433 -0.0996,0.0996 0.0651,0.44855 0.36602,0.7754 0.30093,0.32685 0.54448,0.9042 0.54123,1.28299 -0.008,0.92851 0.62732,2.19628 1.15114,2.29716 0.29277,0.0564 0.48847,-0.19012 0.62762,-0.79052 l 0.20219,-0.87244 0.19798,0.92604 c 0.10889,0.50932 0.5039,1.52135 0.87779,2.24896 0.62701,1.22017 0.8409,1.23978 0.72151,0.0661 -0.0289,-0.28368 0.13356,-0.46302 0.41933,-0.46302 0.36277,0 0.39586,-0.0705 0.14892,-0.3175 -0.17463,-0.17462 -0.31829,-0.56157 -0.31924,-0.85989 -9.6e-4,-0.29832 -0.2383,-0.89959 -0.52743,-1.33615 -0.67714,-1.02245 -0.66437,-1.24269 0.0661,-1.14111 0.50667,0.0704 0.60838,-0.0549 0.68307,-0.8422 0.10261,-1.08143 0.45469,-1.58856 1.10287,-1.58856 0.93375,0 1.13345,-0.66759 0.54483,-1.821384 -0.83853,-1.643648 -0.75497,-1.840826 0.71194,-1.679978 0.69122,0.07579 1.29847,0.245803 1.34944,0.377798 0.051,0.131996 0.56327,0.537072 1.13845,0.900168 0.86139,0.54377 1.01383,0.763006 0.86455,1.243346 -0.0997,0.32074 -0.2867,0.62357 -0.41558,0.67294 -0.12888,0.0494 -0.40468,0.26012 -0.61289,0.46832 -0.26957,0.26958 -0.68714,0.32921 -1.45048,0.20715 -0.95348,-0.15247 -1.07193,-0.11278 -1.07193,0.35917 0,0.29183 0.16578,0.66818 0.36841,0.83634 0.20262,0.16817 0.50351,0.62923 0.66862,1.02459 0.2707,0.64814 1.94141,2.01246 2.49003,2.03337 0.30413,0.0116 0.97086,0.96057 0.97086,1.38186 0,0.21734 -0.33448,0.34631 -0.89818,0.34631 h -0.89818 l 0.22272,0.98752 c 0.1225,0.54314 0.34344,1.02776 0.49097,1.07694 0.149,0.0497 0.19939,0.43369 0.11335,0.8639 -0.0945,0.47238 -0.0157,0.94216 0.20182,1.20431 0.46651,0.56211 0.49988,2.53698 0.0399,2.36069 -0.1819,-0.0697 -0.33073,-0.0114 -0.33073,0.12952 0,0.46396 -0.69297,0.26809 -1.66754,-0.47132 -0.82268,-0.62417 -0.96038,-0.88142 -0.96865,-1.80961 -0.008,-0.89259 -0.12544,-1.13478 -0.6711,-1.38339 -0.58804,-0.26794 -0.66146,-0.46179 -0.66146,-1.74665 0,-0.7949 0.11907,-1.51885 0.26459,-1.60879 0.14552,-0.0899 0.26458,-0.5236 0.26458,-0.9637 0,-1.0763 -0.63433,-0.85774 -0.74437,0.25647 -0.0514,0.52053 -0.22926,0.83952 -0.46806,0.83952 -0.25944,0 -0.34504,0.19431 -0.26226,0.59532 0.42039,2.03654 0.39528,2.98966 -0.0941,3.57187 -0.27522,0.32742 -0.66357,0.59531 -0.863,0.59531 -0.48433,0 -1.09248,-1.60863 -0.74102,-1.9601 0.14432,-0.14432 0.2624,-0.3801 0.2624,-0.52395 0,-0.14386 -0.26655,0.0246 -0.59235,0.37425 l -0.59235,0.63582 -0.16022,-0.98572 c -0.15411,-0.94812 -0.50716,-1.66093 -0.50716,-1.02398 0,0.16978 -0.11906,0.30868 -0.26458,0.30868 -0.14552,0 -0.26459,-0.23812 -0.26459,-0.52916 0,-0.78611 -0.70838,-0.64073 -0.9164,0.18806 -0.12694,0.50579 -0.0574,0.80689 0.23591,1.02136 0.2664,0.1948 0.41591,0.71264 0.41591,1.4406 0,0.80461 0.19316,1.38974 0.66146,2.0037 0.3638,0.47697 0.66146,1.11329 0.66146,1.41404 0,0.30075 0.11906,0.54682 0.26458,0.54682 0.14552,0 0.26458,-0.29766 0.26458,-0.66146 0,-0.3638 0.11907,-0.66146 0.26459,-0.66146 0.14552,0 0.26458,0.64493 0.26458,1.43316 0,0.89602 0.12396,1.48525 0.33073,1.57215 0.23807,0.10004 0.2032,0.21987 -0.12445,0.42768 -0.25035,0.15879 -0.58228,0.7607 -0.73762,1.33758 -0.25367,0.94207 -0.21406,1.1495 0.38904,2.037028 0.38033,0.55971 0.67147,1.36305 0.67147,1.85278 0,0.6757 0.1108,0.86462 0.50711,0.86462 0.27892,0 0.56718,-0.14882 0.64057,-0.33073 0.091,-0.22558 0.13928,-0.20455 0.15176,0.0662 0.0265,0.57491 -1.22847,3.175 -1.53248,3.175 -0.9045,0 -1.44077,3.61487 -0.68459,4.61463 0.21365,0.28248 0.38846,0.7259 0.38846,0.9854 0,0.25949 0.33609,0.6456 0.74687,0.85802 0.41078,0.21242 0.90161,0.57267 1.09073,0.80055 0.18912,0.22787 0.44834,0.41432 0.57605,0.41432 0.32032,0 0.2934,-0.98927 -0.0324,-1.19063 -0.49617,-0.30665 -0.28957,-0.88303 0.26458,-0.73812 0.41075,0.10741 0.52917,0.008 0.52917,-0.44369 0,-0.75508 0.59986,-0.56558 0.79247,0.25035 0.18044,0.76436 0.98636,1.33489 1.26558,0.89592 0.105,-0.16506 0.42767,-0.34502 0.71704,-0.39991 0.28937,-0.0549 0.56789,-0.31666 0.61894,-0.58173 0.0786,-0.40824 0.0109,-0.43812 -0.44259,-0.1954 -0.95551,0.51137 -1.60417,0.35068 -1.78037,-0.44106 -0.0891,-0.40019 -0.22313,-0.95083 -0.29793,-1.22366 -0.0748,-0.27283 0.0239,-0.5949 0.21938,-0.7157 0.2889,-0.17855 0.29484,-0.38007 0.0318,-1.07702 -0.26656,-0.70622 -0.25533,-0.9616 0.0637,-1.44849 0.21302,-0.32511 0.46523,-1.07838 0.56046,-1.67393 0.23269,-1.45517 0.72623,-1.73248 0.59278,-0.33307 l -0.10226,1.07231 1.1366,0.17044 c 1.10591,0.16584 1.13492,0.19543 1.0743,1.09563 -0.039,0.57877 0.0814,1.01398 0.32139,1.16233 0.30558,0.18886 0.31682,0.30403 0.0552,0.56566 -0.3987,0.39871 -0.43242,2.17999 -0.0546,2.88591 0.2155,0.40267 0.1873,0.51177 -0.13229,0.51177 -0.2234,0 -0.40619,0.1786 -0.40619,0.39688 0,0.45588 -0.41563,0.53005 -0.6694,0.11944 -0.2241,-0.36261 -0.9181,0.19299 -0.9181,0.73501 0,0.23754 -0.1543,0.33358 -0.39039,0.24298 -0.64344,-0.24691 -2.17837,0.54389 -2.34519,1.20825 -0.0835,0.3326 -0.32416,0.84032 -0.53477,1.12827 -0.36874,0.50414 -0.39775,0.48944 -0.78366,-0.39688 -0.33199,-0.76251 -0.40444,-0.81767 -0.42232,-0.3215 -0.0119,0.32939 0.0835,0.80564 0.21188,1.05833 0.42903,0.84428 0.74564,2.67317 0.52343,3.02356 -0.1208,0.19046 -0.22145,0.73324 -0.22368,1.20618 -0.002,0.47295 -0.1321,0.8599 -0.28861,0.8599 -0.17009,0 -0.25622,-0.4611 -0.21409,-1.1462 0.0388,-0.63041 -0.0631,-1.49361 -0.22643,-1.91823 -0.16331,-0.42461 -0.37366,-1.57157 -0.46745,-2.54879 -0.15958,-1.66258 -0.22876,-1.81276 -1.0765,-2.33669 -0.976,-0.6032 -1.05482,-0.80257 -0.63064,-1.59516 0.22307,-0.41681 0.14774,-0.63269 -0.39688,-1.13743 -0.36971,-0.34263 -0.6722,-0.75815 -0.6722,-0.92336 0,-0.56858 -0.40969,-0.29871 -0.84939,0.55951 -0.24232,0.47294 -0.51798,1.36591 -0.6126,1.98437 -0.13322,0.87088 -0.28611,1.12448 -0.67793,1.12448 -0.55608,0 -0.71529,0.8977 -0.21413,1.20743 0.16047,0.0992 0.57603,0.79082 0.92345,1.53697 0.6653,1.42884 0.82813,3.28299 0.3644,4.14946 -0.20375,0.38072 -0.16272,0.67655 0.16272,1.17324 0.52554,0.80207 0.79596,0.83931 0.98015,0.13498 0.0761,-0.29104 0.0305,-0.52916 -0.10144,-0.52916 -0.41593,0 -0.26032,-0.9609 0.26344,-1.62675 0.27678,-0.35188 0.54467,-0.92415 0.59531,-1.27173 0.0506,-0.34757 0.22459,-0.67553 0.38656,-0.72879 0.33938,-0.1116 0.72008,1.79249 0.41865,2.09391 -0.10948,0.10948 -0.15288,0.68314 -0.0965,1.27481 0.0879,0.92197 0.18357,1.06463 0.66899,0.99788 0.48438,-0.0666 0.56641,0.0543 0.56641,0.83456 0,0.86381 -0.0494,0.91317 -0.92604,0.92605 -0.80461,0.0118 -0.93683,0.10703 -1.00831,0.72608 -0.0649,0.56257 0.0814,0.7971 0.69555,1.11469 0.42779,0.22122 0.85095,0.59283 0.94035,0.82581 0.0978,0.25489 0.39776,0.39051 0.75314,0.34052 0.41838,-0.0589 0.61975,0.0712 0.69058,0.44608 0.055,0.29104 0.28456,0.73734 0.51016,0.99176 0.30697,0.34619 0.34446,0.60989 0.149,1.04793 -0.17464,0.3914 -0.16888,0.82985 0.0174,1.32334 0.29982,0.79432 0.69172,0.98759 0.69172,0.34114 0,-0.21828 0.12357,-0.39688 0.2746,-0.39688 0.15103,0 0.25157,0.26789 0.22343,0.59532 -0.1017,1.18335 0.0347,1.45592 0.80571,1.61012 0.6038,0.12076 0.92476,0.45392 1.45573,1.51104 0.37462,0.74587 0.75378,1.81039 0.84256,2.36561 0.14911,0.93247 0.0784,1.08446 -0.92655,1.9924 -0.59839,0.54061 -1.08798,1.09881 -1.08798,1.24045 0,0.14165 -0.26789,0.47777 -0.59531,0.74695 l -0.59532,0.48942 0.52917,0.99034 c 0.29104,0.54469 0.64884,1.02835 0.79511,1.0748 0.3326,0.10563 0.81376,-0.97651 1.18861,-2.67321 0.15816,-0.71586 0.52066,-1.50373 0.80556,-1.75083 0.28491,-0.2471 0.52066,-0.73296 0.5239,-1.07969 0.003,-0.34673 0.25044,-0.92808 0.54934,-1.29188 l 0.54346,-0.66146 -0.1575,0.79375 c -0.0866,0.43656 -0.3616,1.8309 -0.61104,3.09854 -0.37825,1.92223 -0.54165,2.31747 -0.98445,2.38125 -0.59512,0.0857 -0.79777,0.71645 -0.54885,1.70824 0.13838,0.55135 0.23313,0.60868 0.55899,0.33824 0.51607,-0.4283 0.61148,-0.29797 0.8026,1.09645 0.15104,1.10192 0.0946,1.24414 -0.93657,2.36034 -0.7755,0.83945 -1.06583,1.36235 -0.99002,1.78309 0.059,0.32742 0.005,0.59531 -0.12062,0.59531 -0.12534,0 -0.22789,0.17859 -0.22789,0.39687 0,0.21828 0.17859,0.39688 0.39687,0.39688 0.21828,0 0.39688,-0.18852 0.39688,-0.41893 0,-0.2304 0.14882,-0.36931 0.33073,-0.30868 0.1819,0.0606 0.3208,0.30868 0.30868,0.55122 -0.0985,1.96914 -0.11671,2.02847 -0.6238,2.02847 -0.28245,0 -0.58714,-0.11906 -0.67707,-0.26458 -0.0899,-0.14552 -0.4092,-0.26459 -0.70947,-0.26459 -0.4819,0 -0.50335,0.0543 -0.18282,0.46303 0.3291,0.41964 0.31974,0.429 -0.0999,0.0999 -0.60916,-0.47774 -0.58546,-1.12965 0.0715,-1.96477 0.45437,-0.57765 0.49755,-0.84381 0.28808,-1.77608 -0.27897,-1.24159 -0.55797,-1.67523 -0.55797,-0.86723 0,0.81667 -0.77405,2.50106 -1.06634,2.32042 -0.14111,-0.0872 -0.25657,-0.56826 -0.25657,-1.069 0,-0.50073 -0.0952,-0.91042 -0.21146,-0.91042 -0.1163,0 -0.16445,0.40265 -0.10699,0.89479 0.0575,0.49213 -0.026,0.97541 -0.18542,1.07395 -0.47072,0.29092 -0.33762,0.97289 0.17314,0.88713 0.60356,-0.10135 0.80566,1.04877 0.22354,1.27215 -0.3652,0.14014 -0.36664,0.2386 -0.0135,0.92149 l 0.39538,0.76458 -0.73265,-0.31293 c -0.40296,-0.17211 -0.89697,-0.43615 -1.0978,-0.58675 -0.29952,-0.22461 -0.33138,-0.1201 -0.17727,0.58155 0.14193,0.64619 0.0496,1.07916 -0.37772,1.77052 -0.47498,0.76852 -0.52376,1.06667 -0.30447,1.86087 0.22497,0.81477 0.19045,0.98985 -0.24933,1.26449 -0.33285,0.20787 -0.51044,0.61576 -0.51044,1.17236 0,0.62274 -0.25044,1.10401 -0.92605,1.77962 -0.50932,0.50932 -0.92604,1.09015 -0.92604,1.29073 0,0.20057 -0.23812,0.58018 -0.52916,0.84357 -0.59736,0.54061 -0.69392,0.95899 -0.19844,0.8599 0.1819,-0.0364 0.33073,0.17198 0.33073,0.46302 0,0.29104 -0.14883,0.4994 -0.33073,0.46302 -0.50279,-0.10056 -0.395,0.71955 0.12057,0.91739 0.84391,0.32384 1.39812,0.982162 1.56193,1.855342 0.22297,1.18855 0.53306,1.2961 1.0203,0.35388 0.27755,-0.53673 0.54337,-0.74221 0.82189,-0.63533 0.24994,0.0959 0.56683,-0.0636 0.80666,-0.40598 0.21726,-0.31017 0.57104,-0.56395 0.78619,-0.56395 0.66213,0 1.63668,-0.788042 1.80528,-1.459792 0.24153,-0.96233 0.94853,-0.54339 0.94853,0.56206 0,0.819732 -0.0685,0.897732 -0.78837,0.897732 -0.65096,0 -0.88077,0.18112 -1.31848,1.0391 -0.29156,0.5715 -0.77023,1.11531 -1.06371,1.20845 -0.29348,0.0932 -0.5336,0.33191 -0.5336,0.53058 0,0.19867 -0.2363,0.43621 -0.5251,0.52787 -0.43118,0.13686 -0.49925,0.32933 -0.38056,1.07617 0.082,0.51584 0.0323,0.9095 -0.11472,0.9095 -0.67053,0 -1.09629,-0.3792 -1.09629,-0.9764 0,-0.94493 -0.5559,-0.6299 -0.96289,0.54567 -0.18941,0.54708 -0.58386,1.19522 -0.87657,1.44032 -0.65383,0.54746 -1.3827,3.46984 -1.02488,4.10922 0.3501,0.6256 1.60479,0.55582 2.02213,-0.11246 0.26078,-0.41757 0.27008,-0.63827 0.0386,-0.91714 -0.63717,-0.76775 -0.0817,-0.8901 0.71933,-0.15845 0.7965,0.72748 0.82486,0.81938 0.56675,1.83625 -0.30531,1.20282 -1.19034,2.17698 -2.03567,2.24065 -0.47951,0.0361 -0.56351,0.20938 -0.56351,1.16233 0,0.95906 0.10449,1.17097 0.72761,1.47563 0.6922,0.33844 0.87933,1.16842 0.34389,1.52521 -0.10919,0.0728 -0.3396,0.40019 -0.51203,0.72761 -0.17243,0.32742 -0.45814,0.59624 -0.63492,0.59738 -0.44784,0.003 -0.98288,1.25471 -0.98288,2.29964 0,0.74313 -0.0938,0.87329 -0.62906,0.87329 -0.34599,0 -0.76661,0.16573 -0.93471,0.36828 -0.57769,0.69608 -1.3536,0.6997 -1.66885,0.008 -0.35498,-0.77909 -0.6284,-0.8166 -0.81279,-0.11149 -0.0784,0.29961 -0.3609,0.52917 -0.65131,0.52917 -0.28211,0 -0.72843,-0.23812 -0.99182,-0.52917 -0.56508,-0.6244 -1.19063,-0.6939 -1.19063,-0.13229 0,0.42134 -0.31441,0.52344 -0.63248,0.20537 -0.10533,-0.10533 -0.83567,-0.21133 -1.62298,-0.23555 -1.21185,-0.0373 -1.45676,0.0356 -1.59631,0.4753 -0.13953,0.43963 -0.31946,0.49323 -1.17209,0.34918 -0.61259,-0.1035 -1.07584,-0.0592 -1.18231,0.11308 -0.2788,0.4511 -5.152807,0.35842 -6.061047,-0.11526 z m 18.286487,-1.7843 c -0.0606,-0.18191 -0.44758,-0.33073 -0.85989,-0.33073 -0.41231,0 -0.79926,0.14882 -0.8599,0.33073 -0.0748,0.22449 0.20138,0.33072 0.8599,0.33072 0.65852,0 0.93473,-0.10623 0.85989,-0.33072 z m -0.0495,-2.20156 c 0.10015,-0.66789 0.4628,-1.54385 0.80996,-1.95642 0.60909,-0.72386 0.81134,-1.59036 0.45451,-1.94719 -0.27176,-0.27177 -0.88424,0.35996 -0.88424,0.91204 0,0.37558 -0.19364,0.49677 -0.79375,0.49677 -0.6001,0 -0.79375,-0.12119 -0.79375,-0.49677 0,-0.8854 -0.60352,-1.1356 -1.98981,-0.82493 -0.69047,0.15474 -1.31007,0.22668 -1.37688,0.15987 -0.21179,-0.21179 0.57178,-2.0741 0.93063,-2.2118 0.18917,-0.0726 0.65169,-0.74221 1.02783,-1.48803 0.72655,-1.44066 1.08882,-1.81566 1.5806,-1.63616 0.39387,0.14377 0.62774,-0.74383 0.31934,-1.21195 -0.19404,-0.29454 -0.30118,-0.27655 -0.58904,0.0989 -0.19353,0.2524 -0.43912,0.37165 -0.54577,0.265 -0.10665,-0.10665 -0.33495,-0.0155 -0.50733,0.20255 -0.17239,0.21805 -0.5972,0.63458 -0.94403,0.92562 l -0.63061,0.52917 0.19941,-0.79375 c 0.10967,-0.43656 0.23745,-0.97234 0.28396,-1.19063 0.0465,-0.21828 0.10203,-0.4564 0.12339,-0.52916 0.0214,-0.0728 0.14116,0.10583 0.26623,0.39687 0.21697,0.50492 0.22824,0.50189 0.24599,-0.0661 0.0102,-0.32742 0.15975,-0.59532 0.33227,-0.59532 0.17252,0 0.57762,-0.24796 0.90022,-0.55102 l 0.58654,-0.55103 0.17428,0.79351 c 0.0959,0.43643 0.3456,0.85925 0.55499,0.9396 0.38667,0.14838 0.43791,-0.24624 0.49418,-3.80606 0.0137,-0.86627 0.11821,-1.1695 0.38366,-1.11311 0.30175,0.0641 0.33084,-0.41622 0.16821,-2.77812 -0.10815,-1.570602 -0.20854,-3.064002 -0.2231,-3.318662 -0.0708,-1.23819 -0.97141,0.3829 -0.97141,1.7485 0,0.49798 0.22407,1.104202 0.52917,1.431692 0.67228,0.72161 0.66824,1.0212 -0.0162,1.20018 -0.33377,0.0873 -0.60138,-0.003 -0.68976,-0.23372 -0.20292,-0.52879 -0.58842,-0.46938 -0.56247,0.0867 0.0119,0.25466 -0.0641,0.88738 -0.16895,1.40603 -0.14021,0.69381 -0.086,1.02983 0.20529,1.27155 0.34822,0.28899 0.32882,0.45414 -0.16116,1.37209 -0.30636,0.57396 -0.63123,1.04356 -0.72194,1.04356 -0.56946,0 -1.08351,-0.94379 -1.58268,-2.90578 -0.55136,-2.16714 -0.82304,-2.63779 -1.52766,-2.64642 -0.48371,-0.006 -0.405,0.64138 0.21145,1.73892 0.31074,0.55324 0.58282,1.60358 0.63738,2.46049 0.0869,1.36537 0.0399,1.52129 -0.54219,1.79596 -0.57517,0.27144 -0.63737,0.24184 -0.63737,-0.30337 0,-0.88177 -0.61523,-1.31229 -1.32923,-0.93017 -0.41267,0.22086 -0.52849,0.46731 -0.42096,0.89576 0.0842,0.33557 -0.0327,0.84953 -0.27041,1.18896 -0.25585,0.36528 -0.36246,0.87944 -0.27402,1.32162 0.0796,0.39806 0.039,1.1927 -0.0903,1.76587 -0.25792,1.14337 0.15494,3.39236 0.57509,3.13269 0.29775,-0.18401 1.54529,0.59366 1.54529,0.96328 0,0.14734 -0.285,0.19199 -0.64642,0.10128 -0.35554,-0.0892 -0.79993,-0.0674 -0.98754,0.0486 -0.18761,0.11595 -0.55579,0.22664 -0.81818,0.24597 -0.26239,0.0193 -0.61571,0.17379 -0.78517,0.34325 -0.23442,0.23443 -0.0982,0.30811 0.56941,0.30811 0.74727,0 0.85699,0.0786 0.73915,0.52917 -0.0761,0.29104 -0.0305,0.52916 0.10143,0.52916 0.1319,0 0.23982,0.53579 0.23982,1.19063 0,1.27935 0.12372,1.38939 0.93331,0.83007 0.59157,-0.40869 1.96233,-0.73409 3.23387,-0.76766 0.62572,-0.0165 0.8599,-0.14581 0.8599,-0.47472 0,-0.24861 0.23812,-0.51429 0.52917,-0.59039 0.29104,-0.0761 0.52916,-0.0305 0.52916,0.10143 0,0.1319 0.23813,0.23981 0.52917,0.23981 0.35203,0 0.52917,0.17639 0.52917,0.52693 0,0.2898 -0.23813,0.67563 -0.52917,0.85739 -0.67064,0.41882 -0.67758,0.73235 -0.0162,0.73235 0.40628,0 0.55067,-0.25149 0.69431,-1.20937 z m -6.76352,-6.20727 c 0,-0.44113 0.14883,-0.84643 0.33073,-0.90066 1.38859,-0.414 1.41556,-0.43466 0.92604,-0.70948 -0.25466,-0.14296 -0.46302,-0.43261 -0.46302,-0.64366 0,-0.21105 -0.11906,-0.38373 -0.26458,-0.38373 -0.14552,0 -0.26458,-0.23812 -0.26458,-0.52917 0,-0.29104 0.11906,-0.52916 0.26458,-0.52916 0.14552,0 0.26458,0.22424 0.26458,0.49831 0,0.27407 0.22549,0.55727 0.50109,0.62934 0.30072,0.0786 0.57575,0.47095 0.6878,0.98108 0.15616,0.71103 0.0661,0.97591 -0.5506,1.61962 -0.95737,0.99928 -1.43204,0.98851 -1.43204,-0.0325 z m -0.92604,5.82914 c 0.0899,-0.14552 0.0445,-0.26459 -0.10106,-0.26459 -0.14552,0 -0.33817,0.11907 -0.42811,0.26459 -0.0899,0.14552 -0.0444,0.26458 0.10107,0.26458 0.14552,0 0.33816,-0.11906 0.4281,-0.26458 z m -9.392707,-3.85208 c 0,-0.73678 -0.10297,-1.14259 -0.26458,-1.04271 -0.45522,0.28134 -0.3009,2.24895 0.17639,2.24895 0.0485,0 0.0882,-0.5428 0.0882,-1.20624 z m -3.26435,-0.18282 c -0.0734,-0.1819 -0.13345,-0.0331 -0.13345,0.33073 0,0.3638 0.0601,0.51263 0.13345,0.33073 0.0734,-0.1819 0.0734,-0.47956 0,-0.66146 z m 23.089697,-2.16322 c 0.90814,-0.96667 0.42758,-1.34743 -0.65675,-0.52038 -0.87004,0.66362 -0.99077,1.16225 -0.28139,1.16225 0.18432,0 0.60649,-0.28884 0.93814,-0.64187 z m -19.031597,-0.43208 c 0,-0.61135 -0.17059,-0.64535 -0.68035,-0.13558 -0.43318,0.43318 -0.50732,0.79153 -0.1134,0.54807 0.14552,-0.0899 0.26459,-0.0304 0.26459,0.13229 0,0.1627 0.11906,0.22223 0.26458,0.13229 0.14552,-0.0899 0.26458,-0.39462 0.26458,-0.67707 z m 17.197917,0.57309 c 0,-0.12995 -0.17859,-0.30481 -0.39688,-0.38857 -0.40329,-0.15476 -0.54186,0.12708 -0.22048,0.44846 0.25286,0.25286 0.61736,0.2175 0.61736,-0.0599 z m -11.06953,-0.95829 c 0.26048,-0.97398 0.12898,-1.08777 -0.76946,-0.66581 -0.42004,0.19728 -0.58862,0.39294 -0.39799,0.4619 0.1819,0.0658 0.33073,0.35778 0.33073,0.64882 0,0.76832 0.59718,0.45078 0.83672,-0.44491 z m -3.48255,-4.36169 c 0,-0.14552 -0.185617,-0.26458 -0.412487,-0.26458 -0.22687,0 -0.33891,0.11906 -0.24897,0.26458 0.0899,0.14553 0.27556,0.26459 0.41249,0.26459 0.13693,0 0.248967,-0.11906 0.248967,-0.26459 z m 10.58333,-6.87916 c 0,-0.14552 -0.0525,-0.26459 -0.11668,-0.26459 -0.0642,0 -0.19026,0.11907 -0.2802,0.26459 -0.0899,0.14552 -0.0374,0.26458 0.11668,0.26458 0.15411,0 0.2802,-0.11906 0.2802,-0.26458 z m 2.59539,-7.875922 c -0.0852,-1.02817 -0.53424,-1.34864 -0.69803,-0.49818 -0.0518,0.26919 -0.0134,0.92055 0.0855,1.44746 0.14957,0.79725 0.22291,0.88086 0.43706,0.49819 0.14154,-0.25291 0.22051,-0.90427 0.1755,-1.44747 z m 3.49003,-1.3845 c 0,-0.14552 -0.17157,-0.26458 -0.38126,-0.26458 -0.2097,0 -0.45485,0.11906 -0.54479,0.26458 -0.0899,0.14552 0.0816,0.26458 0.38126,0.26458 0.29963,0 0.54479,-0.11906 0.54479,-0.26458 z m 1.32291,-0.91043 c 0,-0.20969 -0.11906,-0.45484 -0.26458,-0.54478 -0.14552,-0.0899 -0.26458,0.0816 -0.26458,0.38126 0,0.29963 0.11906,0.54478 0.26458,0.54478 0.14552,0 0.26458,-0.17156 0.26458,-0.38126 z m 5.42396,-12.05415 c 0.0899,-0.14552 0.0374,-0.26459 -0.11668,-0.26459 -0.1541,0 -0.28019,0.11907 -0.28019,0.26459 0,0.14552 0.0525,0.26458 0.11667,0.26458 0.0642,0 0.19026,-0.11906 0.2802,-0.26458 z m -5.42396,-4.77812 c 0,-0.28245 -0.11906,-0.51355 -0.26458,-0.51355 -0.14552,0 -0.26458,0.30468 -0.26458,0.67707 0,0.38401 0.11452,0.6063 0.26458,0.51356 0.14552,-0.0899 0.26458,-0.39462 0.26458,-0.67708 z m 1.94777,-1.96876 c -0.16103,-0.41962 -0.62485,-0.55055 -0.62485,-0.17639 0,0.2798 0.28921,0.57327 0.56496,0.57327 0.1167,0 0.14365,-0.1786 0.0599,-0.39688 z m 2.28557,-0.67707 c 0,-0.51529 -0.13407,-0.77814 -0.39688,-0.77814 -0.40708,0 -0.52133,0.69073 -0.23686,1.43205 0.24197,0.63055 0.63374,0.2263 0.63374,-0.65391 z m 2.18069,-0.38974 c -0.31587,-0.56444 -0.72445,-0.0537 -0.47567,0.59456 0.11685,0.30453 0.24635,0.3465 0.44773,0.14512 0.18754,-0.18753 0.19698,-0.43762 0.0279,-0.73968 z m -5.43954,-0.70259 c -0.0845,-0.21107 -0.14715,-0.14837 -0.15985,0.15985 -0.0115,0.27892 0.0511,0.43519 0.13897,0.34727 0.0879,-0.0879 0.0973,-0.31612 0.0209,-0.50712 z m -1.31781,-5.64307 c -0.0226,-0.79698 -0.0794,-0.87718 -0.39652,-0.56004 -0.28824,0.28825 -0.30383,0.49407 -0.0704,0.93019 0.41376,0.7731 0.49747,0.70674 0.46695,-0.37015 z m -13.67959,-9.78544 c 0,-0.21829 -0.11907,-0.39688 -0.26459,-0.39688 -0.14552,0 -0.26458,0.17859 -0.26458,0.39688 0,0.21828 0.11906,0.39687 0.26458,0.39687 0.14552,0 0.26459,-0.17859 0.26459,-0.39687 z m -0.74947,-3.89801 c -0.23543,-0.23544 -0.30461,-0.0918 -0.29096,0.60394 0.0168,0.85725 0.0356,0.87605 0.30887,0.30887 0.21513,-0.44655 0.21047,-0.68444 -0.0179,-0.91281 z m 9.23068,-5.1399 c -0.4251,-0.32274 -1.33746,-0.0259 -1.33746,0.43511 0,0.53189 0.86172,0.72953 1.30322,0.2989 0.39076,-0.38115 0.39446,-0.46051 0.0342,-0.73401 z m -3.82751,0.0427 c 0.19786,-0.78836 -0.0446,-1.55576 -0.4185,-1.32466 -0.34323,0.21212 -0.3494,1.98553 -0.007,1.98553 0.14275,0 0.33418,-0.29739 0.42541,-0.66087 z m 1.78872,-2.39031 c -0.20987,-0.54693 -0.35701,-0.48248 -0.35701,0.15638 0,0.29963 0.11387,0.47441 0.25303,0.3884 0.13917,-0.086 0.18596,-0.33116 0.10398,-0.54478 z m 6.28995,-3.37228 c -0.21955,-0.21955 -0.2888,0.11338 -0.26568,1.27731 l 0.0313,1.57428 0.26568,-1.27732 c 0.19003,-0.91362 0.18113,-1.36186 -0.0313,-1.57427 z m -5.53699,-0.79036 c -0.15275,-0.18406 -0.33676,-0.86867 -0.40889,-1.52136 -0.17325,-1.5676 -0.1624,-1.55022 -0.49329,-0.78982 -0.36314,0.83453 -0.27508,1.5893 0.25469,2.18281 0.47309,0.53002 1.08083,0.65051 0.64749,0.12837 z m -4.81413,-6.015348 c 0,-0.14552 -0.11907,-0.26458 -0.26459,-0.26458 -0.14552,0 -0.26458,0.11906 -0.26458,0.26458 0,0.14552 0.11906,0.26459 0.26458,0.26459 0.14552,0 0.26459,-0.11907 0.26459,-0.26459 z m 3.39283,-0.17651 c -0.12873,-0.66378 -0.747,-0.75492 -0.747,-0.11012 0,0.325 0.17084,0.55122 0.41627,0.55122 0.24639,0 0.38137,-0.18002 0.33073,-0.4411 z m 6.92592,0.19213 c 0,-0.13693 -0.11907,-0.32255 -0.26459,-0.41249 -0.14552,-0.0899 -0.26458,-0.39462 -0.26458,-0.67707 0,-0.28246 -0.10933,-0.51356 -0.24294,-0.51356 -0.13362,0 -0.43128,-0.0723 -0.66146,-0.1606 -0.68485,-0.2628 -0.49822,0.64118 0.28158,1.36386 0.73061,0.67711 1.15199,0.82337 1.15199,0.39986 z m -3.88987,-3.62228 c 0.24933,-0.24933 -0.32971,-1.19557 -0.62133,-1.01534 -0.38151,0.23579 -0.30027,1.18242 0.10147,1.18242 0.19403,0 0.42797,-0.0752 0.51986,-0.16708 z m 1.91182,-1.92965 c -0.17094,-0.53857 -0.93237,-0.78636 -0.93237,-0.30342 0,0.3221 0.8203,1.13887 0.9817,0.97748 0.0687,-0.0687 0.0465,-0.37205 -0.0493,-0.67406 z M 52.559789,26.65593 c 0,-0.13693 -0.11906,-0.32255 -0.26458,-0.41249 -0.14552,-0.0899 -0.26459,-0.39462 -0.26459,-0.67707 0,-0.28246 -0.11906,-0.51355 -0.26458,-0.51355 -0.36493,0 -0.33165,0.69353 0.0636,1.3265 0.34514,0.55266 0.7301,0.69851 0.7301,0.27661 z m 14.927327,-1.62701 c -0.47292,-0.52257 -0.47518,-0.57159 -0.041,-0.88906 1.17854,-0.86177 -0.008,-3.84954 -1.52867,-3.84954 -0.63532,0 -0.7049,1.00748 -0.1554,2.24974 0.29335,0.66317 0.46036,1.396 0.37113,1.62853 -0.17376,0.45283 0.8209,1.39704 1.48273,1.40751 0.27693,0.004 0.24409,-0.13517 -0.12878,-0.54718 z m 7.12776,-1.81055 c -0.22869,-0.25335 -0.66913,0.48878 -0.47577,0.80164 0.1535,0.24837 0.25633,0.20254 0.39353,-0.17538 0.10215,-0.28138 0.13915,-0.5632 0.0822,-0.62626 z m -20.858137,0.22701 c 0.0958,-0.30201 0.10955,-0.61384 0.0304,-0.69296 -0.18584,-0.18584 -0.9628,0.58772 -0.9628,0.95858 0,0.51125 0.75398,0.29644 0.93237,-0.26562 z m 9.650967,-1.61684 c 0,-0.36859 -0.70225,-1.01237 -0.89455,-0.82007 -0.27469,0.27469 -0.18238,1.13393 0.12182,1.13393 0.17896,0 0.2253,0.32109 0.12411,0.8599 l -0.1615,0.85989 0.40506,-0.89027 c 0.22278,-0.48965 0.40506,-1.00417 0.40506,-1.14338 z m 14.97661,0.37595 c 0.34856,-0.23184 0.43139,-1.84452 0.10509,-2.04618 -0.12566,-0.0777 -0.30326,-0.0202 -0.39466,0.12769 -0.25448,0.41175 -0.61052,0.32057 -0.758,-0.19412 -0.073,-0.25466 -0.0724,0.0132 10e-4,0.59531 0.22283,1.76146 0.36637,1.9696 1.04635,1.5173 z m -15.48573,-3.75386 c -0.2445,-0.15111 -0.30838,-0.48898 -0.19739,-1.04395 0.13922,-0.69607 0.0849,-0.82053 -0.35844,-0.82053 -0.79926,0 -0.73972,1.67195 0.0728,2.04335 0.66809,0.3054 1.04239,0.1668 0.48307,-0.17887 z m 4.9882,-1.63509 c -0.31267,-0.58422 -0.77492,-0.42239 -0.77492,0.27129 0,0.6547 0.28493,0.87015 0.6977,0.52758 0.25571,-0.21223 0.27644,-0.42663 0.0772,-0.79887 z m 8.03483,0.44038 c -0.44936,-0.61741 -1.13739,-0.90278 -1.13636,-0.47133 3.7e-4,0.15561 1.15385,0.98338 1.53324,1.10029 0.0432,0.0133 -0.13542,-0.26973 -0.39688,-0.62896 z m -7.57175,-2.11553 c -0.13981,-0.41999 -0.97341,-0.49325 -0.97341,-0.0855 0,0.19777 0.23954,0.35958 0.53231,0.35958 0.29278,0 0.49127,-0.12331 0.4411,-0.27403 z m -11.34074,-1.9102 c -0.0606,-0.514107 -0.2809,-0.76243 -0.79808,-0.899617 -0.9253,-0.245447 -1.11082,0.229245 -0.39646,1.014427 0.752,0.82657 1.29933,0.77396 1.19454,-0.11481 z m 9.04441,-0.215915 c 0,-0.48507 -0.14111,-0.661458 -0.52917,-0.661458 -0.60455,0 -0.63597,0.09981 -0.25527,0.811144 0.38254,0.714779 0.78444,0.638089 0.78444,-0.149686 z m 2.02731,-0.992188 c -0.0734,-0.181901 -0.13345,-0.03307 -0.13345,0.33073 0,0.363802 0.0601,0.51263 0.13345,0.330729 0.0734,-0.181901 0.0734,-0.479558 0,-0.661459 z m -4.21012,-0.264583 c -0.0606,-0.181901 -0.269,-0.330729 -0.46302,-0.330729 -0.19403,0 -0.40239,0.148828 -0.46302,0.330729 -0.0656,0.196741 0.122,0.330729 0.46302,0.330729 0.34101,0 0.5286,-0.133988 0.46302,-0.330729 z M 53.287359,7.4358998 c -0.25214,-0.252137 -0.75763,0.156263 -0.56973,0.460296 0.11168,0.180711 0.25968,0.176146 0.4497,-0.01387 0.15577,-0.155775 0.20979,-0.356665 0.12003,-0.446423 z m 9.676927,-1.010381 c 0.0783,-0.204055 0.0794,-0.433976 0.002,-0.510937 -0.24302,-0.243024 -0.88194,0.12889 -0.88194,0.513377 0,0.480192 0.69504,0.478264 0.8795,-0.0024 z m -1.05645,-2.755878 c 0.39126,-0.671814 0.43841,-0.95082 0.20082,-1.188413 -0.2376,-0.237593 -0.3614,-0.228109 -0.52735,0.0404 -0.1629,0.263589 -0.25274,0.21367 -0.36108,-0.200649 -0.0883,-0.337438 -0.35926,-0.551533 -0.69817,-0.551533 -0.58927,0 -0.73543,0.50642 -0.27814,0.963714 0.19134,0.19134 0.15083,0.379511 -0.13229,0.61448 -0.49274,0.408936 -0.53026,0.972438 -0.0774,1.161889 0.71503,0.299105 1.38518,-0.0013 1.87357,-0.839885 z m 1.41864,0.02307 c -0.0671,-0.257431 -0.12639,-0.110869 -0.13178,0.325693 -0.005,0.436563 0.0495,0.647188 0.12197,0.468057 0.0725,-0.179132 0.0769,-0.536319 0.01,-0.79375 z m -9.494137,0.259548 c -0.049,-0.254662 -0.20497,-0.463021 -0.34651,-0.463021 -0.14153,0 -0.29746,0.208359 -0.3465,0.463021 -0.0558,0.289613 0.074,0.46302 0.3465,0.46302 0.27251,0 0.40228,-0.173407 0.34651,-0.46302 z m 4.283697,-2.447396 c 0,-0.145521 -0.23813,-0.264584 -0.52917,-0.264584 -0.29104,0 -0.52916,0.119063 -0.52916,0.264584 0,0.145521 0.23812,0.264583 0.52916,0.264583 0.29104,0 0.52917,-0.119062 0.52917,-0.264583 z m 14.1993,119.6798572 c -0.27447,-0.27447 -0.20738,-1.14653 0.0882,-1.14653 0.14552,0 0.26458,0.29766 0.26458,0.66146 0,0.6927 -0.0611,0.77673 -0.35278,0.48507 z m 2.34542,-2.81158 c -0.11326,-0.26094 -0.13169,-0.54867 -0.0409,-0.63941 0.26868,-0.26868 0.48527,0.10873 0.36161,0.63011 -0.10963,0.46221 -0.1239,0.46263 -0.32066,0.009 z m -0.9343,-2.81075 c 0,-0.32044 1.08349,-1.09613 1.32371,-0.94766 0.41219,0.25474 -0.005,0.86471 -0.68003,0.9937 -0.35403,0.0677 -0.64368,0.047 -0.64368,-0.046 z m 1.98437,-1.08045 c 0.0899,-0.14552 0.34212,-0.26458 0.5604,-0.26458 0.21828,0 0.32329,0.11906 0.23335,0.26458 -0.0899,0.14553 -0.34211,0.26459 -0.5604,0.26459 -0.21828,0 -0.32329,-0.11906 -0.23335,-0.26459 z m 1.98843,-1.12447 c 0.003,-0.4814 0.0531,-0.51937 0.26053,-0.19844 0.3315,0.51296 0.3315,0.79375 0,0.79375 -0.14552,0 -0.26276,-0.26789 -0.26053,-0.59531 z m -1.32697,-1.25678 c 0,-0.29104 0.10632,-0.52916 0.23628,-0.52916 0.2974,0 0.57481,0.68821 0.36285,0.90017 -0.3185,0.3185 -0.59913,0.14472 -0.59913,-0.37101 z m -1.05833,0 c 0,-0.14552 0.11906,-0.26458 0.26458,-0.26458 0.14552,0 0.26458,0.11906 0.26458,0.26458 0,0.14553 -0.11906,0.26459 -0.26458,0.26459 -0.14552,0 -0.26458,-0.11906 -0.26458,-0.26459 z m -1.94756,-2.77758 c -0.28023,-0.73027 -0.19211,-1.19117 0.22776,-1.19117 0.43126,0 0.52337,0.71372 0.16506,1.27896 -0.17845,0.28152 -0.25792,0.26376 -0.39282,-0.0878 z m -2.28578,-2.2495 c 0,-0.50844 0.51743,-0.7173 0.87965,-0.35507 0.2003,0.2003 -0.3005,0.88424 -0.64746,0.88424 -0.1277,0 -0.23219,-0.23813 -0.23219,-0.52917 z m 1.5875,-6.98982 c 0,-0.206382 -0.0826,-0.593332 -0.18363,-0.859892 -0.172,-0.45396 -0.15524,-0.45653 0.26458,-0.0405 0.49063,0.48614 0.60428,1.275672 0.18364,1.275672 -0.14552,0 -0.26459,-0.16886 -0.26459,-0.37524 z m 8.80897,-3.250542 c 0.13042,-3.25759 0.57373,-3.92431 0.8561,-1.28755 0.18523,1.72962 -0.24688,4.11958 -0.74483,4.11958 -0.12356,0 -0.17364,-1.27441 -0.11127,-2.83203 z m -6.16313,1.90599 c 0.18115,-0.21829 0.52315,-0.39309 0.76,-0.38846 0.36177,0.007 0.3485,0.0705 -0.083,0.39687 -0.66848,0.50561 -1.0992,0.50026 -0.67703,-0.008 z m 1.48608,-1.47712 c -0.17659,-0.5575 -0.10361,-1.30101 0.12768,-1.30101 0.35235,0 0.56787,1.0992 0.27328,1.39379 -0.19987,0.19987 -0.31684,0.17281 -0.40096,-0.0928 z m -0.65056,-1.56559 c 0,-0.3638 0.0601,-0.51263 0.13345,-0.33073 0.0734,0.1819 0.0734,0.47956 0,0.66146 -0.0734,0.1819 -0.13345,0.0331 -0.13345,-0.33073 z m 3.50788,-1.12448 c 0.0848,-0.1819 0.22767,-0.53909 0.31749,-0.79375 0.23742,-0.6731 0.63077,-0.56701 0.63077,0.17013 0,0.34823 -0.18833,0.70542 -0.41851,0.79375 -0.60558,0.23238 -0.70282,0.20115 -0.52975,-0.17013 z m -1.96215,-0.61093 c 0,-0.22687 0.121,-0.3377 0.2689,-0.2463 0.14789,0.0914 0.20039,0.27702 0.11667,0.41249 -0.22681,0.36699 -0.38557,0.29856 -0.38557,-0.16619 z m -1.6757,-0.82223 c -0.27447,-0.27447 -0.20739,-1.14653 0.0882,-1.14653 0.14552,0 0.26458,0.29766 0.26458,0.66146 0,0.69269 -0.0611,0.77673 -0.35278,0.48507 z m 0.99229,-2.29894 c -0.11263,-0.29351 -0.0166,-0.64221 0.25035,-0.90918 0.40102,-0.40101 0.43276,-0.3946 0.429,0.0867 -0.002,0.28584 -0.11488,0.69497 -0.25035,0.90917 -0.2095,0.33128 -0.27359,0.31833 -0.429,-0.0867 z m 5.43506,-1.24407 c -0.68798,-0.96618 -0.42794,-1.44645 0.2982,-0.55077 0.45548,0.56182 0.68558,1.35975 0.39212,1.35975 -0.0628,0 -0.37349,-0.36404 -0.69032,-0.80898 z m -2.32863,-3.15977 c 0,-0.3638 0.0601,-0.51263 0.13345,-0.33073 0.0734,0.1819 0.0734,0.47956 0,0.66146 -0.0734,0.1819 -0.13345,0.0331 -0.13345,-0.33073 z m 0.8961,-1.02106 c -0.17229,-0.54283 0.0591,-1.36019 0.38504,-1.36019 0.32413,0 0.50795,0.68546 0.34792,1.2974 -0.17957,0.6867 -0.52553,0.71634 -0.73296,0.0628 z m 12.29129,-6.1951 c 0,-0.43076 0.20378,-0.81178 0.52654,-0.98451 0.28959,-0.15499 0.50818,-0.36754 0.48576,-0.47233 -0.0837,-0.39104 0.37673,-1.64575 0.60389,-1.64575 0.12974,0 0.2359,0.29766 0.2359,0.66146 0,0.3638 -0.11907,0.66146 -0.26459,0.66146 -0.14552,0 -0.26458,0.17859 -0.26458,0.39687 0,0.21828 -0.11906,0.39688 -0.26458,0.39688 -0.14552,0 -0.26837,0.14883 -0.273,0.33073 -0.005,0.1819 -0.18322,0.56184 -0.39688,0.84432 -0.37296,0.4931 -0.38846,0.48556 -0.38846,-0.18913 z m -12.59601,-3.25652 c 0.0883,-0.23018 0.1606,-0.46831 0.1606,-0.52917 0,-0.0609 0.17859,-0.11065 0.39687,-0.11065 0.47842,0 0.5115,0.30872 0.0794,0.74083 -0.45213,0.45213 -0.82634,0.39278 -0.63685,-0.10101 z m -2.55865,-10.59101 c -0.10514,-0.10514 -0.19117,-0.52851 -0.19117,-0.94082 0,-0.57327 0.12451,-0.74966 0.52917,-0.74966 0.33414,0 0.52916,0.17639 0.52916,0.4786 0,0.60686 -0.61404,1.465 -0.86716,1.21188 z m 3.51808,-2.3458 c -0.26683,-0.32153 -0.26818,-0.56159 -0.007,-1.19289 0.30244,-0.73015 0.26459,-0.86188 -0.49696,-1.72924 -0.97324,-1.10845 -0.97969,-1.16172 -0.29518,-2.43886 0.29104,-0.54302 0.52916,-1.1379 0.52916,-1.32196 0,-0.5062 0.44552,-0.4023 1.04803,0.24441 0.42353,0.45461 0.53947,0.93426 0.53947,2.23174 0,0.90897 0.11128,1.94536 0.24729,2.30308 0.20434,0.53747 0.11893,0.79416 -0.49188,1.47832 -0.64522,0.7227 -0.78163,0.77676 -1.07324,0.4254 z m 0.78867,-5.03322 c 0,-0.67552 -0.36113,-0.88282 -0.66929,-0.3842 -0.2201,0.35612 0.0413,1.04566 0.3964,1.04566 0.15009,0 0.27289,-0.29766 0.27289,-0.66146 z m 1.20192,4.64849 c -0.0837,-0.13546 -0.0312,-0.32108 0.11668,-0.41249 0.14789,-0.0914 0.2689,0.0194 0.2689,0.2463 0,0.46475 -0.15877,0.53318 -0.38558,0.16619 z m 3.33777,-3.19328 c 0,-0.3638 0.06,-0.51263 0.13345,-0.33073 0.0734,0.1819 0.0734,0.47956 0,0.66146 -0.0734,0.1819 -0.13345,0.0331 -0.13345,-0.33073 z m -8.17771,-0.81629 c -0.47398,-0.17913 -0.59449,-0.42896 -0.59127,-1.2257 0.005,-1.27778 0.19491,-1.54045 1.26279,-1.74826 1.01879,-0.19826 1.29734,0.19877 0.9244,1.31759 -0.32344,0.97032 -0.79142,1.07644 -0.72622,0.16468 0.0291,-0.4064 -0.002,-0.49826 -0.0701,-0.20556 -0.0675,0.29104 -0.26009,0.70085 -0.42805,0.91068 -0.226,0.28236 -0.22662,0.33433 -0.002,0.19996 0.16665,-0.0999 0.36981,-0.007 0.45146,0.20532 0.19858,0.51749 -0.0969,0.6548 -0.82061,0.38129 z m 0.19843,-3.94621 c 0,-0.29104 0.11907,-0.52917 0.26459,-0.52917 0.14552,0 0.26458,0.23813 0.26458,0.52917 0,0.29104 -0.11906,0.52917 -0.26458,0.52917 -0.14552,0 -0.26459,-0.23813 -0.26459,-0.52917 z m 20.16972,-2.11667 c 0,-0.50932 0.0545,-0.71768 0.121,-0.46302 0.0666,0.25466 0.0666,0.67138 0,0.92604 -0.0666,0.25467 -0.121,0.0463 -0.121,-0.46302 z m -18.4548,-0.008 c -0.10293,-0.16654 -0.0644,-0.42553 0.0856,-0.57554 0.15001,-0.15001 0.2074,-0.67542 0.12754,-1.16757 -0.16706,-1.02948 0.10402,-1.12717 0.94743,-0.34142 0.86555,0.80639 0.70267,2.19337 -0.27081,2.30602 -0.38644,0.0447 -0.78683,-0.055 -0.88976,-0.22149 z m -3.03783,-2.65355 c 0,-0.44516 0.10309,-0.74565 0.2291,-0.66778 0.21314,0.13173 0.0969,1.47714 -0.12766,1.47714 -0.0558,0 -0.10144,-0.36421 -0.10144,-0.80936 z m -8.0698,-2.63022 c -0.0899,-0.14552 -0.0444,-0.26459 0.10107,-0.26459 0.14552,0 0.33816,0.11907 0.4281,0.26459 0.0899,0.14552 0.0445,0.26458 -0.10106,0.26458 -0.14552,0 -0.33817,-0.11906 -0.42811,-0.26458 z m 10.73652,-0.15434 c 0.0127,-0.30823 0.0754,-0.37092 0.15985,-0.15986 0.0764,0.191 0.067,0.4192 -0.0209,0.50712 -0.0879,0.0879 -0.15045,-0.0684 -0.13896,-0.34726 z m 11.83855,-1.59467 c 0.0823,-0.70471 -0.0428,-1.09769 -0.51766,-1.62579 l -0.62616,-0.69645 0.84526,0.64656 c 0.90238,0.69026 1.1574,1.80222 0.5323,2.32101 -0.27157,0.22538 -0.31983,0.0921 -0.23374,-0.64533 z m -5.50944,0.16151 c 0,-0.14552 0.12609,-0.26459 0.2802,-0.26459 0.15411,0 0.20661,0.11907 0.11667,0.26459 -0.0899,0.14552 -0.21602,0.26458 -0.28019,0.26458 -0.0642,0 -0.11668,-0.11906 -0.11668,-0.26458 z m 9.0402,-0.66976 c -0.28399,-0.62328 -0.26858,-0.65017 0.22211,-0.38756 0.29,0.1552 0.52727,0.45659 0.52727,0.66975 0,0.60949 -0.41417,0.45353 -0.74938,-0.28219 z m -19.96456,-1.2535 c 0.076,-0.39742 0.24331,-0.72258 0.37187,-0.72258 0.33941,0 0.28703,0.35515 -0.13813,0.93659 -0.34783,0.47569 -0.36294,0.46186 -0.23374,-0.21401 z m 7.56839,-2.66468 c 0.10722,-0.28578 -0.003,-0.80153 -0.26729,-1.24863 -0.56807,-0.96167 -0.2057,-1.385 0.47103,-0.55027 0.62506,0.771 0.64611,1.44589 0.06,1.92267 -0.39317,0.31982 -0.42462,0.30506 -0.26372,-0.12377 z m -7.49195,-2.24713 c 0,-0.60634 -0.11906,-1.10243 -0.26458,-1.10243 -0.14552,0 -0.26458,-0.1871 -0.26458,-0.41578 0,-0.36502 0.0548,-0.36099 0.44873,0.033 0.28794,0.28794 0.42582,0.78888 0.3848,1.39799 -0.0905,1.34353 -0.30437,1.40486 -0.30437,0.0873 z m 6.5365,-3.41754 c -0.17205,-0.89565 -0.16764,-0.90018 0.44242,-0.4541 0.28752,0.21025 0.42976,0.53459 0.33861,0.77212 -0.24499,0.63844 -0.62719,0.48282 -0.78103,-0.31802 z m -5.47816,-1.999215 c 0,-0.51675 -0.1786,-1.11814 -0.39688,-1.33642 -0.44895,-0.44895 -0.53289,-1.22842 -0.13229,-1.22842 0.14552,0 0.26458,0.12609 0.26458,0.2802 0,0.15411 0.13238,0.19838 0.29417,0.0984 0.74111,-0.45803 1.08981,2.19678 0.36729,2.796405 -0.3401,0.28226 -0.39687,0.19498 -0.39687,-0.610155 z m 7.71256,-0.0866 c -0.0471,-0.98496 -0.98027,-1.41745 -1.50627,-0.6981 -0.28585,0.39092 -0.3442,0.37882 -0.61522,-0.12757 -0.16467,-0.3077 -0.29941,-0.8258 -0.29941,-1.15133 0,-0.32553 -0.17257,-0.78256 -0.38349,-1.01563 -0.21498,-0.23755 -0.29384,-0.5688 -0.17947,-0.75386 0.15391,-0.24903 0.42682,-0.18004 1.1111,0.28087 1.14352,0.77024 2.17153,2.58115 2.02296,3.56359 -0.1073,0.709495 -0.11173,0.706595 -0.1502,-0.098 z m 7.82282,-0.31499 c 0.18922,-1.22751 0.19603,-1.23363 0.53787,-0.48339 0.23123,0.50751 0.19362,0.70133 -0.2018,1.0399 -0.46152,0.395165 -0.47845,0.367135 -0.33607,-0.55651 z m -3.07908,0.0636 c 0.0127,-0.30822 0.0754,-0.37092 0.15985,-0.15985 0.0764,0.19099 0.067,0.4192 -0.0209,0.50712 -0.0879,0.0879 -0.15046,-0.0684 -0.13897,-0.34727 z m -5.04797,-3.23912 c 0,-0.12016 0.29766,-0.4981 0.66146,-0.83987 0.73269,-0.68833 0.87317,-1.89169 0.35389,-3.03138 -0.48299,-1.06006 -0.0364,-1.11808 0.98516,-0.12798 0.77327,0.74948 0.92076,1.0655 0.85593,1.834 -0.062,0.73546 -0.20343,0.94624 -0.68015,1.01388 -0.331,0.047 -0.79118,0.3744 -1.02261,0.72761 -0.40054,0.6113 -1.15368,0.88792 -1.15368,0.42374 z m -1.05833,-2.70757 c 0,-0.4722 0.11022,-0.74125 0.26458,-0.64584 0.14552,0.0899 0.26458,0.45415 0.26458,0.80936 0,0.35521 -0.11906,0.64584 -0.26458,0.64584 -0.14552,0 -0.26458,-0.36421 -0.26458,-0.80936 z m 11.13338,-0.40331 c 0.0127,-0.30822 0.0754,-0.37092 0.15986,-0.15985 0.0764,0.19099 0.067,0.4192 -0.0209,0.50712 -0.0879,0.0879 -0.15045,-0.0684 -0.13897,-0.34727 z m -9.90585,-1.61674 c -0.29797,-0.29797 -0.18148,-0.61017 0.22767,-0.61017 0.21829,0 0.39688,0.11204 0.39688,0.24897 0,0.33363 -0.41317,0.57258 -0.62455,0.3612 z m -12.34003,-0.61017 c 0,-0.14552 0.12609,-0.26458 0.28019,-0.26458 0.15411,0 0.20662,0.11906 0.11668,0.26458 -0.0899,0.14552 -0.21602,0.26458 -0.2802,0.26458 -0.0642,0 -0.11667,-0.11906 -0.11667,-0.26458 z m 9.78958,-1.71979 c 0,-0.9695 0.20856,-1.14081 0.74083,-0.60854 0.53243,0.53242 0.3942,1.53458 -0.21166,1.53458 -0.42838,0 -0.52917,-0.17639 -0.52917,-0.92604 z m 7.11571,-1.12448 c -0.0154,-0.40018 -0.008,-1.04322 0.0172,-1.42897 0.0249,-0.38575 -0.0816,-0.77973 -0.23654,-0.87551 -0.15498,-0.0958 -0.28439,-0.0183 -0.28759,0.1722 -0.003,0.19049 -0.23937,-0.16832 -0.52483,-0.79736 -0.28547,-0.62903 -0.76721,-1.49223 -1.07054,-1.91823 -0.61865,-0.8688 -1.38866,-1.04703 -1.26071,-0.29179 0.045,0.2655 -0.1559,0.98272 -0.44639,1.59382 -0.43575,0.91666 -0.64392,1.0984 -1.18963,1.03862 -0.56097,-0.0615 -0.6488,-0.18997 -0.57812,-0.84586 0.15,-1.3921 -0.14652,-2.00473 -0.97033,-2.00473 -1.02074,0 -1.14281,-0.20303 -0.67082,-1.11576 0.22301,-0.43125 0.34106,-0.95194 0.26234,-1.15708 -0.22793,-0.59397 0.2795,-0.43512 1.22012,0.38195 1.97013,1.71136 2.90877,1.67745 2.32741,-0.0841 -0.17523,-0.53094 -0.27737,-1.467126 -0.22699,-2.080408 l 0.0916,-1.115058 -0.85989,0.100622 c -0.63106,0.07384 -0.8599,-0.0045 -0.8599,-0.294356 0,-0.617909 1.23614,-0.726517 1.75415,-0.154122 0.24449,0.270163 0.77034,0.491205 1.16855,0.491205 0.59832,0 0.7979,0.184657 1.14962,1.063688 0.53037,1.325539 0.5318,1.461559 0.01,0.939589 -0.52905,-0.529047 -1.01365,-0.528185 -1.45414,0.003 -0.2723,0.32809 -0.27929,0.52713 -0.0324,0.92245 0.17314,0.27725 0.31481,0.79012 0.31481,1.1397 0,0.51054 0.17308,0.66807 0.8797,0.80063 1.35499,0.2542 2.82447,2.11639 2.82447,3.57932 0,0.67366 -0.90914,2.66454 -1.21676,2.66454 -0.0584,0 -0.11878,-0.32742 -0.1342,-0.7276 z m -4.33759,-4.29948 c 0.0899,-0.14552 0.0374,-0.26458 -0.11667,-0.26458 -0.15411,0 -0.2802,0.11906 -0.2802,0.26458 0,0.14552 0.0525,0.26458 0.11668,0.26458 0.0642,0 0.19026,-0.11906 0.28019,-0.26458 z m -4.29947,0.005 c -0.7667,-0.62675 -0.75067,-0.7987 0.0744,-0.7987 0.36836,0 0.74136,0.1866 0.82888,0.41466 0.26268,0.68454 -0.26257,0.90785 -0.90333,0.38404 z m -0.81812,-1.85703 c 0,-0.36381 0.06,-0.51263 0.13345,-0.33073 0.0734,0.1819 0.0734,0.47955 0,0.66146 -0.0734,0.1819 -0.13345,0.0331 -0.13345,-0.33073 z m -6.78528,-0.78829 c -0.18617,-0.30123 0.19664,-1.10021 0.74532,-1.555572 0.31977,-0.265385 0.36908,-0.177196 0.30803,0.550932 -0.04,0.47678 -0.0857,0.95618 -0.10168,1.06532 -0.0422,0.28905 -0.76396,0.24304 -0.95167,-0.0607 z m -3.66768,-5.1563652 c -0.082,-0.213621 -0.0593,-0.44389 0.0505,-0.511709 0.26186,-0.161838 0.6861,0.152045 0.76956,0.569381 0.0931,0.4655052 -0.63903,0.4140152 -0.82003,-0.05767 z m 7.36847,-0.140765 c 0.0899,-0.145521 0.21603,-0.264584 0.2802,-0.264584 0.0642,0 0.11668,0.119063 0.11668,0.264584 0,0.145521 -0.12609,0.264583 -0.2802,0.264583 -0.15411,0 -0.20662,-0.119062 -0.11668,-0.264583 z m 3.0636,-0.15434 c 0.0127,-0.308225 0.0754,-0.37092 0.15985,-0.159853 0.0764,0.190996 0.067,0.419199 -0.0209,0.507118 -0.0879,0.08792 -0.15045,-0.06835 -0.13896,-0.347265 z m 3.85967,-0.02205 c -0.30444,-0.304439 -0.19269,-0.617361 0.22048,-0.617361 0.21828,0 0.39688,-0.171567 0.39688,-0.38126 0,-0.545351 0.50489,-0.78362 0.68207,-0.321886 0.082,0.2138 -0.0643,0.638065 -0.32525,0.942811 -0.50392,0.588527 -0.69087,0.66101 -0.97418,0.377696 z m -14.19931,-2.13633 c 0,-0.270525 0.12672,-0.618581 0.28159,-0.773457 0.19907,-0.199067 0.1603,-0.402887 -0.13229,-0.695476 -0.22764,-0.227636 -0.41388,-0.58978 -0.41388,-0.804764 0,-0.321607 0.11482,-0.336695 0.64787,-0.08513 0.77742,0.366881 1.0822,1.263433 0.53383,1.570315 -0.21337,0.119411 -0.38795,0.382762 -0.38795,0.585224 0,0.202462 -0.11907,0.441698 -0.26459,0.531635 -0.14552,0.08994 -0.26458,-0.05782 -0.26458,-0.328344 z m -2.64583,-1.320129 c 0,-0.799117 0.41144,-1.394236 0.96393,-1.394236 0.21482,0 0.30728,0.344232 0.2665,0.992188 -0.0502,0.797672 -0.17693,1.008763 -0.64643,1.076735 -0.48625,0.0704 -0.584,-0.04254 -0.584,-0.674687 z m 8.99583,0.193264 c 0,-0.14552 0.17859,-0.264583 0.39687,-0.264583 0.21829,0 0.39688,0.119063 0.39688,0.264583 0,0.145521 -0.17859,0.264584 -0.39688,0.264584 -0.21828,0 -0.39687,-0.119063 -0.39687,-0.264584 z m 3.96875,-0.264583 c 0,-0.145521 0.11906,-0.264583 0.26458,-0.264583 0.14552,0 0.26459,0.119062 0.26459,0.264583 0,0.145521 -0.11907,0.264583 -0.26459,0.264583 -0.14552,0 -0.26458,-0.119062 -0.26458,-0.264583 z m -5.02303,-0.727604 c 0.002,-0.264235 0.0888,-0.349429 0.20151,-0.198438 0.10861,0.145521 0.30522,0.353881 0.43692,0.463021 0.13171,0.109141 0.041,0.198438 -0.20151,0.198438 -0.24513,0 -0.43917,-0.205637 -0.43692,-0.463021 z m 6.98322,-1.345606 c -0.25689,-0.300034 -0.56491,-0.485057 -0.68447,-0.411163 -0.11956,0.07389 -0.21739,0.021 -0.21739,-0.117538 0,-0.500084 0.69193,-0.501665 1.30777,-0.003 0.44792,0.362703 0.54728,0.591104 0.3451,0.793281 -0.20218,0.202177 -0.41841,0.12686 -0.75101,-0.261591 z m -8.83936,-0.30804 c -0.20985,-0.129696 -0.29371,-0.323644 -0.18636,-0.430996 0.10735,-0.107351 0.33409,-0.05628 0.50386,0.113496 0.39977,0.399762 0.17664,0.622891 -0.3175,0.3175 z m 7.02276,-0.775468 c -0.0837,-0.135465 -0.0128,-0.332455 0.15756,-0.437755 0.18464,-0.114113 0.23915,-0.07719 0.13496,0.09141 -0.0961,0.155576 -0.0252,0.343167 0.15755,0.416867 0.2379,0.09591 0.24281,0.13994 0.0173,0.15489 -0.17332,0.01149 -0.38362,-0.08995 -0.46734,-0.225413 z"
       id="path1" /></g></svg>
