<?xml version="1.0" encoding="UTF-8"?>
<svg width="1200pt" height="1200pt" version="1.1" viewBox="0 0 1200 1200" xmlns="http://www.w3.org/2000/svg">
 <path d="m1036.8 539.64c0-241.25-195.57-436.81-436.81-436.81s-436.81 195.56-436.81 436.81c0 79.32 21.254 153.64 58.199 217.75-9.6602 14.82-15.336 32.496-15.336 51.504 0 103.07 83.555 186.62 186.62 186.62h21.469v28.598c0 40.355 32.711 73.066 73.066 73.066h225.55c40.355 0 73.066-32.711 73.066-73.066l0.003906-28.602h21.469c103.07 0 186.62-83.555 186.62-186.62 0-19.02-5.6641-36.684-15.336-51.504 36.98-64.113 58.223-138.43 58.223-217.75zm-643.31 195.16c-64.922 0-117.54-52.621-117.54-117.54 0-64.922 52.621-117.54 117.54-117.54 64.922 0 117.54 52.633 117.54 117.54s-52.617 117.54-117.54 117.54zm237.9 112.4h-4.2617c-8.2578 0-15.637-5.1484-18.48-12.898l-8.6602-23.559-8.6641 23.555c-2.8438 7.7539-10.223 12.898-18.48 12.898h-4.2617c-23.363 0-37.957-20.82-26.281-37.465l15.707-22.391 33.91-48.348c3.9258-5.5938 12.215-5.5938 16.141 0l33.91 48.348 15.707 22.391c11.672 16.648-2.918 37.469-26.285 37.469zm175.09-112.4c-64.922 0-117.54-52.621-117.54-117.54 0-64.922 52.621-117.54 117.54-117.54 64.922 0 117.54 52.633 117.54 117.54s-52.621 117.54-117.54 117.54z"/>
</svg>
