<?xml version="1.0" encoding="UTF-8"?>
<svg width="1200pt" height="1200pt" version="1.1" viewBox="0 0 1200 1200" xmlns="http://www.w3.org/2000/svg">
 <path d="m897.56 278.63c-74.062-142.13-235.31-163.13-253.31-165.19-135.94-14.438-233.44 61.875-260.26 85.312-115.31 102.75-112.5 265.69-112.5 267.19 0.1875 3.1875-0.5625 6-1.875 8.625v443.44c-0.375 26.438 3.9375 72.938 34.875 109.88 33.562 39.938 90.188 60.188 168.56 60.188 41.062 0 103.5 0 148.69-48 34.125-36 41.625-81.938 42-113.81 0.1875-28.125 9.75-55.312 27.562-78.938 25.5-33.562 56.25-74.625 90.938-121.69 109.31-148.69 123.94-176.44 133.31-208.31 24.75-84.188 18.375-168.94-18-238.87zm-94.312 206.06c-3 10.312-13.875 16.125-24.188 13.312-10.312-3.1875-16.125-13.875-13.312-24.188 7.875-26.25 17.438-77.25-6.5625-123.19-34.688-66.375-122.26-80.625-132-82.125-73.312-7.875-129.19 37.875-139.69 47.062-42.562 37.875-54.75 100.5-58.312 129.56 84.562 1.125 153.94 58.125 170.26 139.31 10.5 52.875-2.8125 106.5-36 147.19-33.562 40.875-83.062 64.312-135.94 64.312-10.688 0-19.5-8.8125-19.5-19.5s8.8125-19.5 19.5-19.5c41.062 0 79.5-18.188 105.56-49.875s36.188-73.688 28.125-114.94c-12.938-63.75-67.688-108-133.69-108h-1.3125c-10.875 0-20.438-4.3125-27-11.438-6.75-7.5-10.125-17.625-9.1875-27.562 4.3125-39.188 19.125-111.75 72-158.81 17.812-15.562 82.312-65.812 169.87-56.25 20.25 2.8125 119.25 20.625 162 102.75 30.375 57.938 19.125 120.19 9.5625 152.06z"/>
</svg>
