<?xml version='1.0' encoding='UTF-8'?>
<svg xmlns="http://www.w3.org/2000/svg" width="1200pt" height="1200pt" version="1.1" viewBox="0 0 1200 1200">
 <g transform="translate(600,600) scale(-0.85,0.85) translate(-600,-600)"><path d="m902.85 221.62c32.801 35.762 61.023 75.551 83.789 118.51-21.125 35.676-37.977 76.426-49.438 120.74-11.148 43.113-17.238 89.477-17.238 137.62 0 48.477 6.1641 95.125 17.449 138.45 11.637 44.664 28.688 85.637 50.039 121.34-22.887 43.523-51.363 83.824-84.523 119.99l33.852 19.062-0.039062 0.0625 0.25 0.13672c25.039 14.398 41.887 37.648 48.863 63.523 6.9492 25.789 4.0742 54.312-10.324 79.336-7.2266 12.574-23.273 16.914-35.836 9.6875-12.574-7.2266-16.914-23.273-9.6875-35.836 7.1016-12.336 8.4766-26.586 4.9609-39.586-3.4609-12.852-11.711-24.352-23.898-31.449l-0.039062 0.0625-748.79-421.57c-12.688-7.1133-17.199-23.164-10.086-35.852 2.5117-4.4883 6.1641-7.9609 10.375-10.25l748.5-418.9c0.39844-0.22656 0.78906-0.42578 1.1875-0.625 11.562-7.1484 19.387-18.324 22.75-30.762 3.5-13 2.1367-27.238-4.9609-39.586-7.2266-12.574-2.8867-28.625 9.6875-35.852 12.562-7.2266 28.613-2.8867 35.836 9.6875 14.398 25.023 17.273 53.551 10.324 79.336-6.7891 25.148-22.898 47.836-46.812 62.312-0.72656 0.51172-1.4766 0.98828-2.2617 1.4258zm-101.86 699.27c-64.387-91.375-102.06-201.86-102.06-320.9 0-119.36 37.875-230.14 102.59-321.66l-572.6 320.46zm204.3-542.02c-14.164 27.637-25.727 58.148-34.164 90.801-10.352 40.023-16 83.398-16 128.84 0 45.738 5.7266 89.398 16.211 129.66 8.5508 32.812 20.289 63.488 34.676 91.301 29.113-67.539 45.215-141.69 45.215-219.48 0-78.426-16.363-153.15-45.938-221.12z" fill-rule="evenodd"/>
</g></svg>