<?xml version="1.0" encoding="UTF-8"?>
<svg width="1200pt" height="1200pt" version="1.1" viewBox="0 0 1200 1200" xmlns="http://www.w3.org/2000/svg">
 <path d="m558 452.4c0 67.602-54.801 122.4-122.4 122.4-67.602 0-122.4-54.801-122.4-122.4 0-67.598 54.801-122.4 122.4-122.4 67.598 0 122.4 54.801 122.4 122.4z"/>
 <path d="m886.8 452.4c0 67.602-54.801 122.4-122.4 122.4-67.598 0-122.4-54.801-122.4-122.4 0-67.598 54.801-122.4 122.4-122.4 67.602 0 122.4 54.801 122.4 122.4z"/>
 <path d="m558 771.6c0 67.598-54.801 122.4-122.4 122.4-67.602 0-122.4-54.801-122.4-122.4 0-67.602 54.801-122.4 122.4-122.4 67.598 0 122.4 54.801 122.4 122.4z"/>
 <path d="m886.8 771.6c0 67.598-54.801 122.4-122.4 122.4-67.598 0-122.4-54.801-122.4-122.4 0-67.602 54.801-122.4 122.4-122.4 67.602 0 122.4 54.801 122.4 122.4z"/>
</svg>
