<?xml version='1.0' encoding='utf-8'?>
<svg xmlns="http://www.w3.org/2000/svg" width="1200pt" height="1200pt" version="1.1" viewBox="0 0 1200 1200">
 <g transform="translate(1200.0,0) scale(-1,1)"><path d="m315.12 1094.2 86.52-144.84c-35.176 14-73.414 18.512-110.88 13.078-146.76-16.918-173.76-212.76-177.48-248.04-19.078-16.801-91.68-91.199-26.879-202.8-3.1211-27.48-13.199-172.44 111.48-204 14.398-31.559 90.117-177.72 253.68-161.28l7.9219-1.8008c176.52-107.16 379.8 40.68 406.08 60.719 207.84 33.723 229.2 199.68 231.36 226.8 41.52 65.879 53.16 126.84 34.441 181.44-28.559 83.281-118.08 123.24-139.68 132-9.2383 16.559-44.762 64.441-135 37.559h-0.003906c-2.3203 20.199-11.613 38.957-26.281 53.039-28.559 27.238-77.039 38.762-152.16 36-8.6406 16.199-34.199 51-100.2 69.961-47.426 32.48-86.094 76.172-112.56 127.2l-2.8789 5.3984zm116.88-193.56 14.398 20.879-85.199 142.2 86.16-12c28.246-53.402 69.523-98.809 120-132l2.7617-1.1992c74.039-20.762 88.68-61.68 89.281-63.359l2.8789-8.5195h9c72 3.4805 118.44-6.1211 142.56-29.16 13.758-13.68 21.004-32.59 19.922-51.961v-16.68l16.078 5.8789c96.719 36 121.08-21.48 122.04-24l2.0391-5.0391 5.1602-1.9219c0.96094 0 101.64-36.84 129.6-118.92 16.441-48 5.0391-102.96-33.719-163.2l-1.8008-2.8789v-3.1172c0-7.0781-6.7188-174.96-214.32-207.12h-3.1211l-2.5195-1.9219c-2.1602-1.6797-211.92-165.6-382.8-60l-1.6797 1.0781-15.719 3.6016h-2.0391c-165.24-18.84-230.64 144.12-233.28 151.08l-2.3984 6-6.3594 1.3203c-121.68 26.16-99.242 176.16-98.281 182.64l0.71875 4.3203-2.2812 3.7188c-66.359 109.92 19.203 175.68 22.922 178.32l4.3203 3.2383v5.3984c0 2.1602 18.359 215.28 156.72 231.24 53.52 6.2383 97.922-4.0781 128.28-29.52z" />
 <path d="m646.92 669.48c-50.039 0-111.84-9.7188-154.2-50.039-36-34.32-50.039-65.762-42.719-96 12-51.719 87.48-96 236.04-139.44 4.3203-1.0781 92.879-22.078 141.96 9.4805h-0.003906c16.156 10.078 27.312 26.504 30.719 45.238 4.1172 14.805 1.3398 30.676-7.5586 43.203-13.922 18.48-41.398 27-81.48 25.441v-0.003906c-11.094-0.65234-22.223 0.39844-33 3.1211 5.0273 5.168 10.715 9.6484 16.922 13.32l9 5.8789-4.8008 9.6016c-7.457 14.652-21.539 24.801-37.801 27.238-18.84 1.4414-37.801-11.16-56.281-37.32-9.1953-13.875-22.305-24.703-37.668-31.113-15.359-6.4062-32.281-8.1094-48.609-4.8867-8.2383 1.1328-15.938 4.75-22.066 10.367-6.1328 5.6172-10.406 12.965-12.254 21.074-3.207 16.348 1.2109 33.266 12 45.961 18.238 21.238 53.879 32.52 102.96 32.52 49.078 0 73.68 8.0391 82.078 25.199 2.0781 4.6406 2.8594 9.7539 2.2695 14.801-0.58984 5.0508-2.5352 9.8438-5.6289 13.879l-2.6406 3.3594-4.1992 0.96094c-27.328 5.5703-55.152 8.3047-83.039 8.1602z" />
</g></svg>