<?xml version='1.0' encoding='utf-8'?>
<svg xmlns="http://www.w3.org/2000/svg" width="1200pt" height="1200pt" version="1.1" viewBox="0 0 1200 1200">
 <g transform="translate(1200.0,0) scale(-1,1)"><path d="m1055.5 755.49-56.25 56.25 26.512 26.512 24.246-24.242v142.24h37.5v-142.24l24.242 24.242 26.512-26.512-56.25-56.25h0.003906c-3.5195-3.5117-8.2852-5.4883-13.258-5.4883s-9.7383 1.9766-13.258 5.4883z" />
 <path d="m569.21 85.539c-12.844 1.875-25.949 4.2188-39.617 7.6328-160.22 40.723-285.84 197.45-285.84 356.83 0 114.26 94.52 318.75 187.5 318.75 2.6406 0.003906 5.2539 0.55859 7.668 1.6328 15.316 6.8203 28.848 17.086 39.543 30 7.3867-2.8672 14.699-5.3984 21.863-7.8008 25.379-6.3359 48.691-19.125 67.668-37.125 20.824-21.402 32.434-50.109 32.344-79.969-31.148 2.1133-61.5-10.406-82.105-33.863l-80.008 32.008-13.949-34.836 69.805-27.918 0.003906-0.003906c-8.4883-12.832-16.25-26.125-23.25-39.824-6.3242-13.738-7.4648-29.301-3.2109-43.816 4.2578-14.512 13.621-26.996 26.367-35.141l0.14844-0.1875c5.8125-4.9297 10.949-9.8242 15.77-14.699l-84.582-28.125 11.852-35.625 96.938 32.305c5.918-10.164 9.2305-21.637 9.6367-33.395-0.16797-8.5273-2.4844-16.879-6.7305-24.281-8.1055-15.617-12.234-32.992-12.02-50.586 0.12891-18.312 3.625-36.445 10.312-53.492 2.7109-7.332 4.8711-14.852 6.4688-22.5l-81.375 54.242-20.812-31.199 101.42-67.613c-1.793-6.668-4.0547-13.203-6.7695-19.555-7.3711-15.316-10.559-32.312-9.2422-49.258 2.5117-25.105 16.199-42.055 44.211-62.586z" />
 <path d="m486.8 837.62c-0.65625 10.582-2.1406 21.098-4.4414 31.445l74.289-24.375c83.457-30.168 94.312-79.762 113.81-169.69h-32.797c0.1875 39.938-15.297 78.359-43.125 107.01-23.094 22.113-51.422 38.008-82.332 46.199-8.8125 2.9258-17.211 5.9609-25.406 9.4102z" />
 <path d="m659.02 83.211c-7.5-0.78906-15.188-1.3242-23.062-1.6133v0.003906c-1.3281 3.793-3.8633 7.0469-7.2188 9.2617-58.273 36.73-64.969 46.762-66.242 61.012-0.70312 10.875 1.5781 21.734 6.6016 31.406 8.5938 19.117 12.75 39.93 12.148 60.883-0.46875 17.852-4.0273 35.488-10.52 52.125-5.3086 13.098-8.1016 27.078-8.2305 41.211-0.17188 12.102 2.7656 24.047 8.5312 34.688 6.6484 12.441 10.156 26.32 10.219 40.426-0.78125 23.242-8.6289 45.699-22.5 64.367 11.309 1.5234 22.477 3.9258 33.414 7.1836l29.719-44.57c8.8516-14.793 12.188-41.492 2.3438-51.336-12.598-13.906-19.574-31.996-19.574-50.758s6.9766-36.852 19.574-50.758c20.195-20.195 6.6562-53.477-3.1875-71.512-21.113-38.664-19.949-74.102 3.1875-97.238z" />
 <path d="m864.47 779.12c8.3789-15.316 19.227-29.152 32.102-40.949-13.613 1.5547-27.414 3.1875-40.312 4.7266-38.25 4.5352-60.281 7.1055-68.758 7.1055-33.941-0.45312-65.629-17.066-85.312-44.719-18.207 81.207-38.363 140.62-133.31 174.84l-102.19 33.543c-9.9922 21.555-24.246 40.863-41.906 56.758l-185.49 154.57h492.39c3.5938-69.23 23.512-136.62 58.125-196.69z" />
 <path d="m1050 562.5c0-4.9727-1.9766-9.7422-5.4922-13.258-3.5156-3.5156-8.2852-5.4922-13.258-5.4922h-15.695l-53.383 17.793-11.852-35.625 52.051-17.344 14.137-14.137c8.0234-13.668 2.2305-30.469-17.27-49.969h0.003907c-3.5117-3.5156-5.4883-8.2852-5.4883-13.258 0-4.9688 1.9766-9.7383 5.4883-13.254l18.75-18.75c5.6797-4.7383 9.1328-11.629 9.5273-19.012-0.13281-1.1055-0.50781-4.5195-6.207-8.082l-110.95-55.238c-34.5-19.688-32.23-46.875-30.242-70.969 0.52344-6.3945 1.125-13.312 1.125-20.812 0-12.242-15.898-44.102-58.539-77.398-35.168-26.887-75.551-46.152-118.57-56.57l-53.379 53.383c-15 15-2.7383 41.867 3.1875 52.762 25.352 46.352 24.188 88.633-3.1875 115.99-5.5 6.8828-8.4961 15.434-8.4961 24.242s2.9961 17.359 8.4961 24.242c26.551 26.531 17.625 73.219 2.8125 97.914l-37.969 57c-2.2812 3.4219-5.625 5.9961-9.5156 7.332-3.8906 1.3359-8.1094 1.3555-12.012 0.054688-54.789-18.262-68.137-8.8125-76.875-2.5117-5.6172 3.0195-9.9922 7.918-12.359 13.836-2.3672 5.9219-2.5781 12.484-0.59766 18.547 44.531 86.383 71.043 85.293 101.7 83.945 4.2383-0.19141 87.809-0.35938 87.809-0.35938 3.3438 0 6.625 0.89453 9.5039 2.5859 2.8828 1.6953 5.2578 4.1289 6.8828 7.0508 0.60156 1.0859 1.3867 2.6445 2.3828 4.6133 13.125 26.082 35.082 60.75 75 60.75 6.6562 0 160.71-18.281 184.89-18.75l73.125-18.262c22.598-10.699 38.348-31.996 41.961-56.738 0-9.2422-2.1367-13.125-13.445-24.375l-18.562-18.562c-3.5273-3.5273-5.5078-8.3203-5.4922-13.312zm-334.54-272.62c11.082-17.367 25.84-32.09 43.238-43.125 25.773-16.098 55.945-23.703 86.27-21.75l-2.4375 37.5c-22.391-1.5508-44.699 4-63.75 15.863-12.809 8.1523-23.652 19.039-31.762 31.875zm119.59 100.95h0.003906c-23.102 14.441-49.82 22.051-77.062 21.938-3.4297 0-6.5078-0.13281-9.207-0.30078l2.4375-37.5c22.387 1.5391 44.691-4.0117 63.75-15.859 12.809-8.1562 23.652-19.039 31.762-31.875l31.574 20.25c-11.059 17.449-25.828 32.25-43.254 43.348z" />
</g></svg>