<?xml version="1.0" encoding="UTF-8"?>
<svg width="1200pt" height="1200pt" version="1.1" viewBox="0 0 1200 1200" xmlns="http://www.w3.org/2000/svg">
 <path d="m779.34 462.47c-13.406 0-23.062-12.047-21-24.562l8.0625-48.328c28.359 10.031 74.203 32.812 110.39 57.422-5.1562 19.734-18.375 15.469-97.453 15.469zm-28.172-78.609c-43.172-15.281-92.156-25.594-137.95-27.141-5.3438 11.484-4.9219 14.297-13.125 79.266-3.0469 27.188 18 47.672 42.188 47.672h73.312c23.719 0 42.609-19.266 42.609-42.375 0-2.8125-0.046875-2.4844-6.9844-57.422zm-164.63-26.062c0-5.8125-86.859 7.2656-138.37 26.297l-6.5625 51.891c-3.0469 27.188 18 47.672 42.188 47.672h73.312c23.719 0 42.609-19.266 42.609-42.375 0-2.1094-6.4219-67.312-13.125-83.484zm-153.66 31.969c-16.406 4.8281-66 27.328-110.2 57.422 2.3438 8.9062 10.406 15.234 20.109 15.234 113.39 0 103.73 8.9531 90.047-72.656zm166.78 560.02c-192.71 0-404.86-128.53-484.78-312.98 0 176.48 173.06 408.71 429.52 437.11 277.78 30.703 515.11-172.69 540.32-437.53-77.859 181.69-289.6 313.4-485.02 313.4zm154.03-822.52c-30.656-10.453-67.453-1.6875-90.281 25.641-33.469 39.844-94.078 39.844-127.55 0-22.031-26.484-58.078-36.469-90.703-25.406-204.89 68.25-349.18 269.11-331.18 500.9 78.094-181.4 288.79-314.26 485.68-314.26 196.6 0 407.26 132.24 485.68 314.44 21.094-210.84-112.12-428.34-331.6-501.32zm-154.03 780.14c157.22 0 325.26-92.812 412.97-226.92-123.94-30.047-266.21-32.578-391.78 7.8281v91.969c0 28.031-42.375 27.984-42.375 0v-91.969c-125.48-40.359-268.08-37.875-392.02-7.8281 87.938 134.11 255.98 226.92 413.21 226.92zm-148.31-339c-49.406 0-80.719 47.25-75 47.25 113.11 0 208.97 27.656 223.31 36 15.469-9 109.73-36 223.31-36 3.8438 0-22.5-47.25-75-47.25z"/>
</svg>
