<?xml version="1.0" encoding="UTF-8"?>
<svg width="1200pt" height="1200pt" version="1.1" viewBox="0 0 1200 1200" xmlns="http://www.w3.org/2000/svg">
 <path d="m1149.2 937.36-29.199-109.38c-16.258-36.406-49.773-62.164-89.137-68.5l-194.14-28.863c-26.254-5.4102-47.676-24.328-56.301-49.707l-21.637-64.875c-46.594 32.781-101.81 51.117-158.76 52.715-56.945-1.5977-112.16-19.93-158.75-52.707l-21.156 63.5c-8.2227 25.59-29.352 44.934-55.566 50.875l-196.58 29.25c-39.918 6.957-73.488 33.883-88.945 71.34l-28.172 106.35c-1.9844 7.5-0.375 15.5 4.3594 21.645 4.7344 6.1484 12.055 9.75 19.812 9.75h1050c7.7578 0 15.078-3.6016 19.812-9.75s6.3438-14.145 4.3594-21.645zm-599.93-62.543c-1.3438 5.4062-4.457 10.211-8.8477 13.645-4.3867 3.4336-9.7969 5.2969-15.371 5.3008-2.0469-0.003906-4.0898-0.25-6.0781-0.73437l-100-25c-8.6719-2.1602-15.527-8.7852-17.988-17.375-2.4609-8.5898-0.15625-17.84 6.0547-24.27 6.207-6.4258 15.371-9.0508 24.043-6.8906l100 25c6.4336 1.6094 11.965 5.707 15.375 11.395 3.4102 5.6875 4.4219 12.496 2.8125 18.93zm231.81-6.7891-100 25c-1.9883 0.48437-4.0312 0.73047-6.0781 0.73437-8.2031-0.015624-15.875-4.0508-20.535-10.801s-5.7109-15.355-2.8203-23.031c2.8945-7.6758 9.3672-13.441 17.324-15.438l100-25c8.668-2.1602 17.836 0.46484 24.043 6.8906 6.207 6.4297 8.5156 15.68 6.0547 24.27-2.4609 8.5898-9.3203 15.215-17.988 17.375z"/>
 <path d="m600 618.75c138.72 0 300-163.82 300-375 0.003906-6.6328-2.6289-12.992-7.3164-17.684-4.6914-4.6875-11.051-7.3203-17.684-7.3164h-550c-6.6328-0.003906-12.992 2.6289-17.684 7.3164-4.6875 4.6914-7.3203 11.051-7.3164 17.684 0 211.18 161.28 375 300 375z"/>
</svg>
