<?xml version="1.0" encoding="UTF-8"?>
<svg width="1200pt" height="1200pt" version="1.1" viewBox="0 0 1200 1200" xmlns="http://www.w3.org/2000/svg">
 <path d="m397.2 291.6c0 67.598-54.801 122.4-122.4 122.4-67.602 0-122.4-54.801-122.4-122.4 0-67.602 54.801-122.4 122.4-122.4 67.598 0 122.4 54.801 122.4 122.4z"/>
 <path d="m727.2 291.6c0 67.598-54.801 122.4-122.4 122.4-67.602 0-122.4-54.801-122.4-122.4 0-67.602 54.801-122.4 122.4-122.4 67.598 0 122.4 54.801 122.4 122.4z"/>
 <path d="m1056 291.6c0 67.598-54.801 122.4-122.4 122.4-67.602 0-122.4-54.801-122.4-122.4 0-67.602 54.801-122.4 122.4-122.4 67.598 0 122.4 54.801 122.4 122.4z"/>
 <path d="m397.2 612c0 67.602-54.801 122.4-122.4 122.4-67.602 0-122.4-54.797-122.4-122.4s54.801-122.4 122.4-122.4c67.598 0 122.4 54.797 122.4 122.4z"/>
 <path d="m727.2 612c0 67.602-54.801 122.4-122.4 122.4-67.602 0-122.4-54.797-122.4-122.4s54.801-122.4 122.4-122.4c67.598 0 122.4 54.797 122.4 122.4z"/>
 <path d="m1056 612c0 67.602-54.801 122.4-122.4 122.4-67.602 0-122.4-54.797-122.4-122.4s54.801-122.4 122.4-122.4c67.598 0 122.4 54.797 122.4 122.4z"/>
 <path d="m397.2 932.4c0 67.602-54.801 122.4-122.4 122.4-67.602 0-122.4-54.801-122.4-122.4 0-67.598 54.801-122.4 122.4-122.4 67.598 0 122.4 54.801 122.4 122.4z"/>
 <path d="m727.2 932.4c0 67.602-54.801 122.4-122.4 122.4-67.602 0-122.4-54.801-122.4-122.4 0-67.598 54.801-122.4 122.4-122.4 67.598 0 122.4 54.801 122.4 122.4z"/>
 <path d="m1056 932.4c0 67.602-54.801 122.4-122.4 122.4-67.602 0-122.4-54.801-122.4-122.4 0-67.598 54.801-122.4 122.4-122.4 67.598 0 122.4 54.801 122.4 122.4z"/>
</svg>
