<svg width="1200pt" height="1200pt" version="1.1" viewBox="0 0 1200 1200" xmlns="http://www.w3.org/2000/svg"><g transform="translate(1200.0 0) scale(-1 1)">
 <path d="m912 714.05c0-8.9062-2.8594-17.578-8.2031-24.75l-161.11-217.26c-53.719-72.375-82.688-160.13-82.688-250.22v-5.8125c0-26.531-21.469-48-48-48h-276c-26.531 0-48 21.469-48 48v768c0 26.531 21.469 48 48 48h320.11c32.766 0 55.875-32.109 45.516-63.188l-33.797-101.48-6.7031 1.2188c-69.328 12.609-133.13-40.641-133.13-111.09 0-49.219 31.828-92.719 78.75-107.62l39.984-12.703c12.656-4.0312 26.109 3 30.141 15.609 4.0312 12.656-3 26.109-15.609 30.141l-39.984 12.703c-26.953 8.5781-45.281 33.609-45.281 61.875 0 40.5 36.703 71.109 76.547 63.891l27.188-4.9688 2.4375-0.28125c2.5312-0.23438 5.0156 0 7.4531 0.5625l70.312 17.016c77.484 18.797 152.06-39.891 152.06-119.62z"/>
</g></svg>