<?xml version="1.0" encoding="UTF-8"?>
<svg width="1200pt" height="1200pt" version="1.1" viewBox="0 0 1200 1200" xmlns="http://www.w3.org/2000/svg">
 <path d="m599.29 17c321.61 0 583.71 260.68 583.71 582.29 0 321.61-262.1 583.71-583.71 583.71s-582.29-262.1-582.29-583.71c0-321.61 260.68-582.29 582.29-582.29zm270.6 341.44h-109.09v575.21h-102.01v-575.21h-121.84v575.21h-100.59v-575.21h-107.68v-92.09h541.2zm-270.6-313.11c-306.02 0-553.96 247.93-553.96 553.96 0 306.02 247.93 555.37 553.96 555.37 306.02 0 555.37-249.35 555.37-555.37s-249.35-553.96-555.37-553.96z"/>
</svg>
