<?xml version="1.0" encoding="UTF-8"?>
<svg width="1200pt" height="1200pt" version="1.1" viewBox="0 0 1200 1200" xmlns="http://www.w3.org/2000/svg">
 <path d="m549.12 32.641c-55.355-3.5742-110.23 12.238-155.2 44.715-44.969 32.48-77.227 79.602-91.238 133.27-14.012 53.672-8.8984 110.55 14.457 160.86 23.355 50.312 63.5 90.926 113.54 114.87 1.6328 0.73047 3.5195 0.58984 5.0234-0.37891 1.5-0.96875 2.4102-2.6328 2.418-4.4219v-34.68c-0.070313-1.832-1.0625-3.5039-2.6406-4.4375-37.844-21.656-67.469-55.207-84.27-95.438-16.801-40.234-19.832-84.891-8.6289-127.02 11.203-42.137 36.016-79.387 70.578-105.96 34.562-26.578 76.941-40.984 120.54-40.984 43.602 0 85.977 14.406 120.54 40.984 34.566 26.574 59.379 63.824 70.582 105.96 11.203 42.133 8.168 86.789-8.6328 127.02-16.801 40.23-46.426 73.781-84.266 95.438-1.5781 0.93359-2.5742 2.6055-2.6406 4.4375v34.68c0.003906 1.7891 0.91406 3.4531 2.418 4.4219 1.5 0.96875 3.3906 1.1094 5.0195 0.37891 47.656-22.797 86.406-60.75 110.19-107.92s31.246-100.9 21.234-152.77c-10.016-51.871-36.945-98.953-76.578-133.88-39.633-34.93-89.727-55.73-142.44-59.148z"/>
 <path d="m629.28 364.08c0.007812 2.1602 1.332 4.0977 3.3398 4.8906 2.0078 0.79297 4.2969 0.28125 5.7773-1.2891 25.277-27.301 38.891-63.398 37.934-100.59-0.95312-37.195-16.402-72.543-43.047-98.512-26.645-25.969-62.379-40.504-99.586-40.504s-72.941 14.535-99.586 40.504-42.09 61.316-43.047 98.512c-0.95312 37.195 12.656 73.293 37.934 100.59 1.4805 1.5703 3.7695 2.082 5.7773 1.2891 2.0078-0.79297 3.332-2.7305 3.3438-4.8906v-58.68c0.10938-0.51172 0.10938-1.043 0-1.5586-3.8828-10.496-5.9531-21.57-6.1211-32.762 0.007812-28.031 11.621-54.812 32.082-73.98 20.461-19.164 47.941-29.004 75.918-27.176 26.582 2 51.332 14.289 68.992 34.258 17.656 19.965 26.832 46.035 25.566 72.66-0.54297 9.207-2.3594 18.293-5.3984 27-0.058594 0.51953-0.058594 1.043 0 1.5586z"/>
 <path d="m905.04 606.24v199.08c-0.039062 30.742-8.3281 60.91-24 87.359l-55.078 121.08c-5.2812 11.52-8.0234 24.043-8.0391 36.719v92.039c0 6.6953-2.6523 13.117-7.375 17.863-4.7227 4.7422-11.133 7.4258-17.828 7.457h-276c-6.6094-0.15625-12.898-2.8945-17.516-7.625-4.6211-4.7305-7.2031-11.082-7.2031-17.695v-102.12c0.015625-21.926-8.1602-43.066-22.922-59.277l-76.078-84c-15.598-13.156-24.598-32.52-24.602-52.922v-204.72c-0.11328-25.047 11.75-48.637 31.922-63.48l43.68-32.039c2.0547-1.8477 4.9883-2.3555 7.543-1.3086 2.5586 1.0508 4.2891 3.4688 4.457 6.2266l23.16 188.16h4.4414v-425.04c-0.0625-1.1602-0.0625-2.3203 0-3.4805 0.62109-18.777 11.211-35.797 27.785-44.648 16.574-8.8516 36.609-8.1875 52.559 1.7422 15.953 9.9258 25.395 27.609 24.773 46.387v223.08c-0.039062-13.973 5.5391-27.379 15.48-37.199 10.02-10.008 23.637-15.586 37.801-15.48 14.102 0.37891 27.492 6.2695 37.297 16.41 9.8047 10.145 15.242 23.727 15.145 37.832v22.559c0-18.82 10.039-36.211 26.34-45.621 16.297-9.4102 36.379-9.4102 52.68 0 16.297 9.4102 26.34 26.801 26.34 45.621v45.602c-0.050781-14.441 5.832-28.27 16.266-38.25s24.512-15.242 38.934-14.551c13.699 0.92188 26.52 7.0586 35.828 17.148 9.3086 10.09 14.395 23.363 14.211 37.09z"/>
</svg>
