<?xml version="1.0" encoding="UTF-8"?>
<svg width="1200pt" height="1200pt" version="1.1" viewBox="0 0 1200 1200" xmlns="http://www.w3.org/2000/svg">
 <path d="m647.72 750.52c6.8906 2.7656 14.062 5.5781 21.562 8.2969 16.875 6.1406 48.281 6.8438 84.562 13.031 57.609 9.8438 126.66 32.578 173.06 105.47 9.1875 14.438 15.656 27.375 18 38.016 2.0625 9.0938 1.2656 16.875-2.0625 23.203-3.4219 6.4219-9.6094 11.719-19.781 14.812-11.625 3.6094-29.578 4.4062-55.5 1.3125-0.98438-0.09375-1.9219-0.375-2.8125-0.79688-11.672-5.3438-64.688-29.391-164.76-16.031-90.75 12.141-91.312 29.578-180.84 8.7188-63.094-14.672-119.86-0.9375-166.97 5.7188-34.359 4.875-63.938 5.7656-87.844-7.3125l-1.7812-1.2656-1.5938-1.7812c-0.60938-0.84375-1.7812-2.9531-2.9062-6.0938-3.8906-11.109-9.6562-40.266 7.0312-67.312 20.766-33.609 42.141-45 66.141-54.375 21.562-8.3906 45.516-14.859 73.406-37.875 49.453-40.828 85.781-57.188 117.89-60.234 24.516-2.3438 46.734 3.0469 70.688 12 11.203 4.2188 22.828 9.1875 35.297 14.484v-0.28125c3.4219-78-22.828-123.61-41.156-166.74-19.406-45.656-32.484-85.312 1.9688-155.9-126.66 40.219-227.72-22.922-267-83.203-18.562-28.453-23.109-56.672-13.312-74.953 1.4531-2.7188 5.3906-6.4219 12.375-9.1875 10.125-3.9844 28.734-7.5938 51.75-8.3906 75.516-2.5312 199.13 25.266 224.34 164.53l0.09375 0.46875c2.1562-1.3125 4.4062-1.8281 6.4688-0.79688 25.312-139.03 148.78-166.74 224.26-164.26 23.062 0.75 41.625 4.4062 51.75 8.3906 7.0312 2.7188 10.922 6.4219 12.375 9.1875 7.9688 14.906 6.6094 36.281-4.3125 59.062-14.812 30.797-46.922 64.781-91.641 87.094-49.172 24.516-113.53 35.016-186.19 11.438l-0.09375-0.046876c-0.09375 0.75-0.32812 1.5-0.70312 2.1562-33.047 65.719-22.688 105.09-4.875 147 19.219 45.188 46.641 100.59 43.031 182.34zm221.02 194.86c80.25 9.6094 78.562-18.562 50.25-63-74.438-116.86-209.86-99.094-252.94-114.7-98.25-35.719-136.87-81.938-255.42 15.844-57.797 47.672-98.906 27.375-137.53 89.906-18.375 29.766-5.8125 62.484-4.2188 63.328 55.781 30.562 145.08-24.281 252.42 0.70312 87.938 20.438 88.453 3 177.52-8.9062 103.22-13.781 157.87 11.25 169.92 16.781zm-592.6-15.422c-1.6875-6.4219-7.2656-31.781 4.9688-51.609 17.859-28.922 36.328-38.672 57-46.734 23.109-9 48.609-16.219 78.516-40.875 45.375-37.453 78.281-53.25 107.72-56.016 21.656-2.0625 41.203 3 62.344 10.875 22.547 8.4375 46.688 20.109 76.172 30.844 17.578 6.375 50.156 7.4531 87.844 13.922 53.297 9.0938 117.47 29.625 160.4 97.031 6.5625 10.359 11.719 19.688 14.391 27.844 1.9219 5.8125 2.8594 10.688 0.84375 14.484-1.9688 3.75-6.6094 5.5781-13.594 6.8906-9.75 1.8281-23.297 1.7344-41.391-0.375h-0.046875c-14.766-6.75-70.781-30.703-173.72-16.969-87.375 11.672-87.844 29.109-174.1 9.0469-65.719-15.281-124.78-1.5-173.81 5.4375-28.453 4.0312-53.25 6-73.5-3.7969zm337.08-519.84c174.79 56.766 299.53-90.938 270.98-144.24-9.4688-17.719-236.58-45.984-270.98 144.24zm263.21-138.84c2.9062 6.1406 3.0938 13.734 1.4062 22.125-2.0625 10.219-7.0312 21.469-14.438 32.812-35.484 54.422-125.9 110.48-239.39 77.484 10.875-49.594 35.906-82.734 66.469-104.25 53.156-37.5 122.44-40.312 161.34-34.688 8.5781 1.2656 15.656 2.9062 20.625 4.7344 1.5 0.5625 3.2344 1.4062 3.9375 1.7812zm-288.14 138.84c-34.406-190.22-261.52-161.95-270.98-144.24-28.547 53.297 96.188 201 270.98 144.24zm-263.26-138.79c1.0312-0.51562 4.1719-2.0156 7.0781-2.9062 9.4688-2.8594 24.141-5.1562 41.719-5.7656 67.359-2.25 177.37 21.047 203.63 141-113.48 33-203.9-23.062-239.39-77.484-7.4062-11.344-12.375-22.547-14.438-32.812-1.6875-8.3438-1.4531-15.938 1.4062-22.031z" fill-rule="evenodd"/>
</svg>
