<svg version="1.1" viewBox="0 0 1200 1200" xmlns="http://www.w3.org/2000/svg">
<g>
  <animateTransform
    attributeName="transform"
    type="rotate"
    from="0 600 600"
    to="360 600 600"
    dur="6s"
    repeatCount="indefinite" />
    <path d="m1188 601.17c0-117.51-34.383-217.95-103.15-301.29-68.762-83.348-151.46-125.02-248.11-125.02-114.37 0-206.72 55.043-277.06 165.12l20.586 3.0039 2.5742 0.42969-0.42969 2.5703-13.297 51.469-0.42578 1.7148h-11.582v2.1445h-30.023c-27.445 62.047-41.172 128.09-41.172 198.14h46.32v3.8594h-46.32c0 69.766 13.727 135.82 41.172 198.14h30.023v2.1445h11.582l0.42578 1.7188 13.297 51.465 0.42969 2.5742-2.5742 0.42969-20.586 3c70.336 110.08 162.69 165.12 277.06 165.12 96.641 0 179.34-41.746 248.11-125.23 68.766-83.488 103.15-183.99 103.15-301.51zm-1137.8 276.63c51.465-0.85938 105.65-1.2891 162.55-1.2891 56.898 0 95.926-2.5703 117.09-7.7188 0.85547-0.85547 1.7852-1.5703 2.7891-2.1445 1-0.57031 2.0703-1.1445 3.2148-1.7148 13.152-7.1484 26.305-11.438 39.457-12.867l2.5742-0.42969v18.016h7.7188v-5.1484l18.441-0.85547v4.7148c8.0078 1.4297 12.297-0.28516 12.867-5.1445l8.5781-0.42969c31.453-1.1445 47.18-11.867 47.18-32.168 0-20.012-15.727-30.734-47.18-32.164h-9.0078c-2-3.1445-6.1445-4.4336-12.438-3.8594v3l-18.441-0.42969v-3.8594h-7.7188v18.871l-2.5742-0.42578c-12.582-1.4297-25.734-5.8633-39.457-13.297-0.85938-0.57422-3.7188-2.1445-8.5781-4.7188-26.59-5.4336-67.047-8.2188-121.38-8.3633-54.324-0.14062-106.22-0.64453-155.68-1.5-22.016-0.85938-33.023 14.723-33.023 46.746 0 31.738 11.008 47.465 33.023 47.18zm385.57-53.184v14.156c0 1.1406-0.57031 1.7148-1.7148 1.7148s-1.7148-0.57422-1.7148-1.7148v-14.156c0-1.1406 0.57031-1.7148 1.7148-1.7148s1.7148 0.57422 1.7148 1.7148zm-6.8633-1.7148v17.586c0 1.7148-0.71484 2.5742-2.1445 2.5742-1.7148 0-2.5703-0.85938-2.5703-2.5742v-17.586c0-1.4297 0.85547-2.1445 2.5703-2.1445 1.4297 0 2.1445 0.71484 2.1445 2.1445zm-8.1484-0.85547v19.727c0 2.2891-1.1406 3.4297-3.4297 3.4297-2.5742 0-3.8594-1.1406-3.8594-3.4297v-19.727c0-2.5742 1.2852-3.8633 3.8594-3.8633 2.2891 0 3.4297 1.2891 3.4297 3.8633zm-278.77 15.867c0 2-1.1445 3.2891-3.4336 3.8594l-26.59 0.85937c-2.2852 0-3.4297-1.1445-3.4297-3.4336-0.57422-2.2852 0.57031-3.4297 3.4297-3.4297l26.164-1.2852c2.5703 0 3.8594 1.1406 3.8594 3.4297zm0-13.723c0-2.0039-1.1445-3.2891-3.4336-3.8633l-26.59-0.85547c-2.2852 0-3.4297 1.1445-3.4297 3.4297-0.57422 2.5742 0.57031 3.8594 3.4297 3.8594l26.164 0.85938c2.5703 0 3.8594-1.1445 3.8594-3.4297zm275.34 36.453c1.1445-6.8633 7.7188-10.363 19.73-10.508 12.008-0.14062 18.012-6.2188 18.012-18.227 0-12.867-6.2891-19.586-18.871-20.156-12.582-0.57422-19.016-4.2891-19.301-11.152l8.1484 0.42969c30.023 0.85547 45.035 10.723 45.035 29.59 0 18.586-15.012 28.453-45.035 29.594zm-73.77 5.5742 30.023-1.2852v-8.1484c-8.8633 1.1445-18.871 4.2891-30.023 9.4336zm30.023-69.477-35.168-1.7148c11.148 6.0039 22.871 10.148 35.168 12.438zm-323.38-377.85c49.465-1.1445 101.36-1.7891 155.68-1.9297 54.328-0.14453 94.785-2.7891 121.38-7.9375 1.1445-0.85547 4.0039-2.5703 8.5781-5.1445 14.012-7.4258 27.164-11.855 39.457-13.297h2.5742v18.871h7.7188v-3.8594l18.441-0.42969v3.0039c6.5781 0 10.723-1.2891 12.438-3.8594h9.0078c31.453-1.7188 47.18-12.438 47.18-32.168 0-20.586-15.727-31.309-47.18-32.168l-8.5781-0.42578c-0.57031-5.1484-4.8594-6.8633-12.867-5.1484v4.7188l-18.441-0.85938v-5.1445h-7.7188v18.012l-2.5742-0.42969c-13.438-1.7148-26.59-6.1445-39.457-13.293-0.57031-0.28906-2.5742-1.4297-6.0039-3.4336-21.16-5.7188-60.188-8.5039-117.09-8.3633-56.898 0.14453-111.08-0.070313-162.55-0.64062-22.016-0.57422-33.023 15.148-33.023 47.176 0 31.738 11.008 47.32 33.023 46.75zm385.57-41.176c0 1.4297-0.57031 2.1445-1.7148 2.1445s-1.7148-0.71484-1.7148-2.1445v-14.152c0-1.1445 0.57031-1.7148 1.7148-1.7148s1.7148 0.57031 1.7148 1.7148zm-6.8633 1.7148c0 1.7188-0.71484 2.5742-2.1445 2.5742-1.7148 0-2.5703-0.85547-2.5703-2.5742v-17.152c0-1.7148 0.85547-2.5742 2.5703-2.5742 1.4297 0 2.1445 0.85938 2.1445 2.5742zm-8.1484 1.2891c0 2.5742-1.1406 3.8594-3.4297 3.8594-2.5742 0-3.8594-1.2852-3.8594-3.8594v-19.73c0-2.5703 1.2852-3.8594 3.8594-3.8594 2.2891 0 3.4297 1.2891 3.4297 3.8594zm-278.77-15.871c0-2.5703-1.1445-3.8594-3.4336-3.8594l-26.59-0.85547c-2.2852-0.57422-3.4297 0.42969-3.4297 3-0.57422 2.2891 0.57031 3.7188 3.4297 4.2891l26.164 0.85938c2.5703 0 3.8594-1.1445 3.8594-3.4336zm0 13.297c0 2.5742-1.1445 3.8594-3.4336 3.8594l-26.59 1.2891c-2.2852 0-3.4297-1.1445-3.4297-3.4336-0.57422-2.5703 0.57031-3.8594 3.4297-3.8594l26.164-0.85547c2.5703-0.57422 3.8594 0.42578 3.8594 3zm275.34-36.027h7.7188c30.023 0.85938 45.035 10.867 45.035 30.023 0 18.586-15.012 28.449-45.035 29.594l-8.1484 0.42969c0.28516-6.8633 6.7188-10.652 19.301-11.367 12.582-0.71484 18.871-7.3633 18.871-19.941 0-12.012-6.0039-18.156-18.012-18.445-12.012-0.28516-18.586-3.7148-19.73-10.293zm-73.77-5.5742c11.152 4.8594 21.16 8.0078 30.023 9.4336v-8.1484zm30.023 69.48v-10.723c-12.008 2-23.73 6.0039-35.168 12.008zm123.52 322.09c-0.57422-2.2891-1.1445-4.5039-1.7148-6.6484-0.57422-2.1445-1.0039-4.2188-1.2891-6.2188-22.586-25.734-41.316-44.461-56.184-56.184-26.305-20.59-53.895-32.023-82.773-34.312l-232.03-17.586c7.7188 20.875 23.23 40.316 46.535 58.332 23.301 18.012 61.113 32.449 113.44 43.316 26.305 5.4336 57.398 11.363 93.285 17.797 35.883 6.4336 76.125 6.9336 120.73 1.5039zm-371.84-128.67h355.97c0.28906-34.309 3.8633-68.621 10.723-102.93-19.441 21.73-36.598 38.602-51.465 50.609-26.879 20.875-55.184 32.598-84.918 35.168zm355.97 3.8594h-355.97l230.31 17.156c29.164 1.7148 57.469 13.438 84.918 35.168 13.723 10.582 30.879 27.449 51.465 50.609-6.8594-34.598-10.434-68.906-10.723-102.93zm-126.09-25.305c28.879-2.5703 56.469-14.008 82.773-34.309 14.867-12.008 33.594-30.738 56.184-56.184 0.28516-1.418 0.85938-4.1367 1.7148-8.1484l1.2891-5.1484c-44.605-5.4336-84.848-4.9336-120.73 1.5-35.887 6.4336-66.98 12.512-93.285 18.23-52.324 10.574-90.137 24.801-113.44 42.672-23.305 17.871-38.816 37.387-46.535 58.543zm-102.07 128.24c-36.312-9.7148-65.621-22.438-87.922-38.172-22.875-16.867-38.742-37.598-47.605-62.188l-1.0742-1.0703-0.64453-0.64453c-0.57031-1.1445-0.85547-2.1445-0.85547-3.0039 0-0.57031 0.28516-1.4297 0.85547-2.5703 0-0.57422 0.21484-1.0039 0.64453-1.2891 0.42969-0.28516 0.78516-0.57031 1.0742-0.85547 9.1484-25.164 25.016-45.75 47.605-61.762 21.441-15.727 50.75-28.449 87.922-38.172-24.875-8.0039-38.887-33.023-42.031-75.055-33.168 0.57422-59.188 0.85938-78.059 0.85938-12.867 0.28516-32.023 0.42969-57.469 0.42969-0.85938 30.594 3.4297 71.051 12.863 121.38 1.4297 8.5781 1.5039 17.797 0.21484 27.66-1.2852 9.8672-2.2148 19.66-2.7852 29.379 0.57031 9.7227 1.5 19.516 2.7852 29.379 1.2891 9.8672 1.2148 19.086-0.21484 27.664-9.4336 50.32-13.723 90.777-12.863 121.38 12.578 0.28516 31.734 0.42969 57.469 0.42969 35.453 0.57031 61.473 1 78.059 1.2852 3.1445-42.316 17.156-67.336 42.031-75.055zm-147.11-120.09c-0.57031 3.1445-2.7148 4.5742-6.4336 4.2852-3.4297-0.57031-4.8594-2.5703-4.2891-6.0039l5.1484-30.879c0.28516-3.7148 2.2852-5.2891 6.0039-4.7188 3.1445 0.85938 4.5742 2.8594 4.2891 6.0039zm-10.723 31.734c-0.57031-3.1445 0.85938-5.1445 4.2891-6.0039 3.7188-0.57031 5.8633 1 6.4336 4.7188l4.7188 30.879c0.28516 3.4336-1.1445 5.4336-4.2891 6.0039-3.7188 0.28516-5.7188-1.1445-6.0039-4.2891zm715.38-27.02h0.85547c0-1.4297 0.42969-2.2852 1.2891-2.5742 0.28516-0.85547 1.2852-1.2852 3-1.2852h5.1484c1.1445 0 2.1445 0.42969 3 1.2852 0.85938 0.85938 1.2891 1.8594 1.2891 3.0039 0 0.28516-0.42969 1.2852-1.2891 3.0039-0.28516 0-0.42578 0.070312-0.42578 0.21484v0.21094c2.5703 0.85938 3.8594 3.1484 3.8594 6.8633 0 3.1445-3.0039 5.2891-9.0078 6.4336-1.1445 0-2.5742 0.28516-4.2891 0.85938-1.7148 0.57031-2.7148 1-3.0039 1.2852-4.2852 0.85938-6.2891 1.2852-6.0039 1.2852-0.28516 0-0.57031-0.14063-0.85547-0.42578-2.5742 0-4.8633-1.0039-6.8633-3.0039-2.8594-2.832-4.0039-5.2617-3.4297-7.2891v-0.42969c0-1.7148 0.42969-3.1445 1.2852-4.2891v-0.42969h-0.85547c-0.28906 0-1.2891-0.42969-3.0039-1.2852-0.57031-1.1445-0.85938-2.1445-0.85938-3.0039 0-1.4219 0.28906-2.4219 0.85938-3.0039 0.85938-0.85547 1.8594-1.2852 3.0039-1.2852h5.5742c1.1445 0 2.1445 0.42969 3 1.2852l0.21484 0.42969c0.14453 0.28125 0.35938 0.56641 0.64453 0.85938h3.0039c1.1406 0 2.4297 0.42969 3.8594 1.2852zm-9.0078 4.2891c-1.4297 0.57422-2.2891 1.5742-2.5742 3.0039-0.57031 0.57031-0.85547 1.4297-0.85547 2.5742 0 1.1406 0.71484 2.4297 2.1445 3.8594 0 0.57031 0.28516 0.85547 0.85547 0.85547-1.4297-1.4297-2.1445-3.1445-2.1445-5.1445 0-0.85938 0.28516-1.8594 0.85938-3.0039 0.28516-0.57031 0.85547-1.2852 1.7148-2.1445zm20.156 7.7227c0.85938-0.57422 1.2891-1.0039 1.2891-1.2891 0-1.4297-0.42969-2.2852-1.2891-2.5742 0.28906 0.28906 0.42969 1.0039 0.42969 2.1445 0 0.85938-0.14062 1.4297-0.42969 1.7188zm-9.8633-1.7188c0 0.57422-0.14453 1.0039-0.42969 1.2891h0.42969c1.1445-0.57422 2.1445-0.85938 3.0039-0.85938 1.7148 0 2.5703-0.14062 2.5703-0.42969 0-0.57031-0.57031-1.1406-1.7148-1.7148h-2.5742c-1.1406-0.57031-1.8555-0.85547-2.1445-0.85547-0.28516-0.28906-0.57031-0.50391-0.85547-0.64453l-0.42969-0.21484 0.42969 0.42969c1.1445 1.1445 1.7148 2.1445 1.7148 3zm97.785 0c0-28.305-6.8594-52.18-20.586-71.621-13.438-19.445-29.734-29.164-48.891-29.164-11.727 0-22.305 3.8594-31.738 11.578 0.30859-0.28516-1.5508 1.1445-5.5781 4.2891-2.2852 2.2891-4 4.1445-5.1445 5.5742-8.0078 6.8633-14.441 11.582-19.301 14.156-8.5781 4.2852-17.012 6.7188-25.305 7.2891-14.297 0.57031-34.883-1.4297-61.758-6.0039-25.445-3.7188-41.027-5.7188-46.75-6.0039 7.7188 3.4297 13.297 7.4336 16.727 12.008 1.9805 2 3.5547 4.1445 4.7188 6.4336v103.36c-5.1484 8.293-12.297 14.297-21.445 18.016 14.297-1.4297 29.879-3.4336 46.75-6.0039 28.02-4.5742 48.465-6.4336 61.328-5.5781h0.42969c8.8633 0.28906 17.297 2.5742 25.305 6.8633 5.4336 2.8594 11.867 7.7188 19.301 14.582 5.7188 6.0039 11.152 10.578 16.297 13.727 0.57031 0.28516 1.0742 0.57031 1.5 0.85547l1.9297 1.2891c7.7227 3.7148 15.297 5.5742 22.734 5.5742 19.156 0 35.453-9.8633 48.891-29.594 13.727-19.441 20.586-43.316 20.586-71.625zm-248.32-50.18c-5.7148-6.8594-12.289-10.578-19.727-11.148v120.95c7.1484 0 13.723-3.0039 19.727-9.0078zm-24.016 113.66v-129.52c2.5703 0 4.4297 0.14453 5.5742 0.42969-6.5781-2.8594-15.582-4.4336-27.02-4.7188v-4.2891c14.012-0.85938 39.312 1.2852 75.914 6.4336 29.449 4.2891 49.75 6.2891 60.898 6.0039 8.5781-0.85547 16.441-3.1445 23.59-6.8633 5.1484-2.5703 11.152-7.0039 18.016-13.293 0.85547-1.1445 1.7852-2.1445 2.7852-3.0039 1-0.85547 1.9297-1.7148 2.7891-2.5742 0.85547-0.85547 1.7852-1.7148 2.7852-2.5703 1.0039-0.85938 2.0742-1.7188 3.2188-2.5742 10.574-8.0078 22.012-12.008 34.312-12.008 20.297 0 37.738 10.434 52.32 31.309 14.297 20.012 21.445 44.602 21.445 73.766 0 28.879-7.1484 53.613-21.445 74.199-14.582 20.871-32.023 31.309-52.32 31.309-8.293 0-16.441-2.0039-24.449-6.0039-0.85547-0.57422-1.5703-1-2.1445-1.2891l-1.7148-0.85547c-6.2891-3.7188-12.152-8.5781-17.582-14.582-5.7188-5.7188-11.727-10.293-18.016-13.727-6.5742-3.7148-14.438-5.8594-23.59-6.4336-12.578-0.85547-32.875 1.0039-60.898 5.5781-34.883 5.1445-60.332 7.4336-76.344 6.8594l0.42969-4.7148c4.2891 0 7.4336-0.14453 9.4336-0.42969 4.0039-0.57422 6.8633-1 8.5781-1.2891 5.4336-1.4297 10.582-3.4297 15.441-6.0039-3.4297 0.85938-7.4336 1.1445-12.008 0.85938zm236.32-54.039c0 0.85547-0.14453 1.4297-0.42969 1.7148-0.85938 3.4297-2.1445 6.4336-3.8594 9.0078-8.0078 12.867-24.305 21.73-48.895 26.59-4.0039 0.85938-7.293 1.2852-9.8633 1.2852-12.297 0.57422-22.445-2.4297-30.453-9.0039-7.7188-6.5781-12.723-16.012-15.012-28.309-0.57031-4.0039-0.85547-7.4336-0.85547-10.293-0.28516-3.4297-0.14453-8.293 0.42969-14.582 2-10.293 6.4336-18.297 13.293-24.016 6.5781-6.0078 15.297-9.1523 26.164-9.4375 4.8594-0.57031 10.148-0.14062 15.867 1.2852 17.727 2.8594 31.023 8.0078 39.887 15.441 10.008 7.7188 15.012 18.012 15.012 30.879 0 3.1211-0.42969 6.2656-1.2852 9.4375zm-99.934 0c2.0039 10.293 6.0039 17.871 12.012 22.73 6.2891 5.4336 14.438 7.7188 24.445 6.8633 1.7148 0 4.5742-0.28906 8.5781-0.85938 21.727-4.0039 36.164-11.438 43.316-22.301 0-0.85937 0.21484-1.5742 0.64453-2.1445 0.42969-0.57422 0.78516-1.1445 1.0703-1.7148-3.1445 4.2891-6.5742 7.7188-10.293 10.293-8.5781 6.0039-18.871 9.0039-30.879 9.0039-7.7188 0-15.152-1.4297-22.301-4.2891-2.8594-1.4297-5.7188-3-8.5781-4.7148-8.8633-6.293-13.297-13.727-13.297-22.305s4.4336-16.012 13.297-22.301c8.5781-5.7188 18.871-8.5781 30.879-8.5781 12.008 0 22.301 2.8594 30.879 8.5781 4.5742 3.4297 8.1484 7.1484 10.723 11.152-1.7148-5.1484-5.0039-9.4375-9.8633-12.867-8.5781-6.8633-20.445-11.438-35.598-13.727-5.1484-0.85547-9.8633-1.2852-14.152-1.2852-8.5781 0.28516-15.586 2.8594-21.016 7.7188-5.4336 4.2891-8.7227 10.582-9.8672 18.871-1.1406 4.0039-1.4297 8.1484-0.85547 12.438 0 2.2617 0.28516 5.4062 0.85547 9.4375zm34.742 15.438c3.7148 1.1445 8.4336 1.7188 14.152 1.7188 11.152 0 20.73-2.5742 28.734-7.7227 2.8555-2.2852 4.8594-4 6.0039-5.1445 3.4336-4.2891 5.1484-8.8633 5.1484-13.727 0-6.8594-3.7188-13.008-11.152-18.441-8.5781-5.4336-18.156-8.1484-28.734-8.1484-11.152 0-20.586 2.7148-28.305 8.1484-7.7227 5.4336-11.582 11.582-11.582 18.441 0 6.8633 3.8594 13.152 11.582 18.871 4 2.5742 8.7188 4.5742 14.152 6.0039zm192.14 193.86c-45.465 61.473-100.07 92.207-163.84 92.207-64.332 0-118.8-30.734-163.41-92.207-23.445-31.164-41.172-68.332-53.18-111.51l12.438-6.0039c10.863 41.742 27.879 78.34 51.035 109.79 42.32 57.758 93.355 86.637 153.11 86.637 59.473 0 110.51-28.879 153.11-86.637 42.887-58.328 64.332-128.66 64.332-211.01 0-82.629-21.445-152.97-64.332-211.01-42.891-57.469-93.926-86.203-153.11-86.203-59.473 0-110.51 28.734-153.11 86.203-23.156 31.453-40.172 68.051-51.035 109.8l-12.438-6.0039c12.293-43.176 30.02-80.348 53.18-111.51 44.891-61.188 99.359-91.781 163.41-91.781 63.762 0 118.37 30.594 163.84 91.781 44.602 60.043 66.906 132.95 66.906 218.73 0 85.492-22.305 158.4-66.906 218.73zm-443.47-425.46h8.1484l12.008-47.605-20.156-3zm0 464.05 20.156-3-12.008-47.609h-8.1484z" fill-rule="evenodd"/>
</g>
</svg>