<svg version="1.1" viewBox="0 0 1200 1200" xmlns="http://www.w3.org/2000/svg">
  <g>
  <animateTransform
    attributeName="transform"
    type="rotate"
    from="0 600 600"
    to="360 600 600"
    dur="6s"
    repeatCount="indefinite" />
    <path d="m599.14 360.49c-28.715 0-56.715 5.168-84 15.508-17.23-39.918-31.945-74.668-44.152-104.25-12.203-29.578-18.738-47.383-19.602-53.414-2.582-15.508 2.5859-53.559 15.508-114.16 36.188-9.4766 72.082-15.074 107.7-16.801l-0.86328 12.492 7.3242 4.3086 3.4453 5.6016 31.879 0.42969 2.582-5.168 7.7539-5.6016 2.5859-11.629c69.211 4.3086 134.25 21.395 195.14 51.262l-3.0156 11.629 3.8789 8.6172-0.42969 5.5977 28 15.508 6.0273-3.4453h8.6172l5.168-10.77c61.746 39.344 113.01 89.312 153.79 149.91l-8.6133 7.75-1.293 9.4805-3.0156 4.7383 16.801 27.566 6.4609 0.43359 7.3242 4.3047 10.336-6.8906c18.094 35.035 31.734 70.359 40.922 105.97-46.234 41.066-75.957 64.043-89.168 68.922-6.0312 2.0117-25.055 5.2422-57.078 9.6953-32.02 4.4492-69.855 9.2617-113.51 14.43-11.773-72.945-49.535-128.8-113.29-167.57l3.4453-6.0312c0.85938-1.4336 0.57422-2.582-0.86328-3.4453l-4.3047-2.5859c-2.0117-0.57422-3.1602-0.14062-3.4492 1.293l-3.4453 5.6016c-35.898-19.527-74.094-29.293-114.59-29.293zm-77.105 397.17-7.3242 12.492 1.293 0.86328 2.5859 1.293-0.86328 3.0156-7.3242 22.828-0.42969 0.43359v0.42969l-158.52 274.4-1.7227 3.4492-3.0156-2.1562-33.168-18.953-3.0156-1.7227 1.7227-3.4453 158.52-274.4 0.42969-0.42969 16.371-18.094 2.1523-2.1523 2.1523 1.293 1.7266 0.85938 6.8906-12.492 1.7227-3.0156 3.4453 1.7227 15.078 8.6172 3.0156 1.7227zm-15.508 12.062 7.3242-12.922-8.6172-4.7383-7.3242 12.492-1.7227 3.0156-3.4453-1.7227-1.7227-1.293-14.215 15.508-156.37 271.38 26.707 15.078 156.37-270.95 6.4609-19.816-2.1523-1.293-3.0156-1.7227zm-5.6016-315.32-7.3203-12.492-0.86328 0.86328-3.0156 1.293-1.7227-2.1562-16.371-17.66-0.42969-0.42969v-0.43359l-158.52-274.4-1.7227-3.0156 3.0156-2.1523 33.168-18.953 3.0156-1.7266 1.7227 3.0156 158.52 274.4 0.43359 0.42969v0.42969l7.3203 23.262 0.86328 2.5859-2.5859 1.7227-1.293 0.42969 7.3242 12.492 1.7227 3.4492-3.0156 1.7227-15.074 8.6133-3.4492 2.1562zm-2.582-19.383 7.3203 12.492 8.6172-4.7383-7.3242-12.922-1.7227-3.0156 3.0156-1.7227 1.7227-1.293-6.0312-19.816-156.37-270.95-26.707 15.508 156.37 270.52 14.215 15.508 1.7227-0.86328 3.4492-1.7227zm275.69 152.92h14.215v-4.7383l3.0156-0.42969 23.691-5.168h321.36v45.66h-320.93l-0.42969-0.42969-23.691-5.1719-3.0156-0.42969v-4.7383h-18.094v-24.555zm18.094 7.3242h-14.648v9.9062h18.523v6.0312l20.246 4.3086h312.74v-30.586h-312.74l-20.246 4.3086v6.0312zm-192.99-24.555c7.7539 0 14.793 2.8711 21.109 8.6172 5.7422 6.3164 8.6172 13.352 8.6172 21.105 0 8.043-2.875 14.934-8.6172 20.68-6.0312 6.0273-13.066 9.043-21.109 9.043-8.3281 0-15.219-3.0156-20.676-9.043-5.7422-5.1719-8.6133-12.062-8.6133-20.68 0-8.3281 2.8711-15.363 8.6133-21.105 5.7461-5.7461 12.637-8.6172 20.676-8.6172zm0 7.3242c-6.0273 0-11.199 2.1523-15.508 6.4609-4.3047 4.3086-6.4609 9.6211-6.4609 15.938 0 6.6055 2.1562 11.777 6.4609 15.508 3.7344 4.3086 8.9062 6.4609 15.508 6.4609 6.3203 0 11.488-2.1523 15.508-6.4609 4.5977-4.0195 6.8945-9.1875 6.8945-15.508 0-6.0312-2.2969-11.344-6.8945-15.938-4.3047-4.3086-9.4766-6.4609-15.508-6.4609zm0-43.078c17.809 0 33.172 6.4609 46.094 19.387 12.637 12.633 18.953 28 18.953 46.09 0 17.805-6.3164 33.172-18.953 46.094-13.211 12.637-28.574 18.953-46.094 18.953-17.805 0-33.168-6.3164-46.09-18.953-12.637-12.922-18.953-28.289-18.953-46.094 0-18.09 6.3164-33.457 18.953-46.09 12.922-12.926 28.285-19.387 46.09-19.387zm0 7.3242c-15.508 0-29.148 5.7422-40.922 17.23-11.199 11.199-16.801 24.84-16.801 40.922 0 15.797 5.6016 29.293 16.801 40.492 11.488 11.488 25.129 17.23 40.922 17.23 15.797 0 29.438-5.7422 40.926-17.23 11.199-11.199 16.801-24.695 16.801-40.492 0-16.082-5.6016-29.723-16.801-40.922-12.062-11.488-25.703-17.23-40.926-17.23zm0-56.863c-12.348 0-23.836 1.7227-34.461 5.1719-7.4648-16.371-16.367-36.617-26.707-60.738 18.379-7.1797 38.77-10.77 61.168-10.77 22.977 0 44.371 3.875 64.188 11.629l1.7227 12.492-2.5859 16.801-15.938 35.754c-14.359-6.8906-30.152-10.34-47.387-10.34zm64.617 19.816 25.414-32.738 12.062-9.0469 12.492-3.4453c34.75 28.719 56.145 65.191 64.184 109.41-11.199 1.4375-22.328 2.7305-33.383 3.8789-11.059 1.1484-22.043 2.2969-32.953 3.4453-6.3203-30.152-22.258-53.988-47.816-71.508zm47.816 118.03c10.91 1.4375 21.895 2.8008 32.953 4.0938 11.055 1.2891 22.184 2.5117 33.383 3.6602-7.4648 43.363-28.285 79.406-62.461 108.12l-11.199-4.7383-13.785-10.77-22.832-31.445c23.262-16.941 37.91-39.918 43.941-68.922zm-60.309 79.262 15.078 37.906 1.7227 15.078-3.4453 13.785c-21.254 8.0391-43.078 12.062-65.48 12.062-20.961 0-41.496-3.5898-61.598-10.77 8.0391-19.531 16.941-39.918 26.707-61.172 12.062 3.7344 23.691 5.6016 34.891 5.6016 18.383 0 35.754-4.1641 52.125-12.492zm-127.94-15.938c-15.223 20.676-28.434 38.48-39.633 53.414-34.746-29.004-55.711-65.191-62.891-108.55l11.629-9.0469 15.941-6.0273 36.613-3.8789c2.8711 29.867 15.652 54.562 38.34 74.094zm-38.77-94.34-38.77-5.168-14.215-6.0312-11.199-11.199c7.7539-43.941 29.004-80.41 63.754-109.42 6.6016 8.9023 13.137 17.805 19.598 26.707 6.4609 8.9062 13.141 17.809 20.031 26.711-24.125 20.961-37.191 47.098-39.199 78.398zm351.51 45.66c43.363 5.1719 80.984 9.9805 112.86 14.434 31.879 4.4492 50.688 7.6797 56.434 9.6914 14.355 5.168 44.367 28.145 90.027 68.922-9.4766 35.898-22.398 69.93-38.766 102.09l-9.9102-6.4609-7.3242 4.3047h-6.4609l-16.367 28 3.0156 4.7383 0.85938 9.4805 8.1875 7.3203c-37.047 56.863-84.145 104.82-141.29 143.88l-8.1875-8.6172-9.4766-0.85938-4.7383-3.0156-27.566 16.801v6.4609l-4.3086 7.7539 6.8906 10.336c-64.039 34.461-132.82 54.133-206.34 59.016l-3.0156-12.922-7.3242-5.6016-3.0156-5.168-31.875 0.86328-3.4492 5.5977-7.3203 4.3086 0.85938 13.785c-39.629-1.7227-76.965-7.4688-112-17.23-12.922-61.457-17.949-99.363-15.078-113.72 0.86328-5.7461 7.3242-23.406 19.387-52.984 12.062-29.582 26.707-64.617 43.938-105.11 26.996 10.625 55.141 15.938 84.43 15.938 41.645 0 80.988-10.48 118.03-31.445l3.4492 5.6016c0.57422 1.7227 1.7227 2.0078 3.4453 0.85938l4.3086-2.582c0.85938-0.86328 1.0039-2.0117 0.42969-3.4492l-3.0156-5.5977c61.742-38.195 98.504-93.336 110.28-165.42zm-387.26 148.62c-25.848 34.75-48.605 64.688-68.277 89.816-19.672 25.125-31.805 39.559-36.398 43.289-12.062 10.34-47.531 24.988-106.4 43.941-24.984-24.41-47.957-52.555-68.922-84.434l12.062-6.0273v-8.6172l3.0117-5.6016-15.938-28h-5.168l-9.0469-3.4453-12.492 3.8789c-31.301-61.457-49.25-126.36-53.848-194.71l13.355-3.0156 5.6016-7.7539 5.168-2.5859-0.86328-32.309-5.5977-3.4453-4.3086-7.3242-14.215 0.86328c2.2969-72.945 19.957-142.44 52.984-208.49l13.355 3.875 8.6133-3.4453h5.6016l15.938-28-3.4453-6.0312v-8.6133l-12.926-6.0312c20.68-31.879 44.516-61.312 71.508-88.309 58.012 18.953 93.336 33.457 105.97 43.508 4.3047 4.0195 16.367 18.668 36.184 43.938 19.816 25.273 42.789 55.281 68.922 90.031-58.586 47.387-88.449 108.55-89.602 183.51h-4.7383c-1.7227 0-2.582 0.86328-2.582 2.5859l0.42969 5.168c0 1.4375 0.71875 2.1523 2.1523 2.1523h4.7383c2.0117 73.52 31.734 133.4 89.172 179.63zm641.84 71.938 24.555 6.4609 2.1562-3.875 9.9062 1.7227c6.6055-13.496 12.062-25.273 16.367-35.324l-4.7383-7.3203h8.1875c5.7422-14.934 10.77-28.145 15.074-39.633l-6.8906-7.7539 9.9062-1.293c4.5977-14.934 8.4727-28.574 11.633-40.922l-6.8945-5.6016 8.6172-3.4453c3.4453-15.793 5.7422-29.578 6.8906-41.352l-8.1836-4.7422-0.85938-3.4453-31.449-14.645c1.1484-9.4766 2.0117-19.672 2.5859-30.586h9.9062c2.875 0 4.3086-1.4336 4.3086-4.3086v-4.3047h-14.215c0.28516-3.7344 0.42969-9.6211 0.42969-17.664 0-8.0391-0.14453-14.07-0.42969-18.09h14.215v-4.3086c0-2.5859-1.4336-3.8789-4.3086-3.8789h-9.9062c-1.1484-16.082-2.1523-28-3.0156-35.754l29.723-13.781 0.86328-3.8789 8.6133-4.3086c-1.7227-12.922-4.1641-26.852-7.3203-41.785l-8.6172-3.0156 6.4609-6.0273c-4.0195-14.648-7.8984-28.145-11.629-40.492l-9.9102-1.7266 6.8945-7.3203c-5.7461-16.082-10.914-29.293-15.508-39.633h-7.7539l4.7383-7.7539c-5.1719-12.059-10.77-23.691-16.801-34.891l-9.9062 1.7227-2.1562-3.8789-24.121 6.4648-4.3086-7.7539 6.8906-3.8789-2.582-4.3086-6.8945 3.8789-6.4609-11.633 6.8945-4.7383-2.5859-3.875-6.8906 4.3086-2.1562-4.3086 16.801-19.816-0.86328-3.875 5.6016-7.7539c-7.1797-11.203-15.219-22.688-24.125-34.465l-10.766 1.293 4.7383-8.1836c-10.055-12.637-19.098-23.406-27.141-32.309l-9.0469 1.7227 2.5859-8.6133c-9.7656-9.7656-19.961-19.527-30.586-29.293l-9.043 3.8789 2.1523-9.9102c-7.4688-6.3164-18.668-15.219-33.602-26.707l-6.4609 4.3086v-9.0469c-9.1875-6.3164-19.816-13.641-31.875-21.969l-7.7539 6.8906-3.8789-2.582-18.09 18.09-5.6016-3.875 3.875-6.4609-4.3047-2.5859-4.3086 6.8906-11.199-6.8906 3.4453-7.3242-4.3086-2.1523-3.4453 6.8906-3.8789-1.7227 4.7383-26.277-2.582-3.0156 0.85938-9.4766c-12.922-6.6055-25.699-12.492-38.336-17.66l-8.6172 6.4609v-9.4766c-15.508-6.3164-28.574-11.059-39.199-14.215l-7.3242 6.0312-1.7227-9.0469c-12.348-3.4453-26.133-6.6055-41.352-9.4766l-6.0312 7.7539-3.4492-9.9102c-15.219-2.582-29.148-4.5938-41.781-6.0312l-3.8789 6.8945-4.3086-7.7539c-11.484-1.4375-24.41-2.4414-38.77-3.0156l-3.4453 9.4766h-4.3086l-6.4609 24.125h-2.1523l0.42969-7.7539-5.168-0.43359-0.42969 8.6172h-12.926l-0.42969-7.7539h-4.7383v7.7539h-8.1836l-6.4609-24.125h-4.3086l-3.8789-9.9062c-7.4648 0.57422-20.387 1.7227-38.77 3.4453l-3.875 8.1836-3.8789-7.3203c-20.676 3.4453-34.746 5.7422-42.215 6.8906l-3.0156 9.9102-6.0312-7.7539c-10.336 2.0078-24.121 5.4531-41.352 10.336l-1.293 8.6172-7.3242-6.0312c-13.211 4.3086-26.418 9.332-39.629 15.078v9.4766l-2.5859 2.582 3.0156 32.738c-12.637 5.7461-22.113 10.34-28.43 13.785l-4.3086-7.7539c-1.7227-2.2969-3.5898-2.7266-5.6016-1.293l-3.875 1.7266 6.4609 11.199c-9.1875 4.8828-19.527 10.77-31.016 17.66l-6.4609-10.77-3.4453 2.1562c-2.2969 1.1484-2.8711 3.0117-1.7227 5.5977l4.3047 7.7539c-4.3047 2.5859-14.215 9.332-29.723 20.246l-25.414-17.66-3.875 0.85938-8.1875-4.7383c-10.625 7.7539-21.395 16.656-32.305 26.707l1.2891 9.4805-8.1836-3.0156c-10.34 9.7617-20.102 19.957-29.293 30.582l3.4453 9.0469-9.9062-1.7227c-6.3164 7.1797-15.219 18.234-26.707 33.168l4.3086 6.4609-9.0469-0.42969c-7.7539 10.914-15.078 21.684-21.969 32.309l6.4609 7.7539-2.1523 3.875 17.66 17.664-4.7383 7.3242-6.8945-3.8789-2.582 4.3086 6.8906 3.875-6.8906 11.633-6.8945-3.4453-2.582 4.3047 7.3203 3.4492-2.582 3.875-25.848-4.3086-2.5859 2.5859-9.9062-0.86328c-4.8828 9.1914-10.77 21.969-17.66 38.34l6.4609 8.6172-9.4766-0.43359c-5.7461 12.926-10.484 26.277-14.215 40.062l5.5977 6.8906-8.6133 1.7266c-2.875 10.336-6.1758 23.977-9.9102 40.922l8.1875 6.4609-9.9102 3.4453c-2.582 13.211-4.7383 27.141-6.4609 41.785l7.3242 3.8789-8.1875 3.875c-0.85938 8.3281-1.8633 21.25-3.0117 38.77l9.9062 3.4453v4.7383l24.121 6.4609v6.8945h-7.7539l-0.42969 5.168h8.1836v12.922l-8.1836 0.86328 0.42969 4.7383 7.7539-0.42969v4.3086l-24.984 9.043-0.85938 3.8789-9.0469 3.875c0.28906 14.359 1.5781 28.289 3.875 41.785l9.9102 3.8789-8.1836 4.7383c1.7227 16.082 4.1641 30.008 7.3203 41.785l8.6172 3.4453-6.4609 5.5977c3.4453 14.934 7.4648 28.434 12.059 40.492l9.9102 1.7266-6.8945 7.3203c4.8828 14.359 10.055 27.57 15.508 39.633l7.7539-0.43359-4.3047 7.7539c5.168 12.062 10.766 23.695 16.797 34.895l9.9102-1.7227 2.1523 3.875 24.555-6.4609 0.85937 1.7227-6.8906 3.8789 2.1523 4.3086 7.3242-3.8789 6.8945 11.629-6.8945 3.8789 2.5859 4.3086 6.4609-3.8789 4.3086 6.8945-17.664 18.09 2.1562 3.8789-6.4609 7.7539c5.168 8.3281 12.492 18.953 21.969 31.875l9.0469-0.42969-3.8789 6.4609c8.6172 12.062 17.52 23.117 26.707 33.168l9.9102-1.7227-3.4492 9.0469c10.34 11.773 20.105 21.828 29.293 30.156l8.6172-2.5859-1.7227 9.0469c9.7617 9.1875 20.676 18.09 32.738 26.707l8.1836-4.7383 3.875 0.85938 26.277-18.52c11.488 8.0391 20.246 13.926 26.277 17.66l-4.3086 7.3242c-1.7227 2.582-1.1484 4.5938 1.7266 6.0273l3.4453 1.7266 6.0312-10.77c10.336 6.6055 20.676 12.633 31.016 18.09l-6.0312 10.77 3.875 2.1562c2.0117 1.7227 3.8789 1.1484 5.6016-1.7266l4.3086-7.3203c6.8906 3.7305 17.805 9.0469 32.738 15.938l-3.0156 30.586 3.0156 2.582-0.43359 9.4766c11.488 5.1719 24.844 10.055 40.062 14.648l6.8945-6.0312 2.1523 8.6133c12.922 4.3086 26.562 7.7539 40.922 10.34l6.0312-7.7539 3.0156 9.9102c14.645 2.8711 28.719 5.0234 42.215 6.4609l3.8789-6.8945 4.3047 7.7539c11.203 1.7227 23.98 2.7305 38.34 3.0156l3.4453-9.4766h4.7383l6.4609-24.121 8.6172 0.42969v7.7539h4.7383l0.42969-7.7539h13.355l0.42969 8.1836 4.7383-0.42969-0.42969-7.7539h4.7383l9.0469 24.555 3.875 1.2891 3.8789 8.6172c13.496-0.28906 27.426-1.5781 41.785-3.875l4.3047-9.9102 4.7383 8.6172c12.637-1.4375 26.422-3.8789 41.355-7.3242l3.4453-9.0469 5.6016 6.8945c15.508-4.3086 29.148-8.3281 40.922-12.062l1.293-9.9102 7.7539 6.8945c13.496-4.5938 26.707-9.9062 39.629-15.938l-0.42969-7.7539 7.7539 4.7383c11.488-5.1719 23.117-10.77 34.895-16.801l-1.7227-9.9062 3.875-2.1562-6.8906-24.555 6.4609-3.0156 3.4453 6.4648 4.7383-2.5859-3.875-6.4609 11.199-6.8945 4.7383 6.8945 3.875-3.0156-4.3086-6.0312 3.8789-2.1523 20.246 16.797 3.875-0.85938 7.7539 5.5977c12.062-7.4648 23.551-15.648 34.465-24.551l-1.293-10.77 8.1836 5.168c7.1797-5.457 17.949-14.504 32.309-27.137l-1.7227-9.0469 8.6133 2.582c6.6055-6.6016 16.227-16.797 28.863-30.582l-3.4453-9.4766 9.9062 2.1523c10.34-12.348 19.098-23.406 26.277-33.168l-4.3086-6.8945 9.0469 0.43359c7.7539-10.629 15.078-21.398 21.969-32.309l-6.4609-7.7539 2.1523-3.8789-17.66-17.66 0.85938-2.1523 6.4648 4.7383 3.0156-4.3086-6.8945-4.3086 6.4609-11.629 6.8945 3.875 2.582-4.7383-6.8906-3.4453z" fill-rule="evenodd"/> </svg>
  </g>
</svg>