<?xml version="1.0" encoding="UTF-8"?>
<svg width="1200pt" height="1200pt" version="1.1" viewBox="0 0 1200 1200" xmlns="http://www.w3.org/2000/svg">
 <path d="m432 234c0 54.344-44.055 98.398-98.398 98.398-54.348 0-98.402-44.055-98.402-98.398s44.055-98.398 98.402-98.398c54.344 0 98.398 44.055 98.398 98.398z"/>
 <path d="m698.4 234c0 54.344-44.055 98.398-98.398 98.398s-98.398-44.055-98.398-98.398 44.055-98.398 98.398-98.398 98.398 44.055 98.398 98.398z"/>
 <path d="m964.8 234c0 54.344-44.055 98.398-98.402 98.398-54.344 0-98.398-44.055-98.398-98.398s44.055-98.398 98.398-98.398c54.348 0 98.402 44.055 98.402 98.398z"/>
 <path d="m432 492c0 54.344-44.055 98.398-98.398 98.398-54.348 0-98.402-44.055-98.402-98.398s44.055-98.398 98.402-98.398c54.344 0 98.398 44.055 98.398 98.398z"/>
 <path d="m698.4 492c0 54.344-44.055 98.398-98.398 98.398s-98.398-44.055-98.398-98.398 44.055-98.398 98.398-98.398 98.398 44.055 98.398 98.398z"/>
 <path d="m964.8 492c0 54.344-44.055 98.398-98.402 98.398-54.344 0-98.398-44.055-98.398-98.398s44.055-98.398 98.398-98.398c54.348 0 98.402 44.055 98.402 98.398z"/>
 <path d="m432 751.2c0 54.344-44.055 98.402-98.398 98.402-54.348 0-98.402-44.059-98.402-98.402s44.055-98.398 98.402-98.398c54.344 0 98.398 44.055 98.398 98.398z"/>
 <path d="m698.4 751.2c0 54.344-44.055 98.402-98.398 98.402s-98.398-44.059-98.398-98.402 44.055-98.398 98.398-98.398 98.398 44.055 98.398 98.398z"/>
 <path d="m964.8 751.2c0 54.344-44.055 98.402-98.402 98.402-54.344 0-98.398-44.059-98.398-98.402s44.055-98.398 98.398-98.398c54.348 0 98.402 44.055 98.402 98.398z"/>
 <path d="m698.4 1008c0 54.344-44.055 98.398-98.398 98.398s-98.398-44.055-98.398-98.398 44.055-98.398 98.398-98.398 98.398 44.055 98.398 98.398z"/>
</svg>
