<?xml version="1.0" encoding="UTF-8" standalone="no"?>
<svg
   width="950pt"
   height="1417pt"
   version="1.1"
   viewBox="0 0 950 1417"
   id="svg13"
   sodipodi:docname="thirteen.svg"
   inkscape:version="1.4 (e7c3feb1, 2024-10-09)"
   xmlns:inkscape="http://www.inkscape.org/namespaces/inkscape"
   xmlns:sodipodi="http://sodipodi.sourceforge.net/DTD/sodipodi-0.dtd"
   xmlns="http://www.w3.org/2000/svg"
   xmlns:svg="http://www.w3.org/2000/svg">
  <defs
     id="defs13" />
  <sodipodi:namedview
     id="namedview13"
     pagecolor="#ffffff"
     bordercolor="#000000"
     borderopacity="0.25"
     inkscape:showpageshadow="2"
     inkscape:pageopacity="0.0"
     inkscape:pagecheckerboard="0"
     inkscape:deskcolor="#d1d1d1"
     inkscape:document-units="pt"
     inkscape:zoom="0.30374235"
     inkscape:cx="844.46572"
     inkscape:cy="1539.1334"
     inkscape:window-width="1104"
     inkscape:window-height="972"
     inkscape:window-x="0"
     inkscape:window-y="38"
     inkscape:window-maximized="0"
     inkscape:current-layer="svg13" />
  <path
     d="m 304.8,225.6 c 0,54.344 -44.055,98.398 -98.402,98.398 -54.344,0 -98.398,-44.055 -98.398,-98.398 0,-54.348 44.055,-98.402 98.398,-98.402 54.348,0 98.402,44.055 98.402,98.402 z"
     id="path1" />
  <path
     d="m 571.2,225.6 c 0,54.344 -44.055,98.398 -98.398,98.398 -54.343,0 -98.402,-44.055 -98.402,-98.398 0,-54.348 44.059,-98.402 98.402,-98.402 54.343,0 98.398,44.055 98.398,98.402 z"
     id="path2" />
  <path
     d="m 837.6,225.6 c 0,54.344 -44.059,98.398 -98.402,98.398 -54.343,0 -98.398,-44.055 -98.398,-98.398 0,-54.348 44.055,-98.402 98.398,-98.402 54.343,0 98.402,44.055 98.402,98.402 z"
     id="path3" />
  <path
     d="m 304.8,483.6 c 0,54.344 -44.055,98.398 -98.402,98.398 -54.344,0 -98.398,-44.055 -98.398,-98.398 0,-54.348 44.055,-98.402 98.398,-98.402 54.348,0 98.402,44.055 98.402,98.402 z"
     id="path4" />
  <path
     d="m 571.2,483.6 c 0,54.344 -44.055,98.398 -98.398,98.398 -54.343,0 -98.402,-44.055 -98.402,-98.398 0,-54.348 44.059,-98.402 98.402,-98.402 54.343,0 98.398,44.055 98.398,98.402 z"
     id="path5" />
  <path
     d="m 837.6,483.6 c 0,54.344 -44.059,98.398 -98.402,98.398 -54.343,0 -98.398,-44.055 -98.398,-98.398 0,-54.348 44.055,-98.402 98.398,-98.402 54.343,0 98.402,44.055 98.402,98.402 z"
     id="path6" />
  <path
     d="m 304.8,742.8 c 0,54.344 -44.055,98.398 -98.402,98.398 -54.344,0 -98.398,-44.055 -98.398,-98.398 0,-54.343 44.055,-98.402 98.398,-98.402 54.348,0 98.402,44.059 98.402,98.402 z"
     id="path7" />
  <path
     d="m 571.2,742.8 c 0,54.344 -44.055,98.398 -98.398,98.398 -54.343,0 -98.402,-44.055 -98.402,-98.398 0,-54.343 44.059,-98.402 98.402,-98.402 54.343,0 98.398,44.059 98.398,98.402 z"
     id="path8" />
  <path
     d="m 837.6,742.8 c 0,54.344 -44.059,98.398 -98.402,98.398 -54.343,0 -98.398,-44.055 -98.398,-98.398 0,-54.343 44.055,-98.402 98.398,-98.402 54.343,0 98.402,44.059 98.402,98.402 z"
     id="path9" />
  <path
     d="m 571.2,998.4 c 0,54.348 -44.055,98.402 -98.398,98.402 -54.343,0 -98.402,-44.055 -98.402,-98.402 0,-54.344 44.059,-98.398 98.402,-98.398 54.343,0 98.398,44.055 98.398,98.398 z"
     id="path10" />
  <path
     d="m 837.6,998.4 c 0,54.348 -44.059,98.402 -98.402,98.402 -54.343,0 -98.398,-44.055 -98.398,-98.402 0,-54.344 44.055,-98.398 98.398,-98.398 54.343,0 98.402,44.055 98.402,98.398 z"
     id="path11" />
  <path
     d="m 579.20251,1248.7482 c 0,54.344 -44.055,98.398 -98.398,98.398 -54.348,0 -98.402,-44.055 -98.402,-98.398 0,-54.348 44.055,-98.402 98.402,-98.402 54.344,0 98.398,44.055 98.398,98.402 z"
     id="path12" />
  <path
     d="m 304.8,998.4 c 0,54.348 -44.055,98.402 -98.402,98.402 -54.344,0 -98.398,-44.055 -98.398,-98.402 0,-54.344 44.055,-98.398 98.398,-98.398 54.348,0 98.402,44.055 98.402,98.398 z"
     id="path13" />
</svg>
