<?xml version="1.0" encoding="UTF-8"?>
<svg width="1200pt" height="1200pt" version="1.1" viewBox="0 0 1200 1200" xmlns="http://www.w3.org/2000/svg">
 <path d="m392.4 612c0 67.602-54.797 122.4-122.4 122.4s-122.4-54.797-122.4-122.4 54.797-122.4 122.4-122.4 122.4 54.797 122.4 122.4z"/>
 <path d="m722.4 612c0 67.602-54.797 122.4-122.4 122.4s-122.4-54.797-122.4-122.4 54.797-122.4 122.4-122.4 122.4 54.797 122.4 122.4z"/>
 <path d="m1052.4 612c0 67.602-54.797 122.4-122.4 122.4s-122.4-54.797-122.4-122.4 54.797-122.4 122.4-122.4 122.4 54.797 122.4 122.4z"/>
</svg>
