<?xml version="1.0" encoding="UTF-8"?>
<svg width="1200pt" height="1200pt" version="1.1" viewBox="0 0 1200 1200" xmlns="http://www.w3.org/2000/svg">
 <path d="m726.66 831.24v248.76h-31.734v-248.76c0-45.094-36.656-81.75-81.75-81.75h-281.34c-0.23438-11.203-0.60938-21.891-1.3594-31.734h282.71c62.578 0 113.48 50.906 113.48 113.48zm170.21-176.95c43.875-56.25 70.172-126.89 70.172-203.72 0-182.68-149.76-330.61-330.61-330.61-275.95 0-366.05 200.95-317.11 346.82 16.031 47.109-26.062 101.95-53.719 126.89-81.844 74.062 12.328 74.062 39.797 74.062 10.312 0 16.453 7.5938 20.25 19.969h287.48c79.125 0 143.48 64.359 143.48 143.48v248.76h150.28c-19.219-71.344-87.797-300.42-10.078-425.72zm-231.94 176.95c0-28.078-23.719-51.75-51.75-51.75h-280.69c1.5 55.828 6.8438 111.89 50.016 112.78 35.438 0.70312 84.609-35.906 137.39-32.016 39.797 2.7656 42.281 173.76 44.578 219.71h100.45v-248.76z"/>
</svg>
