<svg
   width="210mm"
   height="297mm"
   viewBox="0 0 210 297"
   version="1.1"
   id="svg1"
   xml:space="preserve"
   inkscape:version="1.4 (e7c3feb1, 2024-10-09)"
   sodipodi:docname="svg5.txt"
   xmlns:inkscape="http://www.inkscape.org/namespaces/inkscape"
   xmlns:sodipodi="http://sodipodi.sourceforge.net/DTD/sodipodi-0.dtd"
   xmlns="http://www.w3.org/2000/svg"
   xmlns:svg="http://www.w3.org/2000/svg"><sodipodi:namedview
     id="namedview1"
     bordercolor="#ffffff"
     borderopacity="0.25"
     inkscape:showpageshadow="2"
     inkscape:pageopacity="0.0"
     inkscape:pagecheckerboard="0"
     inkscape:deskcolor="#d1d1d1"
     inkscape:document-units="mm"
     inkscape:zoom="1.4881941"
     inkscape:cx="255.67901"
     inkscape:cy="929.98621"
     inkscape:window-width="1352"
     inkscape:window-height="929"
     inkscape:window-x="0"
     inkscape:window-y="38"
     inkscape:window-maximized="0"
     inkscape:current-layer="layer1" /><defs
     id="defs1" /><g
     inkscape:label="Layer 1"
     inkscape:groupmode="layer"
     id="layer1"><path
       style="fill:#ffffff"
       d="m 60.20838,270.94368 c -0.03832,-0.062 -0.158854,-0.11273 -0.267853,-0.11273 -0.108998,0 -0.490901,-0.14971 -0.848672,-0.33268 -1.447029,-0.74003 -2.169093,-1.64245 -2.432898,-3.04056 -0.134702,-0.71389 -0.125848,-0.86919 0.107575,-1.88703 0.139896,-0.61001 0.290873,-1.15984 0.335504,-1.22184 0.04463,-0.062 0.149584,-0.29029 0.233228,-0.5073 0.917759,-2.38107 4.164971,-4.74526 8.340636,-6.07256 1.924105,-0.6116 4.850243,-1.15419 7.665801,-1.42145 2.194495,-0.2083 4.746105,-0.50171 4.934275,-0.56739 0.0787,-0.0275 0.63676,-0.12893 1.24006,-0.22546 1.2207,-0.1953 4.33622,-0.95083 5.38073,-1.30484 6.37809,-2.16171 10.39055,-6.17574 12.50761,-12.5125 1.189,-3.55888 1.66569,-7.46502 1.80804,-14.81563 0.0348,-1.79808 0.0871,-4.41065 0.11612,-5.80571 0.14623,-7.02424 0.29271,-14.96992 0.39385,-21.36277 0.0618,-3.90618 0.15987,-9.4357 0.21795,-12.28782 0.0581,-2.85213 0.135224,-7.2656 0.171424,-9.80772 0.0362,-2.54211 0.11912,-6.42292 0.18424,-8.62402 0.0651,-2.2011 0.12728,-6.05654 0.13813,-8.56765 l 0.0197,-4.56566 -0.29466,-0.86356 c -0.619884,-1.81674 -1.719764,-3.26991 -3.303714,-4.36489 -2.40579,-1.66312 -4.15131,-2.04479 -5.71148,-1.24885 -0.71025,0.36234 -1.63503,1.39141 -2.10425,2.34154 -0.39926,0.80848 -0.4228,0.91605 -0.4228,1.93229 0,0.97247 0.0338,1.14674 0.35107,1.80891 0.19308,0.40301 0.73377,1.20653 1.20153,1.7856 1.41349,1.74985 2.02674,3.13742 2.24194,5.07277 0.16342,1.46968 -4.3e-4,3.46773 -0.349,4.25573 -0.26155,0.59126 -0.81987,0.89779 -1.44924,0.79566 -0.82354,-0.13365 -0.97267,-0.51074 -0.80776,-2.04242 0.28377,-2.63568 -0.30335,-4.25549 -2.30987,-6.37276 -1.03406,-1.09112 -1.60861,-2.01567 -2.0406,-3.28367 -0.32673,-0.95904 -0.53393,-2.66054 -0.43081,-3.53786 0.0391,-0.33269 0.04,-0.68585 0.002,-0.78482 -0.0629,-0.16389 -0.10193,-0.16314 -0.43746,0.008 -0.81656,0.41741 -2.04196,1.3553 -2.7463,2.10194 -1.60325,1.69953 -2.45982,3.49617 -2.81878,5.91233 -0.16602,1.11754 -0.16557,1.31457 0.006,2.51197 0.22613,1.58037 0.55594,2.38307 1.09333,2.66096 0.35601,0.1841 0.42865,0.18348 1.42361,-0.0121 1.51073,-0.29705 1.93561,-0.0712 1.93955,1.03085 0.002,0.60232 -0.25812,0.92468 -1.11562,1.38173 -2.08459,1.11107 -3.71914,1.06453 -4.66695,-0.13289 -0.53945,-0.68153 -1.11555,-1.20696 -1.40221,-1.27891 -0.37783,-0.0948 -0.78448,0.22824 -1.251267,0.99408 -1.723011,2.8269 -2.947471,4.23006 -4.481374,5.13539 -1.619337,0.95576 -3.171933,1.35926 -4.419605,1.14862 -1.824661,-0.30806 -3.736182,-1.81798 -3.451595,-2.72644 0.173782,-0.55475 0.76605,-1.08382 1.22269,-1.09223 0.119314,-0.002 0.62661,0.20717 1.127324,0.46525 1.177269,0.60682 2.173207,0.71156 3.075429,0.32343 1.151456,-0.49534 3.124678,-2.94403 4.198881,-5.21065 0.302958,-0.63925 0.967289,-2.40515 1.47629,-3.92422 1.36106,-4.06196 2.300207,-6.12127 3.855867,-8.45492 1.95715,-2.93592 4.75447,-5.3674 7.76745,-6.75159 1.73518,-0.79716 3.10783,-1.17189 4.95827,-1.35359 2.00788,-0.19717 4.74249,0.17046 6.69109,0.89952 0.35026,0.13105 0.67138,0.20289 0.7136,0.15964 0.17247,-0.17666 -1.95562,-1.76223 -3.36156,-2.50459 -1.50401,-0.79413 -3.18607,-1.33789 -5.18569,-1.67635 -1.60277,-0.27129 -4.98415,-0.2751 -6.22864,-0.007 -0.67846,0.14615 -1.42206,0.18543 -3.32561,0.1757 -2.53367,-0.013 -2.66281,-0.002 -4.38252,0.35507 -3.242271,0.67415 -6.252329,2.52088 -8.843981,5.42595 -0.901104,1.01008 -1.332082,1.57995 -2.882677,3.81173 -1.025739,1.47635 -1.249113,1.76973 -2.347787,3.08367 -0.808369,0.96675 -2.987503,3.1624 -4.004782,4.03513 -0.72041,0.61804 -0.935525,0.78674 -3.007859,2.35884 -1.258093,0.95441 -1.879432,1.63577 -2.305619,2.52835 -0.950496,1.99066 0.137523,4.00075 3.017126,5.57406 1.316272,0.71916 1.619957,0.96809 1.619957,1.32786 0,0.36179 -0.28412,0.8879 -0.531309,0.98383 -0.110798,0.043 -0.531193,0.10597 -0.934211,0.13992 -1.820331,0.15337 -3.674211,-0.52277 -4.925126,-1.79628 -1.312683,-1.3364 -1.856159,-2.77906 -1.852836,-4.91836 0.0031,-2.01469 -0.208243,-2.24291 -2.209071,-2.38521 -1.922084,-0.13669 -2.819317,-0.42025 -5.333509,-1.6856 -3.721135,-1.87278 -5.195385,-2.41349 -6.600953,-2.42102 -0.828423,-0.004 -0.954935,0.0252 -1.388099,0.3254 -1.15119,0.79777 -1.34334,2.02548 -0.513349,3.27996 0.245061,0.3704 0.88945,1.14002 1.431974,1.71028 0.86202,0.90608 0.986409,1.08755 0.986409,1.43906 0,0.29902 -0.09681,0.50786 -0.377292,0.81392 -0.326634,0.35642 -0.445134,0.4117 -0.882566,0.4117 -0.33939,0 -0.749264,-0.11887 -1.248451,-0.36205 -1.98016,-0.96467 -3.504514,-3.72832 -3.320438,-6.01995 0.12235,-1.52319 0.577521,-2.3973 1.82315,-3.50119 1.315739,-1.16601 1.540816,-1.99637 1.029991,-3.79987 -0.469492,-1.65757 -0.55427,-2.16125 -0.565001,-3.3568 -0.0098,-1.0952 0.0056,-1.17887 0.255673,-1.38216 0.17325,-0.14086 0.440715,-0.21639 0.766327,-0.21639 0.577856,0 0.986231,0.34084 1.115935,0.93138 0.120237,0.54743 0.919702,2.61892 1.307847,3.38876 1.483572,2.94246 3.676521,4.45221 7.729331,5.32132 1.966381,0.42169 1.982047,0.41202 1.10045,-0.67924 -2.234462,-2.76586 -3.167313,-6.51742 -2.761115,-11.10413 0.286929,-3.23996 0.279192,-4.4397 -0.03895,-6.03927 -0.432486,-2.17447 -1.311568,-4.24677 -2.73321,-6.44312 -0.82329,-1.27193 -0.947034,-1.53446 -0.947034,-2.00925 0,-0.31475 0.08219,-0.48808 0.350119,-0.73836 0.509728,-0.47616 1.101414,-0.47884 1.605313,-0.007 0.527439,0.4936 1.986113,2.55996 2.740944,3.88282 0.845371,1.48153 1.306648,2.64951 1.677497,4.24753 0.520669,2.24361 0.78496,2.93697 1.344266,3.52664 0.65358,0.68906 1.682531,0.90206 3.147265,0.65151 1.033298,-0.17676 1.559293,-0.0402 1.881658,0.48846 0.246937,0.40497 0.272709,0.72953 0.0898,1.13096 -0.164426,0.36088 -0.5221,0.48893 -1.563629,0.55979 -1.020144,0.0694 -2.43401,0.51671 -3.115617,0.98567 -1.373313,0.94486 -1.613115,2.74008 -0.69849,5.22905 0.698249,1.90016 1.600693,3.2225 2.912248,4.26731 2.093691,1.66786 3.992324,2.05341 5.77452,1.1726 1.482318,-0.7326 3.073449,-2.54971 7.073618,-8.07822 1.793747,-2.47909 2.509604,-3.41462 3.695338,-4.82933 0.460506,-0.54943 0.591845,-0.79154 0.591845,-1.091 0,-0.53242 -0.334026,-0.76359 -1.725903,-1.1944 -7.799935,-2.41424 -13.550489,-7.25187 -16.913955,-14.22882 -1.910935,-3.96391 -3.018843,-7.96286 -3.849291,-13.89384 -0.601786,-4.2979 -1.749027,-6.85743 -3.802615,-8.48375 -0.830019,-0.65733 -1.121187,-0.8165 -2.614287,-1.42911 -0.996882,-0.40902 -1.141534,-0.50505 -1.339964,-0.88956 -0.188888,-0.36602 -0.203567,-0.49404 -0.09731,-0.84869 0.06882,-0.22971 0.306864,-0.59376 0.528984,-0.809013 0.382988,-0.371143 0.442843,-0.390741 1.158467,-0.379327 1.762788,0.02812 4.57347,1.48538 6.112227,3.16902 1.774581,1.94168 2.389318,3.36645 4.221357,9.78381 0.902961,3.16295 1.658907,5.5796 1.745336,5.5796 0.03536,0 0.213807,-0.46925 0.396554,-1.04278 0.385683,-1.2104 1.296361,-3.28658 2.113841,-4.81915 2.526891,-4.73729 3.18234,-6.55678 3.353531,-9.30921 0.16574,-2.66478 -0.111586,-3.812429 -1.048506,-4.339008 -0.382352,-0.214894 -0.675584,-0.268089 -1.705879,-0.309464 -1.450144,-0.05824 -1.786051,-0.214299 -1.975489,-0.917817 -0.200085,-0.74306 0.155783,-1.257672 1.16963,-1.691371 1.176944,-0.503467 2.693022,-0.506628 3.671093,-0.0077 1.278885,0.652438 2.450181,2.234278 3.048829,4.117452 0.347649,1.093608 0.43078,3.219948 0.181807,4.650258 -0.226206,1.29951 -0.227752,1.72845 -0.0081,2.25409 0.336809,0.8061 0.829029,1.12633 2.193981,1.42739 1.81815,0.40101 3.11095,1.37371 3.871456,2.91285 0.823474,1.66659 0.811206,3.35929 -0.03705,5.11178 -0.378029,0.781 -0.536172,0.99401 -0.826348,1.11304 -0.468613,0.19222 -1.014708,0.10123 -1.370288,-0.22831 -0.344769,-0.31952 -0.378202,-0.89918 -0.09853,-1.70828 0.609487,-1.76323 -0.134183,-3.32311 -1.817608,-3.8125 -1.547351,-0.44983 -2.983445,-0.18468 -3.8818,0.7167 -0.568931,0.57085 -0.863919,1.12231 -1.360069,2.54257 -0.948788,2.71596 -1.18309,4.11447 -1.182742,7.05958 3.07e-4,2.59736 0.22882,4.14577 0.848484,5.74935 0.825588,2.13648 2.470484,3.72166 5.371179,5.17618 1.069476,0.53628 4.131809,1.81323 4.348423,1.81323 0.05264,0 0.06762,-0.0888 0.03328,-0.19729 -0.274053,-0.86595 -0.516421,-2.47906 -0.516421,-3.43709 0,-2.46476 0.721575,-4.47749 3.102298,-8.65345 1.57387,-2.76067 2.003817,-4.08046 2.001502,-6.14391 -0.0012,-1.04133 -0.05077,-1.39247 -0.309506,-2.19116 -0.317413,-0.9798 -0.8872,-2.0223 -1.56109,-2.8562 -0.524063,-0.6485 -0.64036,-0.89906 -0.64036,-1.37965 0,-0.30114 0.08566,-0.4963 0.321235,-0.73188 0.962117,-0.96212 2.278043,-0.24418 3.823358,2.08593 0.662323,0.9987 1.223589,2.28671 1.458143,3.3462 0.227066,1.02566 0.245776,3.22109 0.03729,4.37597 -0.08395,0.46502 -0.154546,1.32743 -0.156886,1.91645 -0.0038,0.9448 0.03118,1.13942 0.296551,1.6521 0.165444,0.31963 0.610426,0.87766 0.988849,1.24006 1.462162,1.40026 1.722838,2.61161 0.778606,3.61813 -0.273719,0.29178 -0.433086,0.36638 -0.782665,0.36638 -0.390594,0 -0.492442,-0.064 -0.924329,-0.58116 -1.254583,-1.50219 -1.758504,-1.67313 -2.61229,-0.88614 -0.89418,0.82423 -1.531591,2.69067 -1.366991,4.00278 0.09328,0.74357 0.456857,1.85551 0.822299,2.51484 0.388027,0.70009 1.403103,1.69544 2.11981,2.07862 1.752319,0.93686 3.354323,0.87933 12.219602,-0.43881 1.75115,-0.26037 2.31482,-0.29319 5.01659,-0.29213 2.75842,0.001 3.19174,0.0279 4.62203,0.28553 0.86804,0.15639 1.908,0.36654 2.31102,0.46701 1.58375,0.39481 4.06795,1.36592 5.39467,2.10887 0.887634,0.49706 0.946794,0.43475 0.898084,-0.94579 -0.0349,-0.98835 -0.0867,-1.24941 -0.35897,-1.80827 -1.019404,-2.09235 -5.600144,-5.37946 -13.543224,-9.71851 -4.02299,-2.19763 -5.75898,-3.22397 -7.56,-4.46957 -3.783233,-2.61652 -6.754924,-5.71275 -8.639575,-9.00166 -1.822371,-3.18021 -2.481585,-5.33138 -3.350986,-10.935029 -0.700499,-4.515008 -0.84044,-5.391508 -1.096408,-6.867167 -0.766494,-4.418844 -1.78407,-6.777978 -3.860094,-8.94918 -1.44599,-1.512285 -1.567035,-2.006351 -0.715371,-2.919922 0.699676,-0.750534 1.287267,-0.510444 3.076541,1.257072 1.883207,1.860306 3.012202,3.67043 3.976205,6.375064 0.427029,1.198089 1.186141,4.049751 1.472735,5.532448 0.09497,0.491312 0.278127,1.34986 0.407021,1.907885 0.128895,0.558025 0.330778,1.521886 0.44863,2.141914 0.423813,2.229715 0.938519,4.109945 1.465859,5.354785 0.196991,0.46502 0.385962,0.93634 0.419934,1.04738 0.111749,0.36525 0.308893,0.13184 0.74956,-0.88745 0.57055,-1.31973 1.205126,-2.74697 1.900579,-4.27466 0.87371,-1.919234 0.87386,-1.919602 1.28554,-3.189759 0.46238,-1.42657 0.83237,-3.605432 0.83154,-4.896919 -9.3e-4,-1.448942 -0.40425,-3.623254 -0.9696,-5.227173 -0.7725,-2.191596 -1.226053,-5.131739 -1.13731,-7.372528 0.0339,-0.855333 0.14048,-1.818131 0.24339,-2.19828 0.24637,-0.910013 1.68318,-3.292399 2.19081,-3.632572 0.702,-0.470427 1.59545,-0.246525 2.18317,0.547107 0.30152,0.407171 0.18961,0.830273 -0.44908,1.697878 -1.47978,2.010141 -1.6385,4.096538 -0.55252,7.263308 1.0572,3.082863 1.33072,3.826519 1.48366,4.033785 0.22013,0.298328 0.698,0.258146 1.42103,-0.11949 0.56828,-0.296806 0.6862,-0.315118 2.0128,-0.312564 1.53363,0.003 2.01065,0.101077 3.15352,0.648691 0.95821,0.459133 2.21667,1.690703 2.63235,2.57611 0.54192,1.154302 0.78143,2.6369 0.53198,3.292997 -0.13536,0.356026 -0.65758,0.632766 -1.19407,0.632766 -0.57392,0 -0.93341,-0.428833 -1.3348,-1.592274 -0.26699,-0.773885 -0.42967,-1.048866 -0.90186,-1.52443 -0.67613,-0.680957 -1.24519,-0.881501 -2.27041,-0.800111 -1.61901,0.128531 -2.72277,1.347776 -2.9335,3.240421 -0.32624,2.929953 -1.12111,5.912887 -2.67358,10.033177 -1.01878,2.70388 -1.38663,3.84804 -1.60393,4.98888 -0.46061,2.41828 -0.0653,3.82947 1.5087,5.38521 0.98104,0.96969 1.932,1.64155 4.01464,2.83637 2.12314,1.21805 2.58571,1.46462 6.20028,3.30502 5.87985,2.9938 7.17418,3.69167 9.65417,5.20534 0.8456,0.51611 1.591904,0.93838 1.658464,0.93838 0.0666,0 0.1773,-0.2156 0.24609,-0.47911 0.0688,-0.26352 0.19545,-0.72214 0.28146,-1.01917 0.28385,-0.98024 0.42037,-3.2011 0.29033,-4.72282 -0.35969,-4.20891 -2.002624,-8.11336 -4.511914,-10.72259 -1.16968,-1.21627 -2.21282,-1.9307 -3.18006,-2.17797 -0.69418,-0.17747 -0.73925,-0.17562 -1.3384,0.055 -1.52995,0.589 -2.42282,1.76074 -2.41659,3.17134 0.005,1.09084 0.35843,2.76137 0.79251,3.74399 0.44371,1.0044 0.47103,1.30069 0.1568,1.70018 -0.47749,0.60703 -1.79538,0.70121 -2.33007,0.16652 -0.30049,-0.30049 -0.99722,-2.02853 -1.46677,-3.63787 -0.37177,-1.27425 -0.41486,-2.99856 -0.1014,-4.05836 0.64123,-2.16804 2.2111,-3.81554 4.43643,-4.65585 0.63704,-0.24055 0.95149,-0.28717 1.94368,-0.28818 2.28779,-0.002 4.10281,0.88097 6.75489,3.28732 0.491734,0.44617 0.963474,0.81121 1.048334,0.81121 0.4708,0 0.66901,-3.84383 0.27322,-5.29841 -0.43965,-1.615757 -0.93625,-2.632246 -2.580054,-5.281118 -3.25929,-5.2521 -5.45521,-8.515387 -8.69756,-12.925151 -3.26949,-4.446674 -3.56609,-4.908221 -4.52029,-7.034097 -0.64596,-1.439129 -1.02152,-2.594915 -1.41411,-4.351867 -0.22327,-0.999179 -0.26138,-1.588641 -0.33533,-5.185686 -0.081,-3.939971 -0.0922,-4.087961 -0.38299,-5.072954 -0.16477,-0.558025 -0.37127,-1.262722 -0.45889,-1.565993 -0.27088,-0.937483 -0.0681,-1.375897 0.7591,-1.641497 1.11722,-0.358702 1.71998,0.317565 2.39426,2.686208 0.29007,1.018968 0.66733,3.678167 0.79366,5.594236 0.1042,1.580434 0.57552,4.8338 0.79916,5.516327 0.46755,1.426888 0.82555,1.501335 2.61132,0.543035 l 1.20775,-0.648211 h 1.29642 c 1.1493,0 1.35355,0.03045 1.79981,0.268322 1.52207,0.811315 2.71057,2.16336 2.70907,3.081843 -6.3e-4,0.37937 -0.40674,0.978969 -0.75198,1.110227 -0.44274,0.168329 -0.91103,0.02138 -1.43376,-0.449922 -1.10589,-0.997067 -1.97795,-1.172742 -2.90454,-0.585114 -0.55001,0.348804 -1.10966,1.262136 -1.10949,1.810648 1.1e-4,0.3837 0.56528,1.560996 0.9808,2.043094 0.18331,0.212684 2.2024,2.796352 4.48687,5.741484 2.28446,2.945131 4.301234,5.54502 4.481704,5.777531 0.18047,0.23251 0.36477,0.422746 0.40956,0.422746 0.13737,0 0.58155,-7.588615 0.5787,-9.886845 -0.003,-2.09076 -0.24709,-4.549102 -0.58077,-5.839312 -0.58799,-2.273556 -1.407134,-3.922134 -3.332844,-6.707573 -2.12854,-3.078806 -3.41806,-7.069645 -3.41605,-10.572067 0.001,-1.745114 0.24094,-2.24164 1.20712,-2.498036 0.98452,-0.261259 1.49552,0.2649 1.4972,1.541607 3.5e-4,0.262622 0.0584,0.719188 0.1289,1.014591 0.79191,3.315808 1.6202,5.005361 4.435914,9.048385 0.75566,1.085049 1.69438,2.454746 2.08603,3.043773 0.91594,1.377537 1.10244,1.578252 1.46652,1.578252 0.45886,0 0.24458,0.282429 4.12189,-5.432816 2.58993,-3.817628 3.52319,-5.919296 3.94479,-8.883511 0.21101,-1.483575 0.2664,-1.62286 0.74348,-1.86957 0.6502,-0.33623 1.53941,0.05383 1.85734,0.814744 0.25481,0.60986 0.2134,3.134724 -0.0728,4.436119 -0.55817,2.53844 -2.54938,7.036874 -4.26649,9.638612 -1.34514,2.03814 -2.0217,3.620128 -2.507,5.86208 -0.48931,2.260453 -0.52646,4.849941 -0.15203,10.596838 0.0889,1.36406 0.16206,2.898629 0.16264,3.410152 5.7e-4,0.511523 0.0391,0.928422 0.0856,0.926442 0.0465,-0.002 0.56467,-0.623417 1.15148,-1.380971 0.58681,-0.757554 2.86459,-3.684945 5.06173,-6.505312 2.19713,-2.820368 4.06861,-5.304618 4.15884,-5.520556 0.10267,-0.245739 0.14554,-0.615683 0.11459,-0.988896 -0.11535,-1.390953 -1.75395,-2.372488 -2.93917,-1.760588 -0.19843,0.102445 -0.6267,0.402702 -0.95172,0.667238 -0.98879,0.804792 -1.67442,0.773278 -2.05833,-0.09461 -0.47439,-1.072447 0.2965,-2.285228 2.1458,-3.375797 1.28896,-0.760121 2.75532,-0.842429 3.87267,-0.217376 0.31704,0.177351 0.85545,0.480862 1.19646,0.674469 0.41193,0.233865 0.77138,0.351494 1.07096,0.350469 1.09587,-0.0038 1.21905,-0.413884 1.91132,-6.363748 0.47855,-4.113005 0.51551,-4.370201 0.80949,-5.632594 0.49758,-2.136679 0.88715,-2.864105 1.63243,-3.048175 0.39801,-0.0983 1.14306,0.115323 1.40265,0.402171 0.26213,0.289656 0.27522,1.249166 0.0238,1.743049 -0.0939,0.1844 -0.28652,0.817203 -0.42809,1.406229 -0.23363,0.972106 -0.26464,1.450752 -0.33594,5.185686 -0.0824,4.31719 -0.095,4.433359 -0.70267,6.482108 -0.88442,2.981816 -1.75197,4.523538 -5.2143,9.266413 -3.66375,5.018773 -8.95542,13.000619 -10.41951,15.716576 -1.04343,1.935619 -1.41317,3.605839 -1.3323,6.018399 0.0312,0.93003 0.10098,1.80268 0.15511,1.93919 0.0951,0.23973 0.12539,0.22723 0.88707,-0.36574 3.85913,-3.00432 4.8274,-3.48749 6.98893,-3.48749 1.33547,0 1.91923,0.13898 3.10014,0.73809 1.43123,0.7261 2.75935,2.25393 3.17537,3.65284 0.47539,1.59861 0.53975,3.15955 0.19917,4.83083 -0.46379,2.27586 -1.54446,3.79642 -2.69814,3.79642 -0.48576,0 -0.97915,-0.28086 -1.18179,-0.67271 -0.23108,-0.44686 -0.22082,-0.53832 0.15348,-1.36907 0.96505,-2.14185 1.2584,-4.24863 0.72817,-5.22947 -0.34612,-0.64025 -0.88894,-1.12267 -1.73158,-1.53888 -0.61642,-0.30447 -0.862,-0.362 -1.57572,-0.36913 -1.48776,-0.0148 -2.15414,0.48457 -4.05011,3.03533 -1.40085,1.88467 -1.78512,2.48055 -2.39901,3.72018 -1.20535,2.43394 -1.69952,4.60473 -1.70659,7.4967 -0.004,1.65692 0.24913,3.99273 0.51642,4.76452 l 0.14259,0.41172 1.18369,-0.77182 c 1.86591,-1.21668 3.97316,-2.39386 7.44033,-4.15644 12.12635,-6.16455 14.1205,-7.54086 14.8206,-10.22874 0.38407,-1.47454 0.0931,-2.97768 -1.35196,-6.98546 -2.04064,-5.659375 -2.75566,-8.214794 -3.08765,-11.034931 -0.24915,-2.116498 -1.46562,-3.232875 -3.35891,-3.082521 -1.33094,0.105696 -2.09736,0.800894 -2.74488,2.489823 -0.44052,1.149006 -0.68244,1.425356 -1.24777,1.425356 -0.81192,0 -1.33844,-0.485441 -1.33844,-1.234019 0,-0.725789 0.37059,-2.116954 0.7674,-2.88071 1.30385,-2.509613 3.85488,-3.485338 7.36832,-2.818264 1.41691,0.269019 1.74551,0.188838 2.08973,-0.509916 0.27342,-0.555032 0.89947,-2.523643 1.41529,-4.45035 0.69176,-2.583944 0.40082,-4.664347 -0.88859,-6.353814 -0.47244,-0.61903 -0.5744,-1.11038 -0.32891,-1.585104 0.21577,-0.417249 0.78418,-0.796814 1.19417,-0.797414 0.42574,-6.24e-4 1.13263,0.574701 1.8386,1.496406 1.89934,2.479751 2.25453,5.378719 1.08735,8.874545 -0.84429,2.528719 -1.18515,4.060712 -1.36286,6.125281 -0.41057,4.770039 0.80468,9.532028 3.63395,14.239672 0.75562,1.25728 0.80359,1.2863 1.0964,0.66337 0.13148,-0.27972 0.23906,-0.53952 0.23906,-0.57733 0,-0.0378 0.0699,-0.22859 0.15537,-0.42397 0.51491,-1.17731 1.08161,-3.503266 1.69331,-6.950075 0.57121,-3.21863 1.50422,-6.598515 2.38219,-8.629611 0.98513,-2.278978 1.82097,-3.536611 3.36787,-5.067365 1.84932,-1.830027 2.44693,-2.049053 3.25175,-1.191785 0.3458,0.368328 0.42275,0.533984 0.42275,0.910051 0,0.40861 -0.0787,0.543915 -0.70723,1.216238 -3.17446,3.395507 -4.45621,6.975667 -5.21491,14.566189 -0.65822,6.585198 -2.57895,11.864988 -5.80303,15.951628 -1.00132,1.26922 -2.90563,3.19145 -4.18706,4.22648 -1.92769,1.55702 -3.90473,2.77904 -10.57988,6.53949 -5.00334,2.81864 -6.56576,3.80729 -9.63896,6.09923 -1.79647,1.33977 -2.60159,2.16838 -3.10785,3.1985 -0.35948,0.73147 -0.38651,0.86287 -0.38651,1.87861 0,0.60068 0.0336,1.12585 0.0747,1.16705 0.0411,0.0412 0.70055,-0.232 1.46552,-0.60711 5.39444,-2.6452 10.90049,-3.20039 19.14622,-1.93053 0.77503,0.11935 1.63744,0.24833 1.91645,0.28661 0.27901,0.0383 1.01459,0.16356 1.63462,0.27839 2.68786,0.49779 4.31791,0.40445 5.86208,-0.33566 1.46128,-0.70038 2.61931,-1.99539 3.11422,-3.48258 0.20025,-0.60174 0.22994,-0.8868 0.17638,-1.69341 -0.0354,-0.53343 -0.1401,-1.17637 -0.23263,-1.42876 -0.38204,-1.04202 -0.73236,-1.70787 -1.10828,-2.10645 -0.33401,-0.35415 -0.47238,-0.42207 -0.85993,-0.42207 -0.53157,0 -0.96542,0.32342 -1.66572,1.24171 -0.54602,0.71599 -1.01607,0.89786 -1.53956,0.59569 -0.45882,-0.26484 -0.75875,-0.84908 -0.75898,-1.47843 -2.1e-4,-0.59994 0.11022,-0.81477 0.82008,-1.59521 0.74012,-0.81372 1.00619,-1.25351 1.33225,-2.20209 0.24186,-0.70365 0.27017,-0.9723 0.26133,-2.48011 -0.005,-0.93004 -0.0687,-2.12219 -0.14047,-2.64921 -0.10681,-0.78392 -0.0997,-1.16329 0.0393,-2.08555 0.3073,-2.0395 1.09224,-3.62876 2.56411,-5.19152 1.28398,-1.36328 2.11186,-1.6053 2.85126,-0.83354 0.43918,0.45841 0.44454,1.03674 0.0152,1.64059 -0.1716,0.24136 -0.56345,0.79042 -0.87078,1.22015 -1.42053,1.98632 -1.76577,4.3961 -0.99849,6.96949 0.20972,0.7034 1.301,3.07676 1.56778,3.4097 0.11544,0.14406 1.30763,2.26952 1.77269,3.16038 0.39276,0.75235 0.83838,1.93437 1.18665,3.1476 0.34768,1.2112 0.33948,3.29292 -0.0181,4.60105 -0.14864,0.54372 -0.23881,1.02003 -0.20038,1.05847 0.10479,0.10478 2.12986,-0.48341 3.22477,-0.93665 3.15372,-1.30548 5.44879,-3.47034 6.48664,-6.11863 0.3335,-0.85099 0.68186,-2.11601 0.78723,-2.85874 0.0965,-0.68006 0.0976,-3.52398 0.002,-4.22855 -0.25496,-1.87216 -0.75768,-3.86661 -1.49764,-5.94166 -0.45099,-1.26467 -0.5925,-1.53546 -1.03259,-1.97587 -0.90228,-0.90295 -2.35665,-1.1294 -3.91968,-0.61033 -0.65499,0.21752 -1.41244,0.80475 -1.66299,1.28925 -0.34927,0.67541 -0.38468,1.19861 -0.15492,2.28906 0.12018,0.57039 0.20414,1.20959 0.18658,1.42044 -0.0431,0.51742 -0.45751,0.81776 -1.14267,0.82811 -0.59373,0.009 -0.88069,-0.18691 -1.19674,-0.81691 -1.53915,-3.06812 -0.53004,-6.53644 2.2943,-7.8855 0.50327,-0.24039 1.14332,-0.47035 1.42233,-0.51102 1.39869,-0.20386 2.11367,-0.67412 2.35942,-1.55186 0.11911,-0.42542 0.10722,-0.62976 -0.0841,-1.44564 -0.12253,-0.52259 -0.25745,-1.21124 -0.29981,-1.53031 -0.16381,-1.23394 0.40592,-4.090627 1.11458,-5.588609 0.9107,-1.925062 3.05882,-3.006696 5.33291,-2.685255 0.82669,0.116852 1.02349,0.214708 1.48197,0.736885 0.30959,0.352607 0.35366,0.484404 0.35366,1.057793 0,0.97996 -0.13539,1.063479 -1.85594,1.144893 -1.51612,0.07174 -1.74181,0.153655 -2.24652,0.815365 -0.62233,0.815913 -0.88382,2.979128 -0.59121,4.890918 0.24597,1.60712 0.96953,3.50316 2.38103,6.23932 1.89986,3.68286 3.07172,6.08723 3.35043,6.87425 0.14225,0.40168 0.30936,0.73142 0.37136,0.73276 0.062,0.001 0.19862,-0.32731 0.30359,-0.73033 0.23914,-0.91814 1.44542,-5.35232 1.82474,-6.70758 0.43702,-1.56143 1.23866,-3.85948 1.65164,-4.73476 1.3271,-2.81267 3.56946,-4.80324 6.48175,-5.753907 1.66885,-0.544767 2.50422,-0.447743 2.95115,0.342757 0.56213,0.99426 0.213,1.75696 -1.00733,2.20061 -1.73223,0.62975 -3.21784,1.70137 -4.18484,3.01869 -1.03923,1.41572 -1.88386,3.82215 -2.38204,6.7867 -0.0886,0.52702 -0.26646,1.51625 -0.39531,2.19828 -0.12886,0.68203 -0.31202,1.67126 -0.40703,2.19828 -0.095,0.52702 -0.39596,1.87264 -0.66876,2.99026 -1.53907,6.30524 -3.68877,10.28074 -7.61996,14.09179 -3.10838,3.01337 -6.96919,5.30983 -11.3719,6.76414 -1.77485,0.58627 -1.92675,0.65078 -2.04275,0.86752 -0.18381,0.34346 0.0326,0.77 0.94148,1.85553 0.89195,1.06533 1.86917,2.36686 4.25884,5.6722 1.94634,2.69213 3.07013,4.08106 4.39536,5.43236 0.85221,0.86897 1.23235,1.16797 1.86022,1.46312 1.7386,0.81731 3.50739,0.45 5.66426,-1.17625 1.64912,-1.24341 3.0659,-3.66899 3.44892,-5.90468 0.26236,-1.5314 0.01,-2.46365 -0.94026,-3.468 -0.84898,-0.89766 -1.4165,-1.10854 -3.19384,-1.18675 -1.65553,-0.0729 -1.76621,-0.13541 -1.76621,-0.99833 0,-0.41494 0.0633,-0.56033 0.38329,-0.88032 0.43413,-0.43412 0.74303,-0.47294 2.09468,-0.26323 2.24538,0.34839 3.27941,-0.58189 3.89674,-3.50572 0.41646,-1.97245 0.77725,-3.05016 1.4329,-4.28013 0.73052,-1.37046 2.24555,-3.61421 2.90943,-4.30887 0.44509,-0.46573 0.57518,-0.53862 0.96132,-0.53862 0.53567,0 0.86722,0.21001 1.05776,0.67002 0.21269,0.51347 0.0616,1.0144 -0.58273,1.93186 -1.5845,2.25625 -2.43016,4.35015 -2.96997,7.35373 -0.24653,1.37178 -0.32641,4.28098 -0.16463,5.99601 0.25157,2.66694 0.26938,4.17783 0.0604,5.12108 -0.46086,2.07992 -1.20279,3.57276 -3.08992,6.21724 -0.14505,0.20326 -0.12752,0.21651 0.28183,0.21299 0.80996,-0.007 3.02242,-0.52608 4.03685,-0.94718 3.07321,-1.27574 4.85629,-3.45027 6.0333,-7.35784 0.3898,-1.2941 0.56936,-1.49894 1.31398,-1.49894 0.9621,0 1.21567,0.58163 1.04488,2.39676 -0.0802,0.85273 -0.19335,1.33618 -0.45266,1.93468 -0.49266,1.13708 -0.56742,2.3086 -0.19587,3.06891 0.1471,0.301 0.651,0.92775 1.11978,1.39277 1.07241,1.06382 1.31832,1.41947 1.58286,2.28932 0.40937,1.34607 0.15726,3.3031 -0.61234,4.75344 -0.96726,1.8228 -3.06505,3.19458 -4.16366,2.72268 -0.60996,-0.26201 -0.87206,-0.58905 -0.87206,-1.08811 0,-0.41338 0.0912,-0.54094 1.27665,-1.78473 1.39767,-1.4665 1.6978,-1.9519 1.68773,-2.72951 -0.009,-0.67267 -0.23495,-1.08835 -0.93477,-1.71755 -0.73574,-0.66149 -1.45711,-0.85216 -2.47005,-0.65288 -0.85268,0.16775 -1.16089,0.30054 -4.35069,1.8744 -3.95961,1.95369 -4.90009,2.27353 -7.01913,2.38709 -1.70705,0.0915 -1.78288,0.14996 -1.74914,1.34877 0.0532,1.88887 -0.36549,3.7468 -1.10343,4.89678 -0.50726,0.7905 -1.63866,1.79564 -2.48161,2.20468 -1.5509,0.75256 -3.98713,0.82232 -4.52026,0.12942 -0.20422,-0.26543 -0.26197,-0.71456 -0.13457,-1.04656 0.0389,-0.1015 0.55893,-0.42979 1.15551,-0.72954 1.85262,-0.93083 2.88798,-1.82869 3.51711,-3.04999 0.38535,-0.74808 0.3705,-1.98625 -0.0332,-2.76702 -0.45369,-0.87748 -1.22948,-1.65846 -2.85154,-2.87063 -3.33839,-2.49478 -6.19728,-5.4608 -9.33199,-9.68167 -0.62665,-0.84379 -1.4898,-2.0038 -1.91811,-2.5778 -1.54148,-2.06584 -3.4265,-3.72301 -5.44161,-4.78386 -2.22008,-1.16876 -4.04254,-1.55468 -7.3668,-1.55999 -1.21371,-0.002 -2.99306,-0.0814 -3.9541,-0.17651 -2.90208,-0.28732 -5.22791,-0.32703 -6.4466,-0.11007 -2.02146,0.35988 -3.89178,0.98823 -5.62443,1.88958 -1.57634,0.82005 -3.95424,2.47919 -3.78942,2.64402 0.0381,0.0381 0.74336,-0.13481 1.56728,-0.38419 2.80152,-0.84797 3.4338,-0.95812 5.50004,-0.95814 1.5944,-2e-5 2.04979,0.0422 3.18819,0.29556 2.84952,0.6342 5.31869,1.9886 7.59816,4.16779 1.86054,1.77869 3.33856,3.76695 4.59332,6.17903 0.91758,1.76391 1.45754,3.12064 2.50625,6.29734 0.93263,2.82507 1.83358,4.788 2.76822,6.03118 0.85527,1.13762 2.08895,2.33589 2.71798,2.63997 0.98854,0.47787 2.37795,0.29515 3.30588,-0.43476 0.80301,-0.63165 1.82336,-0.24513 2.02357,0.76655 0.10509,0.53103 -0.16725,1.03832 -0.84503,1.57407 -0.75714,0.59849 -1.39942,0.89409 -2.39272,1.10124 -0.6907,0.14405 -0.95609,0.15055 -1.56455,0.0383 -1.58923,-0.29309 -3.13191,-1.06745 -4.37524,-2.1962 -0.98445,-0.89372 -1.75604,-1.93764 -3.55804,-4.81382 -0.22336,-0.35651 -0.42066,-0.64821 -0.43843,-0.64821 -0.0178,0 -0.47167,0.4325 -1.00867,0.96111 -1.88014,1.85077 -3.31193,2.08363 -5.31022,0.86362 -0.96224,-0.58747 -1.2422,-0.96275 -1.17343,-1.57291 0.10931,-0.96979 0.72507,-1.24522 1.95184,-0.87306 1.07491,0.32608 1.67888,0.12126 2.01507,-0.68335 0.25821,-0.61798 0.43614,-2.57486 0.35834,-3.94092 -0.16209,-2.84577 -1.2452,-5.16819 -3.37087,-7.22786 -0.82644,-0.80078 -2.30094,-1.95636 -2.49628,-1.95636 -0.0401,0 -0.0411,0.39315 -0.002,0.87367 0.0859,1.06328 -0.0979,2.75798 -0.40666,3.74835 -0.51102,1.63928 -1.21485,2.79975 -2.52685,4.16622 -1.69401,1.76435 -1.90535,2.37867 -1.84921,5.37531 l 0.039,2.08182 -0.28183,0.217 c -0.41619,0.32045 -1.13851,0.2929 -1.55719,-0.0594 -0.45482,-0.38271 -0.6523,-0.93296 -0.8109,-2.25954 -0.36078,-3.01758 0.40579,-5.54528 2.34362,-7.72793 0.41528,-0.46774 0.88946,-1.15473 1.0815,-1.56686 0.30058,-0.64507 0.34214,-0.85673 0.34331,-1.7485 0.004,-2.76605 -1.90126,-4.90386 -4.36961,-4.90386 -2.42369,0 -5.78566,2.71821 -7.08433,5.7278 l -0.37414,0.86704 0.0199,3.72017 c 0.0109,2.04609 0.0747,6.20591 0.14172,9.24405 0.067,3.03813 0.17232,8.79594 0.23403,12.79511 0.0617,3.99918 0.16247,9.45261 0.22393,12.11873 0.0615,2.66612 0.16328,8.32246 0.22626,12.56965 0.063,4.24719 0.1391,8.93967 0.16914,10.42774 0.03,1.48807 0.083,4.2021 0.11776,6.03118 0.23315,12.28002 0.28953,12.94333 1.52836,17.9808 0.13339,0.5424 0.53793,1.74854 0.937,2.79365 1.12677,2.9509 3.24687,5.76456 5.9278,7.86704 2.78367,2.18303 6.78557,3.71749 11.61144,4.45219 0.65103,0.0991 1.81781,0.27853 2.59284,0.39872 0.77504,0.12018 2.14474,0.31953 3.04378,0.44301 0.89904,0.12347 1.91363,0.2745 2.25465,0.33561 0.34101,0.0611 1.55852,0.26418 2.70557,0.45126 3.16178,0.51569 4.4856,0.89552 6.19086,1.7763 2.03749,1.05237 3.77703,2.49157 4.72546,3.90959 1.17559,1.75766 1.48972,4.1255 0.7739,5.83345 -0.2478,0.59125 -1.04407,1.41332 -1.70888,1.76425 -0.51553,0.27213 -0.6831,0.29992 -1.80824,0.29992 -1.1299,0 -1.29136,-0.0271 -1.81762,-0.30468 -1.03576,-0.54638 -1.94761,-1.87542 -2.35205,-3.42819 -0.2378,-0.91299 0.0939,-1.58121 0.92038,-1.85396 0.48939,-0.16152 0.85324,-0.0373 1.64765,0.56248 0.69515,0.52485 0.92295,0.58289 0.80467,0.20505 -0.2067,-0.66024 -1.21237,-1.76557 -2.22567,-2.44623 -1.15205,-0.77386 -2.99107,-1.42369 -4.97142,-1.75668 -1.30411,-0.21929 -4.69421,-0.20485 -4.9199,0.0209 -0.0982,0.0982 -0.003,0.52832 0.38941,1.7571 0.64256,2.01288 0.78199,2.74159 0.71746,3.74947 -0.0613,0.95662 -0.32727,1.51971 -1.06773,2.26017 -0.8012,0.80121 -1.56775,1.1218 -2.68225,1.1218 -1.13045,0 -1.84865,-0.30823 -2.82552,-1.21264 -1.45033,-1.34275 -1.6861,-2.77394 -0.64058,-3.8885 0.55213,-0.58858 0.82987,-0.51377 1.77867,0.47911 1.19079,1.24613 1.47988,1.10376 0.76661,-0.37752 -0.59046,-1.22623 -2.07015,-2.30991 -3.96675,-2.90514 -1.16199,-0.36467 -3.36606,-0.56623 -4.69468,-0.42932 -0.91097,0.0939 -1.01337,0.12758 -1.00266,0.33002 0.007,0.124 0.15125,1.11323 0.32154,2.19828 0.19059,1.21437 0.28725,2.19445 0.25145,2.54933 -0.13653,1.3531 -0.91657,2.35591 -2.33227,2.99831 -1.48861,0.67547 -2.87011,0.36928 -4.23132,-0.93782 -1.49054,-1.43129 -1.72699,-2.92508 -0.61158,-3.86364 0.55532,-0.46726 0.826,-0.39516 1.64243,0.4375 1.01421,1.03439 1.27545,0.96433 0.87095,-0.23356 -0.63298,-1.87449 -2.41175,-2.98629 -5.66615,-3.54155 -6.93808,-1.18375 -13.22493,-1.16864 -17.832064,0.0429 -2.6265,0.69067 -4.80868,2.00542 -5.7433,3.46029 -0.36866,0.57387 -0.42359,0.94555 -0.15497,1.04863 0.25159,0.0965 0.47435,-0.0533 1.1424,-0.76843 0.49034,-0.52488 0.65015,-0.62826 0.97121,-0.62826 0.72738,0 1.31656,0.72096 1.31656,1.61101 0,1.14351 -1.40276,2.96547 -2.65092,3.44311 -1.16831,0.44709 -2.57468,0.24211 -3.71317,-0.54119 -1.53569,-1.05658 -1.88917,-2.72745 -1.20564,-5.699 0.18571,-0.80734 0.35421,-1.53978 0.37444,-1.62763 0.0498,-0.2164 -0.5946,-0.32818 -1.93899,-0.33631 -2.119,-0.0128 -3.61737,0.29997 -5.29546,1.10545 -1.3705,0.65783 -3.33378,2.77277 -3.11155,3.35191 0.13873,0.36153 0.5633,0.14706 1.36064,-0.68733 0.44437,-0.46502 0.88999,-0.84549 0.99026,-0.84549 0.39103,0 0.76753,0.23692 1.09508,0.68909 0.28195,0.38922 0.34196,0.58068 0.34196,1.09101 0,0.83771 -0.3346,1.48354 -1.24006,2.39346 -1.00739,1.01236 -1.60727,1.29335 -2.76194,1.29369 -1.069714,3.2e-4 -1.813467,-0.2961 -2.682728,-1.06919 -0.848335,-0.75448 -1.128515,-1.40937 -1.182272,-2.76344 -0.0407,-1.02518 -0.01245,-1.22771 0.311797,-2.23526 0.328192,-1.01981 0.713943,-1.81058 1.25527,-2.57326 0.40934,-0.57673 0.374691,-0.587 -1.732247,-0.51334 -3.356192,0.11732 -6.081003,0.69858 -8.128088,1.73389 -1.171843,0.59266 -3.32201,2.1969 -3.335783,2.48883 -0.015,0.31801 0.92946,0.15195 1.881589,-0.33082 0.918836,-0.46589 0.935077,-0.46949 1.310559,-0.29044 0.256845,0.12248 0.462207,0.35072 0.632977,0.70348 0.366569,0.75723 0.286751,1.61859 -0.230551,2.48803 -0.550414,0.92509 -1.582971,1.99906 -2.216819,2.30572 -0.296401,0.1434 -0.626999,0.30345 -0.734663,0.35568 -0.271248,0.13157 -1.072338,0.11927 -1.157036,-0.0178 z m 90.75767,-1.2001 c 1.80209,-0.60173 2.6289,-2.00262 2.24667,-3.80662 -0.20286,-0.95739 -0.688,-2.015 -1.34965,-2.94222 -1.24179,-1.74021 -3.30796,-3.05074 -6.65447,-4.22082 -2.19251,-0.76659 -4.95467,-1.31337 -8.22947,-1.62907 -3.37108,-0.32498 -5.07162,-0.51216 -5.69298,-0.62663 -0.34102,-0.0628 -1.0766,-0.19463 -1.63462,-0.29289 -0.94716,-0.1668 -1.29361,-0.25542 -3.21288,-0.82182 -0.40301,-0.11894 -1.30149,-0.4472 -1.9966,-0.72947 -6.88446,-2.79561 -11.35045,-8.12107 -12.87416,-15.35177 -0.48208,-2.28767 -0.57345,-4.00602 -0.79426,-14.93703 -0.067,-3.31715 -0.14527,-6.96968 -0.17391,-8.11673 -0.0286,-1.14705 -0.10437,-5.45906 -0.16828,-9.58225 -0.0639,-4.12318 -0.16606,-9.80489 -0.22702,-12.62601 -0.0609,-2.82113 -0.16302,-8.42674 -0.22683,-12.45692 -0.0638,-4.03018 -0.16786,-9.81335 -0.23124,-12.85149 -0.26858,-12.87457 -0.2682,-12.78039 -0.0549,-13.75762 0.45604,-2.08963 1.66743,-3.7062 3.85537,-5.1449 1.76182,-1.1585 3.13948,-1.60752 4.72,-1.53839 1.32977,0.0582 2.07022,0.4006 3.10773,1.43729 1.28622,1.28519 1.77222,2.48371 1.64057,4.04578 -0.11888,1.41048 -0.59628,2.40319 -2.25985,4.6992 -0.77034,1.0632 -1.02037,1.53099 -1.37396,2.57058 -0.31656,0.93072 -0.43922,2.12832 -0.33352,3.25628 0.14576,1.55554 0.39456,1.46693 0.68451,-0.24379 0.26024,-1.53543 0.60361,-2.81551 0.87769,-3.27206 0.13028,-0.21701 0.69605,-0.88439 1.25725,-1.48307 1.63782,-1.74719 2.39731,-3.24014 2.66265,-5.23405 0.16207,-1.21787 -0.006,-2.85047 -0.45216,-4.38636 -0.17992,-0.61968 -0.31133,-1.14248 -0.29202,-1.16178 0.0661,-0.0661 2.70853,1.57384 3.55483,2.20621 2.24253,1.67563 3.70772,3.54002 4.55786,5.79967 0.54427,1.44664 0.95287,4.78733 0.75103,6.14036 -0.22953,1.53874 -1.12169,2.77469 -2.43781,3.37723 -0.33904,0.15521 -0.61643,0.3233 -0.61643,0.37353 0,0.29836 1.38789,0.2984 2.18529,6e-5 0.97759,-0.36576 1.63227,-1.24756 2.31903,-3.1235 0.14186,-0.38752 0.27737,-0.70458 0.30114,-0.70458 0.0238,0 0.58126,0.82436 1.23889,1.8319 4.48678,6.87412 6.60482,8.5777 9.18868,7.39063 0.68199,-0.31332 1.80599,-1.10074 1.73507,-1.2155 -0.0238,-0.0385 -0.4905,-0.0272 -1.03715,0.025 -4.72371,0.45143 -6.42836,-1.35054 -9.51786,-10.06122 -1.93691,-5.46102 -4.19355,-9.25318 -6.98446,-11.73701 -1.70187,-1.51461 -3.12173,-2.31597 -5.44436,-3.07276 -1.67584,-0.54603 -4.99513,-0.5344 -7.17396,0.0251 -1.83152,0.47036 -3.31133,1.03195 -5.09665,1.93418 -0.85008,0.42959 -1.56701,0.74461 -1.59318,0.70003 -0.1839,-0.31312 -0.18549,-0.88515 -0.004,-1.46488 0.16664,-0.53253 0.3506,-0.7941 1.05236,-1.49634 2.47681,-2.47849 5.08571,-3.92963 8.48723,-4.72084 2.93729,-0.68323 9.55322,-0.9123 13.28151,-0.45986 5.25524,0.63774 8.74982,2.21144 11.88719,5.35308 1.34129,1.34311 2.11466,2.35686 3.24617,4.25515 0.32249,0.54102 0.86536,1.32229 1.20638,1.73616 3.41783,4.14796 4.5802,5.30731 6.9894,6.97124 2.7974,1.93205 4.06787,3.9245 4.09007,6.41439 0.017,1.90818 -0.90602,2.98926 -3.72038,4.35741 -0.57171,0.27793 -1.04096,0.54337 -1.04278,0.58987 -0.005,0.13914 1.12655,0.0921 1.94215,-0.0808 1.16402,-0.24666 2.22225,-0.85935 3.0749,-1.78029 0.62673,-0.67693 0.76635,-0.90923 1.00997,-1.68041 0.31146,-0.98596 0.36392,-2.11275 0.16444,-3.53246 -0.061,-0.43402 -0.14251,-1.05545 -0.18118,-1.38097 l -0.0703,-0.59184 h 1.6947 c 3.11691,0 4.76118,-0.53512 9.61008,-3.12756 2.32224,-1.24157 4.27495,-1.58843 5.50149,-0.97722 0.96693,0.48184 1.70138,1.49887 1.87983,2.6031 0.0976,0.60367 -0.1866,1.74274 -0.58554,2.34717 -0.16369,0.24801 -0.66902,0.84087 -1.12295,1.31747 -0.45394,0.47659 -0.82533,0.91426 -0.82533,0.9726 0,0.0583 0.0758,0.16901 0.16853,0.24594 0.20219,0.1678 0.41089,0.0499 1.55942,-0.88109 1.93383,-1.56751 2.63681,-3.36731 1.92331,-4.92416 -0.50694,-1.10613 -1.75622,-2.36594 -3.45734,-3.48645 l -0.65156,-0.42919 0.24941,-0.40956 c 0.61111,-1.00352 1.00126,-1.82271 1.162,-2.43984 0.19444,-0.74649 0.2322,-1.85898 0.0631,-1.85898 -0.0607,0 -0.21911,0.2156 -0.35193,0.47911 -1.21447,2.40951 -3.9745,4.90345 -7.14707,6.45803 -2.19341,1.07479 -4.14923,1.63556 -6.4928,1.86159 -1.32702,0.12799 -1.7088,0.0891 -1.31105,-0.13348 1.05525,-0.59054 3.43156,-2.78853 4.37126,-4.04323 0.7509,-1.00261 1.52845,-2.73024 1.75043,-3.88926 0.2183,-1.13978 0.23139,-2.01232 0.0693,-4.62202 -0.34635,-5.57787 0.21814,-9.69097 1.74565,-12.71949 0.44755,-0.88735 0.23369,-0.86435 -0.44056,0.0474 -0.96486,1.30469 -1.71681,2.83075 -2.21682,4.49903 -0.31073,1.03672 -0.76966,3.3928 -0.86221,4.42637 -0.0431,0.48142 -0.1205,0.90134 -0.17199,0.93317 -0.0515,0.0318 -0.38789,-0.0392 -0.74755,-0.15788 -1.32417,-0.43687 -2.26937,-0.40575 -2.86971,0.0945 l -0.26432,0.22025 0.39456,0.005 c 0.49058,0.006 1.72706,0.3872 2.18988,0.67428 0.91835,0.56966 1.53313,1.61401 1.77277,3.0115 0.12405,0.72342 0.113,0.93499 -0.10602,2.0286 -0.38427,1.91875 -0.98766,3.19506 -2.27833,4.81923 -0.83199,1.04698 -1.86773,1.8417 -3.32565,2.55178 -2.13357,1.03916 -3.57062,0.98025 -5.33557,-0.21871 -1.05426,-0.71617 -1.80179,-1.56541 -5.71717,-6.49501 -0.19698,-0.24801 -0.70448,-0.90749 -1.12776,-1.46552 -0.42329,-0.55802 -1.82542,-2.39531 -3.11586,-4.08286 -1.29044,-1.68754 -2.34626,-3.1172 -2.34626,-3.17701 0,-0.20826 0.62527,-0.53763 1.40916,-0.7423 4.20158,-1.097 8.00779,-2.90157 11.1605,-5.29132 1.05161,-0.79712 3.42263,-3.11517 4.10256,-4.01092 3.36534,-4.43354 5.31534,-9.28043 6.21355,-15.44432 0.92487,-6.34682 1.66097,-8.79602 3.31524,-11.03071 0.90948,-1.22858 2.45458,-2.46042 4.00465,-3.19272 0.43705,-0.20648 0.79488,-0.41597 0.79519,-0.46556 10e-4,-0.16868 -1.40528,0.0566 -2.40563,0.38534 -2.28719,0.75165 -3.99135,2.39066 -5.37797,5.17233 -0.78601,1.5768 -1.73693,4.68052 -2.69405,8.79312 -0.72639,3.12121 -1.04592,4.1715 -1.70674,5.61 -0.40189,0.87486 -0.87404,1.66106 -0.95076,1.58317 -0.0188,-0.0191 -0.11554,-0.62401 -0.215,-1.34432 -0.23191,-1.67941 -0.94488,-4.4881 -1.60962,-6.34097 -0.47088,-1.31252 -1.56472,-3.6459 -2.70574,-5.7719 -0.23512,-0.43807 -0.48963,-0.94559 -0.56559,-1.12781 -1.25878,-3.01981 -1.52443,-6.90637 -0.59639,-8.725482 0.44693,-0.876051 1.49542,-1.548681 3.19224,-2.047894 0.47732,-0.140431 0.86786,-0.289874 0.86786,-0.332095 0,-0.14214 -1.06515,-0.347371 -1.77671,-0.342333 -1.74586,0.01236 -2.87096,0.824789 -3.68744,2.662699 -0.80629,1.814955 -1.00503,4.330255 -0.5166,6.538325 0.13715,0.62002 0.24715,1.40112 0.24444,1.73577 -0.008,1.00431 -0.29979,1.18194 -2.43678,1.48411 -1.76495,0.24956 -3.28272,1.23009 -3.95364,2.5542 -0.29288,0.57802 -0.33003,0.7663 -0.32878,1.66625 0.001,0.90891 0.0396,1.09561 0.36834,1.79237 0.2018,0.42777 0.39156,0.75313 0.42167,0.72302 0.0301,-0.0301 0.0818,-0.40548 0.11475,-0.83415 0.089,-1.15615 0.27044,-2.18604 0.44441,-2.52246 0.0847,-0.16379 0.37655,-0.50295 0.64857,-0.75368 0.64455,-0.59413 1.70914,-0.87904 3.2429,-0.86788 2.17882,0.0159 3.17847,0.76715 4.49374,3.37727 2.14886,4.26435 2.34869,8.69868 0.57742,12.81297 -1.02953,2.3914 -2.96594,4.67672 -5.24841,6.1941 -1.94189,1.29097 -4.91632,2.44453 -6.8148,2.64296 l -0.69429,0.0726 0.35289,-0.69908 c 1.15288,-2.28383 1.50834,-4.52638 1.02041,-6.43745 -0.31413,-1.23032 -0.54035,-1.71469 -1.67938,-3.59586 -1.56612,-2.58651 -2.23272,-4.01179 -2.7998,-5.98626 -0.28216,-0.98244 -0.3072,-1.22934 -0.30293,-2.9874 0.004,-1.78911 0.0256,-1.98012 0.32041,-2.87468 0.28634,-0.869 0.92534,-2.28085 1.31387,-2.90299 0.27444,-0.43944 0.0105,-0.4033 -0.56331,0.0772 -0.6332,0.53014 -1.48095,1.60777 -1.86702,2.37326 -0.14118,0.27992 -0.37074,1.00453 -0.51015,1.61023 -0.21674,0.94174 -0.24298,1.28471 -0.18116,2.36738 0.20691,3.62325 0.21054,4.96931 0.0154,5.71902 -0.26067,1.00174 -0.77668,1.93075 -1.42588,2.56713 -0.29906,0.29316 -0.54505,0.62338 -0.54664,0.73383 -0.004,0.27632 0.30281,0.36986 0.53678,0.16367 0.50026,-0.44086 1.4437,-0.8118 2.16491,-0.8512 0.62479,-0.0341 0.79235,-5.3e-4 1.12832,0.22631 0.55104,0.37206 1.05219,1.16581 1.42636,2.25917 0.28759,0.84036 0.31858,1.07675 0.31436,2.39779 -0.004,1.40231 -0.0208,1.50348 -0.37856,2.34553 -0.97391,2.29228 -2.72603,3.62695 -5.37255,4.09251 -0.57977,0.10199 -1.2212,0.1471 -1.5135,0.10644 -0.27901,-0.0388 -1.03996,-0.14288 -1.69099,-0.23126 -0.65102,-0.0884 -2.22364,-0.31672 -3.4947,-0.5074 -5.49081,-0.82375 -6.82544,-0.94472 -9.58225,-0.86854 -1.20906,0.0334 -2.50266,0.12173 -2.87468,0.19628 -2.46982,0.4949 -4.08446,1.05016 -7.06211,2.42858 -0.89005,0.41202 -1.95604,0.8908 -2.36886,1.06394 l -0.75059,0.31481 -0.0652,-0.24298 c -0.1272,-0.47414 -0.0657,-2.32587 0.10416,-3.13847 0.36789,-1.75951 1.60882,-3.57706 3.32089,-4.86405 0.56445,-0.4243 4.30185,-2.73491 10.65459,-6.58707 5.37587,-3.25982 8.79626,-5.39436 9.58427,-5.98121 5.64919,-4.2071 8.83238,-10.01787 9.92295,-18.113902 0.10022,-0.744033 0.27641,-2.063001 0.39153,-2.93104 0.58736,-4.428897 1.09306,-6.618973 2.04024,-8.835907 0.83437,-1.9529 1.9877,-3.754955 3.22726,-5.042529 0.35721,-0.371041 0.72556,-0.768971 0.81857,-0.88429 0.161,-0.199638 0.14752,-0.205647 -0.28183,-0.125599 -1.21318,0.226185 -2.26707,1.006875 -3.43445,2.544138 -1.62273,2.136896 -2.77371,4.872253 -3.56851,8.480757 -0.0993,0.450812 -0.27662,1.250859 -0.39406,1.777883 -0.11744,0.527023 -0.41208,1.922086 -0.65475,3.100138 -0.71784,3.484711 -0.97837,4.545881 -1.47565,6.010361 -0.47624,1.40253 -1.4965,3.62825 -1.66318,3.62825 -0.0497,0 -0.17345,-0.2156 -0.27498,-0.47911 -0.74306,-1.92854 -2.31225,-5.64914 -2.97951,-7.064506 -2.09879,-4.451889 -2.5198,-9.029731 -1.22943,-13.3681 0.41967,-1.410975 0.90541,-3.398685 1.07442,-4.396686 0.31676,-1.870409 0.35953,-2.337122 0.30476,-3.325603 -0.0838,-1.513274 -0.60289,-2.717489 -1.66921,-3.87267 -0.63354,-0.686328 -0.98566,-0.801543 -0.64306,-0.210408 0.0977,0.1686 0.32333,0.712382 0.50137,1.208404 0.30879,0.860305 0.32362,0.99016 0.32187,2.818308 -0.002,2.193361 -0.0226,2.294324 -1.25009,6.143911 -0.87164,2.733643 -0.93341,2.901992 -1.14116,3.10974 -0.27205,0.272049 -0.7213,0.179915 -1.92927,-0.395661 -1.52413,-0.726223 -2.423,-0.889936 -3.52269,-0.641594 -1.48358,0.335033 -2.52281,1.352645 -3.12945,3.06434 -0.13331,0.376145 -0.24238,0.71857 -0.24238,0.760944 0,0.119259 0.31464,0.09091 0.35699,-0.03217 0.0739,-0.214756 1.40266,-1.265587 2.06676,-1.63446 0.89465,-0.496934 2.08573,-0.763781 2.7456,-0.615122 1.51943,0.342304 2.23953,1.357821 2.7118,3.824313 0.41915,2.189054 1.37779,5.622843 2.48633,8.90585 0.19913,0.58975 1.52176,4.74931 1.87432,5.8946 0.74764,2.42867 0.23307,4.76678 -1.40861,6.40049 -0.76972,0.76598 -2.98066,2.29329 -5.25294,3.6287 -1.09279,0.64223 -3.59088,1.95798 -7.3276,3.85945 -4.0629,2.06745 -5.63522,2.91311 -7.41649,3.98888 -1.51856,0.91711 -3.5544,2.25739 -3.64049,2.39667 -0.0333,0.0538 -0.12435,0.0978 -0.20242,0.0978 -0.11237,0 -0.13872,-1.13356 -0.12644,-5.43933 0.0172,-6.02501 0.02,-6.05385 0.79032,-7.97911 0.48008,-1.19993 0.93328,-2.05911 1.66323,-3.15321 1.08134,-1.62076 3.13071,-4.14498 3.87001,-4.76671 1.18685,-0.9981 2.7627,-1.21457 4.12923,-0.56722 1.01336,0.48005 1.78069,1.21529 2.18605,2.09465 0.29576,0.64159 0.32364,0.81082 0.32006,1.94286 -0.003,0.93941 -0.0917,1.67117 -0.36575,3.01825 -0.199,0.978 -0.36182,1.86396 -0.36182,1.96879 0,0.34746 0.29103,-0.0724 0.87811,-1.26687 0.72426,-1.47355 0.99899,-2.26489 1.20353,-3.46669 0.46678,-2.74251 -0.811,-4.81503 -3.86369,-6.26682 -0.83734,-0.39822 -0.90979,-0.41229 -2.10721,-0.40907 -1.04001,0.003 -1.32854,0.044 -1.78852,0.25521 -1.11006,0.50978 -2.18429,1.36466 -4.34167,3.45511 l -2.20859,2.14008 -0.15514,-0.61585 c -0.10855,-0.43091 -0.15985,-1.4622 -0.17081,-3.43416 -0.0145,-2.61255 0.004,-2.90062 0.25365,-3.94564 0.61367,-2.568766 0.89537,-3.080328 5.39394,-9.795332 4.3191,-6.447112 4.62632,-6.895651 6.14703,-8.974593 3.49219,-4.774113 4.85396,-7.498278 5.55079,-11.104133 0.31138,-1.611314 0.37036,-2.354479 0.45184,-5.692981 0.034,-1.395063 0.10745,-2.942314 0.16313,-3.438336 0.20567,-1.832282 0.24952,-2.649209 0.14221,-2.649209 -0.19089,0 -0.81754,1.573919 -1.09619,2.753243 -0.30201,1.278126 -0.40625,2.069089 -0.73455,5.57335 -0.29336,3.131442 -0.76624,5.01167 -1.64429,6.537916 -0.55989,0.973209 -0.54832,0.969254 -1.22424,0.418711 -1.63066,-1.328193 -2.60103,-1.798293 -3.72821,-1.806167 -0.71212,-0.005 -0.86023,0.03485 -1.44672,0.389021 -0.60962,0.368146 -1.74469,1.520355 -1.62028,1.644761 0.0306,0.0306 0.36702,-0.126845 0.74758,-0.349888 0.78857,-0.462167 1.68653,-0.689071 2.28365,-0.577051 0.82749,0.155238 1.92071,1.182552 2.22315,2.089125 0.16676,0.499857 0.16368,1.678613 -0.006,2.164346 -0.0734,0.210602 -1.04996,1.590108 -2.1701,3.065568 -1.12014,1.47546 -2.13988,2.82397 -2.2661,2.996689 -0.25273,0.345854 -1.32178,1.725654 -3.3595,4.336057 -0.73389,0.940136 -1.72311,2.210203 -2.19828,2.822371 -0.47517,0.612169 -1.16832,1.499936 -1.54034,1.972816 l -0.67639,0.859782 -0.0881,-5.692982 c -0.0484,-3.13114 -0.06,-6.63734 -0.0258,-7.791556 0.16642,-5.606802 1.32767,-9.388306 4.05893,-13.217571 1.12552,-1.577995 1.33506,-2.010847 2.16309,-4.468375 0.557,-1.653113 0.63295,-1.989833 0.68259,-3.026175 0.0468,-0.976664 0.0143,-1.320637 -0.1998,-2.117451 -0.14787,-0.550233 -0.30791,-0.934003 -0.37956,-0.910194 -0.0681,0.02264 -0.21288,0.569657 -0.32163,1.215592 -0.49115,2.917155 -1.65016,5.360515 -4.51423,9.516619 -2.38513,3.461116 -3.05864,4.465925 -3.51367,5.242052 -0.84303,1.437932 -0.65375,1.440507 -1.51408,-0.02059 -0.41607,-0.706618 -1.6191,-2.525624 -2.67339,-4.042235 -2.739044,-3.940146 -3.331674,-4.880548 -4.188674,-6.64674 -0.68566,-1.413065 -1.18694,-2.816428 -1.43501,-4.017415 -0.26432,-1.279624 -0.34928,-1.283464 -0.52772,-0.02385 -0.15123,1.067557 -0.0545,2.701189 0.23605,3.984901 0.42277,1.8681 1.12164,3.377733 2.3615,5.101112 1.43196,1.990399 2.214684,3.429686 2.866084,5.27026 1.38928,3.925504 1.5495,6.086443 1.33273,17.974683 l -0.0688,3.770413 -1.57812,-2.079428 c -3.845464,-5.066998 -4.296434,-5.663265 -4.509424,-5.962369 -0.32417,-0.455212 -1.40223,-1.858835 -3.55484,-4.628348 -2.27557,-2.927704 -2.63289,-3.563896 -2.62765,-4.678391 0.003,-0.622011 0.0658,-0.911059 0.29673,-1.3649 0.91428,-1.79655 2.2402,-2.167882 4.40424,-1.233441 0.85267,0.368186 0.59659,-0.07641 -0.52202,-0.906332 -0.86,-0.638045 -1.73727,-0.898772 -2.44007,-0.725197 -0.74029,0.182831 -1.73321,0.71961 -2.76679,1.495737 -0.49356,0.37062 -0.95577,0.696261 -1.02713,0.723646 -0.0714,0.02738 -0.28709,-0.195394 -0.47939,-0.495064 -0.99429,-1.549467 -1.51129,-3.455272 -1.76684,-6.513033 -0.35399,-4.235619 -0.4787,-5.117422 -0.91104,-6.44188 -0.32112,-0.983727 -0.82881,-2.06941 -0.96769,-2.06941 -0.12312,0 -0.12147,0.03746 0.0747,1.690985 0.0919,0.775034 0.16758,2.327601 0.16812,3.450148 0.002,4.372083 0.43743,7.046071 1.65903,10.190461 0.90056,2.318064 1.84834,3.925263 4.08573,6.928447 2.03159,2.726927 2.76857,3.789295 5.39857,7.78208 5.871834,8.914433 5.888394,8.94324 6.448124,11.217905 0.30742,1.24933 0.41224,3.95083 0.22526,5.80571 -0.075,0.74403 -0.1636,1.61912 -0.19689,1.94463 -0.0333,0.32552 -0.0932,0.59185 -0.13322,0.59185 -0.04,0 -0.57905,-0.51081 -1.19791,-1.13512 -1.225714,-1.2365 -2.940464,-2.75701 -3.830794,-3.39682 -0.31001,-0.22279 -0.99486,-0.6203 -1.52188,-0.88336 -0.86285,-0.43069 -1.05925,-0.48355 -1.97315,-0.53113 -0.90073,-0.0469 -1.09489,-0.0204 -1.72567,0.23597 -1.51478,0.61551 -2.82165,1.80973 -3.47335,3.17398 -0.98782,2.06786 -0.69946,4.58501 0.80103,6.99246 0.43274,0.69431 0.5602,0.8276 0.6891,0.72063 0.22219,-0.1844 0.19661,-0.71364 -0.0587,-1.21404 -0.43876,-0.86005 -0.61552,-1.80956 -0.62224,-3.34255 -0.006,-1.39245 0.009,-1.49643 0.31167,-2.08554 0.39179,-0.76367 0.75574,-1.16291 1.48562,-1.62973 0.86448,-0.5529 1.43829,-0.73593 2.3406,-0.74658 1.31848,-0.0156 2.14862,0.46129 3.79077,2.17749 2.56071,2.67617 3.920414,5.14026 4.681904,8.48465 0.50803,2.2312 0.63816,5.57249 0.35344,9.07495 -0.10332,1.27106 -0.22308,2.34384 -0.26613,2.38395 -0.043,0.0401 -0.54705,-0.26553 -1.12002,-0.67921 -2.501524,-1.80612 -4.661874,-3.03611 -10.964254,-6.24247 -7.2104,-3.66832 -9.52288,-5.04359 -11.30069,-6.72068 -1.40066,-1.32132 -1.8817,-2.28867 -1.9718,-3.96523 -0.0946,-1.76101 0.43837,-3.88006 1.96954,-7.83012 1.38416,-3.570795 1.94439,-5.638335 2.18408,-8.060361 0.1374,-1.388398 0.52282,-2.8247 0.93188,-3.472693 0.74682,-1.183039 2.02247,-1.954771 3.35902,-2.032119 1.36698,-0.07911 2.29987,0.565952 3.67574,2.541656 0.35472,0.50936 0.66151,0.878155 0.68177,0.819545 0.0615,-0.177821 -0.30562,-1.31308 -0.68419,-2.115946 -0.5023,-1.065296 -1.7173,-2.274609 -2.55028,-2.538353 -1.19899,-0.379636 -2.58367,-0.184085 -4.18712,0.591325 -1.03131,0.498728 -1.39413,0.556078 -1.70993,0.270285 -0.20974,-0.189816 -1.31114,-3.404503 -1.90576,-5.562396 -0.80746,-2.930334 -0.68222,-5.416904 0.39887,-7.919445 0.33278,-0.770331 -1.01667,0.716052 -1.5654,1.724236 -0.46036,0.845843 -0.74088,2.125815 -0.74088,3.38058 0,0.874518 0.11395,1.648148 0.56606,3.843048 0.81173,3.940868 1.03463,5.684971 1.09356,8.556981 0.0457,2.229199 0.0263,2.561161 -0.23841,4.075083 -0.46872,2.680499 -1.43691,5.264084 -3.134809,8.365194 -1.185475,2.16519 -1.621506,2.82856 -1.738881,2.6455 -1.108024,-1.72807 -2.132168,-5.37587 -3.492532,-12.439721 -0.924914,-4.802719 -2.956027,-9.610187 -4.703843,-11.133587 -0.74507,-0.649404 -2.217225,-1.420609 -2.217225,-1.161518 0,0.04044 0.254871,0.379784 0.566379,0.754099 2.544943,3.058057 3.971335,6.897736 4.287338,11.541006 0.545298,8.012451 2.449442,13.592721 6.404824,18.769931 0.995769,1.30337 3.991839,4.26342 5.369659,5.3051 2.36514,1.78813 3.92504,2.72013 7.6889,4.59389 2.76084,1.37442 2.85375,1.42513 5.27515,2.87886 3.11844,1.87221 6.05281,3.92753 7.2531,5.08029 1.214624,1.16653 1.988794,2.47486 2.272184,3.8399 0.14518,0.69935 0.18523,2.74431 0.0645,3.29457 l -0.0693,0.3158 -1.998314,-0.98432 c -1.9329,-0.95209 -2.26157,-1.09646 -4.08386,-1.79388 -0.96,-0.36741 -2.51209,-0.78383 -4.002,-1.07373 -1.29688,-0.25234 -5.8685,-0.28553 -7.49671,-0.0544 -1.87617,0.2663 -4.91103,0.71244 -7.3276,1.07721 -2.770076,0.41812 -3.376087,0.4518 -4.396563,0.24435 -0.527024,-0.10714 -1.314841,-0.3431 -1.750705,-0.52435 -1.568453,-0.65224 -3.092994,-2.18785 -3.674469,-3.70114 -0.293881,-0.76482 -0.409936,-2.661 -0.224855,-3.67382 0.289362,-1.58347 1.53573,-3.35638 2.579383,-3.66907 0.40674,-0.12186 0.513642,-0.10755 1.056998,0.14146 0.332471,0.15236 0.848544,0.48843 1.146828,0.74681 0.298285,0.25838 0.584063,0.46979 0.635063,0.46979 0.120648,0 0.228275,-0.41033 0.230218,-0.8777 0.0017,-0.40194 -0.108869,-0.52989 -1.108922,-1.28366 -1.116404,-0.84146 -1.440987,-2.09566 -1.076168,-4.15835 0.148267,-0.8383 0.208044,-1.72846 0.207734,-3.09344 -3.76e-4,-1.6562 -0.0335,-2.01836 -0.243935,-2.66695 -0.367598,-1.133 -0.85685,-2.02195 -1.500331,-2.72602 -0.625727,-0.68465 -1.440764,-1.37395 -1.524983,-1.28973 -0.02863,0.0286 0.197754,0.52936 0.503079,1.11273 1.047496,2.00141 1.448081,3.74714 1.327928,5.78705 -0.11495,1.95157 -0.669638,3.56045 -1.976003,5.73143 -3.18593,5.29452 -3.701495,8.92963 -1.811101,12.76956 0.198387,0.40298 0.339936,0.75346 0.314553,0.77885 -0.05365,0.0536 -2.309806,-0.7125 -4.096517,-1.39109 -4.587674,-1.7424 -7.133689,-3.83221 -8.486518,-6.96588 -0.138714,-0.32131 -0.38574,-1.08225 -0.548946,-1.69098 -0.257714,-0.96122 -0.304272,-1.39848 -0.354019,-3.32479 -0.07855,-3.04162 0.230571,-5.02627 1.252373,-8.04063 1.047634,-3.09057 1.384084,-3.48688 3.345442,-3.94065 0.599425,-0.13868 1.181248,-0.18491 1.972816,-0.15676 0.977588,0.0348 1.20937,0.0836 1.793626,0.37807 1.17549,0.59243 1.586027,1.39062 1.710074,3.32478 0.07464,1.16386 0.149563,1.59519 0.264712,1.52403 0.168775,-0.10431 0.567125,-2.02747 0.567125,-2.73798 0,-2.38675 -1.599781,-3.9595 -4.396562,-4.32229 -0.946983,-0.12283 -1.842973,-0.3684 -2.110749,-0.57848 -0.299905,-0.2353 -0.288499,-0.87467 0.03937,-2.2071 0.284996,-1.15819 0.322982,-1.51369 0.315376,-2.95142 -0.0074,-1.39062 -0.05132,-1.78617 -0.294539,-2.64995 -0.287246,-1.020143 -0.8141,-2.189837 -1.254886,-2.786031 -0.13029,-0.176227 -0.491349,-0.483697 -0.802353,-0.683268 -0.531519,-0.341075 -0.626517,-0.362648 -1.58263,-0.359395 -1.031268,0.0035 -1.970018,0.216107 -1.782453,0.403671 0.05553,0.05553 0.391491,0.176638 0.746577,0.269126 1.353786,0.352617 2.430527,1.188876 3.045978,2.365683 0.353884,0.676664 0.354694,0.682244 0.351631,2.425574 -0.0032,1.8114 -0.06838,2.18199 -0.733839,4.17109 -0.576447,1.72305 -0.808755,2.2535 -3.036304,6.93305 -1.598133,3.35729 -2.478037,6.01715 -2.668519,8.06666 -0.04002,0.43055 -0.10877,0.78283 -0.152787,0.78283 -0.11923,0 -1.159965,-2.68689 -1.615625,-4.1711 -0.431244,-1.40468 -0.608043,-2.04451 -1.043525,-3.77653 -0.155894,-0.62003 -0.459022,-1.82361 -0.673618,-2.67464 -0.214595,-0.85102 -0.541995,-2.00047 -0.727554,-2.55432 -1.365228,-4.07493 -3.681803,-6.79865 -6.430129,-7.56025 -0.952942,-0.26408 -2.250078,-0.423 -2.245602,-0.27513 0.0017,0.0551 0.344091,0.25185 0.760943,0.43731 1.753604,0.78017 3.335182,2.16584 4.306053,3.77268 1.217972,2.01581 2.256317,5.70586 2.989136,10.62272 0.188303,1.26342 0.591729,3.37604 0.738679,3.86824 0.05553,0.18601 0.261844,0.89623 0.458465,1.57826 0.95696,3.31946 2.558709,6.56524 4.586228,9.29352 0.912889,1.22841 3.379101,3.65185 4.77516,4.69236 1.944982,1.44962 4.315096,2.76709 6.465259,3.5938 0.434019,0.16688 0.96668,0.37532 1.18369,0.46321 0.21701,0.0879 1.231601,0.39339 2.254647,0.67889 1.884216,0.52582 2.36738,0.78124 2.36738,1.25148 0,0.0969 -0.39624,0.61405 -0.880534,1.14922 -1.242943,1.37353 -2.479275,2.94172 -3.966691,5.03141 -4.266653,5.9943 -6.327334,8.32339 -8.184258,9.25026 -0.867485,0.433 -0.92216,0.44472 -2.074655,0.44472 -1.033452,0 -1.28762,-0.0407 -2.002527,-0.32045 -1.587617,-0.62132 -3.094015,-1.77687 -4.323644,-3.31666 -1.79656,-2.24972 -2.455156,-4.57041 -1.817418,-6.40404 0.81087,-2.33141 0.777473,-3.2779 -0.24833,-7.03779 -0.211451,-0.77504 -0.440575,-1.91347 -0.509165,-2.52986 -0.108005,-0.9706 -0.188395,-1.24083 -0.60022,-2.01763 -0.278668,-0.52563 -0.796664,-1.24169 -1.251313,-1.72977 -1.192001,-1.27965 -1.278012,-1.24721 -0.576304,0.21736 0.783503,1.63529 1.100383,2.53471 1.479648,4.19981 0.288895,1.26835 0.308579,1.5252 0.315338,4.11473 0.006,2.28443 -0.03091,2.9666 -0.213251,3.94563 -0.474952,2.5501 -0.164695,4.30622 1.264707,7.15851 0.613796,1.22479 0.970113,1.68197 2.683414,3.44299 1.452147,1.49259 1.990684,2.13725 1.785421,2.13725 -0.04177,0 -0.588896,-0.14817 -1.215839,-0.32928 -0.626943,-0.18111 -1.486669,-0.40967 -1.910502,-0.50791 -2.470475,-0.57267 -5.264599,-1.60766 -6.764742,-2.5058 -1.765635,-1.05708 -3.319765,-2.69981 -4.377513,-4.62708 -0.248442,-0.45267 -0.503768,-0.82305 -0.567389,-0.82305 -0.189126,0 0.01297,1.40154 0.305311,2.11733 0.144801,0.35454 0.470332,1.03178 0.723403,1.50498 0.253071,0.47319 0.460129,0.91533 0.460129,0.98252 0,0.0672 -0.545343,0.38697 -1.211873,0.71061 -2.577857,1.25171 -3.492165,2.89446 -2.894555,5.20071 0.09757,0.37654 0.299876,0.92631 0.449566,1.22171 0.347431,0.68562 1.299822,1.65633 2.012857,2.05158 1.405417,0.77904 1.455208,0.3706 0.129854,-1.06521 -0.379389,-0.41101 -0.840712,-1.01976 -1.025162,-1.35279 -0.302302,-0.54581 -0.335363,-0.70552 -0.335363,-1.62009 0,-1.13169 0.13346,-1.51446 0.799247,-2.29228 0.896649,-1.04753 2.430259,-1.3392 4.048245,-0.76991 1.107427,0.38965 1.324152,0.48818 4.105859,1.86655 1.363067,0.67542 2.873862,1.36465 3.357321,1.53161 1.950247,0.67352 3.960465,0.95873 5.331945,0.75649 0.403018,-0.0594 0.765482,-0.0889 0.805475,-0.0654 0.03999,0.0234 0.02201,0.25851 -0.03998,0.52239 -0.195126,0.83074 -0.150168,3.75985 0.07052,4.5945 0.552888,2.09105 1.566744,3.17637 3.414478,3.65516 0.711354,0.18433 1.949783,0.24242 1.949783,0.0915 0,-0.0475 -0.395825,-0.35078 -0.879612,-0.67405 -1.489922,-0.99558 -2.489284,-2.14177 -2.958934,-3.39366 -0.191501,-0.51046 -0.231512,-0.8289 -0.201239,-1.60165 0.07192,-1.83584 0.894933,-2.96452 3.835739,-5.26033 0.652688,-0.50954 1.803957,-1.51779 2.558375,-2.24057 2.228114,-2.13465 3.296275,-3.37873 8.044811,-9.36975 3.251097,-4.10176 5.467983,-5.75848 8.652631,-6.46627 1.046675,-0.23262 3.011221,-0.2873 3.776531,-0.10512 0.33832,0.0805 0.73247,0.0542 1.57826,-0.10562 1.66517,-0.31457 3.76876,-0.46786 6.36938,-0.46415 4.38524,0.006 7.46849,0.69073 10.33631,2.29465 1.83617,1.02694 4.432924,3.2769 4.927554,4.26949 0.3178,0.63775 0.3847,1.39048 0.15188,1.70889 -0.12986,0.17759 -0.22362,0.14959 -1.155514,-0.34515 -3.02983,-1.60854 -5.416,-2.39193 -7.95063,-2.61025 -6.06212,-0.52215 -10.92373,2.56362 -14.63933,9.29188 -0.83092,1.50463 -1.6402,3.5221 -2.82449,7.04121 -0.57242,1.70094 -2.05059,4.87627 -2.792979,5.99973 -1.382575,2.09226 -3.274732,3.37635 -5.237429,3.55432 -0.364474,0.033 -0.693922,0.11064 -0.732107,0.17243 -0.0454,0.0735 0.43366,0.0935 1.384175,0.0578 1.310147,-0.0491 1.537042,-0.0897 2.299094,-0.41052 2.124898,-0.89468 3.409005,-2.39593 5.872456,-6.86551 0.52116,-0.94557 0.99317,-1.70402 1.04891,-1.68544 0.0557,0.0186 0.31077,0.59031 0.56675,1.27052 0.73861,1.96269 1.12467,2.45757 2.05477,2.63396 0.50452,0.0957 1.88688,0.001 2.02657,-0.13844 0.0258,-0.0258 -0.29075,-0.24442 -0.70347,-0.48579 -0.87389,-0.51107 -1.41877,-1.09404 -1.83302,-1.96114 -0.28934,-0.60566 -0.29606,-0.671 -0.28971,-2.81831 0.007,-2.36478 0.12074,-3.05513 0.77914,-4.72869 1.07314,-2.72772 3.6994,-5.44778 6.30869,-6.53403 1.0658,-0.4437 1.5924,-0.56197 1.50661,-0.3384 -0.19068,0.49691 -0.5462,2.21549 -0.64044,3.09585 -0.23417,2.18752 0.22066,3.65832 1.63798,5.2968 1.82399,2.1086 2.79456,3.88915 3.48487,6.39316 0.0983,0.35651 0.21894,0.64821 0.26812,0.64821 0.33558,0 0.25601,-3.12194 -0.0972,-3.81209 -0.0534,-0.10445 -0.27804,-0.57038 -0.49907,-1.0354 -0.22104,-0.46502 -0.73509,-1.2767 -1.14233,-1.80372 -1.61291,-2.08731 -1.95319,-2.76857 -2.05521,-4.11473 -0.12214,-1.6117 0.49579,-3.16952 1.77299,-4.46972 0.86779,-0.88342 1.58159,-1.261 2.76143,-1.46073 0.71308,-0.12071 0.87487,-0.10972 1.69041,0.11487 0.87951,0.2422 2.53114,1.05058 3.55107,1.73804 2.37387,1.60005 3.613514,3.70741 3.791174,6.44492 0.0362,0.55803 0.009,3.14523 -0.061,5.74935 -0.19286,7.19807 -0.32857,13.48864 -0.40129,18.60083 -0.0362,2.54211 -0.11484,6.54975 -0.17484,8.90585 -0.06,2.35611 -0.16162,8.06318 -0.22581,12.68239 -0.0642,4.6192 -0.16629,10.75748 -0.22691,13.64061 -0.0606,2.88312 -0.13785,6.7132 -0.171634,8.51128 -0.21655,11.52781 -0.30234,12.86948 -1.00338,15.69125 -2.17999,8.77468 -8.96891,14.50717 -18.99981,16.04325 -0.77503,0.11868 -2.01791,0.31957 -2.76194,0.44642 -0.74403,0.12684 -2.21519,0.33156 -3.269237,0.45493 -5.973047,0.69909 -8.195115,1.22963 -10.935041,2.61084 -3.300651,1.66387 -4.960217,3.49507 -5.431364,5.99309 -0.338832,1.79647 0.107117,2.98072 1.364622,3.62383 0.579438,0.29633 0.776877,0.33746 1.630252,0.33961 0.534033,10e-4 1.109545,-0.0363 1.278916,-0.0837 0.384507,-0.1076 1.020312,-0.65817 1.319956,-1.14301 0.283175,-0.45818 0.618541,-1.98061 0.469196,-2.12995 -0.209124,-0.20913 -1.140361,0.23609 -1.830752,0.87527 -0.71344,0.66052 -1.077422,0.77061 -1.497358,0.45287 -0.715567,-0.54143 -0.845649,-1.58535 -0.303979,-2.43947 1.032673,-1.62836 3.323015,-3.02549 6.174083,-3.76626 2.417384,-0.62809 3.964647,-0.83942 7.761469,-1.06009 1.11605,-0.0649 2.252757,-0.14306 2.526017,-0.17377 l 0.49683,-0.0558 -1.1229,1.15577 c -1.913552,1.96959 -2.631228,3.29684 -2.632217,4.86795 -0.0011,1.80636 0.865316,3.19607 2.162277,3.46811 1.66377,0.34898 3.35616,-0.75792 3.79691,-2.48336 0.27622,-1.08132 -0.20073,-1.03269 -1.3799,0.14069 -0.40719,0.40519 -0.86317,0.76754 -1.0133,0.80521 -0.67985,0.17064 -1.53826,-0.81474 -1.53624,-1.76346 0.001,-0.67634 0.48429,-1.48927 1.34978,-2.2725 0.86811,-0.78559 1.61346,-1.18197 3.44604,-1.83262 2.55262,-0.9063 5.23418,-1.34451 7.79837,-1.27437 l 1.26565,0.0346 -0.74587,1.29642 c -0.98407,1.71046 -1.25474,2.31207 -1.44122,3.20332 -0.27403,1.30974 0.17338,2.69625 1.15671,3.58463 0.57262,0.51732 1.12838,0.69573 1.93846,0.62227 1.61293,-0.14625 2.798,-1.22999 3.00623,-2.74916 l 0.0717,-0.52324 -0.32074,0.0805 c -0.4057,0.10183 -0.87305,0.42006 -1.51819,1.03378 -0.67552,0.64264 -0.98858,0.71217 -1.45172,0.32247 -0.7878,-0.6629 -0.96998,-1.75173 -0.44342,-2.65024 0.63119,-1.07704 2.47241,-2.49138 3.6979,-2.84056 2.3624,-0.67311 4.20183,-1.06476 6.84107,-1.45661 2.322664,-0.34485 8.320194,-0.3747 10.577044,-0.0526 3.48259,0.49697 7.38514,1.44639 8.56027,2.08257 1.44296,0.78118 2.55441,2.36477 2.58533,3.68355 0.014,0.59858 -0.01,0.65895 -0.40618,1.02243 -0.6737,0.61802 -1.07386,0.52801 -2.12055,-0.47699 -0.55055,-0.52862 -1.21814,-0.81176 -1.36265,-0.57792 -0.1892,0.30611 0.22504,1.48022 0.73513,2.08365 0.66286,0.78417 2.23938,1.22769 3.30417,0.92957 1.03364,-0.2894 2.0242,-1.6945 2.14666,-3.045 0.0847,-0.93411 -0.24824,-1.89961 -1.31856,-3.82367 -0.49871,-0.8965 -0.90675,-1.66948 -0.90675,-1.71774 0,-0.1261 2.80429,-0.10645 4.002,0.028 4.28964,0.48166 8.24836,2.18041 9.43253,4.04766 0.55955,0.88231 0.38944,2.12374 -0.37969,2.77091 -0.5071,0.42671 -0.80722,0.36425 -1.53632,-0.31971 -1.13863,-1.06814 -1.82353,-1.39221 -1.82353,-0.86281 0,0.41082 0.64328,1.65763 1.12471,2.17991 0.60357,0.6548 1.031,0.79364 2.21574,0.71973 0.73946,-0.0461 1.04335,-0.12097 1.44349,-0.35547 0.91569,-0.53663 1.40248,-1.41937 1.41139,-2.55944 0.0122,-1.56158 -0.53142,-2.89526 -1.81099,-4.4428 -1.13884,-1.37736 -1.56603,-1.93087 -1.56603,-2.02911 0,-0.0456 0.29169,-0.0512 0.64821,-0.0125 0.35652,0.0387 1.89109,0.17378 3.41015,0.30009 5.17135,0.43001 7.52394,1.00256 9.94647,2.42065 0.93131,0.54516 2.1941,1.65145 2.55896,2.24181 0.50016,0.80927 0.39831,1.84455 -0.23377,2.37642 -0.52329,0.44032 -0.88176,0.3767 -1.64007,-0.29108 -0.92362,-0.81335 -1.11526,-0.92511 -1.44459,-0.84246 -0.32409,0.0813 -0.31631,0.22583 0.0704,1.30633 0.63797,1.78274 1.86284,2.48074 3.43315,1.9564 z m 55.33658,-62.38092 c 0,-1.70508 0.0157,-2.40261 0.0348,-1.55007 0.0191,0.85254 0.0191,2.2476 0,3.10014 -0.0192,0.85254 -0.0348,0.155 -0.0348,-1.55007 z m -11.43542,-74.66563 c 0,-0.0823 -0.20643,-0.80516 -0.45873,-1.60644 -1.08102,-3.43319 -1.45133,-4.63241 -1.52312,-4.93248 -0.042,-0.17552 -0.14285,-0.34464 -0.22413,-0.37583 -0.0813,-0.0312 -1.00183,0.45484 -2.04566,1.08006 -1.04384,0.62522 -1.96003,1.13677 -2.03599,1.13677 -0.20719,0 -0.17041,-0.80427 0.0517,-1.13042 0.10439,-0.1533 0.45993,-0.57379 0.79009,-0.93442 1.09147,-1.19218 1.1601,-1.66348 0.34895,-2.3963 -0.78009,-0.70476 -2.26125,-1.25611 -4.37262,-1.62767 -1.04782,-0.1844 -2.05042,-0.47536 -1.94782,-0.56528 0.2181,-0.19113 3.89543,-1.23717 4.34926,-1.23717 0.51559,0 1.76548,-0.4693 2.112,-0.793 0.33086,-0.30907 0.35785,-0.38516 0.31069,-0.87599 -0.0544,-0.56607 -0.40992,-1.18402 -1.37469,-2.38937 -0.27295,-0.34102 -0.58635,-0.78677 -0.69643,-0.99057 -0.18352,-0.33974 -0.18515,-0.38555 -0.0197,-0.55101 0.16546,-0.16546 0.26318,-0.12833 1.17551,0.44659 2.48808,1.56794 3.18702,1.67643 3.81272,0.59183 0.14439,-0.25029 0.51603,-1.34283 0.82586,-2.42788 0.72781,-2.5488 0.9601,-3.26578 1.05869,-3.26769 0.0441,-8.5e-4 0.13627,0.21405 0.2048,0.47756 0.0685,0.26351 0.32403,1.17448 0.56779,2.02437 0.77405,2.69886 1.10044,3.38045 1.74845,3.65121 0.60768,0.2539 1.32462,0.0631 3.2281,-0.85891 0.72244,-0.34995 0.87823,-0.34731 0.87823,0.0149 0,0.38867 -0.34376,0.91918 -1.14278,1.76362 -0.70088,0.74073 -0.77367,0.86169 -0.77367,1.2857 0,0.39568 0.0665,0.53134 0.43039,0.87747 0.78761,0.74922 1.93236,1.17915 4.83985,1.81767 0.63553,0.13957 1.1555,0.28957 1.1555,0.33334 0,0.14061 -0.856,0.67813 -1.4231,0.89361 -0.30251,0.11494 -0.80359,0.24372 -1.11352,0.28618 -1.19156,0.16323 -2.38871,0.43041 -2.90188,0.64762 -0.57763,0.24451 -0.98724,0.75839 -0.98724,1.23855 0,0.3747 0.43044,1.1628 1.10745,2.02767 0.60865,0.77754 1.6425,2.34187 1.58064,2.39169 -0.0214,0.0172 -1.05347,-0.59827 -2.29353,-1.36775 -1.24005,-0.76948 -2.39455,-1.47357 -2.56555,-1.56464 -0.36926,-0.19667 -0.35814,-0.21535 -0.811,1.36301 -0.1601,0.55802 -0.36269,1.24287 -0.45019,1.52189 -0.0875,0.27901 -0.39806,1.33165 -0.69012,2.33919 -0.29206,1.00755 -0.5747,1.8319 -0.6281,1.8319 -0.0534,0 -0.0971,-0.0673 -0.0971,-0.14957 z m 0.59365,-5.1215 c 0.91433,-2.89336 2.97448,-4.74442 6.57888,-5.91119 0.58013,-0.18779 1.03222,-0.37795 1.00464,-0.42258 -0.0276,-0.0446 -0.34416,-0.14488 -0.70351,-0.22279 -1.54198,-0.33431 -3.21823,-1.09769 -4.33191,-1.97279 -1.11932,-0.87954 -2.16458,-2.47172 -2.63337,-4.01128 -0.10384,-0.34102 -0.22922,-0.72149 -0.27861,-0.8455 -0.10329,-0.25928 -0.0856,-0.29125 -0.62266,1.12733 -0.93779,2.47718 -2.7333,4.22681 -5.37148,5.23424 -0.47591,0.18173 -1.17575,0.3915 -1.55521,0.46615 -0.37945,0.0747 -0.71185,0.17123 -0.73867,0.21462 -0.0268,0.0434 0.4047,0.21463 0.95891,0.38053 3.42606,1.02557 5.84811,3.23202 7.04187,6.41503 0.11046,0.29451 0.23199,0.53536 0.27006,0.53523 0.0381,-1.4e-4 0.20956,-0.44429 0.38106,-0.987 z m -179.838135,4.79001 c 0,-0.0166 -0.180886,-0.63802 -0.401969,-1.38098 -0.821461,-2.76055 -1.430814,-4.85299 -1.48497,-5.09918 -0.03069,-0.13951 -0.08065,-0.25365 -0.111033,-0.25365 -0.03038,0 -1.067646,0.61399 -2.305032,1.36442 -1.237387,0.75043 -2.2800646,1.33415 -2.3170616,1.29715 -0.172949,-0.17295 0.266379,-1.00886 1.0330536,-1.96559 0.872636,-1.08895 1.003626,-1.33281 0.989164,-1.84144 -0.03432,-1.20719 -1.6432586,-2.10398 -4.6311056,-2.58129 -1.01378,-0.16196 -2.068832,-0.46596 -1.962914,-0.56561 0.104317,-0.0981 2.575474,-0.93772 3.300602,-1.12139 1.297361,-0.32862 2.206803,-0.72445 2.6355696,-1.14713 0.392701,-0.38712 0.430805,-0.47405 0.373702,-0.85255 -0.03497,-0.2318 -0.396413,-1.07345 -0.8031996,-1.87032 -0.936626,-1.8348 -0.887231,-1.98584 0.4041256,-1.23571 3.125883,1.81578 3.344878,1.7033 4.540565,-2.33202 0.39235,-1.32414 0.769091,-2.25465 0.912857,-2.25465 0.284119,0 0.595364,0.5692 0.786574,1.43848 0.224571,1.02095 0.797488,2.86756 1.040167,3.35265 0.228667,0.45707 0.595536,0.84833 0.90893,0.96936 0.389992,0.1506 1.336494,-0.22825 2.69813,-1.07997 0.647389,-0.40495 1.223461,-0.7076 1.280161,-0.67256 0.210877,0.13033 0.08959,0.55142 -0.383802,1.33255 -0.705609,1.1643 -1.09136,2.06657 -1.09136,2.5527 0,0.34302 0.07449,0.49103 0.383823,0.76263 0.358332,0.31462 1.64861,0.81221 2.998148,1.15622 1.011724,0.2579 2.26575,0.81315 2.231295,0.98795 -0.06186,0.31383 -0.595194,0.58479 -1.723999,0.87587 -0.620028,0.15989 -1.60016,0.44377 -2.17807,0.63086 -2.234287,0.72333 -2.344968,1.31031 -0.750809,3.98184 0.339826,0.56949 0.617865,1.07004 0.617865,1.11233 0,0.0423 -0.139506,0.0426 -0.310014,6.1e-4 -0.625401,-0.15391 -1.328908,-0.5153 -2.064191,-1.06039 -0.985807,-0.73081 -1.718783,-1.05927 -2.012746,-0.90194 -0.237711,0.12722 -0.568616,0.92023 -0.855177,2.04943 -0.100167,0.39471 -0.273719,0.9713 -0.38567,1.28131 -0.111952,0.31002 -0.238706,0.83851 -0.281676,1.17443 -0.09301,0.72712 -0.325419,1.32073 -0.654035,1.67053 -0.202592,0.21565 -0.425898,0.33364 -0.425898,0.22505 z m 0.55002,-4.64826 c 1.136429,-2.9536 3.50495,-5.24175 6.411204,-6.19365 0.325515,-0.10661 0.591845,-0.2369 0.591845,-0.28952 0,-0.0526 -0.291695,-0.15518 -0.648211,-0.22791 -0.957576,-0.19532 -2.576813,-1.01567 -3.318536,-1.68125 -1.186642,-1.06482 -2.25561,-2.788 -3.144378,-5.06875 -0.406518,-1.0432 -0.425743,-1.07018 -0.544404,-0.76403 -0.06765,0.17454 -0.123005,0.40485 -0.123005,0.51179 0,0.10694 -0.07234,0.47218 -0.160758,0.81163 -0.87299,3.35164 -3.11946,5.41642 -6.7492446,6.20338 -0.359346,0.0779 -0.675359,0.17725 -0.70225,0.22076 -0.02689,0.0435 0.546132,0.28944 1.273385,0.54652 3.6014176,1.27303 5.5686036,3.13519 6.4545146,6.10992 0.131192,0.44051 0.25525,0.78339 0.275685,0.76195 0.02043,-0.0214 0.193304,-0.44482 0.384153,-0.94084 z M 30.053312,90.966548 c -0.309176,-0.766661 -0.720108,-2.231175 -1.02326,-3.646787 -0.412751,-1.927395 -0.395904,-1.880568 -0.862337,-2.396853 -0.331203,-0.366602 -0.468088,-0.438467 -0.835169,-0.438467 -0.587603,0 -1.255986,0.330347 -2.133724,1.05459 -0.399633,0.329747 -0.965674,0.738364 -1.257868,0.908039 l -0.531263,0.308499 -0.07091,-0.282544 c -0.05449,-0.217107 0.051,-0.471002 0.455482,-1.096268 0.793131,-1.226054 1.297986,-2.280999 1.297986,-2.712273 0,-0.778272 -0.550253,-1.144764 -2.594287,-1.727907 -2.503248,-0.714153 -3.689961,-1.149854 -3.53628,-1.298342 0.05466,-0.05282 0.987152,-0.383964 2.072201,-0.735886 2.772677,-0.899285 2.921719,-0.962155 3.403033,-1.435495 0.656365,-0.64549 0.578263,-1.17908 -0.51416,-3.512751 -0.287634,-0.614454 -0.505498,-1.134663 -0.48414,-1.156021 0.02136,-0.02136 0.33875,0.154952 0.705316,0.391798 1.689085,1.09135 2.827711,1.424275 3.429507,1.00276 0.595707,-0.417249 1.119451,-1.48518 1.971102,-4.019143 0.259365,-0.771701 0.523891,-1.420533 0.587837,-1.441849 0.204652,-0.06822 0.816235,1.036461 0.98753,1.783732 0.09115,0.397658 0.221779,1.156519 0.29028,1.686359 0.163331,1.263341 0.665191,2.324723 1.246341,2.635888 0.404064,0.216347 0.408341,0.216221 1.014591,-0.02984 0.33485,-0.135906 0.963924,-0.531519 1.397944,-0.879141 2.131711,-1.707365 2.511222,-1.582887 1.309747,0.429588 -1.711977,2.867568 -1.546531,3.178473 2.297689,4.317805 1.303404,0.386297 2.43557,0.867 2.38955,1.014572 -0.0198,0.06349 -0.273315,0.276119 -0.563368,0.472509 -0.554472,0.375423 -1.435799,0.622032 -3.139609,0.878513 -1.294369,0.194846 -2.193242,0.605746 -2.399807,1.097019 -0.13665,0.324994 -0.130898,0.432972 0.04816,0.904224 0.111839,0.294337 0.478116,0.90397 0.81395,1.35474 0.59896,0.803951 1.103768,1.578434 1.103768,1.693416 0,0.130075 -0.480573,0.170764 -0.841109,0.07122 -0.211597,-0.05842 -0.831396,-0.459833 -1.377331,-0.892018 -1.205486,-0.954313 -1.592449,-1.025752 -2.210174,-0.408028 -0.81299,0.81299 -1.173172,1.729816 -1.822396,4.638824 -0.166051,0.744034 -0.343879,1.454247 -0.395173,1.578253 -0.08582,0.207483 -0.104139,0.198492 -0.229649,-0.112733 z m 0.390141,-4.67839 c 0.04326,-0.21701 0.30559,-0.867357 0.582946,-1.445215 1.066401,-2.221801 3.255641,-3.896464 6.579139,-5.032728 0.403019,-0.137787 0.712607,-0.296551 0.687975,-0.352808 -0.02463,-0.05626 -0.379739,-0.159493 -0.789126,-0.229413 -2.021254,-0.345211 -3.948284,-1.380683 -5.033004,-2.70444 -0.603812,-0.736873 -1.467701,-2.205356 -1.740112,-2.95793 -0.126666,-0.349935 -0.297918,-0.786923 -0.38056,-0.971086 l -0.150258,-0.334841 -0.29958,0.323252 c -0.324636,0.350289 -0.420138,0.657092 -0.634207,2.037414 -0.220708,1.423136 -0.412272,1.664022 -1.525031,1.917691 -0.55853,0.127325 -0.564132,0.132998 -0.637434,0.645439 -0.137305,0.959885 -0.724217,1.440567 -1.95981,1.605089 -0.90481,0.120478 -2.025062,0.486611 -2.250265,0.735457 -0.250936,0.277281 -0.170595,0.365277 0.507133,0.555449 1.337356,0.375264 3.147102,1.356918 4.041433,2.192181 0.926472,0.865281 1.82992,2.293395 2.319517,3.666546 0.163499,0.458561 0.328079,0.883594 0.365732,0.944518 0.08933,0.144545 0.215591,-0.09338 0.315512,-0.594575 z m 150.098077,4.285516 c -0.25545,-0.149131 -0.48838,-0.778334 -0.83531,-2.256335 -0.39656,-1.689503 -0.89433,-2.975957 -1.26401,-3.266744 -0.55287,-0.434884 -1.34287,-0.242993 -3.08878,0.750258 -1.0299,0.585914 -1.22898,0.611256 -1.22898,0.156446 0,-0.530464 0.16889,-0.839994 0.87401,-1.6018 1.19432,-1.290349 1.28987,-1.610587 0.68583,-2.298554 -0.67095,-0.764167 -1.80671,-1.206512 -4.49088,-1.749069 -0.96105,-0.194257 -1.78813,-0.3919 -1.83796,-0.439205 -0.10648,-0.101079 0.63934,-0.435881 1.89778,-0.851919 3.64287,-1.204332 4.25089,-1.617958 4.06717,-2.766851 -0.0769,-0.480628 -0.5367,-1.521144 -1.15811,-2.620545 -0.20682,-0.365899 -0.37604,-0.686163 -0.37604,-0.711699 0,-0.02554 0.39316,0.151827 0.87368,0.394139 1.57881,0.796147 1.99313,0.952754 2.65653,1.004129 0.59742,0.04626 0.68446,0.02305 0.98186,-0.261877 0.17948,-0.171953 0.43007,-0.533349 0.55687,-0.803102 0.27556,-0.586224 1.01861,-2.778979 1.01861,-3.005928 0,-0.253619 0.79629,-1.777443 0.89647,-1.71553 0.0497,0.03071 0.22484,0.500589 0.38922,1.044174 0.82488,2.72778 1.01522,3.296354 1.31703,3.934187 0.61978,1.309788 1.16873,1.356582 3.27983,0.279586 0.74277,-0.378927 1.37176,-0.688958 1.39777,-0.688958 0.026,0 0.0473,0.197892 0.0473,0.43976 0,0.446691 -0.0801,0.573916 -1.41448,2.246396 -0.63652,0.797808 -0.47127,1.40955 0.56689,2.098643 0.81168,0.53876 1.72711,0.838326 3.97188,1.299763 1.00533,0.206656 1.80503,0.412706 1.77711,0.457888 -0.0913,0.147715 -1.77254,0.772724 -3.15405,1.172527 -1.50633,0.435926 -2.36749,0.814754 -2.70558,1.190194 -0.17193,0.190929 -0.22457,0.405356 -0.22171,0.90311 0.003,0.573553 0.0956,0.839689 0.76095,2.193896 0.41645,0.847638 0.75718,1.567184 0.75718,1.598991 0,0.06571 -0.047,0.03817 -2.62777,-1.539369 -1.10095,-0.672981 -1.93651,-1.116317 -1.99404,-1.058016 -0.0545,0.05519 -0.22434,0.531551 -0.37749,1.058574 -0.15315,0.527024 -0.51683,1.744533 -0.80818,2.705576 -0.29135,0.961043 -0.59014,1.972221 -0.66398,2.247062 -0.14373,0.535024 -0.24574,0.624169 -0.52661,0.460202 z m 0.50386,-4.344313 c 0.45432,-1.586365 1.36617,-3.071974 2.53393,-4.128332 0.92291,-0.834868 2.16767,-1.5483 4.01665,-2.302148 l 0.45093,-0.183848 -0.90186,-0.271125 c -2.68401,-0.806891 -4.35902,-2.307222 -5.45785,-4.888672 -0.30361,-0.713251 -0.79297,-2.331945 -0.79643,-2.634392 -0.004,-0.378513 -0.27154,-0.123371 -0.40148,0.383359 -0.3879,1.512663 -1.45965,3.54443 -2.47947,4.700433 -0.89559,1.01518 -2.58906,2.076159 -4.10556,2.572182 -0.31291,0.102347 -0.56893,0.22533 -0.56893,0.273295 0,0.04797 0.19024,0.121196 0.42275,0.162735 0.98135,0.175319 2.53379,0.891419 3.47468,1.602786 0.63417,0.479464 1.41157,1.319437 1.96321,2.121216 0.42795,0.622003 1.171,2.196286 1.34948,2.859128 0.0694,0.257715 0.1629,0.468573 0.20779,0.468573 0.0449,0 0.17636,-0.330835 0.29216,-0.73519 z M 62.671052,60.958716 c -0.03972,-0.112435 -0.145095,-0.38198 -0.234172,-0.59899 -0.08908,-0.217009 -0.311855,-0.901858 -0.495062,-1.521886 -0.819034,-2.771857 -1.120921,-3.433435 -1.670623,-3.661129 -0.473002,-0.195923 -0.904343,-0.07136 -2.336539,0.67478 -0.692523,0.360785 -1.288596,0.62651 -1.324606,0.5905 -0.03601,-0.03601 -0.06547,-0.252857 -0.06547,-0.481882 0,-0.459919 0.322774,-1.016128 1.012231,-1.744294 0.790504,-0.834886 0.855749,-1.199724 0.323048,-1.806435 -0.609785,-0.694507 -1.599071,-1.100243 -4.074178,-1.670943 -0.917367,-0.211522 -1.692413,-0.409058 -1.722322,-0.438968 -0.02991,-0.02991 -0.0065,-0.180318 0.05202,-0.334242 0.116436,-0.306249 0.446859,-0.471665 1.30906,-0.655342 1.038082,-0.221145 3.151461,-0.91604 3.633546,-1.194738 0.556368,-0.321642 0.706651,-0.555882 0.706651,-1.101432 0,-0.4328 -0.605568,-1.674377 -1.354736,-2.777576 -0.24694,-0.363636 -0.448982,-0.71125 -0.448982,-0.772477 0,-0.165241 0.440868,-0.27475 0.597254,-0.148354 0.377803,0.305352 3.131293,1.744462 3.557044,1.859085 0.446653,0.120252 0.507227,0.111392 0.677686,-0.09911 0.166139,-0.205174 0.685954,-1.920707 1.491637,-4.922819 0.145598,-0.542524 0.307568,-0.986408 0.359934,-0.986408 0.467607,0 0.771986,0.534214 1.043862,1.832081 0.197538,0.942994 0.75303,2.627975 1.073397,3.255945 0.271347,0.531884 0.775033,0.815932 1.268778,0.715512 0.378753,-0.07703 2.054321,-0.891313 2.790951,-1.356326 0.542648,-0.342559 0.554609,-0.342181 0.554609,0.01753 0,0.377031 -0.458785,1.291347 -1.025338,2.043402 -0.527501,0.700219 -1.003844,1.568143 -1.003844,1.829062 0,0.365636 1.507354,0.952048 4.058365,1.578843 1.897256,0.466164 2.254648,0.628489 2.254648,1.024049 0,0.32851 -0.168899,0.445869 -0.641673,0.445869 -0.355089,0 -2.696189,0.724046 -3.528288,1.091214 -0.755765,0.333485 -1.083222,0.628408 -1.246269,1.122446 -0.173529,0.525798 0.07085,1.303783 0.978536,3.115162 0.401921,0.802075 0.689739,1.440416 0.639596,1.418535 -0.469302,-0.204792 -3.119045,-2.086397 -3.454879,-2.453338 l -0.432668,-0.472745 -0.412825,0.312983 c -1.011654,0.766983 -1.419278,1.700477 -1.820357,4.168771 -0.127964,0.787509 -0.644232,2.077219 -0.893068,2.231007 -0.06861,0.0424 -0.157234,-0.0149 -0.196952,-0.127334 z m 0.881345,-4.729943 c 0.103131,-0.301091 0.248509,-0.851815 0.323062,-1.223831 0.349134,-1.742166 1.169268,-2.481405 1.719694,-1.55007 0.237969,0.402651 0.251257,0.40935 0.279535,0.140916 0.120213,-1.141143 0.165835,-1.273762 0.600352,-1.745157 0.47727,-0.517776 1.019327,-0.75092 3.174676,-1.365454 0.604528,-0.172364 1.099141,-0.34572 1.099141,-0.385237 0,-0.03952 -0.443884,-0.215444 -0.986408,-0.390949 -1.0178,-0.329257 -2.298079,-0.956634 -3.18469,-1.560599 -0.665223,-0.453155 -1.777251,-1.571073 -2.246119,-2.258017 -0.4396,-0.644064 -1.361317,-2.466633 -1.361317,-2.691818 0,-0.08608 -0.06804,-0.249568 -0.151208,-0.363302 -0.134723,-0.184245 -0.178563,-0.09772 -0.402133,0.793684 -0.602082,2.400572 -2.006694,3.995903 -4.689772,5.326554 -1.044142,0.517833 -2.592602,1.145593 -2.82577,1.145593 -0.08832,0 -0.160581,0.04448 -0.160581,0.09884 0,0.05436 0.494614,0.212515 1.099141,0.351458 2.131231,0.489835 3.519593,1.217715 4.626213,2.425394 0.360717,0.393659 0.79489,0.971207 0.964829,1.28344 0.328883,0.604267 0.975619,2.373128 0.975619,2.668377 0,0.0972 0.05824,0.285547 0.129427,0.418558 0.126924,0.237159 0.136191,0.233977 0.479113,-0.164551 0.192327,-0.223513 0.434065,-0.652735 0.537196,-0.953825 z m 84.218413,4.613772 c -0.15789,-0.135694 -0.4052,-0.78695 -0.76126,-2.004705 -0.79546,-2.720536 -1.2867,-3.551068 -2.10039,-3.551068 -0.44813,0 -1.48149,0.421519 -2.90816,1.186274 -0.64008,0.34311 -1.17953,0.608095 -1.19877,0.588856 -0.0192,-0.01924 0.39068,-0.692843 0.91094,-1.496899 1.59267,-2.46149 1.98056,-3.106709 1.92334,-3.199282 -0.0302,-0.04892 -0.42445,-0.203653 -0.87606,-0.343861 -0.4516,-0.140208 -1.12397,-0.355035 -1.49416,-0.477393 -0.37019,-0.122358 -1.4551,-0.444901 -2.41092,-0.716762 -0.95582,-0.271861 -1.75773,-0.514165 -1.78202,-0.538455 -0.0924,-0.09237 0.18575,-0.630161 0.3795,-0.733845 0.11147,-0.05965 0.45632,-0.142652 0.76634,-0.184441 1.40324,-0.189156 3.82274,-1.025999 4.31867,-1.493712 0.3527,-0.332641 0.38413,-0.412631 0.33464,-0.851705 -0.0628,-0.556959 -0.25591,-1.000116 -1.01346,-2.325519 -0.50808,-0.88894 -0.53035,-0.960914 -0.35661,-1.152889 0.17834,-0.197063 0.20274,-0.194056 0.64931,0.08002 1.08919,0.668467 2.51152,1.319101 2.90628,1.329452 0.79947,0.02096 1.09127,-0.461032 1.83711,-3.034449 0.73296,-2.528946 0.97574,-3.241262 1.06768,-3.13251 0.20654,0.244321 0.78537,1.826731 1.25105,3.420173 0.54947,1.880126 1.11358,2.705575 1.84898,2.705575 0.35586,0 1.88387,-0.720901 2.90665,-1.371333 0.53335,-0.339181 0.76499,-0.344713 0.76499,-0.01827 0,0.09644 -0.30537,0.680832 -0.67859,1.298651 -1.15203,1.907004 -1.27505,2.460715 -0.67188,3.024159 0.47389,0.44268 2.94346,1.323155 4.28151,1.526487 0.54349,0.08259 1.12733,0.42431 1.12733,0.659829 0,0.268136 -0.41722,0.523401 -1.0272,0.628463 -0.78367,0.134979 -1.28981,0.276633 -2.47269,0.692027 -1.26766,0.44517 -1.79638,0.752655 -2.05469,1.194944 -0.20099,0.344143 -0.2027,0.396815 -0.0319,0.984358 0.16384,0.563607 1.08017,2.444542 1.3176,2.704644 0.20002,0.219112 0.0945,0.4002 -0.23309,0.4002 -0.52161,0 -0.7979,-0.152163 -1.64196,-0.90426 -1.28848,-1.148103 -1.76035,-1.221104 -2.52574,-0.390747 -0.73122,0.793275 -1.07886,1.692944 -1.52409,3.944216 -0.37076,1.874748 -0.39717,1.924294 -0.82829,1.553776 z m 0.6947,-3.583944 c 0.0918,-0.896384 0.57332,-2.292796 1.09193,-3.166839 1.01875,-1.716953 3.10348,-3.081465 5.70773,-3.735853 0.42115,-0.105826 0.78687,-0.206453 0.8127,-0.223617 0.10248,-0.06808 -0.12266,-0.164722 -1.51018,-0.648259 -1.95412,-0.680988 -2.93284,-1.257536 -4.11948,-2.426719 -1.07938,-1.063499 -1.6952,-2.097309 -2.13396,-3.582378 -0.13331,-0.45124 -0.28431,-0.794527 -0.33555,-0.76286 -0.0512,0.03167 -0.15123,0.288176 -0.2222,0.570017 -0.17507,0.695283 -0.91021,2.264512 -1.3366,2.853131 -1.21144,1.672342 -2.62815,2.754106 -4.70601,3.593385 -0.49602,0.200351 -0.90186,0.400333 -0.90186,0.444403 0,0.04407 0.27014,0.140969 0.60031,0.215329 1.6954,0.381836 3.54682,1.754126 4.69531,3.480205 0.51661,0.776407 1.61199,2.912994 1.98415,3.870154 0.17082,0.439332 0.29598,0.278535 0.37371,-0.480099 z M 105.3577,50.58541 c -0.28936,-0.103612 -0.55854,-0.525549 -0.56115,-0.879631 -10e-4,-0.186418 -0.0486,-0.490795 -0.10501,-0.676394 -0.0564,-0.185599 -0.23725,-0.794019 -0.40196,-1.352043 -0.34922,-1.18314 -0.87552,-2.285219 -1.22357,-2.562154 -0.51131,-0.406844 -1.39334,-0.146649 -3.203274,0.944952 -1.3866,0.836288 -1.47335,0.652473 -0.50068,-1.060902 1.530044,-2.695204 1.353404,-3.010517 -2.29019,-4.08799 -0.55803,-0.165018 -1.4592,-0.454253 -2.00261,-0.642745 -0.80449,-0.279054 -0.96421,-0.371392 -0.85987,-0.497117 0.0705,-0.08492 0.19455,-0.154405 0.27571,-0.154405 0.0812,0 0.92467,-0.24954 1.87446,-0.554535 0.9498,-0.304994 2.39907,-0.763741 3.22061,-1.019438 0.821534,-0.255697 1.493704,-0.502514 1.493704,-0.548483 0,-0.06801 -1.465714,-2.572471 -2.513914,-4.295538 -0.22521,-0.370203 -0.226,-0.383241 -0.0184,-0.303585 0.11929,0.04578 1.15639,0.645319 2.304664,1.332315 1.14826,0.686997 2.12559,1.270354 2.17182,1.29635 0.11384,0.064 0.22267,-0.218171 0.76933,-1.99463 0.25758,-0.837038 0.69092,-2.227262 0.96297,-3.089387 0.27206,-0.862125 0.49465,-1.632756 0.49465,-1.712514 0,-0.07976 0.0462,-0.173545 0.10258,-0.208414 0.0564,-0.03487 0.23986,0.380654 0.40763,0.923388 0.16778,0.542733 0.47373,1.519448 0.67989,2.170477 0.20616,0.65103 0.53816,1.71635 0.73778,2.367379 0.19962,0.651029 0.39521,1.221549 0.43463,1.267822 0.14791,0.173621 1.21397,-0.223935 1.90045,-0.708724 1.1543,-0.81515 1.85776,-1.235492 2.06765,-1.235492 0.4635,0 0.40261,0.335032 -0.31918,1.756201 -1.19538,2.35364 -1.00924,2.756661 1.63587,3.541911 0.5992,0.177884 1.46993,0.407966 1.93495,0.511293 0.92408,0.205331 1.35279,0.418735 1.35279,0.673403 0,0.2588 -0.9511,0.675566 -2.42375,1.062065 -0.74403,0.195273 -1.5557,0.424426 -1.80372,0.509229 -0.24801,0.0848 -0.74201,0.241797 -1.09779,0.348878 -0.35577,0.10708 -0.7002,0.258965 -0.7654,0.337522 -0.21808,0.26277 0.11543,1.155935 0.77075,2.064103 0.62666,0.868455 1.09649,1.857923 0.97531,2.054005 -0.10617,0.171776 -0.76876,0.120576 -1.06966,-0.08265 -0.1533,-0.103543 -0.54068,-0.43202 -0.86085,-0.729948 -0.32017,-0.297929 -0.7596,-0.626319 -0.97651,-0.729758 -0.37462,-0.178643 -0.41316,-0.177103 -0.76901,0.03073 -0.96575,0.564024 -1.57538,1.968043 -2.26539,5.217333 -0.15529,0.731256 -0.22743,0.827722 -0.53629,0.717129 z m 0.38211,-4.118696 c 0.13498,-0.714352 0.73329,-2.137319 1.19958,-2.853009 0.98309,-1.508905 2.63471,-2.697692 4.59143,-3.304772 0.54196,-0.168147 0.98539,-0.348083 0.98539,-0.399858 0,-0.05177 -0.40223,-0.24208 -0.89384,-0.422901 -2.84005,-1.044612 -4.75197,-3.025811 -5.63,-5.834003 -0.16306,-0.521522 -0.29647,-1.020362 -0.29647,-1.108534 0,-0.331158 -0.25207,-0.05683 -0.54575,0.593947 -1.47382,3.265857 -2.16084,3.986512 -5.803494,6.087631 -0.75511,0.435558 -1.35743,0.841394 -1.33848,0.901859 0.019,0.06046 0.3994,0.176844 0.84546,0.258622 0.44606,0.08178 1.228474,0.34431 1.738684,0.583405 2.33032,1.092024 3.66914,2.705214 4.80137,5.785344 0.1041,0.283195 0.26323,0.150912 0.34612,-0.287731 z"
       id="path1" /></g></svg>
