<?xml version="1.0" encoding="UTF-8"?>
<svg width="1200pt" height="1200pt" version="1.1" viewBox="0 0 1200 1200" xmlns="http://www.w3.org/2000/svg">
 <path d="m684.21 754.3c-12.305 23.215-16.609 49.41-17.891 75.379-0.33984 6.832-3.2461 10.152-6.3047 15.852-1.3203 2.4531-2.6406 5.0195-3.9648 7.4727-2.0391 3.7383-4.1523 5.4727-5.3203 10.004-0.83203 3.207-1.6602 5.5117-2.1133 8.832-0.26563 2.1523-0.71875 4.0781-0.90625 6.3047-0.26563 2.9062-0.22656 5.6992-0.56641 8.6055-0.22656 2.1523-0.30078 4.1133-0.45312 6.2656-0.15234 1.8125-0.64062 3.8867-0.94531 5.7383-0.49219 3.1719-1.3984 6.5664-2.0742 9.7383-0.41406 1.8867-0.94531 3.5469-1.3203 5.5117-0.52734 2.5273-0.94531 4.7578-1.625 7.2852-1.3984 5.0938-1.3203 12.492-1.4727 17.891 0 0.60547-0.11328 1.1719 0.15234 1.6992 0.71875-0.074218 0.64062-1.3203 0.67969-1.8477 0.52734-6.7578-0.039063-11.738 1.9609-18.531 0.90625-3.1328 1.3203-6.4531 2.2656-9.625 0.56641-1.9258 1.0195-4.0781 1.5469-6.0781 0.83203-3.2461 1.4336-6.5312 2.1133-9.7773 0.41406-2.0391 0.49219-4.9062 0.75391-7.0586 0.22656-1.8867 0.41406-3.2852 0.56641-5.1719 0.26562-3.5469 0.56641-5.8125 1.3594-9.2852 0.45312-2.0391 0.67969-3.5469 1.3984-5.625 2.0742-5.8125 1.9609-6.1914 6.0781-10.91 1.3594-1.5469 4.832-5.9258 6.7578-6.2266 1.5469-0.26562 1.2852 2.3789 1.3203 3.4336 0.56641 17.816 2.4531 35.633 5.1719 53.258 6 26.082 9.9258 36.348 11.363 43.066l9.0977 10.758c10.344 12.418 2.5273 16.418 15.965 22.004 4.5664 1.8867 9.1719 3.625 13.738 5.3984 6.9062 2.6406 9.4727 2.6055 12.492 7.2852 10.191-1.1719 24.383-3.4336 33.293-7.4727 15.211-6.8711 32.047-10.379 50.391-0.074218 18.383 10.305 22.875 28.648 40.727 28.648 8.3047-0.074219 17.324 6.793 25.668 4.9062 11.098-2.4531 22.27-4.8711 33.441-5.5117 3.6992-0.1875 7.4375-0.15234 11.172 0.15234 36.801 16.078 76.02 8.5312 113.73 4-28.648 4.5312-63.336 14.684-91.984 10.191 4.5312 6.0391 7.5508 16.984 15.098 21.477-13.551 1.5117-16.57-13.551-22.609-21.102-3.0195-3.0195-6.0391-4.5312-8.7188-4.6055-3.9648-0.45312-8.3398-0.22656-11.812-0.52734-4.1523 0-8.2656 0.26562-9.6992 1.2461-1.4336 0.98047 0.33984 4.418 2.8672 8.1914 2.5273 3.8125 5.7383 7.9648 7.0977 10.457 0.64062 6.3789 4.4922 15.25 5.5469 21.816 0.71875 7.6992-1.3203 11.398-1.625 9.2852-0.26562-2.1523-1.3984-7.8125-2.6055-13.285-1.207-5.4336-2.5273-10.645-3.1719-11.812-1.3203-2.3398-3.1328-5.7734-5.8867-8.1523-2.7539-2.3789-9.1719-9.2109-10.758-10.492-1.5859-1.2852-5.7734-3.4336-5.7734-3.4336-2.9453 0.71875-25.328 6.1133-26.609 6.9062-1.6602 0.98047 0.56641 3.2461 1.3594 4.1914 1.8477 2.1523 4.2656 4.4922 6.3047 6.5312 1.7344 1.7734 3.625 3.4336 5.3984 5.2461 2.7539 2.7539 5.5859 5.3594 8.3047 8.1914 2.1523 2.3008 4.6797 4.7578 7.0586 6.832 2.4922 2.2266 5.0938 3.1719 7.625 5.0586 1.6992 1.2461 1.4727 2.3398-0.33984 1.3594-1.9609-1.0586-4.3398-2.3398-6.2266-3.5117-2.2266-1.3984-5.5859-4.6055-7.6641-6.4922-2.8672-2.6055-5.5117-5.0195-8.4922-7.5117-2.2266-1.8477-4.0391-3.4727-6.3789-5.207-4.9805-3.6992-6.9844-5.9648-13.285-7.7383-2.6055-0.71875-4.4531-1.2461-7.1328-1.7734-1.1328-0.22656-2.3398-0.49219-3.4336-0.90625-0.75391-0.26562-1.0586-0.15234-1.1719 0.79297-0.22656 2 0.90625 4.0781 2.3008 5.3984 3.1719 2.9805 7.8125 3.9648 10.004 8.0781-12.078 1.5117-16.609-10.57-24.27-16.418-2.2266-2.1523-7.0195-6.793-11.965-11.398-4.9062-4.6055-9.9648-9.2109-12.719-11.363-5.5117-4.3047-13.137-9.4375-20.988-9.4375-7.8906 0-22.836 6.418-22.836 6.418l-6.7578 2.4531c6.5664 1.6992 7.625 4.1133 13.59 10.57 9.1719 9.9648 15.816 1.3594 26.383 4.5312 3.207 1.0586 8.1914 6 11.324 7.5508 3.1328 1.5469 8.3047 9.2852 11.324 11.324 16.496 17.551 23.363 29.969 47.484 32.988 4.5312 0.75391 8.6797 2.3398 12.57 4.5312 11.664 6.5664 20.988 18.457 31.176 28.648-7.9258-1.5117-10.004-4.418-17.324-9.4375-3.6602-2.4922-10.531-11.812-14.457-13.098-5.7383-2.3398-9.6992-2.3008-15.664-1.6602-3.1328 0.33984-6.6797-1.3203-9.3984-2.7539-2.5664-1.3594-3.7734-2.6406-6-4.2656-0.83203-0.56641-2.9805-2-3.6992-0.56641-0.75391 1.4727 2.5664 4.9805 3.5117 6.1133 1.5469 1.8867 3.7734 3.9258 5.5117 5.7383 2 2.1133 3.3594 3.5117 5.6602 5.3594 1.625 1.2852 3.207 2.9805 4.832 4.418 2.3008 2.0391 4.4922 3.9258 6.6445 6.1133 1.4336 1.4336 2.5664 2.4922 3.9258 4.0781 4.3789 5.0586 7.625 7.5508 9.9258 14.27 0.79297 2.3008 1.0195 4.7578 1.7734 7.1328 0.86719 2.832 1.8125 5.6602 3.2852 8.2656 1.2852 2.2656-0.79297-4.418 0.37891-1.1719 0.22656 0.67969 0.90625 2.8672-0.33984 2.9453-1.1328 0.074219-2.6406-3.6602-3.0586-4.5312-1.1328-2.5273-2.2266-6-2.8672-8.7188-1.625-6.793-4.9062-9.8516-9.8516-14.344-1.6992-1.5469-3.0195-2.793-4.8711-4.2266-4.3789-3.3594-8.9844-6.3047-13.363-9.7383-15.777-12.344-29.176-27.176-44.199-40.273-2.832-2.4922-5.7383-4.9062-8.793-7.1328-4.0391-2.9805-0.30078-1.9258-4.9805-3.9648-4.6445-4-13.664-6.6445-18.117-6.793-4.418-0.15234-12.344-1.5469-16.418-4.2266-3.1719-2.1133-12.984-7.3242-15.25-8.5664-1.7734-0.98047-14.984-3.7734-19.703-6.1523-0.71875 2.0391 12.344 8.7188 13.438 9.8906 2.4531 2.6055 5.5117 5.0195 8.1523 7.2109 4.0391 3.2852 8.0781 6.4922 12.191 9.6992 3.5117 2.793 6.9844 5.5859 10.457 8.5312 2.9453 3.625 7.4727 6.6445 10.492 9.6641 11.059 15.098 17.402 32.84 27.141 48.352 1.8867 2.832 16.871 12.039 21.102 14.758 2.2656 1.4336 4.4922 2.4141 6.7578 4.0391 1.9609 1.3984 3.8125 2.4922 5.7383 3.9648 2.1523 1.6602 4.418 2.8672 6.7188 4.2266 1.8867 1.1328 3.7734 2.7539 5.4336 4.1914 2.793 2.3008 5.1719 4.5664 7.5508 7.2852 2.0391 2.3008 4.2266 4.4922 6.3789 6.7188 0.71875 0.75391 3.7734 4.418 3.6602 5.2461-0.11328 1.2461-1.7344-0.15234-2.1133-0.49219-1.1328-1.1328-2-2.3789-3.207-3.5117-2.5273-2.4141-4.9062-4.793-7.3984-7.2852-2.4531-2.4922-8.6445-7.3594-11.699-8.832-2.7188-1.2852-5.1719-2.3008-7.7773-3.8516-1.6992-1.0195-3.8125-2-5.625-2.8672-2.0391-0.98047-5.1719-1.8125-7.4375-2.6055-9.0195-6.0391-21.102-9.0586-28.648-18.078-2.2656-2.793-4.2266-5.6602-6-8.6055-8.9453-14.832-13.398-31.441-27.441-43.105-3.2852-2.793-6.6445-5.4727-9.9648-8.1523-6.6797-5.3203-13.477-10.418-20.344-15.25-3.5469-2.4531-7.1328-4.8711-10.832-7.0586-2.1523-1.1328-4.418-2.0742-6.4922-3.4336-7.1719-4.6797-10.305-8.2266-18.457-10.832l-0.60547-0.1875c-7.5117-2.5273-9.4727-9.7383-15.398-13.551-0.56641-0.37891-0.41406 0.15234-0.26562 0.60547 0.41406 1.3594 1.0195 2.4531 1.4336 3.9648 0.22656 0.83203 1.6992 5.7383 1.3594 6.2266-0.79297-0.15234-3.7383-4.5664-4.7188-5.5859-1.4727-1.5469-3.5117-2.9805-5.1328-4.4922-2.8672-2.6406-5.6992-5.8867-7.9648-9.0977-1.9258-2.7539-4.1523-6.3789-5.7383-9.3594-1.7344-3.207-3.3594-8.6055-3.8125-12.23-0.26562-2.2656-0.71875-4.418-0.98047-6.7188-0.1875-1.8125-0.86719-4.1133-1.3203-5.8867 0.45312 2.2656 1.0586 3.9258 1.2461 6.3398 0.1875 2.1133 0.60547 4.0781 0.79297 6.1523 0.45312 4.832 2.2266 10.531 4.5312 14.797 1.6602 3.0586 3.0586 6 4.9062 8.9844 2.6055 4.2266 5.0938 8.3398 8.9844 11.586 3.0938 2.6055 4.9805 5.9258 6.9453 9.4375 0.71875 1.207 1.3594 2.4141 2.0742 3.625 2.6797 4.5664 5.625 8.6797 10.457 10.266 6.2656 2.3008 9.3594 5.7383 12.152 9.5508 2.793 3.7734 5.3203 7.8516 10.418 11.473 9.2852 7.7773 19.855 15.324 28.801 23.59 3.5469 3.625 6.4922 7.625 9.0586 11.738 2.1523 3.4727 4 7.0586 5.7383 10.719 1.7344 3.6602 3.3203 7.3594 4.9453 11.059 4.0391 8.3398 9.0977 18.156 14.758 25.441 0.98047 1.2461 3.3984 3.0586 4.6797 4.3047 1.5469 1.4727 2.9805 3.1328 4.4922 4.6797 1.625 1.6602 2.832 3.207 4.6797 4.6797 2.6055 2.0391 5.1328 4.2656 7.7383 6.3789 1.6602 1.3984 3.1328 2.832 4.7578 4.2656 2.1133 1.8867 4.1133 3.4727 6.0781 5.5469 0.71875 0.75391 1.8125 1.8867 2.5273 2.4922-0.37891-0.52734-2.0742-2.1523-2.6406-2.793 0 0-3.3203-3.4727-2.4141-2.6055 2.2656 2.1523 4.3398 4.4922 6.6055 6.7188 0.45312 0.45312 3.3984 3.1719 1.9258 3.6602-1.0938 0.37891-4.793-3.1328-5.6992-3.9648-1.6992-1.5469-3.1328-2.9453-4.9805-4.418-0.60547-0.49219-5.2852-4-5.2461-4.2656 0.039063-0.30078-7.1328-5.5469-7.8906-6.0391-1.3203-0.90625-2.9453-2-4.1914-2.9453-1.6602-1.2461-3.5859-3.207-5.2461-4.6797-2.793-2.4922-3.5469-3.5117-7.0195-5.2852-2.4922-1.2461-3.2852-1.8867-5.3984-3.7383-9.0586-7.8516-16.457-17.551-23.781-26.988-2.1133-3.5469-4.1523-7.2109-6.2266-10.758-8.418-14.23-17.777-26.949-31.855-26.949-13.059-0.98047-10.719 15.438-6.3789 31.855 1.0938 4.1133 2.3008 8.1914 3.5117 12.039 1.2461 3.8125 2.7188 7.2852 4.0391 10.152-3.8516-4.3398-8.7188-8.793-10.266-13.285-1.2461-3.5117-2.2656-7.0977-3.1328-10.645-4.3398-17.891-5.1719-36.121-16.383-51.297-3.3594-4.9805-7.2852-9.5859-12.039-13.625-1.6602-1.4727-2.1523-2.1523-2.4141-4.3398-0.26562-2.5273-1.7734-1.6992-2.2656 0.52734-0.1875 0.90625-0.30078 2.1133-0.30078 3.0586 0 0-0.30078-6.0391-0.64062-3.8867-0.37891 2.2266 0.11328 6.2656 0.64062 8.4922 0.71875 2.9062 1.5859 5.9258 2.3789 8.832 0.75391 2.9062 1.8125 6.2656 2.9453 9.0195 0.75391 1.8867 1.3984 3.7734 2.1133 5.625 0.52734 1.3203 1.1328 2.6055 1.625 4 0.56641 1.4727 0.98047 2.5273 1.4727 4.0781 0.75391 2.6406 1.4336 3.8867 2.5273 6.3398 0.15234 0.37891 1.6602 3.4336 0.45312 3.2461-0.60547-0.074218-2.0391-3.2852-2.3789-3.9258-1.0195-2-1.5859-3.4336-2.2656-5.625-0.90625-2.8672-2.5273-6-3.6992-8.832-1.1719-2.832-2.4531-5.3203-3.4727-8.1914-0.79297-2.2266-1.625-4.2656-2.3789-6.5664-1.1719-3.5859-2.832-6.8711-3.8125-10.605-0.67969-2.4531-1.2852-4.9805-1.9609-7.4727-1.0195-3.6992-2.1875-4.6055-4.6055-7.3242-1.1719-1.3203 0-0.52734-0.64062-1.5469-3.0586-4.6055-8.4531-9.4375-12.832-12.871-2.1523-1.6992-3.3203-2.832-5.1719-4.7578-2.9062-3.0195-5.7383-6.0391-8.1172-9.5117-1.8125-2.6406-3.1328-5.0938-4.6445-7.8906-1.207-2.1875 1.625 3.9648 1.625 3.9648 2.0742 4.3047 4.0781 7.8516 6.7578 11.812 1.6602 2.4141 3.207 4.832 4.9062 7.2461 0.83203 1.207 2 2.832 2.3398 4.2656 2.4531 10.344 6.3789 20.875 10.719 30.574 1.5117 3.3594 3.0586 6.6445 4.6797 9.9258 3.3984 7.0586 5.8516 14.531 7.8125 22.156 1.0195 3.8516 1.8867 7.6992 2.7539 11.586 5.7383 21.176-6.3398 51.297 32.875 61.863 5.3594 1.4336 7.5508 3.3984 6.0391 6.0391-3.7734 0.37891-7.8125 0.45312-11.926 0.15234-4.0781-0.33984-8.1914-1.0938-12.078-2.3789-3.8516-1.1328-7.625-2.8672-10.832-5.207-3.207-2.3789-5.8867-5.3594-7.3594-9.1328-1.0586-2.4922-1.2461-4.5664-4.4531-2.793-2.4531 1.3594-10.305 9.1328-11.965 11.625-2.2266 3.3984-4.4922 9.0977-5.1328 13.059-0.41406 2.8672-0.49219 5.7383-0.94531 8.5312-0.074218 0.56641-0.41406 2.6797-1.3203 2.3789-0.64062-0.22656-0.26562-2.793-0.22656-3.4336 0.37891-5.5859 0.22656-8.793 2.0391-14.27 1.625-4.832 2.6055-7.4375 5.7383-11.512 2.3008-2.9805 3.9258-5.1328 5.7734-8.4531 2.0742-3.8125 3.7734-6.9062 3.2852-11.398-0.83203-7.5859-1.9258-14.984-3.5469-22.457-3.7734-17.438-7.6992-34.234-18.117-49.105-2.3008-3.6992-4.7188-7.1328-7.3594-10.152 0 5.2852 0 10.945-0.71875 16.609-0.79297 6-0.79297 12.039-5.3203 16.57-0.074219-6.7188-3.5859-12.23-6.6797-17.965-1.3984-2.6055-2.5664-3.1719-3.4336-6.4922-0.98047-3.6992-0.75391-6.3398 0.11328-10.004 1.8125-7.3594 1.3594-12.797-1.7344-19.742-0.86719-1.9609-2.1875-4-3.207-6-1.0938-2.1523-1.6992-3.4336-2.6055-5.7383-1.8477-4.832-2.7188-9.8125-4.3047-14.719-0.71875-2.2266-1.207-4.2656-2.0391-6.5312-0.83203-2.2266-1.5117-4.6055-2.3398-6.9062-1.0586-2.9062-1.5859-6.3047-2.4531-9.3242 1.0586 3.4336 1.5469 6.6055 2.832 10.078 0.86719 2.3789 1.625 4.793 2.4922 7.1719 0.75391 2.0742 1.3203 4.3398 2.0391 6.4531 1.0938 3.2461 1.8125 6.7188 2.9062 10.039 0.64062 1.8867 1.2852 3.8516 2.1523 5.6602 0.52734 1.1328-0.67969-1.5859-0.67969-1.625-1.625-4.1133-2.5664-7.8125-3.6992-12.039-0.56641-2.1133-1.3203-4.1914-1.9609-6.3047-0.60547-2.0391-1.4336-4.1914-2.1133-6.2266-0.83203-2.4531-1.6602-4.6055-2.3008-7.0977-0.60547-2.3789-1.1719-4.6055-1.8125-6.9844-1.4336-5.0195-1.5469-12.57-1.6602-17.891-0.11328-4.7188-0.22656-9.4727-0.22656-14.191 0-3.8125 0.83203-7.9258 1.0586-11.777 0.22656-3.5117 0.83203-6.9844 0.90625-10.492 0-0.49219 0.039062-0.71875-0.074219-1.1719-0.56641 0.11328-0.41406 0.33984-0.49219 1.0195-0.30078 2.6055-0.41406 5.0938-0.79297 7.6992-0.30078 2.4531-0.33984 4.832-0.71875 7.3594-0.45312 3.1719-0.71875 6-0.67969 9.2109 0 7.8516-0.11328 16.418 0.49219 24.195 0.26562 3.0938 0.67969 4.9453 1.4727 7.9258 0.90625 3.3203 1.3594 6.2656 2.5273 9.5859 0.83203 2.3789 1.5859 4.832 2.3789 7.2461 0.64062 2 1.1328 4.0781 1.7734 6.1133 1.0586 3.2852 1.6602 6.9062 2.6797 10.305 1.2852 4.3047 2.3398 7.0195 4.3789 11.059 1.3984 2.7188 2.3008 4.1914 3.1328 7.2109 1.7344 6.2266 1.2461 10.344-0.94531 16.305-1.2461 3.2852-1.4336 5.3203-1.9609 8.7188-0.64062 4.418-1.7344 4.6445-3.8516 8.3047-2.7188 4.7188-4.4922 9.5859-5.6992 14.871-0.71875 3.1719-1.2461 6.418-1.5859 9.7383-0.074219 5.3984-0.30078 6 2.6797 10.605 3.1328 4.8711 7.9258 9.2109 11.812 13.551 2.1523 2.4531 4.793 7.1328 5.9258 10.191 0.64062 1.7734 1.3203 3.4336 1.9258 5.2461 1.207 3.5469 2.832 7.0586 4.1523 10.605 0.56641 1.5469 1.625 3.625 2.4141 5.0938 0.83203 1.625 1.5469 2.7188 2.3008 4.4922 0.30078 0.71875 1.5859 3.5117 1.4727 4.0391-0.22656 1.0938-1.2461-0.37891-1.4727-0.75391-1.1328-2.0391-1.8867-4.0391-3.1328-6.1133-0.83203-1.3203-1.7344-3.0938-2.4922-4.4922-0.71875-1.3203-1.3203-3.0195-1.9609-4.418-1.3984-3.0195-2.6406-6-3.8867-9.0977-2.6055-6.3789-5.3594-10.832-11.172-14.758-1.1719-0.79297-7.7773-5.5859-8.3789-2.4141-0.1875 0.98047-0.074219 5.5859-0.11328 6.9453-0.11328 10.984-0.67969 22.156-3.1719 32.875-0.90625 3.8516-2.1523 14.758-3.3984 18.457-3.8125 7.8125-6.0391 13.211-10.57 13.965 4.5312-9.0586 3.0195-19.59 5.7383-28.875 0.60547-4.6055 0.94531-9.2109 1.0586-13.816 0.37891-13.93-1.0938-26.688-2.832-40.426-0.26562-2.1133-0.11328-3.5117-0.60547-5.7383-0.37891-1.7734-0.64062-3.0195-0.86719-4.832-0.83203-5.9648-1.6992-11.926-2.4531-17.891-0.1875-4.2656-0.22656-8.5312 0-12.832 0.22656-4.2656 0.67969-8.5312 1.4336-12.797-3.5859 3.0195-6.9453 6.1914-10.152 9.5117-3.207 3.3203-6.2266 6.7578-9.1719 10.344-2.8672 4.1133-5.8867 8.1523-8.9453 12.117-2.6797 3.4727-3.5469 4-3.4336 8.6055 0.074219 3.4727 1.1328 6.9062 1.9609 10.266 1.3984 5.5469 3.0586 9.8125 5.8867 14.832 1.3203 2.3789 2.2656 5.0586 2.7188 7.6992 0.90625 5.4336 0.90625 12.832 0.94531 18.457 0 1.7734-0.26562 4.1914-0.41406 6.0391-0.22656 2.3398-0.56641 4.4922-0.71875 6.9062-0.22656 3.7734-0.26562 6.6445 0.60547 10.379 0.67969 2.9805 2.2656 5.5859 2.6055 8.7188 0.11328 1.0195-0.49219 1.2461-0.86719 0.039062-0.60547-2.0742-0.94531-3.2461-1.7734-5.3203-1.4727-3.5469-2-7.4727-1.9609-11.285 0.074219-4.7188 0.75391-9.1719 0.94531-13.816 0.11328-2.5664-0.15234-6.3789-0.30078-9.0195-0.26562-4.4922-0.60547-10.57-2.5664-14.57-0.79297-1.625-1.207-2.3008-2.2266-3.8125-2.8672-4.3398-4.832-8.3047-7.1328-12.91-0.75391-1.4727-4.2656-7.7773-6.418-6.418-1.2852 0.83203-7.2109 8.3789-8.4531 10.078-2.4531 3.3594-2.4922 3.8125-2.5273 7.8906-0.039063 2.4531 0.86719 8.6445 1.3984 11.098 0.56641 2.6055 1.3203 4.9453 1.7734 7.5508 0.33984 1.8867 0.79297 3.7734 1.1328 5.6992 0.41406 2.0742 1.1719 3.7383 1.5117 6 0.37891 2.5664 0.83203 4.832 1.0195 7.4375 0.1875 2.1133 0.56641 4.0781 0.71875 6.2266 0.37891 5.3984 0.37891 11.473 0.30078 16.91 0 0.41406 0.11328 2.4922-0.71875 2.0742-0.79297-0.41406-0.75391-5.3594-0.75391-6.418-0.15234-5.6602-0.26562-11.137-1.3203-16.723-0.41406-2.1133-0.56641-4.0391-1.0586-6.1914-0.60547-2.5273-0.83203-4.1523-1.8477-6.5664-0.67969-1.6602-1.1328-3.3594-1.6992-5.0586-0.75391-2.2266-1.207-3.8125-2.2266-6-0.64062-1.3984-3.1328-7.5859-4.793-7.5508-1.207 0.039062-2.7539 4.2656-3.207 5.3594-9.4375 22.684-10.23 47.184-3.6992 70.773-6.793-0.75391-8.0039-7.7773-9.8125-12.457-1.7734-4.6797-1.8867-12.57-3.0195-17.324-4.3398-18.723-3.7734-38.086 4.832-55.41 1.5859-4.6055 3.5117-9.0977 5.8125-13.477 2.2656-4.3789 4.9062-8.6797 7.8906-12.797 2.3789-4.3398 4.7578-8.6445 7.0195-12.984 2.2656-4.3398 4.4922-8.6797 6.4922-13.023 1.4727-3.5859 2.832-7.2109 4.0391-10.871 1.5469-5.3984 2.7539-10.984 4.9805-16.496 2-4.3789 3.2852-4.9062 3.3984-10.266 0.074219-3.1328-0.26562-6.0391-0.039062-9.2461 0.33984-4.9453 0.56641-8.9844 2-13.777 1.2852-4.3398 2.1133-8.418 3.7383-12.684 1.625-4.2266 1.2852-7.2109 2.2266-11.398 0.71875-3.0586 0.75391-5.0195 0.98047-8.0391 0.22656-3.0586 1.5469-8.6445 2.793-11.473 1.3203-2.832 2.2266-4.1523 4.0391-6.6797 1.8125-2.5273 3.5117-6.3789 4.1133-9.4375 0.26562-1.3984 0.52734-2.9453 0.75391-4.3398 1.1719-6.5664 0.79297-13.324 1.0195-19.969 0.15234-5.0195 2.3789-10.645 4.1133-15.363 1.3984-3.8516 1.2461-7.625 1.8125-11.586 1.0586-7.6992 0.75391-16.23 0.86719-24.043 0-1.3203-0.37891-1.0938-0.45312-0.039062-0.22656 3.8125-0.15234 8.0781-0.22656 11.926-0.074219 4.5312-0.26563 8.2656-0.90625 12.758-0.56641 4.2656-0.30078 7.2109-2 11.438-1.4727 3.6992-3.4336 9.3242-3.8516 13.211-0.30078 2.7188-0.22656 6.1914-0.30078 9.0586-0.15234 4.8711-0.33984 9.0977-1.3203 13.93-0.75391 3.6992-0.64062 4.4922-2.3789 8.0391-1.0195 2.0742-1.4336 2.8672-2.832 4.6797-2.4922 3.207-4.3398 6.9844-5.3594 10.945-0.79297 3.1719-1.2461 4.6797-1.5117 8.0391-0.26562 3.1328-0.64062 4.7578-1.3594 7.7383-0.75391 3.0938-0.64062 5.6602-1.8477 8.832-0.52734 1.3984-1.1328 2.7188-1.6602 4.1133-1.2852 3.4336-2.3008 6.793-3.5859 10.23-1.4336 3.8516-1.9609 6.6797-2.832 10.605-0.37891 1.8867-0.90625 3.625-1.2852 5.5117-0.75391 3.8516-1.1328 7.8906-3.3594 11.285-0.83203 1.2852-1.1719 2-1.8125 3.3594-0.75391 1.5469-1.6602 2.9453-2.6055 4.3398-3.5117 5.2461-6.793 9.9258-10.305 14.27-2.6406 2.4531-5.2461 4.9062-7.7773 7.4727-2.5273 2.5273-4.9453 5.1719-7.3242 7.8516-3.625 3.207-6.6797 6.7188-9.4727 10.457-2.793 3.7383-5.2852 7.6641-7.6992 11.664-4.832 8.7578-9.3594 19.324-16.871 26.875 1.5117-7.5508 1.5469-14.684 4.9062-20.762 2.6797-5.5859 6.793-19.629 6.0391-26.383-4.1133-1.5469-6.9844 7.4727-10.797 7.9648-5.0938 1.3203-10.379 9.625-14.457 12.039-4.1133 2.4141-20.043 12.57-23.402 15.816-20.57 21.93-18.078 38.461-40.727 59.562 6.0391-25.629 19.629-57.297 41.332-74.434 4.1523-2.9453 8.3398-5.8125 12.379-8.6055 4.0391-2.793 7.9648-5.5859 11.586-8.3047 3.625-3.0195 6.793-6.1523 9.3594-9.5117 3.3594-3.3594 6.2266-6.793 8.5312-10.344 2.793-3.7734 5.8867-7.2109 12.117-9.5117 8.793-3.0195 11.586-14.23 17.211-21.062 1.0195-1.2461 1.8477-1.9609 2.9453-3.0938 3.0195-3.1719 2.6055-7.2109 4.2656-11.211 1.207-2.9062 4.7578-6.793 6.793-9.5117 2.5273-3.3594 3.7383-4.0391 5.0586-8.2656 0.56641-1.8125 1.3203-3.625 1.8867-5.4336 0.75391-2.4531-0.71875-2.6055-1.8867-0.60547-1.6992 2.832-2.2656 6.3789-4.418 8.832-1.1719 1.3203-2.5273 2.6406-3.7383 4-2.9453 3.2852-6.4531 5.8125-9.1328 9.2852-2.1133 2.7188-3.3594 5.1719-5.9258 7.6641-2.793 2.6797-4.7578 4.9805-7.2109 7.9258-2.4531 2.9062-4.6445 5.1328-8.3789 6.3789l-0.60547 0.1875c-8.1523 2.6055-11.324 6.1523-18.457 10.832-2.0742 1.3594-4.3398 2.3008-6.5664 3.5117-3.6602 2.1523-7.2461 4.5312-10.758 6.9844-3.2852 2.4141-6.5312 4.832-9.7383 7.2461-4 2.7539-7.9258 5.5859-11.777 8.5312-18.117 13.852-35.215 28.914-52.316 44.012-2.3008 2.0391-4.5664 4.6445-6.793 6.8711-2.6406 2.6797-5.3203 5.3203-8.0039 7.9648-1.4336 1.3984-4.3047 4.9453-5.3203 6.6797-1.2461 2.1133-1.8867 4-2.832 6.2266-1.625 3.8125-2.7539 7.3984-3.8867 11.363-0.15234 0.56641-1.3203 4.9805-2.5273 3.625-0.56641-0.64062 0.83203-5.5117 1.0586-6.418 0.90625-3.5859 1.9609-6.8711 3.2852-10.344 1.0938-2.8672 1.4727-4.4531 3.207-7.2109 1.0195-1.5859 2.5273-3.4336 3.6992-4.9453 1.4336-1.8125 3.5859-3.8516 5.207-5.625 2.9453-3.207 5.3203-5.8125 7.8125-9.3984 8.1914-11.586 18.156-24.156 28.574-33.746 3.7383-3.4336 7.625-6.5664 11.777-9.4727 3.4727-2.4531 7.0586-4.6797 10.832-6.6797 3.0195-3.0195 4.5312-7.5508 5.8516-10.152 0.56641-1.8125 0.64062-3.9258-0.52734-5.3984-2.4141-3.1328-5.9258 1.5117-8.1523 2.9453-4.2656 2.832-8.6055 4.1133-12.984 5.625-21.703 13.625-43.332 29.707-58.469 50.691-1.2461 1.7344-2.4922 4.1133-3.5859 5.9648-0.75391 1.2461-1.3594 2.4922-2.1133 3.7734-1.8867 3.0938-3.8516 6-5.5117 9.2109-1.1328 2.0742-2.0391 3.7734-3.0586 5.9648-1.0195 2.2266-2.3008 4.5312-3.3984 6.793-0.83203 1.6602-1.625 2.9453-2.3008 4.7578-1.3984 3.5859-2.9805 7.8906-3.625 11.625-0.26562 1.4727-0.52734 2.8672-0.79297 4.3047-0.1875 0.90625 0.37891-1.1719 0.37891-1.1719 0.33984-1.4727 0.56641-3.0195 0.94531-4.4922-0.30078 1.3594-0.98047 6.6445-2.1875 7.2109-1.5117 0.71875-0.67969-3.4727-0.60547-4.0781 0.37891-3.0586 0.64062-4.7578 1.5469-7.7773 1.1328-3.8516 2-7.0977 3.6992-10.758 0.83203-1.7734 1.5469-3.8867 2.3789-5.7383 1.0938-2.4922 1.8477-4.9062 3.0195-7.3984 0.83203-1.8125 1.3984-3.3203 2.4141-5.1719 1.5469-2.832 2.832-5.1328 4.0391-8.1523 0.94531-2.3789 1.7344-4.2266 2.5273-6.6445 1.2852-4 2.1133-7.625 2.1133-11.852-12.078 1.0195-26.461 2.9062-37.594 7.7383-5.207 2.2656-9.6992 6-14.004 9.6992-2.1523 1.8477-4 3.5469-6.2656 5.3203-1.7344 1.3203-3.3594 2.5664-5.0586 3.9648-5.0938 4.2656-8.8711 7.3242-12.305 13.211-1.5117 2.6055-1.8477 6-3.0938 7.9648-0.75391 1.1719-1.9609 1.2852-1.4336-0.64062 0.56641-1.9258 1.0195-4.0781 1.625-5.9258 1.0586-3.3594 4.2266-7.9648 6.6055-10.605 2.3398-2.6055 5.1328-5.3984 7.6641-7.8125 1.1719-1.1328 2.3789-2.1523 3.5469-3.2852 2.4531-2.3789 4.832-5.1719 7.2109-7.6992 3.4336-3.5469 6.6055-6.6797 10.457-9.7773 5.8125-4.6797 12.379-9.4375 19.855-10.945 0.56641-0.11328 1.0938-0.1875 1.6602-0.26563 28.648-1.5117 43.746-22.609 66.508-34.953 3.0938-1.5117 6.2656-2.793 9.4727-3.8516 10.645-3.1719 15.363-2.6406 24.57-12.645 6.3789-6.9062 14.496-5.4336 21.402-7.6992l-20.422-7.2109s-14.945-6.418-22.836-6.418-15.477 5.1328-20.988 9.4375c-5.5117 4.2656-20.195 18.457-24.684 22.723-4.4531 4.3047-7.0977 7.7383-11.891 12.039-4.7578 4.3398-14.117 5.1328-12.039 4.6797 1.0586-0.22656 5.2461-4.3398 8.5312-8.2656 3.2852-3.8867 5.7383-7.5508 3.2852-6.793-4.832 1.5117-11.285-1.7344-15.59-3.207-2.1523-0.75391-9.4375-2.6406-16.117-4.3047-14.684-8.7578-24.121 4.4531-33.367 14.043-3.0938 3.207-5.1719 5.9648-7.6992 9.625-1.3203 1.9609-2.5273 3.5469-3.7383 5.5859-2.0742 3.5117-4.4531 6.6055-7.0586 9.6641-1.0938 1.2461-1.8125 2.1523-3.0586 3.3594-2.832 2.793-5.3594 5.5859-8.3398 8.2656-1.8125 1.625-6.4922 6.1914-7.625 8.1523-0.49219 0.79297-3.0195 6.4922-4 5.3203-0.41406-0.49219 0.71875-2.2266 0.98047-2.7539 1.8477-3.7383 1.6602-3.8516 4.6055-7.0586 1.8125-2 3.4336-3.6992 5.3984-5.5469 2.7188-2.5664 5.3203-5.6992 7.8906-8.4531 2.3008-2.4531 5.3594-6.9453 6.9453-9.8906 2-3.6992 3.6992-7.5859 5.5859-11.398 2.4531-4.9805 3.4336-7.6641 7.3242-11.812 1.8477-1.9609 4.418-4.0391 6-5.9648 0.83203-0.98047 1.5117-2.0391 0.26562-2.9805-18.117-12.078-40.352-4.1523-49.41 18.457-0.15234 1.8125-3.1328 5.2852-4.3398 6.832-1.7344 2.1875-3.0195 3.625-4.9805 5.5469-2.2656 2.2266-4.1133 4.6055-6.4922 6.832-2.6406 2.5273-5.0938 5.0938-7.8516 7.5117-3.625 3.1719-6.0781 5.8125-8.5664 9.9648-0.26563 0.45312-3.3984 6.2266-4.2266 4.6445-0.33984-0.67969 1.5859-3.625 1.9609-4.3398 2.0391-3.6602 3.5859-6.0781 6.418-9.2109 2.0742-2.3008 4.6445-4.4531 6.7578-6.832 2.1133-2.4141 4.0781-4.4922 6-7.0977 1.3203-1.8125 2.6055-3.5859 4-5.3984 2.0742-2.7188 3.6992-5.8125 4.832-9.0195 1.2852-3.8516 2.6406-5.1719 4.832-8.4922 1.6602-2.5273 3.5117-5.5117 3.5469-8.6055-21.102 6.0391-53.562 12.832-73.152 5.2852 4.5312 0 9.0586 3.0195 15.098 1.5117 45.258-7.5508 88.965-30.16 134.3-17.324 4.1133 0.90625 8.0391 1.8125 11.738 2.6055 7.3594 1.625 13.625 2.8672 18.078 2.8672 17.855 0 25.703-23.137 44.086-33.441 18.383-10.266 34.5-10.379 49.711-3.5117 8.2656 3.6992 17.703 2.7188 27.629 3.9648 2.9805-4.3789 5.5469-4.418 12.344-6.9844 4.5664-1.7344 9.1719-3.5117 13.738-5.3984 13.438-5.5859 14.609-7.0195 24.988-19.438 3.6992-17.176 6.832-9.3242 7.2852-29.48l2.9805-20.422c4.0781-26.461 6.6445-53.223 6.0391-79.98-0.039062-2.0742-0.22656-5.0586 2.7188-2.9453 4.4922 3.207 6.9062 6.3047 10.266 10.531 1.8477 2.3008 3.3594 3.625 4.832 6.418 1.625 3.0195 2.3789 5.0586 3.0586 8.4531 0.52734 2.7188 1.3203 5.0938 1.7734 7.8516 0.33984 2 0.90625 3.9648 1.3984 5.9258 0.37891 1.4336 0.94531 2.832 1.3594 4.3398 0.33984 1.207 2 6.5664 2.6406 7.0586 0.83203 0.60547 0.60547-0.94531 0.49219-1.2852-0.49219-2.1133-1.3594-4.2656-1.8867-6.4531-0.41406-1.625-0.94531-3.0195-1.3203-4.6797-0.41406-1.9609-0.83203-3.3203-1.1328-5.3984-0.37891-2.793-1.1719-5.4336-1.625-8.3047-0.79297-5.207-3.0586-9.9258-6.2656-14.078-1.6602-2.1523-3.1719-4.793-4.832-7.0977-1.8867-2.6055-3.8125-5.1328-5.3594-7.9648-2.3789-4.3789-4.793-8.1172-6.4922-12.871-0.83203-2.3008-1.2461-3.5117-1.5859-6-2-15.816-5.6992-31.742-12.457-46.238-1.8867-4.0781 4.418-2.5273 6.1914-1.8125 2.4922 0.98047 5.0938 2.7188 7.4727 4.1133 3.2852 1.8867 5.625 3.3594 8.6445 5.6602 0.64062 0.49219 3.5469 2.8672 4.1914 1.6602 0.49219-0.90625-2.3398-3.0938-3.0195-3.7383-4-3.5117-8.418-6.2266-12.531-9.6641-2.8672-2.3398-6.5312-4.3789-9.7773-6.1914-4.0781-2.3008-4.4531-1.8867-7.7383-5.8516-2.0391-2.4531-3.7734-7.0586-5.1328-10.152-12.492-27.742-27.027-49.219-55.145-63.148-22.309-11.023-48.164-14.457-72.848-14.719-18.418 0-32.234 0-45.672 4.1133-66.922 24.684-104.55 69.98-193.33 53.484-4.6055 0-0.33984-4.1133 4.2656-4.1133 93.758 20.57 147.36-53.484 224.55-65.828-24.043-12.344-56.617-16.457-80.32-24.684-40.727 8.2266-77.188 12.344-119.99-4.1133-0.33984-4.1133-0.33984-4.1133-0.33984-4.1133 42.805 16.457 79.266 12.344 110.44 0-32.801-20.043-58.922-48.992-70.434-82.738-3.5859-10.531 1.5117-6.3047 5.0195 0.33984 4.832 9.2109 7.6992 15.852 13.777 24.875 48.918 72.66 145.7 79.266 227.49 86.172l1.4336 0.15234c-19.098-26.234-39.027-51.219-55.484-78.812-2.7188-4.6055-1.0938-3.2852-6.832-4.2656-25.59-4.6445-35.781-10.191-57.676-22.609-8.832-5.0195-18.949-7.1328-28.949-8.2656-5.1328-0.60547-10.832 0.26562-16.457-0.039062-5.8867-0.30078-14.496-1.0586-20.117-3.0195-10.117-4-18.949-11.777-24.949-20.004-2.9453-4.1133 8.4531 6.6797 8.5312 6.7188 12.605 9.625 20.043 9.8125 35.367 11.363 6.3047 0.64062 19.703 1.3203 18.797-7.0586-0.52734-4.8711-8.7188-10.379-12.719-14.832-12.305-13.816-23.137-32.234-30.195-48.504 6.1133-0.074218 4-0.98047 7.2109 4.7578 10.344 18.496 22.723 37.746 39.141 52.73 7.625 6.9453 10.57 11.324 20.383 17.062 18.344 10.719 39.105 18.949 60.617 19.93-3.2461-9.2461-7.3984-18.57-10.758-28.008-5.8867-16.57-10.117-31.82-14.645-48.578-2.6406-9.8516-8.1523-10.91-16.156-17.438-7.1328-5.9258-13.25-12.871-19.969-18.383-5.625-4.6055-10.871-6.4531-17.477-9.4727-6.9062-3.1719 6.4922-0.1875 7.6992 0.1875 18.23 6.1914 33.102 24.195 38.047 25.816 5.3203 1.7344 1.8125-11.965 1.3984-14.758-2.9805-18.723-7.4727-37.027-7.3984-55.75 0-3.1719-0.41406-6.1523 3.6992-4.6055 1.7344 6.1914 4.1133 14.496 4.9805 21.25 1.9609 15.023 5.5469 28.836 8.0039 43.633 1.1719 7.1328 2.5273 14.984 8.0781 20.836 5.5859 5.3594 10.57-6 12.305-9.1328 4.7578-19.062 7.4727-5.3203 13.891-23.703-0.75391-7.0977 4-16.758 2.4141-3.8516-0.039062 17.137-7.3984 8.6055-10.418 35.027-5.4727 12.684-15.664 11.473-9.0977 30.648 0.94531 2.7539 5.0586 18.078 11.473 30.082 5.1719 9.6992 12.605 16.418 13.512 18.457 9.5859 21.551 10.531-8.2656 17.363-17.855 6.4531-8.793 10.91-15.512 20.648-21.891 5.9648-3.6602 9.2852-0.83203 6.6445-0.11328-2.4922 0.71875-5.0586 5.2852-6.6445 7.3242-7.5508 9.6992-10.457 14.871-13.965 26.461-4.4922 17.176-6.793 28.836 1.0938 46.617 2.8672 6.418 11.324 14.117 16.23 20.457 6.9844 9.0195 14.344 17.477 21.363 26.609 2.5664 3.3203 9.0586 13.363 13.965 12.418 2.6055-0.49219 4.6445-3.5469 5.9258-5.3594 6.2266-9.4727 5.3984-23.137 5.7383-34.309 0.33984-11.25 0.56641-19.516 2.5273-30.688 1.8125-10.266 1.625-20.309 3.5117-30.875 1.2461-7.0195 3.5469-18.609 0-25.441-2.6797-4.3789-8.9844-9.3594-12.945-13.211-10.23-10.379-18.836-20.309-28.383-31.062-11.285-12.719-19.289-13.512-30.688-23.289-11.098-9.5117-16.344-24.383-16.609-37.332-0.1875-9.8516 3.5117-0.71875 4.1133 2.9453 2.1133 11.965 0.41406 17.25 10.871 27.629 10.078 9.9648 22.383 12.984 33.406 23.969 4.7188 4.832 22.23 25.816 35.102 31.742 2.6797 1.2461 5.8125 6.4922 7.9648 6.1523 2.7539-0.45312 4.2656-7.2109 5.4336-11.398 3.2852-11.664 4.5312-30.988 2.2266-43.18-2.1133-11.285-1.4727-8.0391 0.71875-17.023-0.41406 0.26563 0.49219-2.4531 0.11328-2.1523-14.609-20.762-28.043-42.238-38.273-65.715-44.5-6.1133-92.289-17.742-111.05-63.715 2.9805-1.207 5.207 1.1719 9.6641 6.5664 12.191 26.609 41.105 38.086 70.961 44.539 9.4375 2.0391 18.949 3.5859 28.082 4.9453-14.043-36.766-14.078-46.277-10.684-86.398 0.75391-3.9648 2.6406-5.3984 5.8125-5.1328-2.9805 35.555 0.79297 55.223 10.984 82.812 9.2852 25.137 22.684 47.898 37.668 69.793 1.625-12.379 3.3203-29.254 7.625-35.48 1.0586 4.5664-1.1719 45.18-2.1523 52.125-1.4727 10.605 1.207 15.703 1.3594 25.703 0.26563 18.984-6.8711 37.895-8.6055 56.883-1.0195 12.039-2.1523 22.535-3.9648 34.5-1.4336 9.6992 4.0781 10.719 12.457 6.3047 16.457-8.7188 16.797-32.84 34.727-44.426 1.7344-1.0586 6-3.0586 10.457-4.793l0.37891 4.4922c-1.4727 0.56641-2.4922 0.94531-2.6055 0.98047-15.363 6.6797-18.117 22.988-25.703 35.82-7.3984 12.23-13.137 15.477-23.137 24.988-11.438 10.91-8.3789 20.988-7.8906 35.141 0.67969 19.023-0.56641 30.84-3.3594 49.297-1.4727 9.625-0.56641 12.191 6.4531 20.309 13.625 14.945 26.27 32.348 36.348 49.863 1.2852 2.2266 1.9609 4.6445 2.6406 7.1328 0.41406 1.4727 1.3203 3.0195 1.8125 4.6055 1.207 3.9258 1.7344 11.172 1.8867 15.398 0.074218 1.5469-0.41406 4.1523-0.52734 5.8867-0.15234 1.6992-0.1875 2.6406-0.49219 4.3789-0.45312 2.3789-0.56641 4.6055-1.0938 6.9062-1.4336 6.1914-1.207 13.59-1.2461 19.969 0 0.75391-0.11328 4 0.45312 4.3789 1.2461 0.83203 1.207-5.3203 1.207-5.8867 0.1875-6.1133 0.1875-12.531 1.8867-18.418 0.60547-2.0391 0.75391-4.1133 1.3203-6.3047 0.37891-1.4727 0.67969-2.4531 0.90625-4.0391 0.26562-2.0391 0.71875-3.5469 1.1328-5.4727 0.33984-1.5859 0.41406-4.8711 0.56641-6.6445 0.26562-3.8125 0.52734-7.7383 0.86719-11.512 0.33984-4.0781 2.1523-6.6797 4-10.23 2.1133-4.0781 4.0781-8.1523 5.9258-12.344 7.7773-17.59 16.496-37.293 21.742-62.508-27.254-10.945-37.52-36.879-46.766-61.75 1.4336-9.7773-0.22656-11.777 6.832-4.4922 7.5117 20.195 20.082 43.52 42.16 53.863 3.7734-25.102 3.9648-55.336-2.9453-93.496-1.1328-6.1133-3.625-14.117-6.5312-23.402-10.344-32.953-23.703-73.227-4.0391-129.24-4.4922-17.629-30.082-51.711-36.992-73.375-9.5117-25.781-16.871-55.977-14.117-89.117 3.7383-7.5508 5.3594 2.0391 5.2852 9.0586-2.6406 31.594 6.3789 50.504 15.438 75.039 0.60547 1.6602 1.2461 3.2852 1.8867 4.9062 35.102-1.5469 89.457-14.609 104.29-55.484 6.0391-6.3398 3.9258-5.3984 4.4531 1.8125-17.891 43.898-64.016 54.316-106.74 60.77 8.0391 17.855 20.195 36.5 31.328 52.578 3.3594-8.5312 2.832-8.4531 7.7383-17.402 3.8516-4.4531 9.4375-4.1914 6.0391 2.6406-26.121 47.898-24.422 78.852-6.6445 129.58 1.6602 4.7578 4.3789 6.5312 9.2852 3.2461 13.59-10.266 18.23-33.895 16.457-49.07-1.5469-13.211-2.4531-20.457-0.52734-33.895 0.26562-1.7344 1.625-13.363 4.8711-12.645 1.8477 0.41406 0.15234 9.5508 0 10.984-1.5117 12.832-1.2852 19.516 0.49219 32.195 1.3203 9.1719 1.3984 14.418 0.45312 23.629-0.074218 0.67969-0.15234 1.3594-0.22656 2.0742-1.7734 12.152-8.2266 28.195-13.703 39.445-7.1719 14.609-4.1133 18.723 1.1719 32.914 0.49219 1.3984 1.0195 2.793 1.5469 4.1914 18.57 102.74-15.664 133.66-23.402 231.72 3.3203 8.2656 5.5117 15.25 7.4727 23.895 0.90625 3.9258 1.5859 7.9648 2.4531 11.926 0.45312 2.1133 1.0586 3.8867 1.3984 6.0781 0.64062 3.7734 0.90625 8.3789 1.1719 12.23 0.22656 2.9805 0.41406 5.9648 0.56641 8.9453 0.11328 1.8867-0.074219 4.4531-0.15234 6.3789-0.15234 4.0391-1.9609 8.7578-3.3984 12.531-0.90625 2.3398-2.1523 4.6797-3.0586 7.0586-1.1719 3.0195-2.2266 5.5469-3.207 8.6797-0.56641 1.7734-1.0195 3.0586-1.3984 4.9453-0.49219 2.3398-0.90625 3.9258-1.1719 6.3789-0.41406 4.0391-1.2852 6-0.64062 10.266 0.33984 2.3008 0.49219 4.3398 0.98047 6.6445 0.074219 0.30078 0.67969 3.625 0.67969 3.625 0.37891 0.71875 0.67969-0.41406 0.67969-0.98047-0.039063-1.6992-0.75391-3.8867-0.90625-5.7383-0.33984-3.8516-0.86719-5.5117-0.26562-9.5508 0.26562-1.7344 0.56641-3.4336 0.83203-5.207 0.75391-5.5859 3.2852-12.457 5.5859-17.629 1.4727-3.3594 3.1328-6.4922 4.4922-9.9258 1.6602-4.2266 3.0586-7.2461 3.4336-11.926 0.1875-2.2266 0.52734-4.1523 0.56641-6.418 0.15234-6.6445 0.56641-13.438 0.49219-20.082-0.039063-3.8125-0.64062-7.1719-0.49219-11.059 0.1875-3.9648 0.75391-5.4336 1.8477-9.2109 14.457-48.352 30.422-86.586 64.922-124.45 7.0586-8.1172 7.9258-10.684 6.4531-20.309-2.793-18.457-4-30.273-3.3594-49.297 0.49219-14.191 3.5469-24.27-7.8906-35.141-10.004-9.5117-14.645-13.363-23.137-24.988-6.9453-9.4727-5.8125-10.418 8.7578 1.9609 2.7188 2.3008 5.625 4.418 8.5312 5.9648 8.3398 4.418 13.891 3.4336 12.457-6.3047-1.7734-11.965-2.9453-22.422-3.9648-34.5-1.6992-18.984-8.832-37.895-8.6055-56.883 0.15234-10.004 2.832-15.098 1.3203-25.703-0.98047-6.9453-3.207-47.559-2.1133-52.125 4.6445 6.6797 6.2656 25.781 8.0039 38.234 28.309-40.801 47.559-80.02 51.938-126.3 0.67969-7.1719 3.1719-13.625 3.0938-21.176 1.5117-3.3594 3.3203-5.5859 4.7188-0.83203-1.6602 66.129-17.137 104.52-54.73 157.85-0.71875 1.3203-1.4336 2.6055-2.1523 3.9258 2.3789 11.023 2.9453 3.2852 0.67969 15.285-2.3008 12.23-1.0195 31.555 2.2266 43.18 1.1719 4.1914 2.7188 10.91 5.4336 11.398 2.1523 0.33984 5.2461-4.9062 7.9648-6.1523 12.871-5.8867 30.348-26.875 35.102-31.742 10.984-10.984 23.289-13.965 33.406-23.969 10.492-10.344 8.7578-15.664 10.871-27.629 0.64062-3.6992 4.3047-12.832 4.1133-2.9453-0.26562 12.945-5.5117 27.816-16.609 37.332-11.398 9.7773-19.402 10.57-30.688 23.289-9.5508 10.758-18.156 20.684-28.383 31.062-3.9258 3.8516-10.23 8.8711-12.945 13.211-3.5469 6.832-1.2461 18.418 0 25.441 1.8867 10.57 1.6992 20.57 3.5117 30.875 1.9609 11.137 2.1523 19.402 2.5273 30.688 0.33984 11.172-0.49219 24.836 5.7383 34.309 1.2852 1.8125 3.3203 4.8711 5.9258 5.3594 4.9062 0.94531 11.398-9.0977 13.965-12.418 7.0195-9.1328 14.383-17.59 21.363-26.609 4.8711-6.3398 13.363-14.004 16.23-20.457 7.8906-17.742 5.5859-29.441 1.0938-46.617-3.5117-11.551-6.418-16.758-13.965-26.461-1.5859-2.0391-4.1914-6.6055-6.6445-7.3242-2.6406-0.71875 0.67969-3.5469 6.6445 0.11328 9.7773 6.3789 14.191 13.059 20.648 21.891 6.832 9.5859 7.7773 39.406 17.363 17.855 0.90625-2.0391 8.3398-8.7578 13.512-18.457 6.3789-12.004 10.531-27.328 11.473-30.082 6.5664-19.176-3.6602-17.965-9.1328-30.648-6.9453-16.078-8.7188-22.684-7.9648-31.594 1.6602 0.98047 3.5117 1.7344 5.4336 2.1875 0.71875 6.5312 3.0586 12.605 8.4531 21.93 1.7344 3.1328 6.7188 14.496 12.305 9.1328 5.5469-5.8867 6.8711-13.703 8.0781-20.836 2.4531-14.797 6.0781-28.609 8.0039-43.633 0.86719-6.7578 0.98047-16.004 2.7188-22.195 4.1133-1.5469 3.6602 1.4727 3.6992 4.6055 0.074218 18.723-2.1523 37.973-5.1719 56.695-0.45312 2.832-3.9648 16.496 1.3984 14.758 4.9453-1.625 19.777-19.629 38.047-25.816 1.207-0.37891 14.609-3.3594 7.6992-0.1875-6.6055 3.0195-11.852 4.8711-17.477 9.4727-6.7188 5.5117-12.871 12.457-19.969 18.383-7.9648 6.5312-13.477 7.5859-16.156 17.438-4.5312 16.758-8.793 31.969-14.645 48.578-3.3594 9.4375-7.5508 18.758-10.758 28.008 21.516-0.98047 42.238-9.1719 60.617-19.93 9.7773-5.7383 12.758-10.117 20.383-17.062 16.418-14.984 28.801-34.234 39.141-52.73 3.207-5.7383 1.0938-4.832 7.2109-4.7578-7.0977 16.27-17.93 34.688-30.234 48.504-3.9648 4.418-12.191 9.9648-12.719 14.832-0.90625 8.3789 12.492 7.6992 18.797 7.0586 15.324-1.5469 22.762-1.7344 35.367-11.363 0.039062-0.039062 8.5664-5.7383 5.5859-1.625-6 8.2656-11.891 11.059-22.082 14.91-5.5469 2.1133-14.191 2.7188-20.082 3.0195-5.625 0.26562-11.324-0.56641-16.457 0.039062-10.004 1.1328-20.117 3.2852-28.949 8.2656-21.93 12.379-32.121 17.965-57.676 22.609-5.7383 1.0195-4.1133-0.33984-6.832 4.2656-16.496 27.594-36.426 52.578-55.484 78.812l1.4336-0.15234c81.793-6.9062 178.57-13.512 227.49-86.172 6.0781-9.0195 8.9453-15.664 13.777-24.875 3.5117-6.6797 8.6055-10.871 4.9805-0.33984-11.473 33.746-37.633 62.695-70.395 82.738 31.176 12.344 67.641 16.457 110.44 0l-0.33984 4.1133c-42.805 16.457-79.266 12.344-119.99 4.1133-23.703 8.2266-56.242 12.344-80.32 24.684 77.188 12.344 130.79 86.438 224.55 65.828 4.6055 0 8.8711 4.1133 4.2656 4.1133-88.816 16.457-126.41-28.801-193.33-53.484-13.438-4.1133-27.254-4.1133-45.672-4.1133-103.8 1.0586-119.2 59.297-137.17 98.781zm385.23-370.66c33.668-10.645 48.652-42.578 33.668-71-33.668 7.0977-48.652 42.578-33.668 71zm-580.45 387.53c-25.25-17.324-28.949-52.43-5.3203-73.34 22.082 15.172 25.816 50.277 5.3203 73.34zm221.64 12.004c27.629-16.418 33.973-52.918 10.645-76.434-24.195 14.383-30.5 50.879-10.645 76.434zm-535-411.54c-31.176-11.738-39.559-41.934-19.777-63.188 27.93 14.383 39.559 41.934 19.777 63.188zm73.453 186.99c-23.023-10.078-29.176-35.934-14.609-54.125 20.609 12.305 29.176 35.934 14.609 54.125zm171.1 68.773c-27.062-6.7188-38.574-33.859-26.043-56.469 24.836 9.6641 38.574 33.859 26.043 56.469zm-56.355-99.008c-22.422-16.496-22.797-46.012-2.5664-62.129 19.289 18.383 22.797 46.012 2.5664 62.129zm186.27 155.93c12.344-22.27 1.3984-46.879-21.59-52.578-8.9844 22.609-1.3594 46.879 21.59 52.578zm18.457 22.684c24.234-13.738 28.082-42.992 9.9258-61.41-21.324 15.965-28.082 42.992-9.9258 61.41zm66.621-2.4531c24.234-13.738 28.082-42.992 9.9258-61.41-21.324 15.965-28.082 42.992-9.9258 61.41zm-368.66-61.562c18.949-20.457 48.277-17.477 62.016 4.4531-20.422 17.098-48.277 17.477-62.016-4.4531zm86.551-26.574c-10.984-25.629 3.6602-51.219 29.254-54.883 7.3242 25.629-3.6602 51.219-29.254 54.883zm120.22-21.402c-11.473-22.988 0-51.711 25.855-57.449 14.344 22.988-2.8672 48.844-25.855 57.449zm84.586 41.934c11.398-25.441-2.8672-51.258-28.422-55.297-7.6992 25.516 2.8672 51.258 28.422 55.297zm125.39 18.23c3.7734-27.594-17.176-48.391-42.84-45.066-0.22656 26.648 17.176 48.391 42.84 45.066zm105.61-149.62c0-25.93-22.684-45.371-48.578-38.879 0 22.684 22.684 42.086 48.578 38.879zm146.91 34.688c23.969 7.6992 45.711-7.6641 46.844-30.988-23.668-4.418-45.711 7.6641-46.844 30.988zm-59.336 103.35c15.398 16.191 43.938 8.7188 55.336-11.137-17.137-12.418-43.898-8.7188-55.336 11.137zm51.598-450.27c-22.23 16.797-22.195 46.277-1.7734 62.168 19.062-18.609 22.195-46.277 1.7734-62.168zm-193.26 407.16c12.379-24.762 0-55.676-27.816-61.863-15.438 24.762 3.0938 52.578 27.816 61.863zm61.523-28.309c-10.758 19.59 4.9453 44.539 27.367 49.371 6.6445-20.082-4.9453-44.5-27.367-49.371zm-382.36 152.75c23.289 17.629 17.742 55.75-6.418 73.453-18.609-20.422-17.742-55.75 6.418-73.453zm-64.848-0.64062c23.477 11.512 25.176 45.973 6.9844 65.676-19.891-14.758-25.176-45.973-6.9844-65.676zm30.574 25.816c-23.102-29.367-14.684-71.602 20.457-87.344 20.195 25.703 11.812 67.941-20.457 87.344zm-54.578-10.797c14.496 27.816-8.3789 62.242-39.973 68.32-8.6797-28.383 8.3789-62.242 39.973-68.32zm135.17-6.418c-30.273-4.6797-48.844-34.688-36.574-63.75 26.496 4.1133 45.066 34.121 36.574 63.75zm-102.97-70.773c15.098 27.48-6.9453 62.43-38.387 69.262-9.3242-28.156 6.9453-62.43 38.387-69.262zm-62.922 28.348c16.57 30.535-1.5469 69.941-33.973 75.719-16.57-30.535 1.5469-69.941 33.973-75.719zm-195.9 43.258c3.3594 33.254-25.555 55.938-53.484 53.898-4.418-30.047 22.309-56.996 53.484-53.898zm142.53-13.59c3.3594 33.254-25.555 55.938-53.484 53.898-4.418-30.047 22.309-56.996 53.484-53.898zm-60.055 4.9453c-7.4375 33.48-40.953 52.125-70.734 37.219 3.7383-29.781 37.254-48.391 70.734-37.219zm-41.18-17.098c-14.758 23.629-47.219 20.27-64.922-3.3594 20.648-20.23 50.164-20.23 64.922 3.3594zm983.98-60.016c-10.379 29.367 16.91 60.055 48.805 61.637 4.6055-29.141-16.91-60.055-48.805-61.637zm-1075.7-35.215c-9.1719 29.742 19.324 59.336 51.219 59.637 3.4336-29.289-19.324-59.297-51.219-59.637zm807.11 111.57c-23.477 11.512-25.176 45.973-6.9844 65.676 19.891-14.758 25.176-45.973 6.9844-65.676zm-30.574 25.816c23.102-29.367 14.719-71.602-20.422-87.344-20.195 25.703-11.812 67.941 20.422 87.344zm-793.71-304.87c-14.457 27.816 8.3789 62.242 39.973 68.32 8.6797-28.383-8.3789-62.242-39.973-68.32zm518.66-272.11c-14.344-25.289-3.0195-54.051 22.156-61.375 10.684 25.781 3.0195 54.051-22.156 61.375zm-36.953-65.602c-14.344-25.289-3.0586-54.051 22.117-61.375 10.684 25.781 3.0586 54.051-22.117 61.375zm-52.09-39.066c-22.23-18.758-21.551-49.637-0.49219-65.223 18.949 20.496 21.551 49.672 0.49219 65.223zm18.156 177.06c-14.344-25.289-3.0195-54.051 22.156-61.375 10.684 25.781 3.0195 54.051-22.156 61.375zm266.03 495.6c31.555-6.0781 49.898-38.273 35.895-68.32-27.594 5.3203-45.938 37.52-35.895 68.32zm-261.77-577.01c3.7734-27.594-17.176-48.391-42.84-45.066-0.22656 26.648 17.176 48.391 42.84 45.066zm197.56 443.39c3.7734-27.594-17.176-48.391-42.84-45.066-0.22656 26.648 17.176 48.391 42.84 45.066zm-76.512-29.934c3.7734-27.594-17.176-48.352-42.84-45.066-0.22656 26.648 17.176 48.391 42.84 45.066zm-74.508-64.129c3.8516-24.535 27.062-36.914 48.125-27.555-6.6445 22.797-27.062 36.914-48.125 27.555zm47.824-37.406c9.5117-26.195-6.5312-50.918-32.309-53.145-5.8867 26.008 6.5312 50.918 32.309 53.145zm-37.18-61.184c27.855 0.37891 45.973-22.875 39.594-47.973-26.461 2.9805-45.973 22.875-39.594 47.973zm-299.62-112.25c-28.461 24.875-68.055 17.211-83.945-13.816 30.047-20.23 68.055-17.211 83.945 13.816zm331.82 55.031c-20.797 18.57-49.711 12.832-61.336-10.305 21.93-15.098 49.711-12.832 61.336 10.305zm-36.461-129.8c-28.008-12.758-34.273-42.84-15.172-63.074 24.91 15.25 34.273 42.84 15.172 63.074zm-126.67-99.457c29.441-4.6055 44.5-34.008 33.52-60.957-27.367 8.1523-44.5 34.008-33.52 60.957zm-45.219 151.55c29.402-4.6055 44.5-34.008 33.52-60.957-27.367 8.1523-44.5 34.008-33.52 60.957zm56.277 39.332c19.59-13.551 46.125-6.5664 54.77 16.418-17.137 11.852-43.672 4.8711-54.77-16.418zm-33.254 109.05c-11.098-25.289 2.6797-53.977 30.762-58.77 9.6992 22.117-4.0781 50.805-30.762 58.77zm81.113-131.13c-0.75391-27.855-24.797-44.953-49.559-37.555 4.0781 26.309 24.797 44.953 49.559 37.555zm-70.848-183.86c-33.066-3.3594-50.805-29.516-39.332-54.203 30.875 6.6445 50.805 29.516 39.332 54.203zm63.336 140.26c-33.066-3.3594-50.805-29.516-39.332-54.203 30.875 6.6445 50.805 29.516 39.332 54.203zm2.793-144.79c-9.5117-26.195 6.5312-50.918 32.309-53.145 5.8867 25.969-6.5312 50.918-32.309 53.145zm20.383 190.01c-9.5117-26.195 6.5312-50.918 32.309-53.145 5.8867 25.969-6.5312 50.918-32.309 53.145zm9.7383 44.312c-9.5117-26.195 6.5312-50.918 32.309-53.109 5.8867 25.969-6.5312 50.918-32.309 53.109zm-81.945-17.137c-20.91-12.152-20.797-38.5-1.4336-55.371 17.891 14.156 20.797 38.5 1.4336 55.371zm20.496 83.793c-9.5117-26.195 6.5312-50.918 32.309-53.145 5.8867 26.008-6.5312 50.918-32.309 53.145zm78.133 50.543c11.098-26.988-9.6992-63.676-45.145-67.109-9.6992 31.895 12.871 65.449 45.145 67.109zm-172.95-85.152c-9.5117-26.195 6.5312-50.918 32.309-53.109 5.8867 25.969-6.5312 50.918-32.309 53.109zm31.668 11.926c-8.9062-21.59 7.7773-50.957 36.16-53.75 7.7773 25.555-10.266 52.43-36.16 53.75zm26.156-194.12c-25.516-13.512-32.988-47.484-14.719-72.699 27.742 16.043 32.988 47.484 14.719 72.699zm-80.547 1.5859c-37.027 12.344-74.094-8.2266-78.207-41.141 32.914-16.457 69.98 8.2266 78.207 41.141zm-24.836 49.637c-37.027 12.344-74.094-8.2266-78.207-41.141 32.914-16.457 69.98 8.2266 78.207 41.141zm73.566 71.262c-27.027 10.152-57.41-6.7578-64.168-37.141 30.387-10.152 57.41 6.7578 64.168 37.141zm-30.613 32.914c-37.027 12.344-74.094-8.2266-78.207-41.141 32.914-16.457 69.98 8.2266 78.207 41.141zm-61.676 15.137c-29.176 19.176-64.055 6.8711-74.281-23.816 30.008-14.684 64.055-6.8711 74.281 23.816zm-26.008 28.348c-13.438 23.555-50.465 26.914-70.66 6.7188 13.477-26.914 53.824-30.273 70.66-6.7188zm224.96-195.86c-29.402 12.152-58.844-8.1172-62.129-40.5 26.156-16.23 55.562 8.1172 62.129 40.5zm-114.63 66.355c-29.441 12.152-58.844-8.1172-62.129-40.5 26.156-16.191 55.562 8.1172 62.129 40.5zm-2.2656 146.98c-37.027 12.344-74.094-8.2266-78.207-41.141 32.914-16.457 69.98 8.2266 78.207 41.141zm-264.75 154.15c-37.027 12.344-74.094-8.2266-78.207-41.141 32.914-16.457 69.98 8.2266 78.207 41.141zm229.08-63.414c-10.984-25.629 3.6602-51.219 29.289-54.883 7.3242 25.629-3.6602 51.219-29.289 54.883zm274.56-346.35c0-27.629 24.195-48.352 51.785-41.445 0 24.195-24.195 44.879-51.785 41.445zm-188.5 358.92c0-27.629 24.195-48.312 51.785-41.445 0 24.195-24.195 44.879-51.785 41.445zm-48.199 43.293c-3.3594 26.723-33.406 50.125-60.129 40.086 0-30.047 30.047-50.125 60.129-40.086zm-81.227 120.07c-28.801 8.2266-61.715-12.344-61.715-41.141 24.684-8.2266 57.598 12.344 61.715 41.141zm186.39-124.14c-11.512-22.988 0-51.711 25.855-57.449 14.383 22.988-2.8672 48.844-25.855 57.449zm-300.23-155.93c-25.176 9.4375-53.484-6.3047-59.789-34.613 28.309-9.4375 53.484 6.3047 59.789 34.613zm2.2656 101.8c-25.176 9.4375-53.484-6.3047-59.789-34.613 28.309-9.4375 53.484 6.3047 59.789 34.613zm-17.703 23.328c-21.062 24.535-56.129 28.043-77.188 3.5117 17.551-24.57 52.617-28.082 77.188-3.5117zm51.07-46.578c-30.121 7.5117-60.168-18.797-60.168-52.656 30.082-7.5117 60.168 18.797 60.168 52.656zm-24.684 135.62c-19.59 22.875-52.238 19.59-71.828-3.2852 19.59-19.59 55.523-19.59 71.828 3.2852zm-8.2266-68.395c-3.625 28.949-39.785 50.617-72.359 36.16 7.2461-32.535 43.406-50.617 72.359-36.16zm48.312-38.426c-8.9844 27.027-42.727 34.16-63.488 15.965 10.117-24.156 41.027-30.121 63.488-15.965zm154.49-276.6c-37.027-12.344-53.484-49.371-37.027-82.324 37.027 8.2266 53.484 49.371 37.027 82.324zm-149.32 387.61c-37.027-12.344-53.484-49.371-37.027-82.324 37.027 8.2266 53.484 49.371 37.027 82.324zm-82.059-204.92c-18.043 24.496-53.297 28.723-74.434 11.285 18.609-27.816 53.863-32.082 74.434-11.285zm196.8 131.2c-18.043 24.496-53.297 28.723-74.434 11.285 18.609-27.816 53.863-32.082 74.434-11.285zm-30.914-270.48c-13.438 23.555-50.465 26.914-70.66 6.7188 13.477-26.914 53.824-30.273 70.66-6.7188zm-33.18 212.66c-13.438 23.555-50.465 26.914-70.621 6.7188 13.438-26.914 53.824-30.273 70.621-6.7188zm-127.96-138.04c-33.555 11.172-67.109-7.4727-70.848-37.293 29.855-14.91 63.375 7.4727 70.848 37.293zm126.67 117.65c-33.555 11.172-67.109-7.4727-70.848-37.293 29.82-14.91 63.375 7.4727 70.848 37.293zm-57.598 242.48c-37.027-12.344-53.484-49.371-37.027-82.324 37.027 8.2266 49.41 49.371 37.027 82.324zm-45.258-4.1133c-32.953 4.1133-65.867-24.684-61.715-61.715 32.914-8.2266 65.828 20.57 61.715 61.715zm638.95-496.62c-10.004-28.383 6.8711-55.223 33.973-57.598 6.1523 28.156-6.8711 55.223-33.973 57.598zm-152.3-21.102c-10.004-28.383 6.8711-55.223 33.973-57.598 6.1523 28.156-6.8711 55.184-33.973 57.598zm-85.984 104.06c-10.004-28.383 6.8711-55.223 33.973-57.598 6.1523 28.156-6.8711 55.223-33.973 57.598zm48.617 16.984c22.797-16.078 23.742-45.52 3.8516-62.055-19.629 17.965-23.703 45.52-3.8516 62.055zm46.918-186.54c-11.098-31.367 7.625-60.996 37.668-63.637 6.832 31.102-7.625 60.996-37.668 63.637zm-56.543 101.8c-11.098-31.367 7.625-60.996 37.668-63.637 6.832 31.102-7.625 60.996-37.668 63.637zm-47.145 8.3789c-9.5117-26.195 6.5312-50.918 32.309-53.145 5.8867 25.969-6.5312 50.918-32.309 53.145zm86.738-126.75c9.5117-26.195-6.5312-50.918-32.309-53.145-5.8867 26.008 6.5312 50.918 32.309 53.145zm18.117 167.4c9.5117-26.195-6.5312-50.918-32.309-53.145-5.8867 25.969 6.5312 50.918 32.309 53.145zm-10.457-198.28c28.801-14.191 35.215-47.633 15.59-70.129-25.59 16.949-35.215 47.633-15.59 70.129zm20.344 171.93c28.801-14.191 35.215-47.633 15.59-70.129-25.59 16.949-35.215 47.633-15.59 70.129zm-185.89-113.5c26.043-9.8906 51.031 5.8125 53.598 31.555-25.895 6.2266-51.031-5.8125-53.598-31.555zm102.55 194.54c26.043-9.8906 51.031 5.8125 53.598 31.555-25.895 6.2266-50.992-5.8125-53.598-31.555zm242.55-192.95c19.629-26.949 10.23-62.355-17.742-75.227-15.477 28.156-10.23 62.355 17.742 75.227zm61.637 170.54c25.062-21.969 23.629-58.582-0.83203-77.266-21.289 24.082-23.629 58.582 0.83203 77.266zm-279.96 157.85c21.516-17.703 20.344-47.145-0.71875-62.203-18.305 19.363-20.344 47.145 0.71875 62.203zm32.461 6.9062c26.383-8.9453 35.668-36.914 21.289-58.43-23.969 11.664-35.668 36.914-21.289 58.43zm27.289 70.129c9.5117-26.195-6.5312-50.918-32.309-53.145-5.8867 26.008 6.5312 50.918 32.309 53.145zm176.57-327.37c4.9453-23.93 36.613-39.672 62.883-25.363-8.2266 26.723-39.672 39.406-62.883 25.363zm-239.8 179.48c4.9453-23.93 36.613-39.633 62.883-25.363-8.2266 26.723-39.633 39.406-62.883 25.363zm24.797-76.32c27.328-5.3984 49.332 14.27 47.559 40.047-26.574 1.8125-49.332-14.27-47.559-40.047zm165.44-52.504c-11.777-26.762 8.0781-52.09 39.934-54.316 7.2461 26.574-8.0781 52.09-39.934 54.316zm344.58 139.58c-18.191-20.797-50.051-20.422-66.281 2.9453 15.93 18.156 47.746 17.816 66.281-2.9453zm-153.85-124.41c-18.191-20.762-50.012-20.422-66.242 2.9453 15.93 18.191 47.746 17.855 66.242-2.9453zm-43.746-125.16c-18.191-20.762-50.051-20.422-66.281 2.9453 15.93 18.191 47.746 17.816 66.281-2.9453zm-135.73 144.79c-18.191-20.797-50.051-20.422-66.242 2.9453 15.93 18.156 47.746 17.816 66.242-2.9453zm6.6445 134.75c11.098-25.289-2.6797-53.977-30.727-58.77-9.7383 22.117 4.0781 50.805 30.727 58.77zm-64.543-166.64c-11.172-27.707 7.625-53.898 37.859-56.242 6.8711 27.516-7.625 53.898-37.859 56.242zm-11.473-13.285c9.7773-30.648-6.7188-59.602-33.215-62.203-6.0391 30.422 6.7188 59.602 33.215 62.203zm-16.984 48.918c9.5117-26.195-6.5312-50.918-32.309-53.145-5.8867 25.969 6.5312 50.918 32.309 53.145zm-13.512 45.824c9.5117-26.195-6.5312-50.918-32.309-53.109-5.8867 25.969 6.5312 50.918 32.309 53.109zm69.188 19.93c9.5117-26.195-6.5312-50.918-32.309-53.145-5.8867 25.969 6.5312 50.918 32.309 53.145zm-7.7773 46.766c9.5117-26.195-6.5312-50.918-32.309-53.145-5.8867 26.008 6.5312 50.918 32.309 53.145zm-78.133 50.543c-11.098-26.988 9.6992-63.676 45.145-67.109 9.7383 31.895-12.832 65.449-45.145 67.109zm90.137-262.71c9.5117-26.195-6.5312-50.918-32.309-53.145-5.8867 26.008 6.5312 50.918 32.309 53.145zm48.238 176.46c9.5117-26.195-6.5312-50.918-32.309-53.145-5.8867 26.008 6.5312 50.918 32.309 53.145zm24.121-208.32c24.836-14.684 30.762-48.918 11.363-73.266-26.949 17.289-30.762 48.957-11.363 73.266zm-29.402 151.59c24.836-14.684 30.762-48.957 11.363-73.301-26.949 17.289-30.762 48.957-11.363 73.301zm20.57 42.652c27.141-9.8906 39.219-42.465 24.609-69.98-29.668 12.078-39.219 42.5-24.609 69.98zm23.895-11.625c37.027 12.344 74.094-8.2266 78.207-41.141-32.914-16.457-69.98 8.2266-78.207 41.141zm80.812-101.69c26.422 16.418 57.977 5.8867 67.223-20.422-27.141-12.57-57.977-5.8867-67.223 20.422zm53.598 158.76c37.82 1.3203 59.449-31.215 47.746-66.961-35.52 3.5117-59.449 31.215-47.746 66.961zm-27.48-93.191c21.816 16.156 57.035 4.3047 67.375-22.309-23.137-19.211-61.449-6-67.375 22.309zm-45.219 76.926c21.816 16.117 57.035 4.3047 67.375-22.309-23.176-19.211-61.449-6-67.375 22.309zm-227.91-210.54c37.633-10.379 56.922-48.125 41.973-77.754-36.539 4.6797-53.484 45.859-41.973 77.754zm145.81 230.66c37.027 12.344 74.094-8.2266 78.207-41.141-32.914-16.457-69.98 8.2266-78.207 41.141zm104.37-194.01c34.121-0.90625 58.391-28.914 51.938-57.184-31.969-3.6992-54.996 27.668-51.938 57.184zm-64.996 226.96c32.348 10.797 64.734-7.2109 68.355-35.973-28.801-14.383-61.148 7.2109-68.355 35.973zm31.516 17.211c-19.703-19.703-48.918-15.59-61.789 6.8711 21.102 16.27 48.918 15.59 61.789-6.8711zm-111.57 24.91c0-20.043-17.551-35.027-37.555-30.047 0 17.551 17.516 32.535 37.555 30.047zm38.086 177.71c-15.098 27.48 6.9453 62.43 38.387 69.262 9.3242-28.156-6.9844-62.43-38.387-69.262zm273.28-74.773c3.8516 30.953 38.652 58.016 69.602 46.465v-2.4141c-1.5469-33.48-35.594-55.371-69.602-44.047zm-298.6-22.609c3.8867 30.953 38.727 58.051 69.68 46.426 0-34.84-34.84-58.051-69.68-46.426zm107.01 111.31c28.801 8.2266 61.715-12.344 61.715-41.141-24.684-8.2266-57.598 12.344-61.715 41.141zm-183.07-121.5c12.379-24.762 0-55.637-27.816-61.863-15.438 24.762 3.0938 52.578 27.816 61.863zm294.68-57.824c35.066 12.984 74.508-8.6797 83.266-47.559-39.445-12.984-74.508 8.6445-83.266 47.559zm21.703 19.703c22.836 26.609 60.809 30.422 83.645 3.8125-19.023-26.609-57.035-30.422-83.645-3.8125zm-55.07-42.047c32.914 8.2266 65.828-20.57 65.828-57.598-32.914-8.2656-65.828 20.57-65.828 57.598zm24.684 131.7c24.684 28.801 65.828 24.684 90.551-4.1133-24.684-24.684-69.98-24.684-90.551 4.1133zm8.2266-64.355c3.625 28.949 39.785 50.617 72.359 36.16-7.2461-32.535-43.406-50.617-72.359-36.16zm80.66-115.35c8.9453 27.027 42.691 34.16 63.488 15.965-10.152-24.156-41.027-30.121-63.488-15.965zm-128.94 76.926c8.9453 27.027 42.691 34.16 63.488 15.965-10.152-24.156-41.027-30.121-63.488-15.965zm-5.207 111.01c37.027-12.344 53.484-49.371 37.027-82.324-37.027 8.2266-53.484 49.371-37.027 82.324zm-119.35-74.094c16.457 32.914 57.598 45.258 86.438 28.801-16.457-37.027-57.598-49.371-86.438-28.801zm249.61 13.816c13.477 23.555 50.465 26.914 70.66 6.7188-13.477-26.914-53.824-30.273-70.66-6.7188zm-196.8-70.129c13.438 23.555 50.465 26.914 70.66 6.7188-13.477-26.914-53.824-30.273-70.66-6.7188zm17.137-21.516c33.555 11.172 67.109-7.4727 70.809-37.293-29.82-14.91-63.375 7.4727-70.809 37.293zm-27.062 228.09c-16.57 30.535 1.5469 69.941 33.973 75.719 16.57-30.535-1.5469-69.941-33.973-75.719zm53.41 29.668c-3.3594 33.254 25.555 55.938 53.484 53.898 4.418-30.047-22.309-56.996-53.484-53.898zm60.055 4.9453c7.4375 33.48 40.953 52.125 70.734 37.219-3.6992-29.781-37.219-48.391-70.734-37.219zm-28.801-20.23c37.027-12.344 53.484-49.371 37.027-82.324-37.027 8.2266-49.371 49.371-37.027 82.324zm45.258-4.1133c32.914 4.1133 65.828-24.684 61.715-61.715-32.914-8.2266-65.828 20.57-61.715 61.715zm24.684 11.059c15.438 24.648 49.41 21.137 67.941-3.5117-21.629-21.137-52.504-21.137-67.941 3.5117z" fill-rule="evenodd"/>
</svg>
