<?xml version="1.0" encoding="UTF-8"?>
<svg width="1200pt" height="1200pt" version="1.1" viewBox="0 0 1200 1200" xmlns="http://www.w3.org/2000/svg">
 <path d="m436.8 225.6c0 54.344-44.055 98.398-98.402 98.398-54.344 0-98.398-44.055-98.398-98.398 0-54.348 44.055-98.402 98.398-98.402 54.348 0 98.402 44.055 98.402 98.402z"/>
 <path d="m703.2 225.6c0 54.344-44.055 98.398-98.398 98.398s-98.402-44.055-98.402-98.398c0-54.348 44.059-98.402 98.402-98.402s98.398 44.055 98.398 98.402z"/>
 <path d="m969.6 225.6c0 54.344-44.059 98.398-98.402 98.398s-98.398-44.055-98.398-98.398c0-54.348 44.055-98.402 98.398-98.402s98.402 44.055 98.402 98.402z"/>
 <path d="m436.8 483.6c0 54.344-44.055 98.398-98.402 98.398-54.344 0-98.398-44.055-98.398-98.398 0-54.348 44.055-98.402 98.398-98.402 54.348 0 98.402 44.055 98.402 98.402z"/>
 <path d="m703.2 483.6c0 54.344-44.055 98.398-98.398 98.398s-98.402-44.055-98.402-98.398c0-54.348 44.059-98.402 98.402-98.402s98.398 44.055 98.398 98.402z"/>
 <path d="m969.6 483.6c0 54.344-44.059 98.398-98.402 98.398s-98.398-44.055-98.398-98.398c0-54.348 44.055-98.402 98.398-98.402s98.402 44.055 98.402 98.402z"/>
 <path d="m436.8 742.8c0 54.344-44.055 98.398-98.402 98.398-54.344 0-98.398-44.055-98.398-98.398s44.055-98.402 98.398-98.402c54.348 0 98.402 44.059 98.402 98.402z"/>
 <path d="m703.2 742.8c0 54.344-44.055 98.398-98.398 98.398s-98.402-44.055-98.402-98.398 44.059-98.402 98.402-98.402 98.398 44.059 98.398 98.402z"/>
 <path d="m969.6 742.8c0 54.344-44.059 98.398-98.402 98.398s-98.398-44.055-98.398-98.398 44.055-98.402 98.398-98.402 98.402 44.059 98.402 98.402z"/>
 <path d="m703.2 998.4c0 54.348-44.055 98.402-98.398 98.402s-98.402-44.055-98.402-98.402c0-54.344 44.059-98.398 98.402-98.398s98.398 44.055 98.398 98.398z"/>
 <path d="m969.6 998.4c0 54.348-44.059 98.402-98.402 98.402s-98.398-44.055-98.398-98.402c0-54.344 44.055-98.398 98.398-98.398s98.402 44.055 98.402 98.398z"/>
 <path d="m436.8 998.4c0 54.348-44.055 98.402-98.402 98.402-54.344 0-98.398-44.055-98.398-98.402 0-54.344 44.055-98.398 98.398-98.398 54.348 0 98.402 44.055 98.402 98.398z"/>
</svg>
