<?xml version="1.0" encoding="UTF-8" standalone="no"?>
<!-- Created with Inkscape (http://www.inkscape.org/) -->

<svg
   width="210mm"
   height="297mm"
   viewBox="0 0 210 297"
   version="1.1"
   id="svg1"
   xml:space="preserve"
   inkscape:version="1.4 (e7c3feb1, 2024-10-09)"
   sodipodi:docname="uranus.svg"
   xmlns:inkscape="http://www.inkscape.org/namespaces/inkscape"
   xmlns:sodipodi="http://sodipodi.sourceforge.net/DTD/sodipodi-0.dtd"
   xmlns="http://www.w3.org/2000/svg"
   xmlns:svg="http://www.w3.org/2000/svg"><sodipodi:namedview
     id="namedview1"
     pagecolor="#ffffff"
     bordercolor="#000000"
     borderopacity="0.25"
     inkscape:showpageshadow="2"
     inkscape:pageopacity="0.0"
     inkscape:pagecheckerboard="0"
     inkscape:deskcolor="#d1d1d1"
     inkscape:document-units="mm"
     inkscape:zoom="2.705774"
     inkscape:cx="376.60204"
     inkscape:cy="1074.1843"
     inkscape:window-width="1200"
     inkscape:window-height="972"
     inkscape:window-x="569"
     inkscape:window-y="38"
     inkscape:window-maximized="0"
     inkscape:current-layer="layer2" /><defs
     id="defs1" /><g
     inkscape:label="Layer 1"
     inkscape:groupmode="layer"
     id="layer1"><ellipse
       style="fill:#9cf1f1;fill-opacity:1;stroke:#000000;stroke-width:1.365;stroke-opacity:0"
       id="path227"
       cx="69.305298"
       cy="128.89861"
       rx="22.122801"
       ry="20.916101"
       inkscape:label="path227" /></g><g
     inkscape:groupmode="layer"
     id="layer2"
     inkscape:label="Layer 2"><path
       style="fill:#65efef;fill-opacity:1"
       d="m 90.82414,291.45048 c -9.07004,-9.793 -15.46833,-32.8633 -17.70274,-63.83073 -0.33049,-4.58036 -0.91382,-17.0102 -0.92749,-19.76318 -0.003,-0.61529 -0.26681,-0.85115 -1.92177,-1.71848 -2.52558,-1.32359 -7.79594,-4.84983 -10.41266,-6.96678 -2.78754,-2.25515 -7.77285,-7.26772 -9.99381,-10.04844 -7.55712,-9.46181 -12.48944,-20.78245 -14.352,-32.94062 -0.681824,-4.45076 -0.685609,-14.84913 -0.007,-19.18229 3.20458,-20.46178 14.45165,-37.576106 31.70077,-48.238101 5.3717,-3.320352 11.13278,-5.837677 17.10739,-7.475133 1.8332,-0.502425 3.40582,-1.001469 3.49471,-1.108987 0.0889,-0.107517 0.66358,-2.040955 1.27708,-4.296528 9.45188,-34.750332 23.06041,-62.017991 35.73142,-71.5957322 19.18217,-14.4993698 34.72433,8.4834282 39.55997,58.4988572 0.53575,5.541337 0.62342,6.687342 0.98165,12.832292 0.37729,6.471945 0.45429,28.783962 0.13011,37.703122 -0.12694,3.4925 -0.23136,6.46906 -0.23205,6.61458 -6.9e-4,0.14552 0.66153,2.22912 1.47161,4.63021 2.63536,7.81136 3.62144,13.79095 3.62144,21.96042 0,8.784 -1.38401,16.43402 -4.40379,24.34166 -1.43054,3.74602 -4.5571,9.77394 -6.93032,13.36146 l -2.10032,3.175 -0.97573,4.89479 c -2.97002,14.8992 -7.02256,30.50544 -11.41801,43.97045 -8.80691,26.97908 -19.31387,46.62019 -29.7306,55.57668 l -1.45893,1.25442 -10.4887,0.002 -10.48869,0.002 z m 11.73191,-1.71041 c -0.39758,-0.0604 -1.11195,-0.0616 -1.5875,-0.003 -0.47555,0.0589 -0.15026,0.10828 0.72286,0.10976 0.87313,10e-4 1.26221,-0.0467 0.86464,-0.10706 z m -2.60648,-0.17272 c -0.0606,-0.0535 -0.58649,-0.16971 -1.16857,-0.25835 -0.73761,-0.11231 -0.89797,-0.0885 -0.52917,0.0786 0.50792,0.23012 1.92507,0.38016 1.69774,0.17975 z m 4.32154,-0.078 c -0.1819,-0.0734 -0.47956,-0.0734 -0.66146,0 -0.1819,0.0734 -0.0331,0.13345 0.33073,0.13345 0.3638,0 0.51263,-0.06 0.33073,-0.13345 z m 1.18511,-0.24921 c -0.0879,-0.0879 -0.31612,-0.0973 -0.50712,-0.0209 -0.21106,0.0845 -0.14837,0.14716 0.15986,0.15986 0.27891,0.0115 0.43518,-0.051 0.34726,-0.13897 z m -8.13043,-0.36931 c -0.21828,-0.14107 -0.51594,-0.25648 -0.66146,-0.25648 -0.14552,0 -0.086,0.11541 0.13229,0.25648 0.21828,0.14106 0.51594,0.25648 0.66146,0.25648 0.14552,0 0.086,-0.11542 -0.13229,-0.25648 z m 4.43177,0.0822 c -0.25466,-0.0666 -0.67138,-0.0666 -0.92604,0 -0.25467,0.0665 -0.0463,0.121 0.46302,0.121 0.50932,0 0.71768,-0.0545 0.46302,-0.121 z m 5.09324,-0.21449 c 0.3638,-0.20797 0.54239,-0.37813 0.39687,-0.37813 -0.14552,0 -0.56224,0.17016 -0.92604,0.37813 -0.3638,0.20796 -0.5424,0.37812 -0.39687,0.37812 0.14552,0 0.56224,-0.17016 0.92604,-0.37812 z m -6.90123,0.0351 c -0.0606,-0.0535 -0.58649,-0.16971 -1.16857,-0.25835 -0.73761,-0.11231 -0.89797,-0.0885 -0.52917,0.0786 0.50792,0.23012 1.92507,0.38016 1.69774,0.17975 z m 4.05696,-0.078 c -0.1819,-0.0734 -0.47956,-0.0734 -0.66147,0 -0.1819,0.0734 -0.0331,0.13345 0.33074,0.13345 0.3638,0 0.51263,-0.06 0.33073,-0.13345 z m -7.73908,-0.21627 c 0,-0.0698 -0.4527,-0.35787 -1.006,-0.64014 -0.55331,-0.28228 -1.62951,-1.07381 -2.39156,-1.75896 -0.76206,-0.68515 -1.43992,-1.19136 -1.50638,-1.12491 -0.15661,0.15662 2.94496,2.65724 3.9779,3.20716 0.90513,0.48187 0.92604,0.48903 0.92604,0.31685 z m 8.92419,-0.0329 c -0.0879,-0.0879 -0.31612,-0.0973 -0.50712,-0.0209 -0.21107,0.0845 -0.14837,0.14716 0.15985,0.15986 0.27892,0.0115 0.43519,-0.051 0.34727,-0.13897 z m 0.51657,-1.05325 c 2.07576,-0.68068 5.28109,-2.5245 5.18066,-2.98011 -0.0346,-0.15711 0.0887,-0.22746 0.27403,-0.15634 0.18535,0.0711 1.25703,-0.71843 2.38152,-1.75458 5.36544,-4.94392 10.93112,-13.15139 16.04542,-23.66149 1.2038,-2.47385 2.28848,-4.73604 2.41039,-5.02708 0.12192,-0.29105 0.45388,-1.06495 0.73768,-1.7198 3.68927,-8.51252 7.75127,-20.06324 11.25845,-32.01458 1.33477,-4.54847 4.88606,-18.42085 5.28314,-20.6375 0.0652,-0.3638 0.31084,-1.48263 0.54594,-2.48628 0.23509,-1.00365 0.38665,-1.86561 0.3368,-1.91547 -0.0499,-0.0498 -0.39652,0.23554 -0.77036,0.6342 -0.70814,0.75516 -1.58619,3.85066 -1.38645,4.88782 0.0571,0.29636 0.023,0.45801 -0.0758,0.35923 -0.0988,-0.0988 -0.79801,2.29612 -1.55384,5.32201 -1.93554,7.74875 -2.89774,11.27669 -5.00036,18.33391 -0.23845,0.80036 -0.65497,2.11005 -0.9256,2.91042 -0.27062,0.80036 -0.8191,2.52677 -1.21884,3.83645 -0.39975,1.30969 -0.95399,2.89908 -1.23165,3.53198 -0.27766,0.63291 -0.44561,1.37721 -0.37323,1.65402 0.0819,0.31297 0.0251,0.43747 -0.14997,0.32925 -0.18044,-0.11152 -0.22796,0.031 -0.13229,0.39687 0.0821,0.314 0.0411,0.50405 -0.0911,0.42233 -0.33089,-0.2045 -0.8289,1.19443 -0.66197,1.85951 0.14399,0.57372 -0.0649,1.08812 -0.50349,1.23963 -0.14552,0.0503 -0.26853,0.4724 -0.27337,0.93805 -0.005,0.46564 -0.10892,0.94189 -0.2313,1.05833 -0.12239,0.11643 -0.13482,-0.086 -0.0276,-0.44976 0.14781,-0.50165 0.11982,-0.59037 -0.11587,-0.3672 -0.17092,0.16184 -0.34801,0.8514 -0.39353,1.53237 -0.0455,0.68096 -0.17198,1.32245 -0.28101,1.42554 -0.10903,0.10308 -0.1159,-0.0805 -0.0152,-0.4079 0.2955,-0.96133 -0.0737,-0.68246 -0.52436,0.39603 -0.22782,0.54524 -0.35958,1.20025 -0.29281,1.45558 0.0668,0.25532 0.0132,0.39737 -0.11901,0.31565 -0.31179,-0.1927 -0.82211,1.14715 -0.64906,1.70415 0.0731,0.23544 0.009,0.60667 -0.14289,0.82495 -0.20995,0.30204 -0.23301,0.23881 -0.0965,-0.26459 0.14224,-0.52455 0.11075,-0.59626 -0.15214,-0.34646 -0.18232,0.17324 -0.34453,0.66755 -0.36046,1.09846 -0.0159,0.43092 -0.1123,0.73232 -0.21414,0.66979 -0.30002,-0.18422 -0.79999,0.96941 -0.65704,1.51605 0.0723,0.27636 0.0209,0.43421 -0.11405,0.35078 -0.27037,-0.1671 -1.14873,1.70605 -0.91133,1.94345 0.0813,0.0813 0.1478,-0.0109 0.1478,-0.20498 0,-0.19403 0.0646,-0.28815 0.14363,-0.20915 0.24419,0.24419 -0.74361,2.0487 -1.02595,1.8742 -0.16036,-0.0991 -0.19678,0.0159 -0.0917,0.28966 0.0958,0.24971 0.0822,0.39714 -0.0303,0.32762 -0.11249,-0.0695 -1.0188,1.44234 -2.01404,3.3597 -9.62284,18.5388 -19.26502,27.51649 -28.07996,26.14481 -3.02462,-0.47066 -5.40408,-1.81533 -8.1923,-4.62961 -1.30968,-1.32193 -2.20558,-2.1688 -1.99087,-1.88194 2.51785,3.36403 5.54549,5.66785 8.71144,6.62878 1.57624,0.47842 4.53588,0.47133 6.36432,-0.0153 6.47483,-1.72309 13.38949,-8.60552 20.18834,-20.0942 0.8679,-1.46657 1.4983,-2.42836 1.40091,-2.13732 -0.24952,0.7456 -2.89958,5.1569 -4.60946,7.67292 -5.52932,8.13617 -10.92248,13.0073 -16.43863,14.84745 -2.10623,0.70262 -5.727,0.63716 -7.73457,-0.13983 -1.72569,-0.6679 -3.83013,-2.0242 -5.32168,-3.42981 -1.13181,-1.0666 -3.65349,-4.22185 -3.10141,-3.88065 0.2392,0.14783 0.31221,0.0998 0.22878,-0.15044 -0.0674,-0.20216 -0.2515,-0.36756 -0.40915,-0.36756 -0.15764,0 -0.38585,-0.10838 -0.50711,-0.24085 -0.13018,-0.14221 -0.071,-0.15421 0.14456,-0.0293 0.45846,0.26566 0.37424,0.0726 -0.71871,-1.64806 -0.4853,-0.76398 -1.01105,-1.38906 -1.16834,-1.38906 -0.15729,0 -0.21487,-0.0711 -0.12795,-0.15804 0.0869,-0.0869 -0.36706,-1.20534 -1.00886,-2.48537 -4.5902,-9.15496 -7.93703,-22.80475 -9.89387,-40.35138 -0.69181,-6.20333 -1.34725,-15.08392 -1.29859,-17.59479 0.0264,-1.36002 0.10591,-0.77729 0.25287,1.85208 1.11418,19.9356 4.21116,37.6464 8.62863,49.34479 2.54442,6.73818 5.32267,11.49438 8.66051,14.82633 3.52128,3.51507 7.20185,4.96226 11.08713,4.35944 3.98074,-0.61764 7.331,-2.6045 11.56042,-6.8559 4.33149,-4.354 7.0694,-8.19891 11.51444,-16.16999 1.37293,-2.462 2.49624,-4.53284 2.49624,-4.60185 0,-0.069 0.58057,-1.35295 1.29017,-2.85321 6.71616,-14.19958 12.93821,-33.20555 17.98211,-54.92851 0.58706,-2.52831 0.89103,-2.56131 -2.63132,0.2856 -2.92333,2.36275 -5.34193,4.01848 -8.57117,5.86769 -3.01631,1.72727 -3.04644,1.75027 -3.1731,2.4228 -0.0515,0.27368 -0.10282,0.52737 -0.11395,0.56375 -0.0111,0.0364 -0.0311,0.15544 -0.0443,0.26458 -0.0132,0.10914 -0.18577,0.58539 -0.38338,1.05834 -0.1976,0.47294 -0.29125,0.85989 -0.2081,0.85989 0.0832,0 0.003,0.1786 -0.17818,0.39688 -0.18116,0.21828 -0.24069,0.39687 -0.1323,0.39687 0.1084,0 0.0489,0.1786 -0.13229,0.39688 -0.18116,0.21828 -0.26134,0.39687 -0.17819,0.39687 0.0832,0 -0.0229,0.41672 -0.23573,0.92604 -0.21281,0.50933 -0.31122,0.92605 -0.21869,0.92605 0.0925,0 0.02,0.17859 -0.16114,0.39687 -0.18116,0.21828 -0.24069,0.39688 -0.13229,0.39688 0.1084,0 0.0489,0.17859 -0.13229,0.39687 -0.18116,0.21828 -0.26174,0.39688 -0.17907,0.39688 0.20118,0 -1.8826,6.08954 -3.71204,10.84791 -4.07302,10.59392 -9.07198,20.2642 -13.40383,25.92917 -2.95509,3.86452 -7.04995,7.53273 -9.72793,8.71435 -2.75723,1.21659 -6.11742,1.25085 -8.49223,0.0866 -1.0749,-0.52698 -3.59414,-2.44447 -4.31088,-3.28119 -2.45787,-2.86929 -5.38086,-8.3848 -6.99156,-13.19267 -1.18463,-3.53608 -2.7813,-9.81715 -3.56467,-14.02291 -1.0648,-5.71666 -1.69178,-10.50891 -2.48584,-19.00033 l -0.18092,-1.93471 -1.84445,-0.77727 c -1.01445,-0.4275 -1.87765,-0.77728 -1.91823,-0.77728 -0.0406,0 -0.096,0.92274 -0.12307,2.05052 l -0.0493,2.05052 -0.166,-2.24895 -0.16599,-2.24896 -0.0491,2.51354 c -0.0521,2.66315 0.30166,10.10518 0.74198,15.61042 0.27725,3.46631 0.32332,3.83539 1.61608,12.94562 0.44249,3.11827 0.74777,5.88663 0.67839,6.15192 -0.0694,0.2653 -0.0424,0.43062 0.0599,0.36738 0.10232,-0.0632 0.5188,1.63324 0.92552,3.76995 3.1103,16.33996 8.09611,28.39144 14.30621,34.58033 4.29465,4.27999 8.53741,5.40933 13.8174,3.67794 z m 20.67597,-24.88257 c 0.14937,-0.27222 0.46467,-0.73308 0.70066,-1.02412 0.39828,-0.49119 0.39981,-0.46866 0.0213,0.31395 -0.22429,0.46372 -0.53959,0.92457 -0.70066,1.02412 -0.20972,0.12961 -0.21575,0.0405 -0.0213,-0.31395 z m 1.11222,-1.81787 c 0,-0.14552 0.11541,-0.44317 0.25648,-0.66146 0.14106,-0.21828 0.25648,-0.27781 0.25648,-0.13229 0,0.14552 -0.11542,0.44318 -0.25648,0.66146 -0.14107,0.21828 -0.25648,0.27781 -0.25648,0.13229 z m 1.18252,-2.51354 c 0.36871,-0.7276 0.7299,-1.32292 0.80266,-1.32292 0.0728,0 -0.16937,0.59532 -0.53808,1.32292 -0.3687,0.72761 -0.7299,1.32292 -0.80266,1.32292 -0.0728,0 0.16938,-0.59531 0.53808,-1.32292 z m 2.39826,-5.10464 c 0.0994,-0.26094 0.2473,-0.40778 0.32877,-0.32632 0.0815,0.0815 1.6e-4,0.29496 -0.18066,0.47443 -0.2613,0.25937 -0.29169,0.22898 -0.14811,-0.14811 z m 0.65255,-1.37765 c 0,-0.14552 0.11542,-0.44318 0.25648,-0.66146 0.14107,-0.21828 0.25648,-0.27781 0.25648,-0.13229 0,0.14552 -0.11541,0.44318 -0.25648,0.66146 -0.14106,0.21828 -0.25648,0.27781 -0.25648,0.13229 z m 1.5875,-3.70417 c 0,-0.14552 0.11542,-0.44317 0.25648,-0.66146 0.14107,-0.21828 0.25648,-0.27781 0.25648,-0.13229 0,0.14552 -0.11541,0.44318 -0.25648,0.66146 -0.14106,0.21828 -0.25648,0.27781 -0.25648,0.13229 z m 4.7544,-12.81667 c 0,-0.13694 0.1177,-0.32171 0.26155,-0.41062 0.14998,-0.0927 0.19434,0.0135 0.10399,0.24897 -0.1759,0.45837 -0.36554,0.54223 -0.36554,0.16165 z m -31.75,52.90105 c 0.21828,-0.14107 0.27781,-0.25648 0.13229,-0.25648 -0.14552,0 -0.44317,0.11541 -0.66146,0.25648 -0.21828,0.14106 -0.27781,0.25648 -0.13229,0.25648 0.14552,0 0.44318,-0.11542 0.66146,-0.25648 z m 4.12072,-1.29937 c 2.18356,-1.44606 6.61836,-5.59381 8.08768,-7.56417 0.32554,-0.43657 -0.65106,0.50763 -2.17023,2.09822 -2.60089,2.72316 -5.4918,5.09699 -7.82192,6.42288 -0.56409,0.32098 -0.89771,0.58887 -0.74136,0.59531 0.15634,0.006 1.34697,-0.69207 2.64583,-1.55224 z m -1.57809,0.1023 c 0.91709,-0.51287 1.74245,-1.05385 1.83412,-1.20218 0.0917,-0.14834 -0.40911,0.0787 -1.11285,0.50456 -0.70374,0.42584 -1.63671,0.96206 -2.07327,1.19159 -0.43657,0.22953 -0.68613,0.42209 -0.5546,0.42792 0.13154,0.006 0.98951,-0.40902 1.9066,-0.92189 z m -15.24264,-0.75491 c 0,-0.0549 -0.20836,-0.2633 -0.46302,-0.46302 -0.41964,-0.32911 -0.429,-0.31975 -0.0999,0.0999 0.34564,0.44073 0.56291,0.58089 0.56291,0.36313 z m 19.86921,-2.72707 c 0.20428,-0.25615 -0.25365,0.0556 -1.01764,0.69287 -0.76398,0.63723 -1.38906,1.20949 -1.38906,1.2717 0,0.1796 1.99625,-1.44993 2.4067,-1.96457 z m -22.77963,0.61901 c 0,-0.0502 -0.26789,-0.31809 -0.59531,-0.59531 l -0.59531,-0.50403 0.50403,0.59532 c 0.47366,0.55944 0.68659,0.71576 0.68659,0.50402 z m 24.60626,-2.15767 c 0.49366,-0.50932 0.83803,-0.92604 0.76527,-0.92604 -0.0728,0 -0.5362,0.41672 -1.02985,0.92604 -0.49365,0.50932 -0.83802,0.92604 -0.76526,0.92604 0.0728,0 0.53619,-0.41672 1.02984,-0.92604 z m 2.11667,-2.38125 c 0.49365,-0.50932 0.83802,-0.92604 0.76526,-0.92604 -0.0728,0 -0.53619,0.41672 -1.02984,0.92604 -0.49366,0.50932 -0.83803,0.92604 -0.76527,0.92604 0.0728,0 0.53619,-0.41672 1.02985,-0.92604 z m 1.45521,-1.71979 c 0.26339,-0.29104 0.41936,-0.52917 0.34659,-0.52917 -0.0728,0 -0.34779,0.23813 -0.61118,0.52917 -0.26339,0.29104 -0.41935,0.52916 -0.34659,0.52916 0.0728,0 0.34779,-0.23812 0.61118,-0.52916 z m 0.6952,0.0661 c 0.32911,-0.41964 0.31975,-0.429 -0.0999,-0.0999 -0.25466,0.19972 -0.46302,0.40808 -0.46302,0.46302 0,0.21776 0.21727,0.0776 0.56291,-0.36313 z m 1.29487,-1.66164 c 0.79861,-1.12154 0.46524,-0.97396 -0.41917,0.18557 -0.40748,0.53423 -0.60575,0.88782 -0.4406,0.78575 0.16515,-0.10207 0.55204,-0.53916 0.85977,-0.97132 z m -1.03028,0.33873 c 0.32911,-0.41965 0.31975,-0.42901 -0.0999,-0.0999 -0.25466,0.19972 -0.46302,0.40808 -0.46302,0.46302 0,0.21776 0.21727,0.0776 0.56292,-0.36312 z m 0.79375,-1.05834 c 0.32911,-0.41964 0.31975,-0.429 -0.0999,-0.0999 -0.25466,0.19972 -0.46302,0.40808 -0.46302,0.46302 0,0.21776 0.21727,0.0776 0.56292,-0.36313 z m 2.4353,-2.44333 c 0.82001,-1.38817 0.29291,-0.86201 -0.72484,0.72354 -0.5371,0.83675 -0.69977,1.19576 -0.36149,0.79781 0.33828,-0.39795 0.82713,-1.08255 1.08633,-1.52135 z m 1.4997,-2.38531 c 0.15576,-0.29104 0.22367,-0.52917 0.15091,-0.52917 -0.0728,0 -0.25973,0.23813 -0.41549,0.52917 -0.15577,0.29104 -0.22367,0.52916 -0.15091,0.52916 0.0728,0 0.25973,-0.23812 0.41549,-0.52916 z m 0.79375,-1.32292 c 0.15576,-0.29104 0.22367,-0.52917 0.15091,-0.52917 -0.0728,0 -0.25973,0.23813 -0.41549,0.52917 -0.15577,0.29104 -0.22367,0.52917 -0.15091,0.52917 0.0728,0 0.25973,-0.23813 0.41549,-0.52917 z m 0.80073,-1.84768 c -0.45884,-0.28368 -0.82599,0.15109 -0.60778,0.71972 0.12065,0.31442 0.21318,0.30603 0.57083,-0.0517 0.37208,-0.37217 0.37682,-0.45788 0.0369,-0.668 z m -44.36569,-0.41269 c -0.0862,-0.22456 -0.21342,-0.35154 -0.28277,-0.28218 -0.0694,0.0694 -0.0476,0.25308 0.0483,0.40828 0.26089,0.42213 0.41338,0.34013 0.23447,-0.1261 z m 44.9803,-0.2447 c 0.082,-0.21362 0.0599,-0.44349 -0.0491,-0.51083 -0.10895,-0.0673 -0.21542,0.10744 -0.23658,0.3884 -0.0458,0.60763 0.0789,0.66109 0.28564,0.12243 z m 1.25273,-2.03644 c 0.29911,-0.58631 0.47934,-1.13052 0.4005,-1.20936 -0.0788,-0.0789 -0.2628,0.17082 -0.40879,0.5548 -0.32347,0.85079 -0.64427,0.931 -0.41132,0.10284 0.13057,-0.46419 0.10669,-0.5079 -0.10842,-0.19844 -0.15173,0.21829 -0.20631,0.62015 -0.12128,0.89303 0.11048,0.35457 0.0593,0.43729 -0.17921,0.28985 -0.21694,-0.13407 -0.26771,-0.0994 -0.14503,0.0992 0.10384,0.16801 0.0557,0.30546 -0.10702,0.30546 -0.1627,0 -0.22103,0.12101 -0.12963,0.2689 0.24949,0.40368 0.60629,0.0775 1.2102,-1.10624 z m 1.18409,-2.27786 c -0.0712,-0.0711 -0.0142,-0.34462 0.12661,-0.60769 0.17503,-0.32705 0.15916,-0.53817 -0.0502,-0.66755 -0.18995,-0.1174 -0.23451,-0.0733 -0.11739,0.11623 0.10383,0.16801 0.0557,0.30546 -0.10702,0.30546 -0.1627,0 -0.22223,0.11907 -0.1323,0.26459 0.0899,0.14552 0.008,0.2664 -0.18282,0.26863 -0.25167,0.003 -0.23785,0.0742 0.0505,0.26053 0.26459,0.17099 0.28663,0.25784 0.0662,0.26054 -0.1819,0.002 -0.33073,0.13769 -0.33073,0.30103 0,0.20309 0.12749,0.19117 0.40327,-0.0377 0.2218,-0.18407 0.34505,-0.3929 0.27389,-0.46406 z m 0.78893,-1.92948 c 0.27148,-0.43926 0.0278,-0.50018 -0.35204,-0.088 -0.18764,0.2036 -0.22443,0.37018 -0.0818,0.37018 0.14267,0 0.33788,-0.12698 0.4338,-0.28218 z m -26.83676,-1.06472 c 7.55346,-3.17598 15.1108,-13.91255 22.3316,-31.72601 0.91431,-2.25557 2.33191,-6.06557 3.15022,-8.46667 0.81831,-2.40109 1.55247,-4.54422 1.63147,-4.7625 0.079,-0.21828 0.10617,-0.40834 0.0604,-0.42235 -0.0458,-0.014 0.0802,-0.22238 0.27991,-0.46302 0.19972,-0.24065 0.29429,-0.43754 0.21017,-0.43754 -0.0841,0 0.0307,-0.50602 0.25506,-1.12448 0.22441,-0.61847 0.44815,-1.30308 0.49719,-1.52136 0.049,-0.21828 0.0983,-0.42664 0.10941,-0.46302 0.0111,-0.0364 0.0304,-0.15544 0.0427,-0.26458 0.0124,-0.10914 0.11502,-0.3175 0.2281,-0.46302 0.27638,-0.35567 0.59294,-1.71979 0.39909,-1.71979 -0.0848,0 -1.38397,0.52534 -2.88711,1.16742 -8.68464,3.70975 -17.29815,5.44716 -27.00533,5.44716 -7.52423,0 -13.77527,-0.97129 -20.72009,-3.21949 -1.79513,-0.58112 -3.31346,-1.007 -3.37408,-0.94638 -0.17567,0.17567 0.62755,7.8345 1.3634,13.00033 3.00381,21.08721 8.95762,34.13123 16.75983,36.71855 1.92397,0.63801 4.68641,0.49995 6.66802,-0.33325 z m 27.57976,-0.36441 c 0.082,-0.21362 0.0599,-0.4435 -0.0491,-0.51084 -0.10895,-0.0673 -0.21542,0.10744 -0.23658,0.3884 -0.0458,0.60763 0.0789,0.66109 0.28564,0.12244 z m 1.38338,-3.15285 c -0.0198,-0.30789 0.0694,-0.63421 0.19837,-0.72516 0.13382,-0.0944 0.12745,-0.23146 -0.0148,-0.3194 -0.13707,-0.0847 -0.4429,0.25211 -0.67962,0.74851 -0.38767,0.81296 -0.38894,0.88663 -0.0128,0.7423 0.35008,-0.13434 0.36983,-0.071 0.12221,0.39165 -0.16245,0.30354 -0.29115,0.64902 -0.28599,0.76772 0.005,0.11871 0.16673,-0.068 0.35905,-0.41499 0.19232,-0.34696 0.33345,-0.88274 0.31363,-1.19063 z m 0.90545,-1.48584 c 0,-0.14552 -0.14883,-0.2682 -0.33073,-0.27262 -0.18355,-0.004 -0.12468,-0.12807 0.13229,-0.27773 0.49711,-0.28955 0.627,-0.77256 0.20774,-0.77256 -0.35419,0 -0.86276,1.01226 -0.66738,1.32838 0.20887,0.33797 0.65808,0.33424 0.65808,-0.005 z m 0.92604,-2.11666 c 0.0899,-0.14552 0.0374,-0.26459 -0.11668,-0.26459 -0.15411,0 -0.2802,0.11907 -0.2802,0.26459 0,0.14552 0.0525,0.26458 0.11668,0.26458 0.0642,0 0.19026,-0.11906 0.2802,-0.26458 z m 0.007,-1.00724 c -0.0815,-0.0815 -0.29496,-1.6e-4 -0.47443,0.18066 -0.25937,0.2613 -0.22898,0.29169 0.14811,0.14811 0.26094,-0.0994 0.40778,-0.2473 0.32632,-0.32877 z m 1.34206,-2.21006 c 0.11075,-0.1792 0.0718,-0.23226 -0.095,-0.12923 -0.15558,0.0962 -0.3273,0.0415 -0.38161,-0.12142 -0.0543,-0.16293 -0.24222,0.0187 -0.41758,0.40353 -0.29672,0.65121 -0.28328,0.68073 0.1937,0.42546 0.2819,-0.15087 0.5971,-0.41112 0.70045,-0.57834 z m 0.20536,-1.33413 c -0.0717,-0.11609 0.0254,-0.21289 0.2159,-0.21512 0.25167,-0.003 0.23786,-0.0742 -0.0505,-0.26054 -0.26459,-0.17098 -0.28663,-0.25783 -0.0661,-0.26053 0.1819,-0.002 0.30097,-0.15288 0.26459,-0.33478 -0.0364,-0.1819 0.0915,-0.29801 0.28425,-0.25803 0.19271,0.04 0.27498,-0.0493 0.18282,-0.19843 -0.31146,-0.50395 -0.60631,-0.2755 -1.03849,0.80463 -0.41899,1.04714 -0.32589,2.00817 0.12401,1.28021 0.11773,-0.19049 0.15535,-0.44132 0.0836,-0.55741 z m 1.09141,-2.32774 c -0.0899,-0.14552 -0.27556,-0.26458 -0.41249,-0.26458 -0.13693,0 -0.24897,0.11906 -0.24897,0.26458 0,0.14552 0.18562,0.26458 0.41249,0.26458 0.22687,0 0.33891,-0.11906 0.24897,-0.26458 z m 0.15686,-0.63185 c -0.23885,-0.2878 -0.14566,-0.55722 0.43062,-1.245 0.40449,-0.48275 0.58661,-0.7867 0.40471,-0.67544 -0.19768,0.12089 -0.33825,0.0629 -0.34942,-0.14407 -0.0103,-0.19049 -0.25219,0.18007 -0.53757,0.82347 -0.41014,0.92465 -0.44781,1.21491 -0.17975,1.38501 0.49946,0.31693 0.57494,0.26996 0.23141,-0.14397 z m 1.14777,-2.83731 c -0.1,-0.16179 -0.0639,-0.37015 0.0802,-0.46302 0.74187,-0.47818 5.83937,-16.34254 8.64081,-26.89178 2.49013,-9.37698 5.02971,-20.34166 4.83488,-20.87466 -0.18302,-0.50067 -0.64523,0.90835 -1.37969,4.20591 -1.43354,6.43631 -3.08811,13.10178 -4.53177,18.25625 -0.81514,2.91042 -1.49527,5.5298 -1.51139,5.82084 -0.0161,0.29104 -0.0999,0.58869 -0.18618,0.66146 -0.23889,0.20147 -1.90051,5.60566 -1.93209,6.28385 -0.0152,0.32742 -0.12975,0.59531 -0.25446,0.59531 -0.12471,0 -0.15821,0.1786 -0.0744,0.39688 0.0838,0.21828 0.0242,0.39687 -0.13229,0.39687 -0.15652,0 -0.21901,0.1709 -0.13885,0.37978 0.0802,0.20888 0.0224,0.4209 -0.12836,0.47115 -0.15076,0.0502 -0.2929,0.41505 -0.31587,0.81066 -0.023,0.39561 -0.11222,0.71937 -0.19832,0.71947 -0.27245,3.3e-4 -0.80234,2.11423 -0.60857,2.42776 0.12163,0.1968 0.066,0.22621 -0.16172,0.0855 -0.25861,-0.15983 -0.30907,-0.069 -0.19784,0.35636 0.0966,0.36946 0.0488,0.50878 -0.13558,0.39484 -0.18019,-0.11136 -0.22278,-0.0143 -0.11592,0.26422 0.093,0.24248 0.0411,0.44028 -0.11564,0.44028 -0.15652,0 -0.21368,0.18478 -0.12701,0.41062 0.0904,0.23546 0.046,0.34166 -0.10399,0.24897 -0.25981,-0.16057 -0.38341,0.35765 -0.30387,1.27401 0.0228,0.26312 -0.0647,0.41277 -0.19444,0.33256 -0.20151,-0.12455 -0.32565,0.14189 -0.70078,1.50415 -0.0301,0.10914 -0.0844,0.25797 -0.1208,0.33073 -0.0364,0.0728 -0.081,0.24144 -0.0992,0.37483 -0.0182,0.13339 -0.12237,0.33183 -0.23151,0.44097 -0.32852,0.32851 -0.22444,0.63941 0.21405,0.63941 0.23527,0 0.33438,-0.12638 0.23068,-0.29416 z M 64.69074,154.34158 c -0.0862,-0.22456 -0.27947,-0.40829 -0.42956,-0.40829 -0.38776,0 -0.33937,0.72591 0.0578,0.86777 0.44948,0.16053 0.55811,0.0263 0.37172,-0.45948 z m 2.94031,-0.14371 c -0.18176,-0.29104 -0.39538,-0.52916 -0.47471,-0.52916 -0.0793,0 -0.14424,0.23812 -0.14424,0.52916 0,0.33255 0.17639,0.52917 0.47471,0.52917 0.40848,0 0.4286,-0.0738 0.14424,-0.52917 z m -5.72568,-3.35061 c 0.32927,-0.39915 0.30763,-0.41061 -0.23218,-0.12298 -0.61568,0.32806 -0.76728,0.56318 -0.36313,0.56318 0.1277,0 0.39559,-0.19809 0.59531,-0.4402 z m -4.04505,-2.20981 c 0.3404,-0.28365 0.57852,-0.60711 0.52917,-0.7188 -0.0494,-0.11169 -0.43213,0.12435 -0.8506,0.52454 -0.86533,0.8275 -0.61793,0.97703 0.32143,0.19426 z m 8.37693,-1.05416 c 0.0899,-0.14552 0.0445,-0.26458 -0.10106,-0.26458 -0.14552,0 -0.33817,0.11906 -0.42811,0.26458 -0.0899,0.14552 -0.0445,0.26458 0.10106,0.26458 0.14553,0 0.33817,-0.11906 0.42811,-0.26458 z m 4.89479,-0.59281 c 0,-0.382 -0.40311,-0.19898 -0.73608,0.3342 -0.30998,0.49635 -0.29542,0.51092 0.20094,0.20094 0.29433,-0.18381 0.53514,-0.42463 0.53514,-0.53514 z m -7.14375,-0.73011 c 0,-0.14552 -0.12609,-0.26458 -0.2802,-0.26458 -0.15411,0 -0.20661,0.11906 -0.11667,0.26458 0.0899,0.14552 0.21602,0.26459 0.28019,0.26459 0.0642,0 0.11668,-0.11907 0.11668,-0.26459 z m -7.90375,-0.7276 c 0.32911,-0.41965 0.31975,-0.429 -0.0999,-0.0999 -0.44073,0.34565 -0.58089,0.56292 -0.36313,0.56292 0.0549,0 0.26331,-0.20836 0.46303,-0.46302 z m 6.31625,-0.15359 c 0,-0.19361 0.56555,-0.75493 1.25677,-1.24737 0.69123,-0.49244 1.41411,-1.0484 1.6064,-1.23547 0.46958,-0.45683 0.66719,-0.42916 0.47689,0.0668 -0.0889,0.23152 0.013,0.47179 0.23628,0.55747 0.51004,0.19573 0.50698,0.62314 -0.004,0.62314 -0.21829,0 -0.39688,0.11906 -0.39688,0.26458 0,0.34508 0.14803,0.33374 0.86348,-0.0661 0.7782,-0.43495 0.97966,-0.73462 0.98455,-1.46451 0.004,-0.53122 -0.0629,-0.56877 -0.54778,-0.3093 -0.3035,0.16243 -0.61654,0.23061 -0.69564,0.15151 -0.0791,-0.0791 0.1723,-0.28786 0.55867,-0.4639 0.68574,-0.31244 0.80254,-0.76425 0.24558,-0.94991 -0.15283,-0.0509 -0.90505,0.41787 -1.6716,1.0418 -2.00621,1.63293 -2.38004,1.88713 -2.53998,1.72718 -0.0785,-0.0785 0.12577,-0.39278 0.45387,-0.69845 0.33128,-0.30863 0.44808,-0.55577 0.26267,-0.55577 -0.18363,0 -0.29537,-0.1842 -0.24832,-0.40932 0.10322,-0.49391 1.80533,-1.62387 1.80533,-1.19849 0,0.16293 -0.30074,0.43326 -0.66831,0.60074 -0.36757,0.16748 -0.62553,0.43281 -0.57326,0.58964 0.16618,0.49853 0.63141,0.31236 1.76697,-0.70705 0.60788,-0.5457 1.16769,-0.99219 1.24403,-0.99219 0.0763,0 0.60241,-0.36719 1.16906,-0.81598 0.56664,-0.44879 1.03026,-0.68966 1.03026,-0.53527 0,0.1544 -0.32742,0.48907 -0.7276,0.74373 -1.07888,0.68654 -1.15921,0.93333 -0.52392,1.60956 0.45406,0.48333 0.50158,0.65945 0.22415,0.83091 -0.24631,0.15223 -0.26409,0.27193 -0.0592,0.39855 0.16106,0.0995 0.29283,0.0549 0.29283,-0.0992 0,-0.1541 0.11907,-0.28019 0.26459,-0.28019 0.14552,0 0.26723,0.20836 0.27046,0.46302 0.005,0.38782 0.0819,0.36424 0.4739,-0.1452 0.47214,-0.61359 1.26131,-0.58925 1.68865,0.0521 0.10122,0.15192 0.27982,0.1797 0.39687,0.0617 0.11705,-0.11797 -0.11389,-0.47562 -0.51321,-0.79478 -0.72081,-0.5761 -0.72222,-0.58355 -0.19592,-1.03418 0.44279,-0.37913 0.47744,-0.53824 0.21033,-0.96594 -0.17587,-0.28162 -0.38537,-0.50584 -0.46553,-0.49827 -0.67783,0.0641 -0.8927,-0.0693 -0.59366,-0.36828 0.24946,-0.24946 0.41709,-0.22169 0.76566,0.12688 0.41388,0.41388 0.48108,0.41478 0.92577,0.0123 0.26373,-0.23866 0.56708,-0.34636 0.67412,-0.23933 0.10703,0.10704 -0.0128,0.31066 -0.26621,0.4525 -0.48016,0.26871 -0.64093,1.02534 -0.21787,1.02534 0.13362,0 0.44501,0.0775 0.69199,0.17232 0.36369,0.13956 0.41481,0.0644 0.26892,-0.39521 -0.14721,-0.46381 -0.096,-0.53526 0.27998,-0.39097 0.35097,0.13468 0.42058,0.0735 0.29344,-0.25777 -0.22596,-0.58885 0.24516,-0.83726 0.5511,-0.29058 0.18379,0.32842 0.29441,0.35521 0.44703,0.10828 0.11154,-0.18048 0.0748,-0.40727 -0.0817,-0.50399 -0.1794,-0.11087 -0.19578,-0.31941 -0.0443,-0.56444 0.20334,-0.32901 0.30313,-0.30765 0.65071,0.13928 0.22579,0.29033 0.48617,0.86866 0.57862,1.28517 0.13668,0.61578 0.21236,0.67819 0.405,0.33398 0.38616,-0.69004 1.29935,-1.07918 1.55641,-0.66323 0.36865,0.59648 0.5023,0.12104 0.15935,-0.56685 -0.17831,-0.35764 -0.55553,-0.69481 -0.83829,-0.74926 -0.42375,-0.0816 -0.45786,-0.0312 -0.19409,0.28658 0.36759,0.44291 0.17536,0.73378 -0.48493,0.73378 -0.84682,0 -0.80421,-0.77716 0.087,-1.58805 0.47012,-0.42773 0.94407,-0.78118 1.05321,-0.78545 0.10914,-0.004 0.19844,-0.14891 0.19844,-0.32143 0,-0.17252 0.25871,-0.58906 0.57492,-0.92565 0.5507,-0.5862 0.59692,-0.59249 1.09758,-0.14934 0.28747,0.25444 0.0735,-0.1675 -0.4755,-0.93766 -0.549,-0.77015 -0.93177,-1.46668 -0.85061,-1.54784 0.24002,-0.24003 0.71194,0.16756 0.71194,0.61489 0,0.32217 0.0809,0.34648 0.36598,0.10992 0.28222,-0.23422 0.40142,-0.21136 0.52086,0.0999 0.0852,0.22199 0.0325,0.40362 -0.11701,0.40362 -0.14954,0 -0.18353,0.14297 -0.0756,0.3177 0.1348,0.21811 0.22661,0.22692 0.29289,0.0281 0.0531,-0.15929 0.33081,-0.22835 0.61715,-0.15347 0.33797,0.0884 0.76703,-0.11025 1.22295,-0.56618 0.47064,-0.47064 0.76386,-0.60278 0.88883,-0.40057 0.1353,0.21892 0.23619,0.22137 0.36748,0.009 0.0995,-0.16106 0.10688,-0.41273 0.0163,-0.55928 -0.18995,-0.30736 0.59541,-0.6827 0.8648,-0.41331 0.0987,0.0987 0.008,0.28548 -0.20218,0.41518 -0.20986,0.12969 -0.30341,0.31396 -0.20789,0.40947 0.0955,0.0955 0.43216,-0.007 0.7481,-0.22868 0.56927,-0.39874 0.56976,-0.40634 0.0546,-0.84743 -0.43179,-0.36971 -0.47017,-0.55052 -0.2266,-1.06756 0.16128,-0.34235 0.56113,-0.6898 0.88855,-0.77209 0.32743,-0.0823 0.59532,-0.32595 0.59532,-0.54146 0,-0.21551 0.17859,-0.39184 0.39687,-0.39184 0.21828,0 0.39688,-0.17859 0.39688,-0.39687 0,-0.50392 -0.49903,-0.51871 -0.69022,-0.0205 -0.19376,0.50493 -0.89728,0.75521 -0.89728,0.31921 0,-0.35219 1.26547,-1.09939 1.6861,-0.99556 0.12699,0.0313 0.16618,-0.11166 0.0871,-0.31778 -0.0887,-0.23117 0.12696,-0.50205 0.56285,-0.70696 0.45439,-0.21361 0.58033,-0.37768 0.35279,-0.45957 -0.19464,-0.0701 -0.4822,9.4e-4 -0.63902,0.15777 -0.2038,0.2038 -0.38532,0.15568 -0.63631,-0.16867 -0.32269,-0.41703 -0.4103,-0.38392 -1.08077,0.40847 -0.79545,0.9401 -1.12648,1.07546 -1.12648,0.46063 0,-0.21828 0.19133,-0.39687 0.42518,-0.39687 0.2626,0 0.36893,-0.14661 0.27806,-0.3834 -0.0935,-0.2438 -0.0199,-0.3346 0.20213,-0.24938 0.1921,0.0737 0.42042,-0.0514 0.50739,-0.27806 0.15386,-0.40095 1.03426,-0.60939 0.90235,-0.21364 -0.0694,0.20836 0.15081,0.33073 0.59531,0.33073 0.47067,0 0.28002,-0.79271 -0.19844,-0.82509 -0.47225,-0.0319 -0.6224,-0.008 -1.48074,0.23342 -0.31552,0.0888 -0.15152,-0.18976 0.46302,-0.78659 0.52336,-0.50829 0.95157,-0.99542 0.95157,-1.08252 0,-0.31007 -2.16861,1.00513 -2.4143,1.4642 -0.13758,0.25708 -0.39479,0.46729 -0.57157,0.46714 -0.17678,-1.5e-4 0.30974,-0.60571 1.08115,-1.34568 1.13203,-1.0859 1.34268,-1.41757 1.09208,-1.71952 -0.17076,-0.20576 -0.42955,-0.37411 -0.57507,-0.37411 -0.14572,0 -0.11423,0.18115 0.0701,0.40327 0.48713,0.58695 0.0855,0.81923 -0.50016,0.28924 -0.45021,-0.40744 -0.51365,-0.41024 -0.65991,-0.0291 -0.13179,0.34343 -0.22869,0.35922 -0.52214,0.0851 -0.30248,-0.28256 -0.30298,-0.39393 -0.003,-0.69375 0.19644,-0.19643 0.35716,-0.46771 0.35716,-0.60284 0,-0.37985 -0.42696,-0.29076 -0.80823,0.16864 -0.46534,0.56069 -1.83761,1.25123 -1.83761,0.9247 0,-0.14414 0.22405,-0.38198 0.49788,-0.52853 0.57631,-0.30843 0.7789,-2.51596 0.21337,-2.32508 -0.1729,0.0584 -0.31437,0.33372 -0.31437,0.61191 0,1.02965 -0.72524,1.54301 -1.03595,0.7333 -0.10466,-0.27273 0.0323,-0.5732 0.36856,-0.80875 0.2943,-0.20614 0.5351,-0.54959 0.5351,-0.76322 0,-0.21363 0.27278,-0.49213 0.60618,-0.61889 0.66705,-0.25361 1.46736,-1.07935 1.04611,-1.07935 -0.14552,0 -0.41402,0.18007 -0.59667,0.40014 -0.25259,0.30435 -0.41869,0.32827 -0.69385,0.0999 -0.27907,-0.23161 -0.36177,-0.20803 -0.36177,0.10314 0,0.22187 -0.35719,0.52791 -0.79375,0.68009 -0.43657,0.15219 -0.79375,0.44859 -0.79375,0.65866 0,0.21008 -0.27026,0.44979 -0.60058,0.53269 -0.33032,0.0829 -0.84384,0.37737 -1.14115,0.65436 -1.07627,1.0027 -2.3889,1.48496 -1.56557,0.57519 0.26339,-0.29104 0.59089,-0.52917 0.72777,-0.52917 0.13688,0 0.59188,-0.24423 1.01109,-0.54274 0.66023,-0.47012 0.7193,-0.61146 0.44146,-1.05635 -0.19782,-0.31676 -0.4967,-0.45778 -0.77981,-0.36792 -0.4214,0.13375 -0.42743,0.0848 -0.0736,-0.59729 0.21201,-0.40864 0.53596,-0.74299 0.7199,-0.74299 0.18393,0 0.33443,-0.14883 0.33443,-0.33073 0,-0.1819 0.0893,-0.33073 0.19843,-0.33073 0.10914,0 0.34727,0.004 0.52917,0.008 0.1819,0.005 2.4e-4,0.29919 -0.4037,0.65464 l -0.73442,0.64627 0.53598,0.53599 c 0.63981,0.63981 0.80058,0.66775 0.80058,0.13912 0,-0.21828 -0.11907,-0.39688 -0.26459,-0.39688 -0.14552,0 -0.26458,-0.17859 -0.26458,-0.39687 0,-0.21828 0.18233,-0.39688 0.40518,-0.39688 0.22285,0 0.47083,-0.17107 0.55106,-0.38017 0.0802,-0.20909 0.31463,-0.31541 0.52087,-0.23627 0.41086,0.15766 0.44879,-0.007 0.20821,-0.90491 -0.18393,-0.68633 -0.68051,-0.77156 -1.15615,-0.19844 -0.22757,0.27421 -0.23759,0.39688 -0.0324,0.39688 0.16334,0 0.29698,-0.14288 0.29698,-0.3175 0,-0.24695 0.0705,-0.24695 0.3175,0 0.24694,0.24694 0.24652,0.38847 -0.002,0.63689 -0.24947,0.24946 -0.41537,0.2234 -0.75779,-0.11902 -0.36525,-0.36524 -0.38072,-0.50791 -0.0927,-0.85495 0.19013,-0.2291 0.272,-0.49024 0.18193,-0.58031 -0.0901,-0.0901 -0.24053,0.0363 -0.33435,0.28076 -0.0938,0.24449 -0.51156,0.62086 -0.92831,0.83637 -0.45439,0.23497 -0.73283,0.57529 -0.69554,0.85011 0.0342,0.25205 -0.0569,0.45827 -0.2024,0.45827 -0.14552,0 -0.24318,-0.17859 -0.21704,-0.39687 0.0263,-0.2195 -0.26933,-0.0349 -0.66145,0.41295 -0.77373,0.88376 -2.06127,1.63027 -2.33673,1.35481 -0.0953,-0.0953 0.25302,-0.35145 0.77409,-0.56917 0.52108,-0.21772 1.02363,-0.636 1.11679,-0.92951 0.0932,-0.29352 0.28042,-0.53367 0.41613,-0.53367 0.13572,0 0.24676,-0.13275 0.24676,-0.29501 0,-0.17626 -0.27975,-0.11172 -0.69498,0.16035 l -0.69498,0.45537 0.49654,-0.6812 c 0.2731,-0.37467 0.60277,-0.68495 0.7326,-0.68953 0.12983,-0.005 0.88919,-0.57386 1.68746,-1.26508 0.79827,-0.69122 1.7636,-1.51956 2.14519,-1.84074 l 0.69379,-0.58396 -0.98357,0.45167 c -0.54096,0.24842 -0.98745,0.55165 -0.99219,0.67385 -0.0142,0.36686 -1.16554,1.21479 -1.66226,1.22423 -0.25466,0.005 -0.46302,0.1874 -0.46302,0.40568 0,0.21828 -0.16586,0.39687 -0.36857,0.39687 -0.20271,0 -0.43503,0.17322 -0.51627,0.38492 -0.0812,0.21171 -0.65953,0.64153 -1.28508,0.95516 -0.62556,0.31363 -0.98854,0.41426 -0.80664,0.22362 0.40366,-0.42305 0.42726,-0.76995 0.0524,-0.76995 -0.15309,0 -0.408,0.37193 -0.56647,0.8265 -0.25027,0.71793 -0.32201,0.76595 -0.54609,0.36553 -0.20158,-0.3602 -0.0977,-0.59873 0.47532,-1.09108 0.777,-0.66766 1.18017,-0.79537 1.18017,-0.37383 0,0.14095 0.18818,0.18406 0.41819,0.0958 0.25969,-0.0996 0.36698,-0.35633 0.28307,-0.6772 -0.1139,-0.43553 -0.0341,-0.49136 0.50785,-0.35534 0.75474,0.18942 0.86201,-0.24203 0.15434,-0.62077 -0.33293,-0.17817 -0.58229,-0.16785 -0.78254,0.0324 -0.21548,0.21548 -0.40279,0.20353 -0.70199,-0.0448 -0.46022,-0.38195 -0.56434,-0.007 -0.12113,0.4364 0.20622,0.20622 0.0483,0.40602 -0.5613,0.71013 -0.96832,0.48306 -1.40557,0.3459 -1.17846,-0.36966 0.13757,-0.43345 0.064,-0.46577 -0.616,-0.27074 -0.74942,0.21493 -1.56291,0.80574 -2.88091,2.09231 -0.35124,0.34286 -0.67095,0.58098 -0.71048,0.52917 -0.11402,-0.14947 0.60002,-1.42442 0.75663,-1.35098 0.37807,0.17728 0.54123,0.009 0.57609,-0.5955 0.021,-0.3637 -0.081,-0.66127 -0.22674,-0.66127 -0.1457,0 -0.19932,-0.1709 -0.11917,-0.37978 0.0802,-0.20888 0.004,-0.43953 -0.17013,-0.51255 -0.21842,-0.0918 -0.17302,-0.24892 0.14716,-0.50928 0.60959,-0.49571 0.58421,-0.60986 -0.13229,-0.59506 -0.56635,0.0117 -2.34853,1.08293 -2.53559,1.52409 -0.0485,0.1144 -0.21773,0.20799 -0.37604,0.20799 -0.15832,0 -0.52298,0.20836 -0.81036,0.46302 -0.38299,0.33939 -0.5534,0.37471 -0.63819,0.1323 -0.0636,-0.18191 -0.23941,-0.33073 -0.39062,-0.33073 -0.16645,0 -0.14546,0.156 0.0532,0.39538 0.26957,0.32481 0.21633,0.48852 -0.29833,0.91724 -0.69971,0.58286 -1.19706,0.67977 -1.33683,0.26047 -0.0512,-0.15345 -0.29575,-0.30875 -0.54356,-0.34512 -0.54627,-0.0802 -0.94935,-0.43422 -0.49436,-0.43422 0.17837,0 0.24631,-0.12619 0.15099,-0.28042 -0.10952,-0.17721 -0.30693,-0.10418 -0.53637,0.19844 -0.21595,0.28483 -0.36646,0.34485 -0.37147,0.14812 -0.0121,-0.47502 -0.80216,-0.40987 -0.80216,0.0662 0,0.21828 0.12608,0.39687 0.28019,0.39687 0.15411,0 0.20983,0.11387 0.12382,0.25303 -0.23014,0.37238 -0.88855,0.0398 -1.07323,-0.54205 -0.0881,-0.2776 -0.27542,-0.50473 -0.41626,-0.50473 -0.14882,0 -0.12661,0.24189 0.053,0.57759 0.26164,0.48887 0.22243,0.64778 -0.25527,1.0346 -0.31041,0.25135 -0.56439,0.60133 -0.56439,0.77773 0,0.24124 -0.0896,0.24632 -0.36177,0.0205 -0.2753,-0.22848 -0.44179,-0.20382 -0.69656,0.10316 -0.25716,0.30986 -0.41983,0.33282 -0.70153,0.099 -0.28194,-0.23399 -0.47653,-0.20499 -0.84163,0.12542 -0.37761,0.34173 -0.54304,0.36276 -0.80751,0.10266 -0.26628,-0.26188 -0.29678,-0.18202 -0.15291,0.40049 0.12274,0.49699 0.0765,0.7276 -0.14597,0.7276 -0.24244,0 -0.25036,0.0907 -0.031,0.35508 0.35333,0.42573 0.1321,0.70326 -0.56062,0.70326 -0.2919,0 -0.45731,0.14036 -0.38976,0.33073 0.0645,0.1819 0.37905,0.30114 0.69888,0.26498 0.31983,-0.0362 0.51683,0.0389 0.43777,0.16684 -0.19655,0.31802 -1.47449,0.54257 -1.47449,0.25909 0,-0.12534 -0.13364,-0.22789 -0.29698,-0.22789 -0.19504,0 -0.17449,0.14759 0.0598,0.42995 0.19625,0.23647 0.32247,0.75748 0.28048,1.1578 -0.0628,0.59913 0.0503,0.75964 0.63988,0.90761 0.40207,0.10092 0.8387,0.0573 0.99545,-0.0995 0.19592,-0.19591 0.14503,-0.28909 -0.17056,-0.3123 -0.87774,-0.0645 -0.97896,-0.10215 -0.97896,-0.3638 0,-0.63801 0.20281,-0.77371 0.62965,-0.42132 0.34169,0.2821 0.52541,0.29814 0.7574,0.0661 0.16846,-0.16846 0.4313,-0.3025 0.5841,-0.29788 0.1528,0.005 0.0403,0.18793 -0.25007,0.40733 -0.41897,0.31661 -0.45435,0.44435 -0.17149,0.61916 0.27809,0.17187 0.22473,0.31248 -0.24284,0.63998 -0.32958,0.23085 -0.6865,0.36578 -0.79316,0.29987 -0.10666,-0.0659 -0.51806,0.0483 -0.91421,0.25383 -0.71717,0.37207 -0.71786,0.3752 -0.15983,0.7237 0.31949,0.19952 0.56045,0.62467 0.56045,0.98883 0,0.61094 -0.022,0.61896 -0.5029,0.1837 -0.51576,-0.46676 -1.02551,-0.17345 -0.67742,0.38978 0.0956,0.15469 -0.002,0.48211 -0.21692,0.7276 -0.39825,0.45493 -0.44762,1.27108 -0.10994,1.81747 0.10316,0.16691 0.038,0.35382 -0.14481,0.41534 -0.25454,0.0857 -0.23944,0.22496 0.0645,0.59479 0.30243,0.36801 0.31817,0.50942 0.0661,0.59424 -0.1819,0.0612 -0.33073,0.2332 -0.33073,0.38216 0,0.14896 0.20556,0.19196 0.45679,0.0956 0.33197,-0.12738 0.28321,0.009 -0.17841,0.50086 -0.61852,0.65839 -0.43483,0.99135 0.19787,0.35865 0.23466,-0.23466 0.39495,-0.24005 0.61432,-0.0207 0.33456,0.33456 0.93543,0.18465 1.62141,-0.4045 0.57896,-0.49724 0.60957,-0.12238 0.0413,0.50557 -0.23196,0.2563 -0.58814,0.40215 -0.79152,0.32411 -0.45414,-0.17427 -0.76345,0.54016 -0.50645,1.16977 0.17499,0.4287 0.20308,0.42523 0.37892,-0.0468 0.16973,-0.45565 0.20801,-0.46268 0.36017,-0.0661 0.0952,0.24812 0.043,0.44368 -0.11842,0.44368 -0.19043,0 -0.17657,0.13508 0.0407,0.39687 0.18115,0.21829 0.24069,0.39688 0.13229,0.39688 -0.1084,0 -0.042,0.18687 0.14756,0.41527 0.2006,0.24172 0.57352,0.35787 0.89229,0.27793 0.46616,-0.11691 0.43938,-0.0428 -0.17995,0.49808 -0.40019,0.34948 -0.72761,0.75428 -0.72761,0.89955 0,0.14527 -0.20836,0.38236 -0.46302,0.52688 -0.43286,0.24563 -0.4342,0.29193 -0.0205,0.71078 0.27586,0.27931 0.62181,0.37923 0.91863,0.26533 0.40423,-0.15512 0.41732,-0.21906 0.0867,-0.42349 -0.33677,-0.2082 -0.32767,-0.30259 0.0673,-0.69762 0.67382,-0.674 0.92785,-0.18204 0.38994,0.75521 -0.25647,0.44687 -0.42134,0.85747 -0.36638,0.91243 0.055,0.055 0.50516,-0.0694 1.00045,-0.27633 0.49528,-0.20695 1.01958,-0.41687 1.1651,-0.4665 0.14552,-0.0496 0.23625,-0.17524 0.20161,-0.27914 -0.0346,-0.10391 0.10668,-0.12382 0.31402,-0.0443 0.38888,0.14922 0.26525,0.88399 -0.20139,1.19694 -0.15985,0.1072 -0.14838,0.47163 0.031,0.98633 0.3579,1.02669 -0.12785,1.45516 -0.68995,0.60859 -0.20973,-0.31588 -0.51895,-0.57432 -0.68714,-0.57432 -0.5045,0 -1.2167,1.01622 -1.03821,1.48138 0.14324,0.37328 0.0851,0.38903 -0.42607,0.11546 -0.50708,-0.27138 -1.11323,-0.20219 -0.78916,0.0901 0.51933,0.46836 1.32179,0.37798 2.04466,-0.23028 0.58271,-0.49031 0.85881,-0.58793 1.00301,-0.35461 0.11101,0.17961 0.0534,0.37046 -0.13022,0.43167 -0.18105,0.0604 -0.62874,0.3674 -0.99486,0.68233 -0.65358,0.56218 -0.65644,0.58094 -0.15748,1.0325 0.48409,0.4381 0.53109,0.43463 0.9905,-0.073 0.59062,-0.65264 0.36979,-0.9935 -0.24522,-0.3785 -0.54157,0.54157 -0.89064,0.28871 -0.4066,-0.29453 0.58804,-0.70854 1.79361,-1.20203 2.50209,-1.02422 0.77865,0.19543 0.84534,0.49662 0.20072,0.90653 -0.3801,0.2417 -0.32087,0.26653 0.33073,0.13864 l 0.79375,-0.15579 -0.66146,0.54276 -0.66146,0.54276 0.79375,-0.15711 c 0.75541,-0.14953 0.76895,-0.13708 0.28016,0.25779 -0.86252,0.69678 0.11956,0.45278 1.43963,-0.35769 0.7957,-0.48851 1.16312,-0.88405 1.10769,-1.19246 -0.10406,-0.57898 0.78136,-0.4727 0.94105,0.11296 0.083,0.30434 0.0521,0.31734 -0.13241,0.0557 -0.16542,-0.23452 -0.24063,-0.0769 -0.24063,0.50425 0,0.54264 -0.20127,1.00837 -0.56201,1.30048 -0.57012,0.46165 -0.52023,0.78537 0.12104,0.78537 0.19402,0 0.35277,-0.15841 0.35277,-0.35203 z m -2.64583,-1.63235 c 0,-0.24253 0.11906,-0.40128 0.26458,-0.35278 0.31123,0.10375 0.29483,0.42081 -0.0331,0.63941 -0.12733,0.0849 -0.23151,-0.0441 -0.23151,-0.28663 z m 1.46342,-0.38359 c -0.0974,-0.15757 -0.31767,-0.20217 -0.48952,-0.0991 -0.17184,0.10307 -0.14279,-0.0216 0.0645,-0.27699 0.34597,-0.42615 0.39697,-0.4287 0.61957,-0.0309 0.26901,0.48069 0.0866,0.86212 -0.19461,0.40703 z m -1.90777,-0.70305 c -0.10863,-0.28308 0.18153,-0.74507 0.8682,-1.38235 0.56725,-0.52645 1.125,-0.9602 1.23944,-0.96389 0.11445,-0.004 0.31634,-0.18185 0.44864,-0.39591 0.1323,-0.21407 0.3361,-0.29366 0.45289,-0.17688 0.11678,0.11679 -0.14464,0.46976 -0.58093,0.78438 -0.97311,0.70173 -2.27732,2.09002 -2.11548,2.25186 0.0653,0.0653 0.33004,-0.047 0.58821,-0.24964 0.42685,-0.33501 0.43649,-0.32643 0.10629,0.0946 -0.45238,0.57683 -0.79548,0.58972 -1.00726,0.0378 z m 2.23029,-0.56681 c -0.5742,-0.13039 -0.58968,-0.4256 -0.046,-0.87683 0.34562,-0.28684 0.4582,-0.28106 0.6574,0.0337 0.44792,0.70786 0.21393,1.0305 -0.61142,0.84308 z m -5.9587,-0.38035 c 0.13183,-0.39551 0.73317,-0.61328 0.73317,-0.26551 0,0.14208 -0.18854,0.33067 -0.41898,0.4191 -0.25768,0.0989 -0.37864,0.0397 -0.31419,-0.15359 z m 4.2756,-1.33964 c 0.7438,-0.76398 1.39729,-1.28404 1.45221,-1.15569 0.10954,0.25605 -2.207,2.54476 -2.5757,2.54476 -0.12588,0 0.37969,-0.62508 1.12349,-1.38907 z m 8.23153,0.59532 c -0.0899,-0.14552 -0.0374,-0.26459 0.11668,-0.26459 0.15411,0 0.28019,0.11907 0.28019,0.26459 0,0.14552 -0.0525,0.26458 -0.11667,0.26458 -0.0642,0 -0.19026,-0.11906 -0.2802,-0.26458 z m 1.3147,-0.0133 c -0.243,-0.3932 -0.0497,-0.5324 0.37486,-0.26998 0.22747,0.14058 0.25453,0.27694 0.0768,0.3868 -0.15101,0.0933 -0.35423,0.0408 -0.45162,-0.11682 z m -5.28345,-0.65863 c 0.29104,-0.21478 0.73753,-0.6409 0.99219,-0.94694 0.43514,-0.52292 0.46302,-0.52624 0.46302,-0.055 0,0.27579 -0.34579,0.7057 -0.76843,0.95535 -0.937,0.5535 -1.41789,0.58612 -0.68678,0.0466 z m -1.05833,-0.12183 c 0.0899,-0.14552 0.21603,-0.26459 0.2802,-0.26459 0.0642,0 0.11667,0.11907 0.11667,0.26459 0,0.14552 -0.12608,0.26458 -0.28019,0.26458 -0.15411,0 -0.20662,-0.11906 -0.11668,-0.26458 z m 3.04271,-0.11668 c 0,-0.22687 0.11906,-0.41249 0.26458,-0.41249 0.14552,0 0.26458,0.11204 0.26458,0.24897 0,0.13693 -0.11906,0.32255 -0.26458,0.41249 -0.14552,0.0899 -0.26458,-0.0221 -0.26458,-0.24897 z m -6.87917,-0.0843 c 0,-0.11052 0.26789,-0.36551 0.59531,-0.56665 0.5932,-0.36441 0.59353,-0.36369 0.0913,0.20094 -0.53924,0.60624 -0.68659,0.68472 -0.68659,0.36571 z m -0.66146,-0.8574 c 0.0899,-0.14552 0.28259,-0.26458 0.42811,-0.26458 0.14552,0 0.191,0.11906 0.10106,0.26458 -0.0899,0.14552 -0.28258,0.26459 -0.42811,0.26459 -0.14552,0 -0.19099,-0.11907 -0.10106,-0.26459 z m 4.55966,-0.0328 c 0.17947,-0.18082 0.39297,-0.26211 0.47443,-0.18065 0.0815,0.0815 -0.0654,0.2294 -0.32632,0.32876 -0.37709,0.14359 -0.40748,0.1132 -0.14811,-0.14811 z m 4.83305,-0.24737 c 0,-0.1541 0.11906,-0.20661 0.26458,-0.11667 0.14552,0.0899 0.26458,0.21602 0.26458,0.2802 0,0.0642 -0.11906,0.11667 -0.26458,0.11667 -0.14552,0 -0.26458,-0.12609 -0.26458,-0.2802 z m 1.32291,0.0156 c 0,-0.14552 0.12609,-0.26458 0.2802,-0.26458 0.15411,0 0.20662,0.11906 0.11668,0.26458 -0.0899,0.14552 -0.21603,0.26458 -0.2802,0.26458 -0.0642,0 -0.11668,-0.11906 -0.11668,-0.26458 z M 55.9626,138.67561 c -0.097,-0.097 -0.17639,-0.29942 -0.17639,-0.44979 0,-0.16579 0.12323,-0.15017 0.31309,0.0397 0.1722,0.1722 0.25157,0.3746 0.17639,0.44979 -0.0752,0.0752 -0.21608,0.0573 -0.31309,-0.0397 z m 8.29027,-1.51931 c 0,-0.0504 0.1786,-0.23981 0.39688,-0.42097 0.22876,-0.18985 0.39687,-0.21556 0.39687,-0.0607 0,0.14777 -0.17859,0.3372 -0.39687,0.42097 -0.21828,0.0838 -0.39688,0.11108 -0.39688,0.0607 z m 1.32292,0.004 c 0,-0.0572 0.18478,-0.17489 0.41062,-0.26156 0.23546,-0.0904 0.34166,-0.046 0.24897,0.10399 -0.15538,0.25141 -0.65959,0.37186 -0.65959,0.15757 z m 7.67291,-0.17622 c 0,-0.15411 0.11907,-0.20661 0.26459,-0.11668 0.14552,0.0899 0.26458,0.21603 0.26458,0.2802 0,0.0642 -0.11906,0.11668 -0.26458,0.11668 -0.14552,0 -0.26459,-0.12609 -0.26459,-0.2802 z m 1.75197,-0.17269 c -0.28491,-0.28492 -0.17896,-0.60544 0.20014,-0.60544 0.20053,0 0.5447,-0.26789 0.76483,-0.59532 0.41623,-0.61912 0.84702,-0.54963 0.58534,0.0944 -0.2017,0.49641 -1.34461,1.31202 -1.55031,1.10633 z m -16.43634,-0.34086 c -0.0899,-0.14552 -0.0374,-0.26458 0.11668,-0.26458 0.15411,0 0.2802,0.11906 0.2802,0.26458 0,0.14552 -0.0525,0.26458 -0.11668,0.26458 -0.0642,0 -0.19026,-0.11906 -0.2802,-0.26458 z m 1.74184,0.16813 c 0.0606,-0.0531 0.4079,-0.23821 0.7717,-0.41147 0.6237,-0.29703 0.63214,-0.29153 0.14787,0.0965 -0.42148,0.33768 -1.28266,0.63269 -0.91957,0.31502 z m 7.1217,-0.18375 c 0,-0.1541 0.11906,-0.20661 0.26458,-0.11667 0.14553,0.0899 0.26459,0.21602 0.26459,0.2802 0,0.0642 -0.11906,0.11667 -0.26459,0.11667 -0.14552,0 -0.26458,-0.12609 -0.26458,-0.2802 z m 4.7625,0.0156 c 0,-0.14552 0.12609,-0.26458 0.2802,-0.26458 0.15411,0 0.20661,0.11906 0.11668,0.26458 -0.0899,0.14552 -0.21603,0.26458 -0.2802,0.26458 -0.0642,0 -0.11668,-0.11906 -0.11668,-0.26458 z m -0.39687,-0.79375 c 0.0899,-0.14552 0.21602,-0.26458 0.28019,-0.26458 0.0642,0 0.11668,0.11906 0.11668,0.26458 0,0.14552 -0.12609,0.26458 -0.2802,0.26458 -0.15411,0 -0.20661,-0.11906 -0.11667,-0.26458 z m -12.67187,-0.37477 c 0.0884,-0.23044 0.27702,-0.41898 0.4191,-0.41898 0.34777,0 0.13,0.60134 -0.26551,0.73318 -0.19334,0.0644 -0.25247,-0.0565 -0.15359,-0.3142 z m 14.92082,-0.41622 c 0,-0.15424 0.31772,-0.40124 0.70605,-0.54888 0.38832,-0.14764 0.86078,-0.47211 1.04992,-0.72105 0.18913,-0.24894 0.34766,-0.32225 0.35229,-0.1629 0.01,0.3388 -0.66785,0.96831 -1.51294,1.40538 -0.40205,0.20794 -0.59532,0.21685 -0.59532,0.0275 z m 2.91042,-0.0184 c 0,-0.1541 0.11906,-0.20661 0.26458,-0.11667 0.14553,0.0899 0.26459,0.21602 0.26459,0.2802 0,0.0642 -0.11906,0.11667 -0.26459,0.11667 -0.14552,0 -0.26458,-0.12609 -0.26458,-0.2802 z m -19.57916,-0.24896 c 0,-0.14552 0.12609,-0.26459 0.2802,-0.26459 0.15411,0 0.20661,0.11907 0.11667,0.26459 -0.0899,0.14552 -0.21602,0.26458 -0.2802,0.26458 -0.0642,0 -0.11667,-0.11906 -0.11667,-0.26458 z m 19.04999,-0.39688 c 0.73397,-0.78126 0.69532,-0.77043 0.89471,-0.25084 0.0867,0.22584 0.0534,0.34621 -0.074,0.2675 -0.12737,-0.0787 -0.37871,0.0342 -0.55853,0.25084 -0.17983,0.21668 -0.4522,0.39396 -0.60527,0.39396 -0.15307,0 0.001,-0.29766 0.3431,-0.66146 z m -21.01886,-0.1072 c -0.0796,-0.12882 0.0502,-0.30903 0.28847,-0.40047 0.57033,-0.21886 0.65318,-0.0993 0.21249,0.3066 -0.19591,0.18045 -0.42134,0.22269 -0.50096,0.0939 z m 5.31794,-0.17086 c 0.16059,-0.4185 0.61968,-0.52749 0.61968,-0.14712 0,0.12995 -0.17253,0.30248 -0.3834,0.3834 -0.25626,0.0983 -0.33461,0.02 -0.23628,-0.23628 z m 18.87592,0.29608 c 0,-0.0629 0.38696,-0.3772 0.8599,-0.69855 l 0.8599,-0.58428 -0.71606,0.69855 c -0.67244,0.656 -1.00374,0.84885 -1.00374,0.58428 z m -3.24114,-2.12388 c -1.00408,-1.21049 -0.91359,-1.4855 0.14969,-0.45493 0.86453,0.83794 1.54584,0.89176 0.90635,0.0716 -0.28667,-0.36765 -0.27255,-0.37752 0.11103,-0.0776 0.29571,0.23119 0.49555,0.25283 0.61093,0.0661 0.0943,-0.15259 0.30731,-0.27743 0.47334,-0.27743 0.21745,0 0.21308,0.0888 -0.0156,0.3175 -0.45634,0.45634 -0.39088,0.75238 0.12278,0.55527 0.28438,-0.10913 0.37622,-0.0653 0.25937,0.12376 -0.0995,0.16099 -0.38691,0.28439 -0.63871,0.27422 -0.2518,-0.0102 -0.63641,0.0484 -0.85469,0.1301 -0.24484,0.0917 -0.6756,-0.18744 -1.12448,-0.72859 z m 5.22552,0.38607 c 0.0899,-0.14552 0.28258,-0.26458 0.4281,-0.26458 0.14553,0 0.191,0.11906 0.10107,0.26458 -0.0899,0.14552 -0.28259,0.26458 -0.42811,0.26458 -0.14552,0 -0.191,-0.11906 -0.10106,-0.26458 z m -0.79375,-0.26458 c 0.0899,-0.14552 0.28258,-0.26459 0.4281,-0.26459 0.14553,0 0.191,0.11907 0.10107,0.26459 -0.0899,0.14552 -0.28259,0.26458 -0.42811,0.26458 -0.14552,0 -0.191,-0.11906 -0.10106,-0.26458 z m -19.18229,-0.79375 c 0,-0.14552 0.12609,-0.26459 0.2802,-0.26459 0.15411,0 0.20661,0.11907 0.11668,0.26459 -0.0899,0.14552 -0.21603,0.26458 -0.2802,0.26458 -0.0642,0 -0.11668,-0.11906 -0.11668,-0.26458 z m 12.7,0.16469 c 0,-0.055 0.20836,-0.26331 0.46302,-0.46303 0.41964,-0.3291 0.429,-0.31974 0.0999,0.0999 -0.34565,0.44073 -0.56292,0.58089 -0.56292,0.36313 z m 7.40833,-0.173 c 0,-0.14095 0.17859,-0.25628 0.39688,-0.25628 0.21828,0 0.39687,0.0468 0.39687,0.10399 0,0.0572 -0.17859,0.17251 -0.39687,0.25628 -0.21829,0.0838 -0.39688,0.037 -0.39688,-0.10399 z m -29.02811,-0.79546 c -0.0328,-0.46846 0.0516,-0.73607 0.20275,-0.64265 0.14245,0.088 0.19558,0.26267 0.11807,0.38808 -0.0775,0.12541 -0.018,0.30401 0.13229,0.39688 0.15027,0.0929 0.20472,0.27969 0.121,0.41516 -0.28828,0.46644 -0.518,0.24337 -0.57411,-0.55747 z m 1.77603,0.25898 c 0,-0.1541 0.11906,-0.20661 0.26458,-0.11667 0.14553,0.0899 0.26459,0.21602 0.26459,0.2802 0,0.0642 -0.11906,0.11667 -0.26459,0.11667 -0.14552,0 -0.26458,-0.12609 -0.26458,-0.2802 z m 25.13541,0.0156 c -0.23846,-0.15411 -0.2711,-0.2581 -0.0818,-0.26053 0.17332,-0.002 0.3887,0.11501 0.47864,0.26053 0.20302,0.32849 0.11142,0.32849 -0.39688,0 z m -5.55625,-0.26458 c 0,-0.14552 0.12609,-0.26459 0.2802,-0.26459 0.15411,0 0.20662,0.11907 0.11668,0.26459 -0.0899,0.14552 -0.21603,0.26458 -0.2802,0.26458 -0.0642,0 -0.11668,-0.11906 -0.11668,-0.26458 z m 8.63499,-0.13078 c 0.0834,-0.21744 0.2583,-0.32948 0.38857,-0.24896 0.37357,0.23088 0.27622,0.64432 -0.15171,0.64432 -0.23603,0 -0.32901,-0.1552 -0.23686,-0.39536 z m -24.76576,-0.29361 c 0.0133,-0.358 1.04226,-1.52316 1.20309,-1.36233 0.0772,0.0772 -0.16392,0.46862 -0.53578,0.86987 -0.37187,0.40124 -0.67215,0.62285 -0.66731,0.49246 z m 16.92452,-0.21502 c 0,-0.20616 -0.14882,-0.42798 -0.33072,-0.49295 -0.18191,-0.065 -0.24711,-0.20812 -0.1449,-0.31813 0.21422,-0.23055 1.00479,0.47949 1.00479,0.90242 0,0.15592 -0.11906,0.28348 -0.26458,0.28348 -0.14552,0 -0.26459,-0.16867 -0.26459,-0.37482 z m 5.55625,0.27084 c 0,-0.0572 0.18478,-0.17489 0.41062,-0.26155 0.23546,-0.0904 0.34166,-0.046 0.24897,0.10398 -0.15538,0.25141 -0.65959,0.37186 -0.65959,0.15757 z m 2.11667,-0.70538 c 0,-0.15411 0.11906,-0.20662 0.26458,-0.11668 0.14553,0.0899 0.26459,0.21603 0.26459,0.2802 0,0.0642 -0.11906,0.11668 -0.26459,0.11668 -0.14552,0 -0.26458,-0.12609 -0.26458,-0.2802 z m -5.68854,-0.24897 c -0.0899,-0.14552 -0.0374,-0.26458 0.11668,-0.26458 0.15411,0 0.28019,0.11906 0.28019,0.26458 0,0.14552 -0.0525,0.26458 -0.11667,0.26458 -0.0642,0 -0.19026,-0.11906 -0.2802,-0.26458 z m -23.2787,-0.25709 c -0.0795,-0.12869 0.0842,-0.30661 0.36396,-0.39539 0.27971,-0.0888 0.57536,-0.33548 0.657,-0.54822 0.0816,-0.21274 0.27973,-0.3868 0.44021,-0.3868 0.16049,0 0.10469,0.1871 -0.12398,0.41577 -0.22868,0.22868 -0.41578,0.5136 -0.41578,0.63315 0,0.3225 -0.75375,0.55276 -0.92141,0.28149 z m 6.21838,-0.41076 c 0.18408,-0.2218 0.38917,-0.34878 0.45577,-0.28219 0.18349,0.18349 -0.18932,0.68546 -0.50908,0.68546 -0.17545,0 -0.15538,-0.15182 0.0533,-0.40327 z m 13.88532,0.13868 c -0.0899,-0.14552 -0.0374,-0.26458 0.11668,-0.26458 0.15411,0 0.28019,0.11906 0.28019,0.26458 0,0.14552 -0.0525,0.26459 -0.11667,0.26459 -0.0642,0 -0.19026,-0.11907 -0.2802,-0.26459 z m 8.26088,-0.80708 c 0.32338,-0.3403 0.63914,-0.56581 0.70169,-0.50113 0.0626,0.0647 -0.20203,0.3431 -0.58796,0.61872 l -0.70169,0.50114 z m 2.51615,0.0133 c 0.34076,-0.54565 0.99693,-0.72592 0.99693,-0.27389 0,0.23655 -0.82923,0.80306 -1.17548,0.80306 -0.0836,0 -0.003,-0.23813 0.17855,-0.52917 z m -7.20516,0 c 0,-0.14552 0.12609,-0.26458 0.2802,-0.26458 0.15411,0 0.20662,0.11906 0.11668,0.26458 -0.0899,0.14552 -0.21603,0.26459 -0.2802,0.26459 -0.0642,0 -0.11668,-0.11907 -0.11668,-0.26459 z m 4.49792,-0.90195 c 0,-0.0504 0.17859,-0.23981 0.39688,-0.42096 0.22875,-0.18985 0.39687,-0.21557 0.39687,-0.0607 0,0.14777 -0.17859,0.33721 -0.39687,0.42097 -0.21829,0.0838 -0.39688,0.11108 -0.39688,0.0607 z m -12.56771,-0.42096 c 0.0899,-0.14552 0.21603,-0.26459 0.2802,-0.26459 0.0642,0 0.11668,0.11907 0.11668,0.26459 0,0.14552 -0.12609,0.26458 -0.2802,0.26458 -0.15411,0 -0.20661,-0.11906 -0.11668,-0.26458 z m 2.4766,-0.72761 c -0.83919,-1.0131 -1.14137,-1.48325 -0.83527,-1.29956 0.33812,0.20292 1.51334,1.76258 1.32811,1.76258 -0.0601,0 -0.28189,-0.20836 -0.49284,-0.46302 z m 8.13504,-0.48466 c -0.2208,-0.5754 -0.20589,-0.63982 0.14808,-0.63982 0.16978,0 0.23034,0.0784 0.13459,0.1741 -0.0957,0.0958 -0.0415,0.33387 0.12059,0.52916 0.18528,0.22324 0.19493,0.35508 0.026,0.35508 -0.14777,0 -0.34094,-0.18833 -0.42927,-0.41852 z m -15.63872,-0.37523 c 0.0899,-0.14552 0.21603,-0.26459 0.2802,-0.26459 0.0642,0 0.11668,0.11907 0.11668,0.26459 0,0.14552 -0.12609,0.26458 -0.2802,0.26458 -0.15411,0 -0.20661,-0.11906 -0.11668,-0.26458 z m 11.24479,-0.1323 c 0.18116,-0.21828 0.44844,-0.39687 0.59396,-0.39687 0.14759,0 0.11894,0.17549 -0.0648,0.39687 -0.18116,0.21829 -0.44844,0.39688 -0.59396,0.39688 -0.14759,0 -0.11894,-0.17549 0.0648,-0.39688 z m 5.55625,0.2739 c 0,-0.0676 0.26789,-0.26573 0.59531,-0.4402 0.53981,-0.28763 0.56146,-0.27616 0.23219,0.12299 -0.33809,0.40984 -0.8275,0.59745 -0.8275,0.31721 z m -0.14948,-0.90753 c 0.0984,-0.15926 0.42481,-0.42114 0.72531,-0.58196 0.39147,-0.20951 0.49563,-0.21032 0.36741,-0.003 -0.0984,0.15926 -0.42482,0.42114 -0.72532,0.58196 -0.39147,0.20951 -0.49563,0.21031 -0.3674,0.003 z m -3.27582,-1.06944 c 0.84126,-0.75385 1.25243,-0.96691 1.48825,-0.77119 0.25411,0.21089 0.25619,0.38198 0.01,0.77704 -0.35197,0.56359 -0.60646,0.63695 -0.84888,0.24471 -0.0944,-0.15278 -0.3973,-0.0426 -0.72697,0.26458 -0.3108,0.28956 -0.68192,0.52648 -0.82469,0.52648 -0.14277,0 0.26349,-0.46873 0.90282,-1.04162 z m 2.10238,0.67714 c 0,-0.0549 0.20836,-0.2633 0.46303,-0.46302 0.41964,-0.32911 0.429,-0.31975 0.0999,0.0999 -0.34565,0.44073 -0.56292,0.58089 -0.56292,0.36313 z m -17.99166,-0.95844 c 0,-0.14552 0.11906,-0.26458 0.26458,-0.26458 0.14553,0 0.26459,0.11906 0.26459,0.26458 0,0.14552 -0.11906,0.26458 -0.26459,0.26458 -0.14552,0 -0.26458,-0.11906 -0.26458,-0.26458 z m -7.14375,-0.20094 c 0,-0.11051 0.26789,-0.36551 0.59531,-0.56664 0.5932,-0.36441 0.59353,-0.3637 0.0913,0.20093 -0.53924,0.60624 -0.68659,0.68473 -0.68659,0.36571 z m 15.27528,-1.15481 c 0.17947,-0.18082 0.39297,-0.26211 0.47443,-0.18065 0.0815,0.0815 -0.0654,0.2294 -0.32632,0.32876 -0.37709,0.14359 -0.40748,0.1132 -0.14811,-0.14811 z m 9.46326,0.0328 c 0.0899,-0.14552 0.21603,-0.26458 0.2802,-0.26458 0.0642,0 0.11667,0.11906 0.11667,0.26458 0,0.14552 -0.12608,0.26459 -0.28019,0.26459 -0.15411,0 -0.20662,-0.11907 -0.11668,-0.26459 z m -23.2552,-1.16851 c 0.0884,-0.23044 0.27702,-0.41899 0.4191,-0.41899 0.34777,0 0.13,0.60134 -0.26551,0.73318 -0.19334,0.0644 -0.25247,-0.0565 -0.15359,-0.31419 z m 15.3177,0.11018 c 0.0899,-0.14552 0.21603,-0.26458 0.2802,-0.26458 0.0642,0 0.11667,0.11906 0.11667,0.26458 0,0.14552 -0.12608,0.26458 -0.28019,0.26458 -0.15411,0 -0.20662,-0.11906 -0.11668,-0.26458 z m -9.78958,-1.05833 c -0.0899,-0.14552 -0.0374,-0.26459 0.11668,-0.26459 0.15411,0 0.28019,0.11907 0.28019,0.26459 0,0.14552 -0.0525,0.26458 -0.11667,0.26458 -0.0642,0 -0.19026,-0.11906 -0.2802,-0.26458 z m -2.36369,-0.25216 c -0.37792,-0.13719 -0.42375,-0.24003 -0.17538,-0.39352 0.18492,-0.11429 0.46674,-0.0773 0.62626,0.0822 0.39037,0.39037 0.17553,0.53869 -0.45088,0.31128 z m 6.72931,0.12917 c 0,-0.0676 0.26789,-0.26572 0.59531,-0.44019 0.53981,-0.28763 0.56146,-0.27617 0.23219,0.12298 -0.33809,0.40985 -0.8275,0.59746 -0.8275,0.31721 z m 4.73859,-0.60135 c -0.23497,-0.61804 -0.18968,-0.79375 0.30862,-1.19724 0.3212,-0.2601 0.64925,-0.40766 0.729,-0.32791 0.0797,0.0797 -0.11771,0.32899 -0.43879,0.55388 -0.54385,0.38094 -0.56967,1.09336 -0.0275,0.75827 0.13547,-0.0837 0.24631,-0.0134 0.24631,0.15628 0,0.16968 0.17859,0.23997 0.39687,0.15621 0.24175,-0.0928 0.39688,-4.2e-4 0.39688,0.23628 0,0.2391 -0.25696,0.38857 -0.66801,0.38857 -0.48456,0 -0.74364,-0.19893 -0.9434,-0.72434 z m 2.59919,0.42692 c 0.17947,-0.18082 0.39297,-0.26211 0.47443,-0.18065 0.0815,0.0815 -0.0654,0.2294 -0.32632,0.32876 -0.37708,0.14359 -0.40747,0.1132 -0.14811,-0.14811 z m -7.90069,-0.95935 c -0.32911,-0.41965 -0.31975,-0.42901 0.0999,-0.0999 0.25466,0.19972 0.46302,0.40808 0.46302,0.46302 0,0.21776 -0.21727,0.0776 -0.56292,-0.36312 z m 8.9143,0.12088 c 0.0994,-0.26094 0.2473,-0.40778 0.32876,-0.32632 0.0815,0.0815 1.7e-4,0.29495 -0.18065,0.47443 -0.26131,0.25936 -0.2917,0.22897 -0.14811,-0.14811 z m -15.17071,-0.33843 c 0.2512,-0.263 0.52929,-0.40562 0.61798,-0.31693 0.0887,0.0887 -0.11684,0.30387 -0.45672,0.47818 -0.59078,0.30298 -0.59788,0.29588 -0.16126,-0.16125 z m 2.64739,-0.37739 c -0.18306,-0.29312 -0.2156,-0.52916 -0.073,-0.52916 0.14164,0 0.38496,0.23812 0.54072,0.52916 0.15576,0.29105 0.18859,0.52917 0.0729,0.52917 -0.11564,0 -0.35896,-0.23812 -0.54072,-0.52917 z m 5.49485,0.26459 c 0,-0.14552 0.11906,-0.26459 0.26458,-0.26459 0.14552,0 0.26458,0.11907 0.26458,0.26459 0,0.14552 -0.11906,0.26458 -0.26458,0.26458 -0.14552,0 -0.26458,-0.11906 -0.26458,-0.26458 z m -0.52917,-0.52917 c 0,-0.14552 0.12609,-0.26458 0.2802,-0.26458 0.15411,0 0.20661,0.11906 0.11668,0.26458 -0.0899,0.14552 -0.21603,0.26458 -0.2802,0.26458 -0.0642,0 -0.11668,-0.11906 -0.11668,-0.26458 z m -1.5875,-0.80936 c 0,-0.15411 0.11907,-0.20662 0.26459,-0.11668 0.14552,0.0899 0.26458,0.21602 0.26458,0.2802 0,0.0642 -0.11906,0.11667 -0.26458,0.11667 -0.14552,0 -0.26459,-0.12609 -0.26459,-0.28019 z m 2.03691,-1.09351 c 0.0885,-0.46086 0.30465,-0.61744 0.88097,-0.63827 0.66475,-0.024 0.72964,0.0359 0.50108,0.46302 -0.14442,0.26984 -0.36771,0.49062 -0.49621,0.49062 -0.1285,0 -0.40678,0.0664 -0.6184,0.14765 -0.28522,0.10945 -0.35441,-0.0103 -0.26744,-0.46302 z m -12.35566,29.68412 c 0,-0.14552 -0.0525,-0.26458 -0.11667,-0.26458 -0.0642,0 -0.19026,0.11906 -0.2802,0.26458 -0.0899,0.14552 -0.0374,0.26458 0.11668,0.26458 0.15411,0 0.28019,-0.11906 0.28019,-0.26458 z m 9.525,-0.87672 c 0,-0.13552 -0.17859,-0.0982 -0.39687,0.083 -0.21828,0.18116 -0.39309,0.52316 -0.38846,0.76 0.007,0.36177 0.0705,0.3485 0.39687,-0.083 0.21366,-0.28247 0.38846,-0.62447 0.38846,-0.76 z m 5.19599,0.74443 c 0.0838,-0.21828 0.37768,-0.39688 0.65315,-0.39688 0.27547,0 0.50086,-0.17859 0.50086,-0.39687 0,-0.21828 0.1786,-0.39688 0.39688,-0.39688 0.21828,0 0.39687,-0.11906 0.39687,-0.26458 0,-0.346 -0.15428,-0.33376 -0.83344,0.0661 -0.6018,0.35435 -1.81239,1.46694 -1.81239,1.66567 0,0.3009 0.56189,0.0782 0.69807,-0.27661 z m -8.37099,-0.0882 c 0,-0.3445 -0.31452,-0.57362 -0.57038,-0.41549 -0.27364,0.16911 -0.0377,0.63598 0.32142,0.63598 0.13693,0 0.24896,-0.0992 0.24896,-0.22049 z m -3.43958,-0.26458 c 0,-0.34451 -0.31453,-0.57363 -0.57039,-0.4155 -0.27363,0.16912 -0.0377,0.63599 0.32142,0.63599 0.13694,0 0.24897,-0.0992 0.24897,-0.22049 z m -5.02708,-0.30868 c 0,-0.14552 -0.12609,-0.26458 -0.2802,-0.26458 -0.15411,0 -0.20661,0.11906 -0.11668,0.26458 0.0899,0.14552 0.21603,0.26458 0.2802,0.26458 0.0642,0 0.11668,-0.11906 0.11668,-0.26458 z m 15.71394,-0.68192 c 0.0794,-0.20703 0.0529,-0.37641 -0.0589,-0.37641 -0.26319,0 -0.83836,0.57516 -0.83836,0.83836 0,0.32939 0.73976,-0.0514 0.89728,-0.46195 z m 9.52242,0.2713 c 0.0904,-0.23546 0.046,-0.34166 -0.10398,-0.24897 -0.14385,0.0889 -0.26155,0.27369 -0.26155,0.41062 0,0.38059 0.18964,0.29672 0.36553,-0.16165 z m -19.9447,-1.04459 c 0.18374,-0.22139 0.21239,-0.39687 0.0648,-0.39687 -0.14552,0 -0.4128,0.17859 -0.59396,0.39687 -0.18373,0.22139 -0.21238,0.39688 -0.0648,0.39688 0.14552,0 0.41281,-0.1786 0.59396,-0.39688 z m 14.4324,-0.57321 c 0.0112,-0.58722 -0.0239,-0.61161 -0.31256,-0.21691 -0.17884,0.24457 -0.2591,0.61684 -0.17835,0.82725 0.20258,0.52793 0.47569,0.18838 0.49091,-0.61034 z m 2.23635,0.57321 c 0.18374,-0.22139 0.21239,-0.39687 0.0648,-0.39687 -0.14552,0 -0.4128,0.17859 -0.59396,0.39687 -0.18373,0.22139 -0.21238,0.39688 -0.0648,0.39688 0.14552,0 0.4128,-0.1786 0.59396,-0.39688 z m -22.48958,-0.80936 c 0,-0.22687 -0.121,-0.33771 -0.2689,-0.2463 -0.14789,0.0914 -0.2004,0.27702 -0.11667,0.41249 0.22681,0.36698 0.38557,0.29855 0.38557,-0.16619 z m 21.483,-0.0943 c 0.23867,-0.27874 0.36409,-0.57666 0.27871,-0.66203 -0.18017,-0.18018 -1.12421,0.61359 -1.12421,0.94526 0,0.3791 0.39036,0.24834 0.8455,-0.28323 z m 6.03366,-1.75777 c 0,-0.22687 -0.121,-0.3377 -0.26889,-0.2463 -0.1479,0.0914 -0.2004,0.27703 -0.11668,0.41249 0.22681,0.36699 0.38557,0.29856 0.38557,-0.16619 z m -26.4473,-1.02944 c -0.46879,-0.56484 -0.88368,-0.52737 -0.58525,0.0529 0.13097,0.25466 0.18042,0.64162 0.10987,0.8599 -0.1018,0.315 -0.0309,0.3041 0.34376,-0.0529 0.39124,-0.37278 0.41376,-0.51993 0.13162,-0.8599 z m 25.65355,-1.54528 c 0,-0.11774 -0.20528,-0.0992 -0.45618,0.0412 -0.2894,0.16196 -0.62798,0.16336 -0.92605,0.004 -0.61384,-0.32852 -0.63727,0.17634 -0.0241,0.51949 0.45385,0.25398 1.40634,-0.12836 1.40634,-0.56454 z m -27.967,-1.29074 c -0.35954,-0.41074 -0.42182,-0.40614 -0.8941,0.0661 -0.66074,0.66074 -0.64212,0.85056 0.0615,0.62722 0.47602,-0.15108 0.53838,-0.10037 0.381,0.30978 -0.17253,0.44958 -0.14547,0.44661 0.3249,-0.0356 0.45375,-0.46518 0.4684,-0.57711 0.12665,-0.96753 z m 3.07553,0.0882 c -0.13598,-0.0488 -0.19078,-0.1801 -0.12177,-0.29175 0.069,-0.11166 -0.041,-0.42891 -0.24439,-0.70501 -0.33818,-0.459 -0.36343,-0.419 -0.2948,0.46704 0.0563,0.72629 -0.0147,0.9346 -0.28313,0.83159 -0.51161,-0.19633 -0.44281,0.19564 0.10484,0.59727 0.39563,0.29015 0.50839,0.25589 0.77476,-0.23541 0.17985,-0.33174 0.20714,-0.61253 0.0645,-0.66373 z m 24.36231,0.89811 c 0,-0.0642 -0.11906,-0.19027 -0.26459,-0.2802 -0.14552,-0.0899 -0.26458,-0.0374 -0.26458,0.11667 0,0.15411 0.11906,0.2802 0.26458,0.2802 0.14553,0 0.26459,-0.0525 0.26459,-0.11667 z m 1.85208,-0.67708 c 0,-0.14552 -0.11906,-0.26458 -0.26458,-0.26458 -0.14552,0 -0.26459,0.11906 -0.26459,0.26458 0,0.14552 0.11907,0.26459 0.26459,0.26459 0.14552,0 0.26458,-0.11907 0.26458,-0.26459 z m 1.623,-1.54348 c 0.14469,-0.39115 0.10971,-0.57051 -0.11017,-0.56477 -0.52045,0.0136 -1.24825,0.67635 -1.24825,1.13671 0,0.61982 1.08683,0.16223 1.35842,-0.57194 z m 1.35898,-1.13662 c -0.15952,-0.15952 -0.44134,-0.19653 -0.62626,-0.0822 -0.24836,0.15349 -0.20253,0.25633 0.17538,0.39352 0.62641,0.22741 0.84125,0.0791 0.45088,-0.31128 z m -33.80593,-1.81781 c 0.0899,-0.14552 0.0445,-0.26459 -0.10107,-0.26459 -0.14552,0 -0.33816,0.11907 -0.4281,0.26459 -0.0899,0.14552 -0.0445,0.26458 0.10106,0.26458 0.14552,0 0.33817,-0.11906 0.42811,-0.26458 z m 39.7046,-3.64296 c -0.098,-0.098 -0.28894,-0.003 -0.42432,0.21104 -0.3953,0.62506 -0.29141,0.86105 0.17413,0.39551 0.2356,-0.23561 0.34819,-0.50855 0.25019,-0.60655 z m -0.67857,-0.59038 c 0,-0.14552 -0.11906,-0.26458 -0.26458,-0.26458 -0.14552,0 -0.26458,0.11906 -0.26458,0.26458 0,0.14552 0.11906,0.26459 0.26458,0.26459 0.14552,0 0.26458,-0.11907 0.26458,-0.26459 z m -1.19062,-0.26458 c 0.0899,-0.14552 0.0445,-0.26458 -0.10106,-0.26458 -0.14552,0 -0.33817,0.11906 -0.42811,0.26458 -0.0899,0.14552 -0.0445,0.26458 0.10106,0.26458 0.14553,0 0.33817,-0.11906 0.42811,-0.26458 z M 51.81746,124.2393 c 0,-0.15486 -0.16812,-0.12914 -0.39688,0.0607 -0.21828,0.18115 -0.39687,0.37059 -0.39687,0.42096 0,0.0504 0.17859,0.0231 0.39687,-0.0607 0.21828,-0.0838 0.39688,-0.2732 0.39688,-0.42097 z m 36.99056,-0.0786 c -0.0815,-0.0815 -0.2294,0.0654 -0.32876,0.32632 -0.14359,0.37709 -0.1132,0.40748 0.14811,0.14812 0.18082,-0.17948 0.26211,-0.39297 0.18065,-0.47444 z m -2.82531,-2.04352 c 0.28764,-0.5398 0.27617,-0.56145 -0.12298,-0.23218 -0.24211,0.19972 -0.44019,0.46761 -0.44019,0.59531 0,0.40415 0.23511,0.25255 0.56317,-0.36313 z m -0.0827,-0.99634 c 0.33705,-0.31802 0.55328,-0.63775 0.48052,-0.71051 -0.0728,-0.0728 -0.40074,0.11781 -0.72885,0.42348 -0.98285,0.91567 -1.41839,0.65553 -0.56291,-0.33621 0.41604,-0.4823 0.38557,-0.4777 -0.30027,0.0453 -0.4198,0.32014 -0.98535,0.58208 -1.25677,0.58208 -0.61616,0 -0.62469,0.22481 -0.0305,0.803 0.39578,0.3851 0.55908,0.40119 1.12448,0.1108 0.3638,-0.18685 0.93722,-0.59993 1.27427,-0.91796 z m -1.89969,0.40255 c 0.0834,-0.21744 0.26024,-0.32828 0.39289,-0.2463 0.27743,0.17147 0.0547,0.64166 -0.30394,0.64166 -0.13236,0 -0.17239,-0.17791 -0.0889,-0.39536 z m 4.62701,0.3248 c -0.26131,-0.25936 -0.2917,-0.22897 -0.14811,0.14811 0.0994,0.26094 0.2473,0.40778 0.32876,0.32632 0.0815,-0.0815 1.7e-4,-0.29495 -0.18065,-0.47443 z m -5.66267,-0.75543 c 0.16325,-0.16326 0.23674,-0.4534 0.16331,-0.64476 -0.1916,-0.4993 -0.88347,-0.15416 -0.88347,0.44072 0,0.56497 0.27992,0.64428 0.72016,0.20404 z m 4.30692,-1.0261 c 0,-0.14552 -0.0525,-0.26458 -0.11667,-0.26458 -0.0642,0 -0.19027,0.11906 -0.2802,0.26458 -0.0899,0.14552 -0.0374,0.26459 0.11667,0.26459 0.15411,0 0.2802,-0.11907 0.2802,-0.26459 z m -6.9398,-1.10794 c -0.16353,-0.4906 -0.73311,-0.57197 -0.73311,-0.10473 0,0.23041 0.18851,0.41892 0.41892,0.41892 0.23041,0 0.37179,-0.14138 0.31419,-0.31419 z m -24.28103,-1.02873 c 0,-0.12538 -0.17859,-0.15944 -0.39687,-0.0757 -0.21828,0.0838 -0.39688,0.25488 -0.39688,0.38026 0,0.12539 0.1786,0.15944 0.39688,0.0757 0.21828,-0.0838 0.39687,-0.25488 0.39687,-0.38027 z m 25.4,-0.24458 c 0,-0.14552 -0.11906,-0.26458 -0.26458,-0.26458 -0.14553,0 -0.26459,0.11906 -0.26459,0.26458 0,0.14552 0.11906,0.26459 0.26459,0.26459 0.14552,0 0.26458,-0.11907 0.26458,-0.26459 z M 55.257,117.42083 c 0,-0.14552 -0.0525,-0.26458 -0.11667,-0.26458 -0.0642,0 -0.19027,0.11906 -0.2802,0.26458 -0.0899,0.14552 -0.0374,0.26458 0.11667,0.26458 0.15411,0 0.2802,-0.11906 0.2802,-0.26458 z m 2.47693,-0.66146 c -0.0838,-0.21828 -0.34791,-0.39309 -0.58701,-0.38846 -0.36898,0.007 -0.35705,0.0671 0.0789,0.39688 0.64194,0.48553 0.69733,0.48461 0.50813,-0.008 z m 19.62666,0.11469 c 0.28476,-0.46076 -0.0396,-0.55833 -0.40245,-0.12108 -0.20869,0.25145 -0.22876,0.40327 -0.0533,0.40327 0.15475,0 0.35984,-0.12699 0.45576,-0.28219 z m -14.46491,-0.93789 c -0.25006,-0.60938 -0.33643,-0.66787 -0.42613,-0.28857 -0.0619,0.26166 0.0334,0.65149 0.21164,0.86629 0.47352,0.57055 0.57429,0.29911 0.21449,-0.57772 z m 18.12686,0.54488 c 0.0904,-0.23546 0.046,-0.34167 -0.10399,-0.24897 -0.14385,0.0889 -0.26155,0.27368 -0.26155,0.41061 0,0.38059 0.18964,0.29673 0.36554,-0.16164 z m 1.22196,-0.11855 c 0,-0.14552 -0.11906,-0.26459 -0.26458,-0.26459 -0.14553,0 -0.26459,0.11907 -0.26459,0.26459 0,0.14552 0.11906,0.26458 0.26459,0.26458 0.14552,0 0.26458,-0.11906 0.26458,-0.26458 z m -2.04457,-1.5875 c 0.1415,0 0.10487,0.18364 -0.0814,0.40809 -0.24066,0.28997 -0.25671,0.49006 -0.0554,0.69132 0.34251,0.34251 0.84346,0.0866 0.72984,-0.37286 -0.39967,-1.61606 -0.71631,-1.88418 -1.18685,-1.00497 -0.15169,0.28343 -0.63213,0.72582 -1.06764,0.98309 -0.43552,0.25726 -0.79185,0.56189 -0.79185,0.67695 0,0.11506 0.49412,-0.14874 1.09803,-0.58621 0.60392,-0.43748 1.21381,-0.79541 1.35532,-0.79541 z m -6.95126,0.80936 c 0,-0.13693 -0.11907,-0.32255 -0.26459,-0.41249 -0.14552,-0.0899 -0.26458,0.0221 -0.26458,0.24897 0,0.22687 0.11906,0.41249 0.26458,0.41249 0.14552,0 0.26459,-0.11204 0.26459,-0.24897 z m 12.06253,-0.74127 c -0.18348,-0.18349 -0.68545,0.18932 -0.68545,0.50909 0,0.17544 0.15181,0.15537 0.40327,-0.0533 0.2218,-0.18408 0.34878,-0.38917 0.28218,-0.45577 z m -3.82762,-0.13865 c -0.26131,-0.25936 -0.2917,-0.22897 -0.14811,0.14811 0.0994,0.26094 0.2473,0.40778 0.32876,0.32632 0.0815,-0.0815 1.7e-4,-0.29495 -0.18065,-0.47443 z M 71.35062,114.509 c 0.33852,-0.28213 0.53763,-0.63895 0.44247,-0.79293 -0.10835,-0.17532 -0.4109,-0.0545 -0.80936,0.32333 -1.05906,1.00408 -0.74962,1.40014 0.36689,0.4696 z m -5.03073,-0.24663 c 0.0662,-0.19844 -0.0331,-0.29766 -0.23151,-0.23151 -0.19099,0.0637 -0.39935,0.27202 -0.46302,0.46302 -0.0661,0.19843 0.0331,0.29765 0.23151,0.23151 0.191,-0.0637 0.39936,-0.27203 0.46302,-0.46302 z m 8.50324,0.0244 c -0.21111,-0.0697 -0.52888,-0.31582 -0.70615,-0.54687 -0.18987,-0.24747 -0.32578,-0.29196 -0.33073,-0.10827 -0.013,0.48018 0.79158,1.17074 1.12436,0.96508 0.20258,-0.1252 0.17489,-0.22329 -0.0875,-0.30994 z m 1.33595,0.22365 c 0.34203,-0.22103 0.33504,-0.25704 -0.0505,-0.26053 -0.24607,-0.002 -0.52099,0.11501 -0.61093,0.26053 -0.20695,0.33486 0.14331,0.33486 0.66146,0 z m 9.78959,0.1733 c 0,-0.0502 -0.2679,-0.31809 -0.59532,-0.59531 l -0.59531,-0.50403 0.50403,0.59531 c 0.47366,0.55945 0.6866,0.71577 0.6866,0.50403 z m -3.43959,-0.80536 c 0,-0.20211 -0.20836,-0.35094 -0.46302,-0.33073 -0.34919,0.0277 -0.45057,-0.14361 -0.41238,-0.69688 0.0279,-0.4035 -0.0615,-0.66437 -0.19844,-0.5797 -0.35293,0.21812 -0.3091,1.27977 0.0684,1.65729 0.43004,0.43004 1.00542,0.40144 1.00542,-0.05 z m -14.94896,-0.16174 c 0.0899,-0.14552 0.0374,-0.26458 -0.11667,-0.26458 -0.15411,0 -0.2802,0.11906 -0.2802,0.26458 0,0.14552 0.0525,0.26459 0.11667,0.26459 0.0642,0 0.19027,-0.11907 0.2802,-0.26459 z m 8.33438,-0.28019 c 0,-0.13694 -0.11906,-0.24897 -0.26459,-0.24897 -0.14552,0 -0.26458,0.18562 -0.26458,0.41249 0,0.22687 0.11906,0.3389 0.26458,0.24897 0.14553,-0.0899 0.26459,-0.27556 0.26459,-0.41249 z m 0.75985,-0.54011 c -0.66022,-0.41822 -0.84985,-0.24685 -0.34461,0.31144 0.32126,0.35498 0.53449,0.4378 0.60243,0.23398 0.0578,-0.17352 -0.0582,-0.41895 -0.25782,-0.54542 z m -10.02027,0.29114 c 0,-0.14552 -0.11203,-0.26459 -0.24896,-0.26459 -0.13694,0 -0.32256,0.11907 -0.41249,0.26459 -0.0899,0.14552 0.0221,0.26458 0.24896,0.26458 0.22687,0 0.41249,-0.11906 0.41249,-0.26458 z m 6.08542,-0.40042 c 0,-0.21353 -0.2005,-0.29136 -0.52917,-0.20541 -0.53166,0.13903 -0.66496,0.38184 -0.37101,0.67579 0.24953,0.24953 0.90018,-0.0905 0.90018,-0.47038 z m -2.66145,0.0154 c 0.2464,-0.15371 0.41798,-0.12768 0.48507,0.0736 0.0571,0.17128 0.26953,0.31143 0.47209,0.31143 0.28209,0 0.31025,-0.15261 0.12035,-0.65209 -0.15646,-0.41151 -0.15404,-0.71012 0.007,-0.80937 0.13996,-0.0865 0.25447,-0.28389 0.25447,-0.43864 0,-0.18119 -0.13717,-0.16752 -0.38528,0.0384 -0.21191,0.17587 -0.5082,0.2438 -0.65843,0.15095 -0.15885,-0.0982 -0.2115,-0.008 -0.12584,0.21504 0.14184,0.36965 -0.28992,0.82181 -0.79277,0.83021 -0.1334,0.002 -0.28897,0.14333 -0.34571,0.31356 -0.11546,0.34638 0.38883,0.32917 0.9695,-0.0331 z m 8.08541,-0.14415 c -0.0899,-0.14552 -0.28259,-0.26458 -0.42811,-0.26458 -0.14552,0 -0.191,0.11906 -0.10106,0.26458 0.0899,0.14552 0.28258,0.26458 0.4281,0.26458 0.14553,0 0.191,-0.11906 0.10107,-0.26458 z m 83.70319,-14.022916 c 0.0349,-7.935798 -0.25815,-17.306719 -0.76531,-24.473954 -0.25286,-3.573453 -1.17432,-13.339763 -1.44789,-15.345833 -0.81897,-6.005332 -1.76347,-11.571746 -2.70056,-15.915833 -0.51359,-2.380873 -0.78524,-3.180706 -1.04626,-3.080547 -0.1939,0.07441 -0.35254,0.248636 -0.35254,0.387176 0,0.13854 0.13179,0.170438 0.29287,0.07088 0.20413,-0.126154 0.23935,0.08961 0.11624,0.711989 -0.13698,0.692529 -0.11003,0.803903 0.12005,0.496121 0.23009,-0.307781 0.25704,-0.196407 0.12006,0.496122 -0.13168,0.665678 -0.0949,0.842469 0.14453,0.694503 0.23984,-0.148231 0.27334,0.01926 0.13229,0.661459 -0.13451,0.612407 -0.10246,0.806544 0.11132,0.674419 0.20998,-0.129776 0.25604,0.06511 0.15326,0.648497 -0.0857,0.486322 -0.0439,0.77033 0.1003,0.681234 0.13646,-0.08434 0.18565,0.08268 0.10979,0.372782 -0.0756,0.289067 -0.0486,0.735716 0.0601,0.992552 0.10862,0.256836 0.24696,0.878559 0.30743,1.381605 0.0605,0.503047 0.25291,1.091449 0.42765,1.30756 0.17473,0.216111 0.19315,0.318521 0.0409,0.227578 -0.19154,-0.114431 -0.19892,0.355586 -0.024,1.52626 0.14964,1.001295 0.36025,1.625208 0.5161,1.528891 0.14555,-0.08996 0.18107,-0.0297 0.0794,0.13475 -0.10112,0.16361 0.0678,2.116771 0.37548,4.34036 0.8685,6.277537 1.06116,7.913126 1.09173,9.268408 0.0156,0.691224 0.1278,1.256771 0.24935,1.256771 0.12155,0 0.15679,0.167338 0.0783,0.371861 -0.0785,0.204524 0.0424,2.734602 0.26872,5.622396 0.61814,7.888727 0.99969,22.322489 0.80803,30.567169 -0.0937,4.02873 -0.0705,7.60061 0.0514,7.9375 0.32079,0.88617 0.54022,-4.22719 0.58117,-13.542676 z M 68.35387,111.59996 c 0.0899,-0.14552 0.0445,-0.26459 -0.10106,-0.26459 -0.14552,0 -0.33817,0.11907 -0.4281,0.26459 -0.0899,0.14552 -0.0445,0.26458 0.10106,0.26458 0.14552,0 0.33817,-0.11906 0.4281,-0.26458 z m 7.01146,-0.29582 c 0,-0.14552 -0.11906,-0.191 -0.26458,-0.10106 -0.14552,0.0899 -0.26459,0.28259 -0.26459,0.42811 0,0.14552 0.11907,0.191 0.26459,0.10106 0.14552,-0.0899 0.26458,-0.28259 0.26458,-0.42811 z m -5.95312,-0.23335 c 0.0899,-0.14552 0.0374,-0.26458 -0.11668,-0.26458 -0.15411,0 -0.2802,0.11906 -0.2802,0.26458 0,0.14552 0.0525,0.26458 0.11668,0.26458 0.0642,0 0.19026,-0.11906 0.2802,-0.26458 z m 5.55437,-0.26155 c 0.0927,-0.14998 -0.0135,-0.19434 -0.24897,-0.10399 -0.45836,0.1759 -0.54223,0.36554 -0.16164,0.36554 0.13693,0 0.32171,-0.1177 0.41061,-0.26155 z m 85.73426,-16.423029 c -0.17901,-10.873002 -0.52115,-18.691988 -1.05867,-24.193541 -0.0569,-0.582084 -0.18572,-2.010834 -0.28633,-3.175 -0.10061,-1.164167 -0.21483,-2.295261 -0.25383,-2.513542 -0.039,-0.218281 -0.15582,-1.289844 -0.25962,-2.38125 -0.1038,-1.091406 -0.22364,-2.043906 -0.26632,-2.116667 -0.0427,-0.07276 -0.1589,-0.906197 -0.25827,-1.852083 -0.25211,-2.399727 -1.6491,-10.558194 -2.42156,-14.141985 -0.22113,-1.025919 -0.45437,-2.130088 -0.51831,-2.45371 -0.0639,-0.323621 -0.23062,-0.889168 -0.37038,-1.256771 -0.13976,-0.367602 -0.19334,-0.668368 -0.11906,-0.668368 0.0743,0 0.0236,-0.208359 -0.11263,-0.463021 -0.13622,-0.254661 -0.30451,-0.820208 -0.37398,-1.256771 -0.14488,-0.91048 -2.18681,-7.671349 -2.55712,-8.466666 -0.13552,-0.291042 -0.68247,-1.66026 -1.21545,-3.042708 -1.66474,-4.318005 -5.15924,-10.507409 -5.73242,-10.153167 -0.18198,0.112469 -0.21726,0.05906 -0.0934,-0.141374 0.24356,-0.39409 -0.6085,-1.401836 -0.98732,-1.167714 -0.16193,0.100081 -0.18839,0.03472 -0.0661,-0.16321 0.12963,-0.209751 -0.21325,-0.755324 -0.94025,-1.496088 -1.08711,-1.107679 -1.82464,-1.549 -1.39582,-0.835217 0.13985,0.232775 0.0686,0.225259 -0.24051,-0.02538 -0.24156,-0.195858 -0.41324,-0.478631 -0.38151,-0.628385 0.0317,-0.149754 -0.10772,-0.332374 -0.30987,-0.405823 -0.25555,-0.09285 -0.30054,-0.02229 -0.14765,0.23151 0.18615,0.30901 0.15163,0.309677 -0.22484,0.0043 -0.24462,-0.19839 -0.38213,-0.462041 -0.30558,-0.585893 0.19526,-0.315944 -2.22193,-1.4943973 -4.0326,-1.9660203 -2.98759,-0.778168 -5.41245,-0.456066 -8.94469,1.1881543 -6.80145,3.165992 -14.0056,11.891249 -21.03147,25.47211 -1.26136,2.438183 -2.39244,4.343183 -2.51349,4.233333 -0.12105,-0.10985 -0.12687,-0.03863 -0.0129,0.158259 0.26166,0.452117 -0.89729,2.992152 -1.26229,2.766566 -0.1456,-0.08998 -0.18462,-0.03399 -0.0867,0.124418 0.25302,0.409401 -0.62098,2.473542 -0.95892,2.264683 -0.16264,-0.100514 -0.19871,-0.04409 -0.0872,0.136377 0.26741,0.432689 -0.0863,1.406397 -0.43301,1.192099 -0.15936,-0.09849 -0.211,-0.05499 -0.11641,0.09806 0.21707,0.351228 -0.33496,1.965626 -0.61331,1.793598 -0.11491,-0.07102 -0.20362,0.01842 -0.19713,0.198752 0.0326,0.905257 -0.0934,1.271654 -0.37701,1.096366 -0.18557,-0.114688 -0.23379,-0.07281 -0.12286,0.106682 0.19148,0.30981 -2.17831,6.732641 -2.54085,6.886494 -0.11502,0.04881 -0.14982,0.184697 -0.0773,0.301973 0.11655,0.188596 -0.46408,1.771899 -1.21928,3.324763 -0.14457,0.297263 -0.29749,0.713982 -0.33982,0.926041 -0.0423,0.212059 -0.15305,0.564156 -0.24604,0.782437 -0.37601,0.882643 -3.43337,10.667836 -4.29875,13.758333 -0.50935,1.819011 -0.99398,3.545417 -1.07696,3.836459 -0.1007,0.353226 -0.0627,0.441196 0.1142,0.264583 0.14579,-0.145521 0.58567,-1.395677 0.97751,-2.778125 1.21681,-4.292945 4.03002,-12.981503 5.71147,-17.639769 6.33651,-17.554544 13.01751,-30.447117 20.16593,-38.914918 1.13633,-1.346067 1.97733,-2.447396 1.86888,-2.447396 -0.10845,0 0.26305,-0.471318 0.82556,-1.047375 0.5625,-0.576056 1.10304,-0.99774 1.2012,-0.937075 0.26347,0.162836 1.35392,-0.661943 1.20141,-0.908709 -0.0718,-0.116115 0.13255,-0.435391 0.45404,-0.709501 0.48631,-0.414655 0.52427,-0.420595 0.22594,-0.03536 -0.19721,0.254661 -0.2395,0.46302 -0.094,0.46302 0.34755,0 0.89618,-0.667922 0.70536,-0.858736 -0.23584,-0.235843 2.12875,-1.756334 4.26964,-2.745486 3.69459,-1.7070053 7.2674,-1.7031273 10.87857,0.01181 3.14835,1.495145 7.39158,6.109681 9.59174,10.431075 0.95663,1.878942 0.43,1.541083 -0.63865,-0.409727 -2.18071,-3.980837 -5.49989,-7.640136 -8.42995,-9.293759 -2.95733,-1.66901 -6.45725,-2.070833 -9.66881,-1.110066 -1.73575,0.519267 -6.0258,2.828304 -5.75603,3.098073 0.0774,0.07744 0.49539,-0.111703 0.9288,-0.420314 1.58977,-1.132017 4.68728,-2.394567 6.58566,-2.684327 7.56295,-1.1543723 13.75671,4.386418 19.35038,17.310404 0.30717,0.709722 0.5585,1.400864 0.5585,1.53587 0,0.135007 0.22499,0.74495 0.49997,1.35543 0.27498,0.610479 0.70523,1.824338 0.95611,2.697463 0.25088,0.873125 0.60578,2.063749 0.78867,2.645833 0.18289,0.582083 0.48736,1.568232 0.67659,2.191442 0.18952,0.624165 0.42582,1.000808 0.5261,0.838555 0.1003,-0.162286 0.25904,0.09044 0.35352,0.562796 0.0943,0.471543 0.11111,0.91771 0.0373,0.99148 -0.0738,0.07377 -0.13413,-0.08415 -0.13413,-0.35094 0,-0.266788 -0.0649,-0.420177 -0.14421,-0.340864 -0.0793,0.07931 -0.0266,0.664703 0.11702,1.300868 0.14368,0.636164 0.33581,1.507641 0.42697,1.936613 0.12779,0.601373 0.22123,0.692242 0.4081,0.396875 0.2005,-0.316936 0.24305,-0.303133 0.2464,0.07995 0.002,0.254661 -0.11127,0.46302 -0.25223,0.46302 -0.30905,0 -0.0298,0.847132 0.36927,1.120429 0.19638,0.134464 0.18957,0.195635 -0.0221,0.198438 -0.17516,0.0023 -0.2468,0.230285 -0.16758,0.533218 0.0761,0.291041 0.21379,0.529166 0.30596,0.529166 0.0922,0 0.17425,0.386953 0.1824,0.859896 0.008,0.472943 0.10315,1.395677 0.21111,2.050521 0.7625,4.625331 0.99581,5.698914 1.25739,5.786108 0.18262,0.06087 0.19749,0.162645 0.0387,0.265191 -0.16526,0.106757 -0.13818,1.020001 0.0755,2.547659 0.18323,1.309688 0.39895,2.8575 0.47938,3.439583 0.0804,0.582084 0.28358,2.427553 0.45146,4.101042 0.16787,1.67349 0.44156,3.130182 0.60818,3.237094 0.16799,0.10779 0.18405,0.196191 0.036,0.198438 -0.38639,0.0059 0.30444,9.225408 0.73074,9.752151 0.26365,0.325778 0.26349,0.367741 -8.2e-4,0.208949 -0.24454,-0.146917 -0.33073,0.104151 -0.33073,0.963447 0,0.639179 0.0682,1.230327 0.15152,1.313663 0.0833,0.08334 0.15895,1.588551 0.16802,3.344922 0.009,1.756372 0.0897,3.148174 0.17921,3.092894 0.0895,-0.05528 0.14485,4.732496 0.12303,10.639498 -0.0354,9.577006 0.008,10.812366 0.39687,11.408256 0.42078,0.64409 0.44419,0.53473 0.64781,-3.02627 0.11619,-2.03198 0.14351,-7.809286 0.0607,-12.838459 z m -7.26249,-55.701007 c 0.0127,-0.308225 0.0754,-0.370919 0.15985,-0.159853 0.0764,0.190997 0.067,0.4192 -0.0209,0.507118 -0.0879,0.08792 -0.15045,-0.06835 -0.13896,-0.347265 z m -0.81464,-2.756077 c -0.16465,-0.611461 -0.24757,-1.163537 -0.18428,-1.226834 0.0633,-0.0633 0.24364,0.391363 0.40076,1.010357 0.15712,0.618994 0.24004,1.171069 0.18428,1.226835 -0.0558,0.05577 -0.23611,-0.398896 -0.40076,-1.010358 z m -0.74939,-2.367743 c -0.15478,-0.443991 -0.18243,-0.807256 -0.0614,-0.807256 0.20962,0 0.58507,1.368218 0.42118,1.53486 -0.0431,0.04381 -0.20497,-0.283614 -0.35974,-0.727604 z m -0.9137,-2.716036 c -0.24095,-0.753449 -0.39417,-1.413822 -0.34049,-1.467496 0.0537,-0.05367 0.30044,0.51315 0.54837,1.259609 0.24794,0.746459 0.40116,1.406832 0.34049,1.467496 -0.0607,0.06066 -0.30743,-0.50616 -0.54837,-1.259609 z m -0.71816,-1.85127 c 0,-0.07924 -0.18019,-0.575336 -0.40042,-1.10243 -0.22024,-0.527095 -0.33323,-0.958354 -0.25109,-0.958354 0.23143,0 0.96597,1.890402 0.7993,2.05707 -0.0813,0.08129 -0.14779,0.08296 -0.14779,0.0037 z m -1.50651,-3.648283 c -0.16478,-0.436562 -0.25347,-0.79375 -0.19709,-0.79375 0.0564,0 0.28722,0.357188 0.51298,0.79375 0.22575,0.436562 0.31444,0.793749 0.19709,0.793749 -0.11736,0 -0.3482,-0.357187 -0.51298,-0.793749 z M 64.25287,109.48329 c 0,-0.14552 -0.11906,-0.26458 -0.26458,-0.26458 -0.14552,0 -0.26458,0.11906 -0.26458,0.26458 0,0.14552 0.11906,0.26458 0.26458,0.26458 0.14552,0 0.26458,-0.11906 0.26458,-0.26458 z m 5.82083,0.1733 c 0,-0.0502 -0.26789,-0.3181 -0.59531,-0.59531 l -0.59531,-0.50403 0.50403,0.59531 c 0.47366,0.55945 0.68659,0.71576 0.68659,0.50403 z m 16.0073,-0.70247 c 0.0899,-0.14552 0.0374,-0.26458 -0.11668,-0.26458 -0.15411,0 -0.2802,0.11906 -0.2802,0.26458 0,0.14552 0.0525,0.26459 0.11668,0.26459 0.0642,0 0.19026,-0.11907 0.2802,-0.26459 z m 0.92604,-0.75274 c 0,-0.29925 -1.02811,-1.21776 -1.18616,-1.05971 -0.17513,0.17513 0.63363,1.28329 0.93658,1.28329 0.13727,0 0.24958,-0.10061 0.24958,-0.22358 z m 71.88817,-12.939436 c -0.0853,-7.239665 -0.21064,-13.460681 -0.27854,-13.824483 -0.0679,-0.363802 -0.19812,-2.149739 -0.28937,-3.96875 -0.31464,-6.272085 -1.61343,-18.017838 -2.63306,-23.812499 -1.73027,-9.833326 -3.64348,-17.150797 -6.13353,-23.458916 -4.42397,-11.207428 -9.83809,-17.221735 -16.34727,-18.159477 -9.00091,-1.296712 -19.23808,8.815578 -28.87374,28.521517 -4.51271,9.228935 -8.64861,19.93452 -12.26602,31.75 -2.54302,8.306194 -2.42513,7.64718 -1.33419,7.458236 0.49377,-0.08552 1.45342,-0.233062 2.13256,-0.327878 1.05291,-0.147 1.25986,-0.275629 1.40495,-0.873251 0.36113,-1.487506 3.38358,-9.694746 5.045,-13.699338 9.03438,-21.775879 19.38753,-33.192141 28.08137,-30.964882 5.28978,1.355178 10.01466,7.650677 13.27634,17.689594 1.44487,4.447058 2.91744,10.400293 3.35755,13.573769 0.0807,0.582084 0.20024,1.326224 0.26557,1.653646 0.0653,0.327422 0.17238,0.863203 0.23788,1.190625 0.29291,1.464382 0.70612,4.434386 1.05832,7.606771 0.12055,1.085827 0.24506,2.165196 0.54938,4.7625 0.0996,0.850138 0.37744,4.381087 0.52048,6.614583 0.0326,0.509323 0.14114,2.534716 0.24116,4.500874 l 0.18186,3.574833 3.63239,3.701206 c 1.99782,2.035666 4.63334,5.040666 5.85672,6.677766 1.22337,1.63711 2.27943,2.97657 2.34679,2.97657 0.0674,0 0.0527,-5.92336 -0.0326,-13.163016 z M 71.39662,107.77911 c 0,-0.0642 -0.11906,-0.19026 -0.26458,-0.28019 -0.14552,-0.0899 -0.26459,-0.0374 -0.26459,0.11667 0,0.15411 0.11907,0.2802 0.26459,0.2802 0.14552,0 0.26458,-0.0525 0.26458,-0.11668 z m -0.26458,-1.47082 c 0,-0.14552 -0.0525,-0.26458 -0.11668,-0.26458 -0.0642,0 -0.19026,0.11906 -0.2802,0.26458 -0.0899,0.14552 -0.0374,0.26458 0.11668,0.26458 0.15411,0 0.2802,-0.11906 0.2802,-0.26458 z M 146.4237,94.430679 c -0.0802,-0.129772 -0.20954,-1.588288 -0.28741,-3.241146 -0.21378,-4.537633 -0.61803,-9.644149 -1.06524,-13.456238 -0.0939,-0.800365 -0.20558,-1.812396 -0.24819,-2.248959 -0.24095,-2.468364 -0.44026,-4.025303 -0.5707,-4.45811 -0.0811,-0.269149 -0.18208,-0.745399 -0.22434,-1.058334 -0.0423,-0.312935 -0.5076,-2.675844 -1.03409,-5.250909 -3.21184,-15.709442 -7.99626,-25.299191 -14.127,-28.315775 -1.6246,-0.79937 -1.96768,-0.868573 -4.28421,-0.864175 -2.16562,0.0041 -2.73001,0.103396 -4.03117,0.709135 -8.62607,4.015777 -17.25394,17.588517 -24.77742,38.978106 l -1.30448,3.708688 7.31515,-0.0045 c 7.66703,-0.0047 9.35396,0.146181 15.25265,1.364573 9.28169,1.917155 19.61971,6.754922 27.38438,12.814754 2.03102,1.58508 2.25596,1.73372 2.00207,1.322911 z m 9.5514,-55.477715 c 0,-0.180154 -0.15875,-0.266634 -0.35278,-0.192179 -0.19403,0.07446 -0.35278,0.221854 -0.35278,0.327553 0,0.105698 0.15875,0.192178 0.35278,0.192178 0.19403,0 0.35278,-0.147398 0.35278,-0.327552 z m -0.26458,-1.014236 c 0,-0.212 -0.16108,-0.30984 -0.37497,-0.227763 -0.30857,0.118412 -0.31247,0.183494 -0.022,0.367598 0.1941,0.123041 0.36283,0.225535 0.37496,0.227763 0.0121,0.0022 0.0221,-0.163191 0.0221,-0.367598 z m -0.26459,-1.058333 c 0,-0.212 -0.16107,-0.30984 -0.37496,-0.227763 -0.30857,0.118411 -0.31248,0.183494 -0.0221,0.367598 0.19411,0.123041 0.36284,0.225534 0.37496,0.227763 0.0121,0.0022 0.0221,-0.163191 0.0221,-0.367598 z m -0.31998,-1.197569 c 0.0837,-0.135465 0.0231,-0.326102 -0.13471,-0.423637 -0.15782,-0.09754 -0.22449,-0.340075 -0.14816,-0.538976 0.0763,-0.198901 0.023,-0.43321 -0.11857,-0.520686 -0.14154,-0.08748 -0.19393,-0.261656 -0.11642,-0.387066 0.0775,-0.12541 0.018,-0.304004 -0.1323,-0.396875 -0.15026,-0.09287 -0.20979,-0.271465 -0.13229,-0.396875 0.0775,-0.12541 0.002,-0.314173 -0.16885,-0.419473 -0.20766,-0.128339 -0.23839,-0.07593 -0.0932,0.158972 0.16186,0.261883 0.0886,0.304759 -0.28985,0.169691 -0.40996,-0.146311 -0.39172,-0.09067 0.0958,0.292103 0.49395,0.387839 0.54152,0.538131 0.26459,0.836047 -0.25885,0.278463 -0.26046,0.319641 -0.007,0.176485 0.21294,-0.120221 0.33072,-0.01154 0.33072,0.305143 0,0.270526 0.14883,0.652264 0.33073,0.848306 0.27038,0.291397 0.24373,0.325747 -0.14603,0.188239 -0.28341,-0.09999 -0.4112,-0.06213 -0.31511,0.09335 0.20362,0.329478 0.5818,0.336867 0.78057,0.01525 z m -1.13426,-3.920886 c -0.13098,-0.254661 -0.29289,-0.638544 -0.35981,-0.853072 -0.0849,-0.272227 -0.16819,-0.212173 -0.27566,0.198803 -0.0847,0.323869 -0.0585,0.529842 0.0582,0.457716 0.1167,-0.07212 0.28046,0.04677 0.3639,0.264219 0.0834,0.217445 0.21917,0.395355 0.30161,0.395355 0.0824,0 0.0428,-0.208359 -0.0882,-0.463021 z m -46.39824,-0.470022 c -0.0815,-0.08146 -0.22941,0.06538 -0.32877,0.326319 -0.14358,0.377084 -0.11319,0.407475 0.14812,0.148113 0.18082,-0.179476 0.26211,-0.39297 0.18065,-0.474432 z m 45.90982,-1.24977 c -0.1155,-0.181901 -0.2169,-0.39026 -0.22533,-0.46302 -0.008,-0.07276 -0.17347,-0.608542 -0.36675,-1.190625 -0.40201,-1.210745 -0.81665,-1.782885 -0.81665,-1.126865 0,0.238797 0.12485,0.511334 0.27744,0.605638 0.18838,0.116427 0.174,0.296081 -0.0448,0.559711 -0.25791,0.310757 -0.24852,0.372067 0.047,0.307174 0.22696,-0.04984 0.39538,0.173798 0.4371,0.580383 0.0618,0.602646 0.045,0.614408 -0.18991,0.132292 l -0.25778,-0.529167 0.0675,0.529167 c 0.0371,0.291042 0.2048,0.529167 0.37258,0.529167 0.16779,0 0.39436,0.0893 0.5035,0.198437 0.31112,0.311125 0.42767,0.232482 0.19605,-0.132292 z m -44.53581,-0.992187 c 0.15576,-0.291042 0.22367,-0.529167 0.15091,-0.529167 -0.0728,0 -0.25973,0.238125 -0.41549,0.529167 -0.15576,0.291042 -0.22367,0.529167 -0.15091,0.529167 0.0728,0 0.25973,-0.238125 0.41549,-0.529167 z m 42.64249,-2.177931 c -0.19634,-0.196339 -0.23078,-0.09304 -0.11569,0.347056 0.0936,0.357771 0.21349,0.477705 0.27955,0.279546 0.0636,-0.190881 -0.0101,-0.472852 -0.16386,-0.626602 z m 0.34503,-0.919512 c -0.11272,-0.260938 -0.23824,-0.63882 -0.27894,-0.839741 -0.10236,-0.505373 -0.62121,-1.008729 -0.54545,-0.529167 0.0888,0.561863 0.80244,2.070226 0.92265,1.950017 0.0587,-0.05867 0.0145,-0.320172 -0.0983,-0.581109 z m -40.60627,-0.871306 c 0.15576,-0.291042 0.22367,-0.529167 0.15091,-0.529167 -0.0728,0 -0.25973,0.238125 -0.41549,0.529167 -0.15576,0.291041 -0.22367,0.529166 -0.15091,0.529166 0.0728,0 0.25973,-0.238125 0.41549,-0.529166 z m 39.31024,-2.036178 c -0.0362,-0.246773 -0.21584,-0.498674 -0.39915,-0.559779 -0.2594,-0.08647 -0.26688,0.01303 -0.0337,0.448678 0.36169,0.675824 0.52179,0.716915 0.43287,0.111101 z m -37.72274,-0.345072 c 0.15576,-0.291042 0.22367,-0.529167 0.15091,-0.529167 -0.0728,0 -0.25973,0.238125 -0.41549,0.529167 -0.15576,0.291042 -0.22367,0.529167 -0.15091,0.529167 0.0728,0 0.25973,-0.238125 0.41549,-0.529167 z m 36.24792,-1.322917 c -0.15576,-0.291041 -0.34273,-0.529166 -0.4155,-0.529166 -0.0728,0 -0.005,0.238125 0.15091,0.529166 0.15577,0.291042 0.34274,0.529167 0.4155,0.529167 0.0728,0 0.005,-0.238125 -0.15091,-0.529167 z m 0.35588,-0.672869 c -0.0862,-0.224557 -0.21342,-0.351541 -0.28277,-0.282186 -0.0694,0.06935 -0.0476,0.253083 0.0483,0.408286 0.26089,0.422132 0.41338,0.340124 0.23447,-0.1261 z m -1.38138,-1.249769 c -0.26131,-0.259363 -0.2917,-0.228972 -0.14812,0.148112 0.0994,0.260937 0.24731,0.407781 0.32877,0.326319 0.0815,-0.08146 1.7e-4,-0.294956 -0.18065,-0.474431 z m 0.95331,0.401284 c -0.0569,-0.10914 -0.29983,-0.62852 -0.5399,-1.154176 -0.24006,-0.525656 -0.5915,-1.084397 -0.78098,-1.241646 -0.18947,-0.157249 -0.0428,0.360695 0.32585,1.150987 0.36869,0.790292 0.76667,1.43833 0.8844,1.440084 0.11772,0.0018 0.16751,-0.08611 0.11063,-0.195249 z m -29.82573,-2.579687 c 0.49366,-0.509323 0.83803,-0.926042 0.76527,-0.926042 -0.0728,0 -0.5362,0.416719 -1.02985,0.926042 -0.49366,0.509323 -0.83802,0.926041 -0.76526,0.926041 0.0728,0 0.53619,-0.416718 1.02984,-0.926041 z m 27.78125,0.396875 c -0.15576,-0.291042 -0.34273,-0.529167 -0.41549,-0.529167 -0.0728,0 -0.005,0.238125 0.15091,0.529167 0.15576,0.291041 0.34273,0.529166 0.41549,0.529166 0.0728,0 0.005,-0.238125 -0.15091,-0.529166 z m -0.14216,-1.521354 c -1.68658,-2.62437 -4.18075,-5.25541 -6.41078,-6.7625713 -2.27687,-1.538824 -4.0778,-2.105424 -6.94081,-2.183684 l -2.51354,-0.06871 2.51354,0.204357 c 1.50205,0.122121 3.12308,0.438724 4.02822,0.786754 2.69379,1.035769 6.02297,3.8599973 8.40338,7.1288073 1.21328,1.666104 1.75292,2.191102 0.91999,0.895045 z m -2.15539,-1.692835 c -0.70088,-0.894679 -1.83881,-2.11507 -2.52873,-2.711979 -1.34035,-1.159656 -4.34462,-3.0728093 -4.81283,-3.0648723 -0.15552,0.0026 0.35677,0.357325 1.13842,0.7882 2.1824,1.2030113 4.57211,3.2540313 6.24344,5.3585693 0.54895,0.691224 1.05117,1.256771 1.11605,1.256771 0.0649,0 -0.45547,-0.73201 -1.15635,-1.626689 z m -21.4812,-3.334249 c 0.32911,-0.419644 0.31975,-0.429002 -0.0999,-0.09989 -0.25467,0.199719 -0.46302,0.408078 -0.46302,0.46302 0,0.217761 0.21727,0.0776 0.56291,-0.363126 z m 4.87996,-2.9135503 c -0.11887,-0.118863 -2.79704,1.215686 -2.79704,1.39378 0,0.06873 0.65152,-0.194574 1.44781,-0.585116 0.7963,-0.390541 1.40345,-0.75444 1.34923,-0.808664 z m 8.77297,0.306302 c -0.0879,-0.08792 -0.31612,-0.09732 -0.50712,-0.02089 -0.21107,0.08446 -0.14837,0.147157 0.15985,0.159852 0.27892,0.01149 0.43519,-0.05105 0.34727,-0.138964 z m -6.35,-0.264583 c -0.0879,-0.08792 -0.31612,-0.09732 -0.50712,-0.02089 -0.21107,0.08446 -0.14837,0.147156 0.15985,0.159852 0.27892,0.01149 0.43519,-0.05105 0.34727,-0.138964 z m -1.11897,-0.369314 c 0.34892,-0.149935 0.39398,-0.232346 0.13229,-0.241936 -0.21828,-0.008 -0.57547,0.100871 -0.79375,0.241936 -0.48365,0.312558 -0.0659,0.312558 0.66146,0 z m 2.97656,0.0822 c -0.25466,-0.06655 -0.67138,-0.06655 -0.92604,0 -0.25466,0.06655 -0.0463,0.121 0.46302,0.121 0.50932,0 0.71768,-0.05445 0.46302,-0.121 z m 1.98941,0.0088 c -0.17913,-0.07248 -0.53632,-0.07689 -0.79375,-0.0098 -0.25743,0.06708 -0.11087,0.126382 0.3257,0.131774 0.43656,0.0054 0.64718,-0.0495 0.46805,-0.12197 z"
       id="path226" /><path
       style="fill:#65efef;fill-opacity:1;stroke:#000000;stroke-width:2.27237;stroke-opacity:0"
       d="m 91.676317,292.16235 c 10.852333,11.86726 21.704663,0.7912 21.704663,0.7912 z"
       id="path2" /></g></svg>
