<?xml version="1.0" encoding="UTF-8"?>
<svg width="1200pt" height="1200pt" version="1.1" viewBox="0 0 1200 1200" xmlns="http://www.w3.org/2000/svg">
 <path d="m859.45 538.31c-12.047-12.328-23.016-25.688-34.969-38.062-4.5938 29.531 8.5312 74.531 33.891 92.438-8.9531-13.641-13.594-29.016-11.766-45.047 0.79688 15.375 8.3438 28.875 16.312 41.297-0.89062-8.25-1.4531-16.125-1.4531-24.469-1.8281-8.5781-2.4844-17.391-1.9688-26.156zm-518.9 0c12.047-12.328 22.969-25.688 34.969-38.062 4.5938 29.531-8.5781 74.531-33.891 92.438 8.9531-13.641 13.594-29.016 11.812-45.047-0.79688 15.375-8.3438 28.875-16.359 41.297 0.89062-8.25 1.4531-16.125 1.5-24.469 1.8281-8.5781 2.4844-17.391 1.9688-26.156zm-111.98 110.95c39.984-12.75 67.781-35.719 84.609-72.141-19.688 33.469-46.922 53.438-84 65.812 24-17.062 46.969-43.641 64.828-67.172 17.156-10.172 29.203-20.484 40.828-31.734-3.0469 58.125-49.312 100.36-106.27 105.28zm103.03-63.891c-0.75 6.9844-2.1094 13.312-3.6562 20.109 5.9531-2.0625 10.594-3.6562 15.984-7.2656-7.875 21.609-21.609 55.688-40.266 69.703 10.172-14.438 15.609-31.078 18.938-48.141-5.3906 17.391-14.859 32.766-25.547 47.297 0.09375-11.719-1.4531-23.719-5.625-34.734 17.062-11.812 31.406-27.984 40.125-46.969zm-104.06 69.844c15.75-1.1719 31.266-5.4375 45.516-12.234-10.031 20.438-21.188 39.328-34.266 56.297-46.266 30.422-117.7 28.406-168.74 11.203 54.094 8.8594 110.25 0.1875 153.42-28.078-50.438 25.453-104.62 31.453-159.66 21 58.781-2.8594 113.11-17.625 163.74-48.234zm54.234-16.781 4.6875-2.8125c5.25 14.672 5.25 29.016 4.0781 44.297 2.7656-0.70312 5.4844-1.3125 8.1094-2.4375-3 14.25-7.2656 27.984-12.797 41.156-25.078 28.5-65.203 44.438-102.42 48.797 37.406-12.094 68.625-38.438 86.438-70.359-25.688 32.578-58.312 58.125-99.516 67.922 53.391-27.984 86.203-73.031 111.42-126.61zm-66.281 17.062c-60.703 34.125-118.41 42.797-186.89 42.609 59.109 31.453 137.44 44.391 199.82 13.875-27.984 31.219-53.484 45.984-91.828 61.688 51.609 2.9062 101.53-4.4062 142.13-39.656-14.016 26.438-28.547 42.938-50.484 62.531 43.875-5.25 68.156-17.297 95.344-52.781-8.0156 22.172-15.188 36.562-29.344 54.938 32.812-11.859 61.641-31.5 81.703-60.562-1.9688 12.844-4.875 24.656-8.2969 37.078 23.953-16.219 38.062-36.797 49.453-63.328-0.375 6.5625-1.125 12.844-2.0156 19.359 23.578-11.812 35.859-38.625 40.969-63.562 1.875 3.7031 3.7031 6.2344 6.2812 9.375 18.891-11.672 21.75-31.969 21.797-52.641 4.2188 5.1094 7.9219 8.4844 13.641 11.812 11.016-7.5938 14.109-22.547 15-35.156 8.9531 6.375 17.156 10.359 27.375 14.109 3.4219-9.1875 3.6094-16.266 3.2812-26.016 5.5781 1.0781 11.062 1.3125 16.688 1.3125 7.875-7.9219 6-18 2.5781-27.609 5.9531 0.84375 11.203-0.23438 16.781-2.2031 5.25-7.3125-0.1875-16.875-4.2188-23.484 6.9844-0.09375 12.609-2.6719 15.797-9.2344-1.6875-10.734-6.4219-18.516-17.016-22.219-42 3.8438-99.234-26.719-51.891-52.078-74.531-142.45-181.5 43.5-225.14 107.11-26.766 39-68.766 86.016-102.19 92.812 6.7969 0.70312 13.734 1.6406 20.578 1.8281zm87.047-92.25c45.094-62.438 142.69-236.86 211.82-111.89-42.656 27.75 4.9688 59.109 48.844 61.547-39.656 7.5469-77.953-13.172-73.688-54.703-2.5312 5.6719-4.6875 16.922-0.9375 27.75-0.75 2.9531-2.1094 6.7031-3.75 10.172 0.28125-5.4375-1.4531-11.484-3.3281-16.125 0.5625 3.8906-0.5625 11.859-2.4844 15.047-3.0469-16.547-1.8281-33.891 2.5312-50.062-109.64 12.422-107.06 67.641-179.06 118.31zm272.53-50.719c4.4531 2.25 7.2656 5.8125 8.9062 10.453-3 1.5469-7.2188 1.125-9.9375 1.0781 2.4375 2.1562 5.2969 3.4688 9.2812 4.9219-4.4531 3.5156-11.906 2.8125-16.875 0.60938 2.25-1.9219 3.2812-3.8906 4.6875-6.375-1.7344-1.7812-3.375-3.4219-5.4375-4.875 4.4062-1.3594 7.6875-3.3281 9.375-5.7656zm-7.2656 23.719c3.6094 5.4844 6.3281 10.078 7.9688 16.406-5.25-4.5-13.359-7.6875-19.828-10.078 6.2812 5.1094 12.141 10.172 15.75 14.297-14.25 2.625-23.297-6.5625-29.578-18.375 0.32812-1.5938 0.51562-3.2344 0.51562-4.875 5.8594 0.84375 11.812 1.4531 17.766-0.70312 2.25 1.4531 4.7812 2.5781 7.3594 3.2812zm-78.844-35.156c1.1719-2.3438 2.2969-4.8281 3.2344-7.3125 3.8438 6.5625 9.2344 11.719 15.328 15.703 0.42188 5.1094 0.14062 11.203-1.7344 16.078-4.3125-5.3438-5.8594-10.406-7.4062-15.469-1.3125 3.4688-0.79688 9.2344 0.46875 13.359-5.5781-6.2344-8.3438-16.359-9.8906-22.312zm-4.2188 6.6562c1.9219 6.4688 5.0156 14.578 10.406 20.203-1.5469 4.5-4.0781 8.625-7.5938 11.859 0.46875-7.0781-2.3438-13.969-5.2031-20.672 1.6875 8.4844 0.32812 16.875-0.79688 22.031-3.8906-3.8906-7.5938-9.4219-10.312-14.203 0.89062-3.9844 1.2656-8.0625 1.0312-12.141 1.5-2.8125 2.625-5.7188 3.5625-8.7656l2.4844 6.1406c2.8594-1.4062 4.2188-1.875 6.375-4.5zm-12.797-22.359c0.1875 2.625 0.46875 5.25 0.84375 7.7812-1.0781 7.0312-3.6094 17.766-8.5312 23.203 0.375-5.5781-0.375-9.3281-3.0938-16.266 0.9375 8.625-1.875 15.75-2.9531 18.516-3.3281-2.5312-7.6406-12.375-8.9531-15.422l0.79688-2.1094c9.1406-2.5781 16.922-7.5 21.938-15.656zm1.875-33.609c-1.2656 6.1406-1.7344 8.8594-2.0156 15.891-2.2969 10.688-4.5938 18.422-14.953 24.281 3.375-5.7656 4.3594-11.062 3.8906-17.906-0.79688 5.2969-4.5938 10.734-8.1094 13.641 0.28125-4.2188 0.1875-8.7656-0.42188-13.641 3.1875-6.375 5.2031-13.219 5.625-19.594 5.0625-1.0312 10.359-1.9219 15.984-2.6719zm-93.234 43.406c10.734-10.5 22.641-19.969 37.828-27.516-0.42188 25.734-6.6562 47.906-27.656 64.172 4.5-6.6562 6.5625-14.344 7.125-21.797-3.5625 8.9062-10.5 18.234-17.906 25.406 2.8125-14.25 3.1406-28.453 0.5625-40.266zm43.734-30.328c8.1562-3.5625 17.203-6.6562 27.469-9.0938-1.6406 14.484-12.422 32.156-26.859 36.891 5.0156-4.1719 8.625-10.922 9.0469-16.594-3.1406 4.6406-7.3594 8.8125-11.062 10.547 1.0312-6.8438 1.3125-13.969 1.4062-21.75zm22.312 86.062c-3.2812-4.1719-7.0312-9.5156-8.9531-14.438 1.4062-6.0469 2.0156-12.188 1.9688-18.375 2.4844-2.6719 4.2188-5.2031 6.1875-8.2031 2.9062 5.9062 9 15.281 13.359 16.594 2.2031-0.375 5.1562-2.6719 6.8906-3.9844-1.4531 10.266-6.7969 20.109-13.547 27.891 0.375-6.7031 0.84375-13.641-2.3906-20.297 0.42188 9-1.7344 14.859-3.4688 20.859zm-37.172 16.828c-1.0781-5.9062-0.5625-13.688 0-19.594 1.2656-3.75 2.2031-7.5938 2.7656-11.531 8.25-3.8438 15.469-8.0156 21.422-12.938-1.2656 14.672-5.4844 27.141-15.328 38.156 2.0156-5.5781 2.8125-11.672 1.9219-17.484-2.0156 8.2969-6.8438 18.047-10.781 23.344zm-29.531 9.8438c-3.9375-5.5781-5.25-16.266-5.2969-22.922 1.125-3.1406 2.1562-6.3281 3.0469-9.5156 11.766-3.8906 21.656-11.438 29.25-21.188 0.89062 17.953-6.3281 35.109-18.656 48.188 2.25-6.9375 3.9844-14.25 2.625-21.328-0.51562 6.6562-9.9844 24.375-10.969 26.766zm-44.578 98.156c0.75-13.547 0.70312-24.422-3.5156-35.016 9.375-17.438 16.406-37.031 20.906-49.922 6.75-6.75 12.469-15.234 17.016-24.656 1.4531 8.625 3.6562 15.234 11.344 19.969l1.3125-0.98438c-5.9062 31.594-17.109 66.938-40.266 90.234 10.5-20.203 17.906-42.797 21.516-64.734-6.3281 23.25-17.156 44.344-28.359 65.109zm46.125-8.5781c4.875-15.422 8.9531-33.984 8.7656-47.625-3.8438 16.594-9.375 33.703-15.188 48.422-2.6719-6.2812-5.7656-14.25-5.9531-21.094 10.406-22.266 16.312-43.359 20.344-67.641 5.3438-5.0625 9.9375-10.828 13.641-17.156 0.28125 6.0469 0.79688 12.516 7.3594 14.391l1.7344-1.2656c-2.8594 29.062-9.8906 70.219-30.75 91.969zm44.25-24.938c2.2969-15.562 2.9531-31.312-0.14062-46.922 1.0312 15.562-3.4688 31.547-5.7656 46.969-4.6406-3.9844-9.375-8.5312-11.531-13.547 5.7188-19.125 8.625-38.953 10.312-58.828 7.4531-7.0312 13.125-15.609 16.641-25.266l3.4219 5.2969c0.51562 23.344 4.0312 77.578-12.938 92.25zm32.719-15.891c1.5469-16.547 1.9688-34.781-2.0625-50.391 1.5469 16.594-2.0625 36.188-4.0781 52.688-3.75-2.5312-7.8281-5.3438-10.453-8.4844 4.0781-20.016 3.3281-41.906 2.7656-62.297l3.8906 4.5469c9.75-8.6719 15.281-15.844 20.391-27.984 1.3125 2.0625 2.8125 4.1719 4.3594 6.1875 3.8906 27.891 5.7188 63.656-14.859 85.781zm40.688-39.938c-0.65625-9.2344-3.75-19.031-8.625-26.156 3.8438 8.9531 2.8594 20.391 3 29.438-4.4062-4.9219-8.2969-9.375-11.812-15.047 0.14062-9.0938-0.51562-18.234-1.5469-27 1.1719 0.84375 2.2031 1.2656 3.5156 1.8281 3.0469-1.5938 5.4844-3.0938 8.0156-5.4844 3.1875 4.3125 6.6562 8.3438 10.359 12.094 0.1875 9.5156-0.046875 21.141-2.8125 30.375zm32.156-22.5c-3.375-7.2656-9.2812-14.625-15.188-19.125 4.0312 6.2344 8.3906 16.312 10.266 22.406-12.422-6.75-22.547-16.359-30.797-27.75 1.7344-2.3438 3.1406-4.9688 4.2656-7.6875 1.9219 1.125 3.5625 1.7344 5.625 2.3438 2.7656-1.4531 3.8906-2.7188 5.25-5.625 4.5 4.5469 10.125 9.8438 16.125 13.219 2.7656 6.8906 4.9219 14.719 4.4531 22.219zm5.4375-29.719c-2.0625-3.3281-8.5312-8.4375-11.578-9.8438 1.7812 1.7812 6.5625 10.734 6.9375 13.453-7.0312-3.0469-14.25-10.359-19.312-15.656 0.51562-2.7656 0.84375-5.9531 0.79688-9.3281 5.5781 2.7656 11.625 4.6875 17.719 5.9062 4.0312 4.2188 5.8125 9.6562 5.4844 15.469zm22.266 47.766c-3.3281-5.4375-9.2344-10.641-13.641-13.359 4.1719 4.3125 6.8906 12.094 8.2969 15.891-11.391-0.84375-22.266-3.2812-30.281-12.234 3.4688 1.875 6.9375 3.375 10.5 4.9219 4.6406-11.766 4.2188-20.531 0.28125-32.531 1.7344 0.375 3.1875 0.46875 4.9219 0.46875 4.1719 6.8438 9.2344 12.328 16.547 15.797 2.3906 5.7188 5.5781 14.859 3.3281 21.141zm-26.484 23.859c-9.8906-4.5469-20.344-11.203-27.188-19.734 2.0156-7.8281 2.4844-16.547 2.5312-24.609l3.8906 3.1875c5.0156 11.578 13.781 19.266 25.734 23.016 0.1875 4.875 0.1875 9.7031-0.23438 14.625-4.1719-7.7812-11.109-14.484-17.438-19.688 4.9688 7.2188 10.172 17.297 12.703 23.25zm-37.5 21.422c-6.7969-5.7656-12.844-15.188-17.578-22.969 2.0625-6.8438 2.9531-13.031 3.75-20.062 4.9219 6.1406 9.75 11.297 15.328 16.828 3.1406-2.8125 4.7812-4.5 6.6094-8.5312 1.2656 1.3594 2.5781 2.6719 3.9844 3.9375-0.23438 8.9531-1.8281 19.547-6.1406 27.562-0.046875-4.7812-3.375-13.969-6.2344-18.094 1.3594 5.25 0.84375 16.828 0.28125 21.328zm-33.375 38.531c-4.7344-8.9531-7.6406-20.484-9.75-30.422l3.0469 2.0625c9.2344-7.5 15.328-15.047 19.969-26.109l3.1875 4.875c0.65625 15.094 0 36.703-10.359 48.938 1.5469-8.7188 0.1875-16.922-2.2969-25.266 0.84375 8.9531-1.5 18.844-3.75 25.922zm-38.484 39.469c0.42188-18.375-0.9375-37.078-3.375-55.312l1.4531 1.2656c11.344-4.0781 15.891-13.219 19.031-24.281 1.4531 1.3125 3 2.5781 4.6406 3.75 1.7344 9.1406 3.8906 17.766 6.75 26.578-2.0625 19.688-12.281 46.219-26.625 60.469 7.2188-19.781 13.219-39.938 11.766-61.219-1.3125 12.094-9.4219 35.672-13.641 48.75zm-44.297 49.172c5.8125-27.516 7.0312-55.453 7.0781-83.484 8.7188-9.1875 15.141-21.422 19.875-34.734 2.0625 2.9062 4.6406 5.5781 7.2656 8.0156 2.4844 16.453 3.8438 32.766 4.2656 49.406-4.9219 18.234-16.359 39.094-28.125 54.141 9.1406-18.844 12.094-39.656 11.766-60.234-4.2656 23.953-9.4219 46.359-22.125 66.938zm-64.547 24.984c15.141-28.031 27.469-68.672 31.875-99.844 7.125-7.125 13.125-15.281 18.234-24.094 2.1562 8.7188 6.0938 16.922 9.7969 25.078l5.8125-4.1719c-0.14062 15.797-0.75 31.266-2.3438 46.969-10.219 21.328-33.562 42.422-53.719 55.078 22.781-22.172 36.75-49.875 38.578-81.328-6.7031 32.25-23.438 60.422-48.281 82.359zm-60.469 0.46875c27.094-29.859 43.922-66.609 51.469-106.12 8.5312-5.8125 16.078-15.281 22.594-26.156 3.6562 13.547 1.3125 31.969 0.375 46.312 3.75-2.625 7.4531-5.1094 10.969-8.0156-2.1094 11.812-5.4375 25.594-9.7031 39.469-20.484 28.688-38.672 50.672-74.438 60.516 28.031-16.781 50.203-39.375 59.062-70.406-12.703 28.922-34.359 48.422-60.375 64.359zm127.08-307.5c17.766-19.969 56.062-45.375 92.438-44.766-31.594-9.2812-75.328 13.969-92.438 44.766zm175.13 47.672c1.2188 0.375 2.2969 0.79688 3.2812 1.2656-1.6875 1.125-11.25 2.1094-12.938 2.2031 0.70313 0.89062 9.75 3.6094 12.516 3.6562-5.2031 2.0625-11.062 1.2656-16.734 0.42188-0.51562-2.6719-1.4531-5.2969-2.7656-7.6875 5.5312 0.5625 11.156 0.65625 16.688 0.09375zm-143.21 6.75c-0.09375-3.4688-0.32812-6.6562-0.9375-10.078 3.5625-5.8594 6.1406-11.484 7.9688-17.156 11.531-0.9375 20.156-8.1562 27-16.922 0.14062 19.453-8.6719 32.062-24.703 42.047 4.2188-5.7188 6.9375-12.562 8.625-18.844-5.0625 7.5938-11.062 15.281-17.906 20.953zm558.52 122.44c-39.984-12.75-67.781-35.719-84.609-72.141 19.688 33.469 46.922 53.438 84 65.812-24-17.062-46.969-43.641-64.828-67.172-17.156-10.172-29.25-20.484-40.828-31.734 3.0469 58.125 49.312 100.36 106.27 105.28zm-103.03-63.891c0.75 6.9844 2.0625 13.312 3.6094 20.109-5.9531-2.0625-10.594-3.6562-15.984-7.2656 7.875 21.609 21.609 55.688 40.266 69.703-10.172-14.438-15.609-31.078-18.938-48.141 5.3906 17.391 14.859 32.766 25.547 47.297-0.09375-11.719 1.4531-23.719 5.625-34.734-17.109-11.812-31.453-27.984-40.125-46.969zm104.06 69.844c-15.75-1.1719-31.266-5.4375-45.516-12.234 10.031 20.438 21.188 39.328 34.266 56.297 46.266 30.422 117.7 28.406 168.74 11.203-54.094 8.8594-110.25 0.1875-153.42-28.078 50.438 25.453 104.62 31.453 159.66 21-58.781-2.8594-113.11-17.625-163.74-48.234zm-54.234-16.781-4.6875-2.8125c-5.25 14.672-5.25 29.016-4.0781 44.297-2.7656-0.70312-5.4844-1.3125-8.1094-2.4375 3 14.25 7.2656 27.984 12.797 41.156 25.078 28.5 65.203 44.438 102.42 48.797-37.406-12.094-68.625-38.438-86.438-70.359 25.688 32.578 58.312 58.125 99.516 67.922-53.391-27.984-86.203-73.031-111.42-126.61zm66.281 17.062c60.703 34.125 118.45 42.797 186.89 42.609-59.156 31.453-137.44 44.391-199.82 13.875 27.984 31.219 53.484 45.984 91.828 61.688-51.609 2.9062-101.53-4.4062-142.13-39.656 14.016 26.438 28.547 42.938 50.484 62.531-43.875-5.25-68.156-17.297-95.344-52.781 8.0156 22.172 15.188 36.562 29.344 54.938-32.812-11.859-61.641-31.5-81.703-60.562 1.9688 12.844 4.875 24.656 8.2969 37.078-23.953-16.219-38.062-36.797-49.453-63.328 0.375 6.5625 1.125 12.844 1.9688 19.359-23.531-11.812-35.859-38.625-40.969-63.562-1.875 3.7031-3.7031 6.2344-6.2812 9.375-18.891-11.672-21.75-31.969-21.797-52.641-4.2656 5.1094-7.9219 8.4844-13.641 11.812-11.016-7.5938-14.109-22.547-15.047-35.156-8.9531 6.375-17.156 10.359-27.375 14.109-3.4688-9.1875-3.6094-16.266-3.2812-26.016-5.5781 1.0781-11.062 1.3125-16.688 1.3125-7.875-7.9219-6-18-2.5781-27.609-5.9531 0.84375-11.203-0.23438-16.781-2.2031-5.25-7.3125 0.1875-16.875 4.2188-23.484-6.9844-0.09375-12.609-2.6719-15.797-9.2344 1.6875-10.734 6.4219-18.516 17.016-22.219 42 3.8438 99.234-26.719 51.891-52.078 74.531-142.45 181.5 43.5 225.14 107.11 26.766 39 68.766 86.016 102.19 92.812-6.7969 0.70312-13.734 1.6406-20.578 1.8281zm-87.047-92.25c-45.094-62.438-142.74-236.86-211.82-111.89 42.656 27.75-4.9688 59.109-48.844 61.547 39.656 7.5469 77.953-13.172 73.688-54.703 2.4844 5.6719 4.6875 16.922 0.9375 27.75 0.75 2.9531 2.1094 6.7031 3.75 10.172-0.28125-5.4375 1.4531-11.484 3.3281-16.125-0.5625 3.8906 0.5625 11.859 2.4844 15.047 3.0469-16.547 1.7812-33.891-2.5312-50.062 109.69 12.422 107.06 67.641 179.06 118.31zm-272.53-50.719c-4.4531 2.25-7.2656 5.8125-8.9062 10.453 3 1.5469 7.2188 1.125 9.9375 1.0781-2.4375 2.1562-5.2969 3.4688-9.2344 4.9219 4.4531 3.5156 11.906 2.8125 16.875 0.60938-2.2031-1.9219-3.2812-3.8906-4.6406-6.375 1.7344-1.7812 3.375-3.4219 5.3906-4.875-4.4062-1.3594-7.6875-3.3281-9.375-5.7656zm7.2656 23.719c-3.6094 5.4844-6.3281 10.078-8.0156 16.406 5.25-4.5 13.359-7.6875 19.828-10.078-6.2344 5.1094-12.141 10.172-15.75 14.297 14.25 2.625 23.297-6.5625 29.531-18.375-0.32812-1.5938-0.46875-3.2344-0.51562-4.875-5.8594 0.84375-11.812 1.4531-17.766-0.70312-2.25 1.4531-4.7812 2.5781-7.3594 3.2812zm78.844-35.156c-1.2188-2.3438-2.2969-4.8281-3.2344-7.3125-3.8438 6.5625-9.2344 11.719-15.328 15.703-0.42188 5.1094-0.14062 11.203 1.7344 16.078 4.2656-5.3438 5.8594-10.406 7.4062-15.469 1.3125 3.4688 0.79688 9.2344-0.42188 13.359 5.5781-6.2344 8.3438-16.359 9.8906-22.312zm4.2188 6.6562c-1.9219 6.4688-5.0156 14.578-10.406 20.203 1.5469 4.5 4.0781 8.625 7.5469 11.859-0.46875-7.0781 2.3438-13.969 5.25-20.672-1.6875 8.4844-0.32812 16.875 0.79688 22.031 3.8906-3.8906 7.5938-9.4219 10.266-14.203-0.84375-3.9844-1.2656-8.0625-1.0312-12.141-1.5-2.8125-2.625-5.7188-3.5625-8.7656l-2.4844 6.1406c-2.8594-1.4062-4.2188-1.875-6.375-4.5zm12.75-22.359c-0.1875 2.625-0.46875 5.25-0.84375 7.7812 1.0781 7.0312 3.6094 17.766 8.5312 23.203-0.375-5.5781 0.375-9.3281 3.0938-16.266-0.9375 8.625 1.875 15.75 2.9531 18.516 3.3281-2.5312 7.6406-12.375 8.9531-15.422l-0.79688-2.1094c-9.1406-2.5781-16.969-7.5-21.938-15.656zm-1.875-33.609c1.2656 6.1406 1.7344 8.8594 2.0156 15.891 2.2969 10.688 4.5938 18.422 14.953 24.281-3.375-5.7656-4.3594-11.062-3.8906-17.906 0.79688 5.2969 4.5938 10.734 8.1094 13.641-0.28125-4.2188-0.1875-8.7656 0.42188-13.641-3.1875-6.375-5.2031-13.219-5.625-19.594-5.0156-1.0312-10.359-1.9219-15.984-2.6719zm93.234 43.406c-10.734-10.5-22.641-19.969-37.828-27.516 0.42188 25.734 6.6562 47.906 27.656 64.172-4.5-6.6562-6.5625-14.344-7.125-21.797 3.5625 8.9062 10.5 18.234 17.906 25.406-2.8125-14.25-3.1406-28.453-0.5625-40.266zm-43.734-30.328c-8.1562-3.5625-17.203-6.6562-27.469-9.0938 1.6406 14.484 12.422 32.156 26.859 36.891-5.0156-4.1719-8.625-10.922-9.0469-16.594 3.1406 4.6406 7.3594 8.8125 11.062 10.547-1.0312-6.8438-1.3594-13.969-1.4062-21.75zm-22.312 86.062c3.2812-4.1719 7.0312-9.5156 8.9531-14.438-1.4062-6.0469-2.0156-12.188-1.9688-18.375-2.4844-2.6719-4.2188-5.2031-6.1875-8.2031-2.9062 5.9062-9 15.281-13.359 16.594-2.2031-0.375-5.1562-2.6719-6.8906-3.9844 1.4531 10.266 6.7969 20.109 13.594 27.891-0.375-6.7031-0.84375-13.641 2.3906-20.297-0.42188 9 1.7344 14.859 3.4688 20.859zm37.172 16.828c1.0312-5.9062 0.5625-13.688 0-19.594-1.2656-3.75-2.2031-7.5938-2.7656-11.531-8.25-3.8438-15.469-8.0156-21.422-12.938 1.2656 14.672 5.4844 27.141 15.328 38.156-2.0156-5.5781-2.8125-11.672-1.9219-17.484 2.0156 8.2969 6.8438 18.047 10.781 23.344zm29.531 9.8438c3.9375-5.5781 5.25-16.266 5.2969-22.922-1.125-3.1406-2.1562-6.3281-3.0469-9.5156-11.766-3.8906-21.656-11.438-29.25-21.188-0.84375 17.953 6.3281 35.109 18.656 48.188-2.25-6.9375-3.9844-14.25-2.625-21.328 0.51562 6.6562 9.9844 24.375 10.969 26.766zm44.578 98.156c-0.75-13.547-0.70312-24.422 3.5156-35.016-9.375-17.438-16.406-37.031-20.906-49.922-6.75-6.75-12.469-15.234-17.016-24.656-1.5 8.625-3.6562 15.234-11.344 19.969l-1.3125-0.98438c5.9062 31.594 17.109 66.938 40.266 90.234-10.5-20.203-17.906-42.797-21.516-64.734 6.3281 23.25 17.156 44.344 28.359 65.109zm-46.125-8.5781c-4.9219-15.422-8.9531-33.984-8.7656-47.625 3.8438 16.594 9.375 33.703 15.188 48.422 2.6719-6.2812 5.7656-14.25 5.9531-21.094-10.406-22.266-16.312-43.359-20.344-67.641-5.3438-5.0625-9.8906-10.828-13.641-17.156-0.28125 6.0469-0.84375 12.516-7.3594 14.391l-1.7344-1.2656c2.8594 29.062 9.8906 70.219 30.75 91.969zm-44.25-24.938c-2.2969-15.562-2.9531-31.312 0.14062-46.922-1.0312 15.562 3.4688 31.547 5.7656 46.969 4.6406-3.9844 9.375-8.5312 11.531-13.547-5.7188-19.125-8.625-38.953-10.312-58.828-7.4531-7.0312-13.125-15.609-16.641-25.266l-3.4219 5.2969c-0.51562 23.344-4.0312 77.578 12.938 92.25zm-32.719-15.891c-1.5469-16.547-2.0156-34.781 2.0625-50.391-1.5469 16.594 2.0625 36.188 4.0312 52.688 3.75-2.5312 7.875-5.3438 10.453-8.4844-4.0781-20.016-3.2812-41.906-2.7656-62.297l-3.8906 4.5469c-9.75-8.6719-15.281-15.844-20.391-27.984-1.3125 2.0625-2.8125 4.1719-4.3594 6.1875-3.9375 27.891-5.7188 63.656 14.859 85.781zm-40.734-39.938c0.65625-9.2344 3.75-19.031 8.625-26.156-3.7969 8.9531-2.8594 20.391-3 29.438 4.4062-4.9219 8.2969-9.375 11.859-15.047-0.14062-9.0938 0.51562-18.234 1.5469-27-1.1719 0.84375-2.2031 1.2656-3.4688 1.8281-3.0469-1.5938-5.4844-3.0938-8.0156-5.4844-3.1875 4.3125-6.6562 8.3438-10.359 12.094-0.1875 9.5156 0.046875 21.141 2.8125 30.375zm-32.156-22.5c3.375-7.2656 9.2812-14.625 15.188-19.125-4.0312 6.2344-8.3906 16.312-10.266 22.406 12.422-6.75 22.547-16.359 30.797-27.75-1.7344-2.3438-3.1406-4.9688-4.2656-7.6875-1.875 1.125-3.5625 1.7344-5.625 2.3438-2.7656-1.4531-3.8906-2.7188-5.25-5.625-4.5 4.5469-10.125 9.8438-16.125 13.219-2.7656 6.8906-4.9219 14.719-4.4531 22.219zm-5.4375-29.719c2.0625-3.3281 8.4844-8.4375 11.578-9.8438-1.7812 1.7812-6.5625 10.734-6.9375 13.453 7.0312-3.0469 14.25-10.359 19.312-15.656-0.51562-2.7656-0.84375-5.9531-0.79688-9.3281-5.5781 2.7656-11.625 4.6875-17.719 5.9062-4.0312 4.2188-5.8125 9.6562-5.4844 15.469zm-22.266 47.766c3.375-5.4375 9.2812-10.641 13.641-13.359-4.1719 4.3125-6.8906 12.094-8.3438 15.891 11.438-0.84375 22.312-3.2812 30.281-12.234-3.4219 1.875-6.8906 3.375-10.5 4.9219-4.6406-11.766-4.2188-20.531-0.28125-32.531-1.7344 0.375-3.1875 0.46875-4.9219 0.46875-4.2188 6.8438-9.2344 12.328-16.547 15.797-2.3906 5.7188-5.5781 14.859-3.375 21.141zm26.484 23.859c9.8906-4.5469 20.344-11.203 27.188-19.734-2.0156-7.8281-2.4844-16.547-2.5312-24.609l-3.8906 3.1875c-5.0156 11.578-13.781 19.266-25.734 23.016-0.1875 4.875-0.1875 9.7031 0.23438 14.625 4.1719-7.7812 11.062-14.484 17.438-19.688-4.9688 7.2188-10.219 17.297-12.703 23.25zm37.5 21.422c6.7969-5.7656 12.844-15.188 17.578-22.969-2.0625-6.8438-2.9531-13.031-3.75-20.062-4.9219 6.1406-9.7031 11.297-15.328 16.828-3.1406-2.8125-4.7812-4.5-6.6094-8.5312-1.2656 1.3594-2.625 2.6719-3.9844 3.9375 0.23438 8.9531 1.8281 19.547 6.1406 27.562 0.046875-4.7812 3.375-13.969 6.1875-18.094-1.3594 5.25-0.84375 16.828-0.23438 21.328zm33.375 38.531c4.7344-8.9531 7.6406-20.484 9.75-30.422l-3.0469 2.0625c-9.2344-7.5-15.328-15.047-19.969-26.109l-3.1875 4.875c-0.65625 15.094 0 36.703 10.359 48.938-1.5469-8.7188-0.1875-16.922 2.2969-25.266-0.84375 8.9531 1.5 18.844 3.75 25.922zm38.438 39.469c-0.42188-18.375 0.9375-37.078 3.375-55.312l-1.5 1.2656c-11.344-4.0781-15.891-13.219-19.031-24.281-1.4531 1.3125-3 2.5781-4.6406 3.75-1.7344 9.1406-3.8906 17.766-6.75 26.578 2.0625 19.688 12.234 46.219 26.625 60.469-7.2188-19.781-13.172-39.938-11.766-61.219 1.3125 12.094 9.4219 35.672 13.641 48.75zm44.297 49.172c-5.8125-27.516-7.0312-55.453-7.0781-83.484-8.7188-9.1875-15.094-21.422-19.828-34.734-2.0625 2.9062-4.6406 5.5781-7.2656 8.0156-2.4844 16.453-3.8438 32.766-4.2656 49.406 4.9219 18.234 16.359 39.094 28.125 54.141-9.1406-18.844-12.094-39.656-11.766-60.234 4.2656 23.953 9.4219 46.359 22.125 66.938zm64.547 24.984c-15.141-28.031-27.469-68.672-31.875-99.844-7.125-7.125-13.125-15.281-18.234-24.094-2.1562 8.7188-6.0938 16.922-9.8438 25.078l-5.7656-4.1719c0.14062 15.797 0.75 31.266 2.2969 46.969 10.266 21.328 33.609 42.422 53.719 55.078-22.781-22.172-36.75-49.875-38.578-81.328 6.7031 32.25 23.438 60.422 48.281 82.359zm60.469 0.46875c-27.094-29.859-43.922-66.609-51.469-106.12-8.5312-5.8125-16.078-15.281-22.594-26.156-3.6094 13.547-1.3125 31.969-0.375 46.312-3.75-2.625-7.4531-5.1094-10.969-8.0156 2.1094 11.812 5.4375 25.594 9.7031 39.469 20.531 28.688 38.672 50.672 74.438 60.516-28.031-16.781-50.203-39.375-59.062-70.406 12.703 28.922 34.359 48.422 60.328 64.359zm-127.08-307.5c-17.766-19.969-56.062-45.375-92.438-44.766 31.594-9.2812 75.328 13.969 92.438 44.766zm-175.13 47.672c-1.2188 0.375-2.2969 0.79688-3.2812 1.2656 1.6875 1.125 11.25 2.1094 12.938 2.2031-0.70312 0.89062-9.75 3.6094-12.516 3.6562 5.2031 2.0625 11.062 1.2656 16.734 0.42188 0.51562-2.6719 1.4531-5.2969 2.7656-7.6875-5.5312 0.5625-11.156 0.65625-16.688 0.09375zm143.21 6.75c0.09375-3.4688 0.32812-6.6562 0.9375-10.078-3.5625-5.8594-6.1406-11.484-7.9688-17.156-11.531-0.9375-20.156-8.1562-27-16.922-0.14062 19.453 8.6719 32.062 24.703 42.047-4.2188-5.7188-6.9375-12.562-8.625-18.844 5.1094 7.5938 11.062 15.281 17.906 20.953z"/>
</svg>
